<svg width="375" height="530" viewBox="0 0 375 530" fill="none" xmlns="http://www.w3.org/2000/svg">
<g filter="url(#filter0_f_1224_10165)">
<path d="M236.042 562.684C278.526 565.185 320.058 554.621 355.252 532.363C390.445 510.104 417.677 477.177 433.415 437.853C449.154 398.528 452.673 354.619 443.516 311.821C434.36 269.022 412.95 229.308 382.063 197.829C351.176 166.35 312.238 144.557 270.297 135.278C228.356 125.999 185.347 129.66 146.849 145.788C108.35 161.916 76.1373 189.766 54.388 225.727C32.6387 261.688 22.356 304.1 24.8735 347.464L159.266 346.95C158.348 331.124 162.1 315.646 170.038 302.522C177.975 289.398 189.731 279.234 203.781 273.348C217.832 267.462 233.528 266.126 248.834 269.512C264.141 272.899 278.351 280.852 289.623 292.34C300.896 303.829 308.709 318.322 312.051 333.942C315.393 349.561 314.108 365.586 308.365 379.938C302.621 394.289 292.683 406.306 279.839 414.429C266.995 422.552 251.837 426.408 236.333 425.495L236.042 562.684Z" fill="url(#paint0_linear_1224_10165)" fill-opacity="0.4"/>
</g>
<path fill-rule="evenodd" clip-rule="evenodd" d="M112.803 303.149C112.803 261.991 146.115 228.625 187.207 228.625C228.3 228.625 261.612 261.991 261.612 303.149V402.515C261.612 443.674 228.3 477.04 187.207 477.04C146.115 477.04 112.803 443.674 112.803 402.515V303.149ZM137.604 396.305C137.604 423.744 159.812 445.988 187.207 445.988C214.602 445.988 236.81 423.744 236.81 396.305V309.36C236.81 281.921 214.602 259.677 187.207 259.677C159.812 259.677 137.604 281.921 137.604 309.36V396.305Z" fill="url(#paint1_linear_1224_10165)"/>
<path fill-rule="evenodd" clip-rule="evenodd" d="M137.524 427.236C96.3657 427.236 63 393.924 63 352.832C63 311.739 96.3657 278.427 137.524 278.427H236.89C278.049 278.427 311.415 311.739 311.415 352.832C311.415 393.924 278.049 427.236 236.89 427.236H137.524ZM230.68 402.435C258.119 402.435 280.363 380.227 280.363 352.832C280.363 325.437 258.119 303.229 230.68 303.229H143.735C116.296 303.229 94.0518 325.437 94.0518 352.832C94.0518 380.227 116.296 402.435 143.735 402.435H230.68Z" fill="url(#paint2_linear_1224_10165)"/>
<defs>
<filter id="filter0_f_1224_10165" x="-105.559" y="0.205551" width="684.118" height="692.898" filterUnits="userSpaceOnUse" color-interpolation-filters="sRGB">
<feFlood flood-opacity="0" result="BackgroundImageFix"/>
<feBlend mode="normal" in="SourceGraphic" in2="BackgroundImageFix" result="shape"/>
<feGaussianBlur stdDeviation="65.03" result="effect1_foregroundBlur_1224_10165"/>
</filter>
<linearGradient id="paint0_linear_1224_10165" x1="414.882" y1="297.638" x2="-2.82563" y2="129.887" gradientUnits="userSpaceOnUse">
<stop stop-color="#5848F5"/>
<stop offset="1" stop-color="#68E2A3"/>
</linearGradient>
<linearGradient id="paint1_linear_1224_10165" x1="187.207" y1="320.628" x2="171.639" y2="479.838" gradientUnits="userSpaceOnUse">
<stop stop-color="#5848F5"/>
<stop offset="1" stop-color="white" stop-opacity="0"/>
</linearGradient>
<linearGradient id="paint2_linear_1224_10165" x1="256.006" y1="398.137" x2="274.524" y2="276.057" gradientUnits="userSpaceOnUse">
<stop stop-color="#5848F5"/>
<stop offset="1" stop-color="white" stop-opacity="0"/>
</linearGradient>
</defs>
</svg>
