<svg width="723" height="388" viewBox="0 0 723 388" fill="none" xmlns="http://www.w3.org/2000/svg">
<g filter="url(#filter0_f_478_4114)">
<path d="M878 270.5C878 217.958 864.251 166.227 837.971 119.889C811.691 73.5508 773.692 34.0363 727.338 4.84546C680.985 -24.3454 627.708 -42.3115 572.228 -47.4615C516.747 -52.6115 460.776 -44.7865 409.27 -24.6795C357.765 -4.57253 312.316 27.1958 276.949 67.8113C241.583 108.427 217.39 156.636 206.514 208.169C195.638 259.701 198.414 312.966 214.597 363.246C230.78 413.526 259.87 459.268 299.291 496.421L539 270.5H878Z" fill="url(#paint0_linear_478_4114)" fill-opacity="0.9"/>
</g>
<path d="M350.556 212.5L220 340.444L220 48L350.556 175.944V212.5Z" fill="url(#paint1_linear_478_4114)"/>
<path d="M512.444 212.5L643 340.444V48L512.444 175.944V212.5Z" fill="url(#paint2_linear_478_4114)"/>
<path d="M643 340.444H220L350.556 212.5H512.444L643 340.444Z" fill="url(#paint3_linear_478_4114)"/>
<path d="M643 48.0001L220 48.0001L350.556 175.945H512.444L643 48.0001Z" fill="url(#paint4_linear_478_4114)"/>
<defs>
<filter id="filter0_f_478_4114" x="-2.09808e-05" y="-249" width="1078" height="945.421" filterUnits="userSpaceOnUse" color-interpolation-filters="sRGB">
<feFlood flood-opacity="0" result="BackgroundImageFix"/>
<feBlend mode="normal" in="SourceGraphic" in2="BackgroundImageFix" result="shape"/>
<feGaussianBlur stdDeviation="100" result="effect1_foregroundBlur_478_4114"/>
</filter>
<linearGradient id="paint0_linear_478_4114" x1="633.975" y1="2.34805" x2="70.0519" y2="259.764" gradientUnits="userSpaceOnUse">
<stop stop-color="#68E2A3"/>
<stop offset="1" stop-color="#0073F9"/>
</linearGradient>
<linearGradient id="paint1_linear_478_4114" x1="220" y1="194.222" x2="426.278" y2="194.222" gradientUnits="userSpaceOnUse">
<stop stop-color="white"/>
<stop offset="1" stop-color="white" stop-opacity="0"/>
</linearGradient>
<linearGradient id="paint2_linear_478_4114" x1="669.111" y1="194.222" x2="457.611" y2="194.222" gradientUnits="userSpaceOnUse">
<stop stop-color="white"/>
<stop offset="1" stop-color="white" stop-opacity="0"/>
</linearGradient>
<linearGradient id="paint3_linear_478_4114" x1="434.111" y1="390.056" x2="434.111" y2="191.611" gradientUnits="userSpaceOnUse">
<stop stop-color="white"/>
<stop offset="1" stop-color="#C4C4C4" stop-opacity="0"/>
</linearGradient>
<linearGradient id="paint4_linear_478_4114" x1="434.111" y1="-17.2777" x2="447.167" y2="220.333" gradientUnits="userSpaceOnUse">
<stop stop-color="white"/>
<stop offset="1" stop-color="#C4C4C4" stop-opacity="0"/>
</linearGradient>
</defs>
</svg>
