<svg width="327" height="429" viewBox="0 0 327 429" fill="none" xmlns="http://www.w3.org/2000/svg">
<g filter="url(#filter0_f_1224_10165)">
<path d="M430.146 335C430.146 301.123 421.281 267.769 404.337 237.892C387.393 208.016 362.892 182.538 333.005 163.717C303.119 144.896 268.768 133.312 232.997 129.992C197.225 126.671 161.137 131.717 127.929 144.681C94.7202 157.645 65.4167 178.128 42.6137 204.315C19.8108 230.502 4.21224 261.585 -2.80018 294.811C-9.81261 328.037 -8.02247 362.38 2.41167 394.799C12.8458 427.217 31.6019 456.709 57.0185 480.664L211.573 335H430.146Z" fill="url(#paint0_linear_1224_10165)" fill-opacity="0.9"/>
</g>
<path d="M114.704 309.167L36 386.296L36 210L114.704 287.13V309.167Z" fill="url(#paint1_linear_1224_10165)"/>
<path d="M212.296 309.167L291 386.296V210L212.296 287.13V309.167Z" fill="url(#paint2_linear_1224_10165)"/>
<path d="M291 386.296H36L114.704 309.167H212.296L291 386.296Z" fill="url(#paint3_linear_1224_10165)"/>
<path d="M291 210L36 210L114.704 287.13H212.296L291 210Z" fill="url(#paint4_linear_1224_10165)"/>
<defs>
<filter id="filter0_f_1224_10165" x="-135.951" y="0.0485077" width="695.048" height="609.567" filterUnits="userSpaceOnUse" color-interpolation-filters="sRGB">
<feFlood flood-opacity="0" result="BackgroundImageFix"/>
<feBlend mode="normal" in="SourceGraphic" in2="BackgroundImageFix" result="shape"/>
<feGaussianBlur stdDeviation="64.4757" result="effect1_foregroundBlur_1224_10165"/>
</filter>
<linearGradient id="paint0_linear_1224_10165" x1="272.809" y1="162.107" x2="-90.785" y2="328.078" gradientUnits="userSpaceOnUse">
<stop stop-color="#68E2A3"/>
<stop offset="1" stop-color="#0073F9"/>
</linearGradient>
<linearGradient id="paint1_linear_1224_10165" x1="36" y1="298.148" x2="160.352" y2="298.148" gradientUnits="userSpaceOnUse">
<stop stop-color="white"/>
<stop offset="1" stop-color="white" stop-opacity="0"/>
</linearGradient>
<linearGradient id="paint2_linear_1224_10165" x1="306.741" y1="298.148" x2="179.241" y2="298.148" gradientUnits="userSpaceOnUse">
<stop stop-color="white"/>
<stop offset="1" stop-color="white" stop-opacity="0"/>
</linearGradient>
<linearGradient id="paint3_linear_1224_10165" x1="165.074" y1="416.204" x2="165.074" y2="296.574" gradientUnits="userSpaceOnUse">
<stop stop-color="white"/>
<stop offset="1" stop-color="#C4C4C4" stop-opacity="0"/>
</linearGradient>
<linearGradient id="paint4_linear_1224_10165" x1="165.074" y1="170.648" x2="172.944" y2="313.889" gradientUnits="userSpaceOnUse">
<stop stop-color="white"/>
<stop offset="1" stop-color="#C4C4C4" stop-opacity="0"/>
</linearGradient>
</defs>
</svg>
