<svg width="207" height="24" viewBox="0 0 207 24" fill="#1C1C1E" xmlns="http://www.w3.org/2000/svg">
    <path d="M8.13911 23.3198L15.8191 15.6398L23.4991 23.3198L31.1791 15.6398L38.8591 23.3198L46.5391 15.6398L31.1791 0.279785L23.4991 7.95979L15.8191 0.279785L0.459106 15.6398L8.13911 23.3198Z" fill="#1C1C1E"/>
    <path d="M80.3931 0.599785H76.7451L68.7131 13.2718L60.7451 0.599785H57.2891V22.9998H60.6811V6.10379L67.4011 16.9518H69.9931L77.0651 6.03979V22.9998H80.3931V0.599785Z" fill="#1C1C1E"/>
    <path d="M92.3984 23.4478C96.6544 23.4478 98.5104 21.0478 99.4704 19.2238L96.7184 17.8158C96.0464 19.2878 94.9584 20.5678 92.4624 20.5678C89.8064 20.5678 87.8544 18.8078 87.7584 16.0238H99.8864V14.7758C99.8864 9.97579 96.8144 6.77579 92.2704 6.77579C87.6304 6.77579 84.3984 10.0078 84.3984 14.9358V15.3198C84.3984 20.2158 87.5984 23.4478 92.3984 23.4478ZM87.7904 13.4958C88.1104 11.1278 89.7424 9.68779 92.2384 9.68779C94.7024 9.68779 96.3664 11.1278 96.5584 13.4958H87.7904Z" fill="#1C1C1E"/>
    <path d="M106.075 22.9998H114.203V20.2158H109.371V10.0078H114.203V7.22379H109.371V2.00779H106.075V7.22379H101.723V10.0078H106.075V22.9998Z" fill="#1C1C1E"/>
    <path d="M123.094 23.4478C126.358 23.4478 127.51 21.7838 127.99 20.7598H128.502V22.9998H133.462V20.2478H131.222V12.7918C131.222 8.95179 128.726 6.77579 124.63 6.77579C120.598 6.77579 118.518 8.91979 117.75 11.4158L120.822 12.4078C121.206 10.7118 122.326 9.52779 124.598 9.52779C126.902 9.52779 127.99 10.7438 127.99 12.5678V13.5918H123.19C119.734 13.5918 117.174 15.2558 117.174 18.4558C117.174 21.6558 119.734 23.4478 123.094 23.4478ZM120.47 18.3598C120.47 16.9198 121.622 16.1518 123.382 16.1518H127.99V16.4718C127.99 19.1278 126.198 20.7278 123.574 20.7278C121.622 20.7278 120.47 19.7998 120.47 18.3598Z" fill="#1C1C1E"/>
    <path d="M144.727 22.9998H148.183V14.3918H153.623C157.623 14.3918 160.727 11.8638 160.727 7.70379V7.28779C160.727 3.15979 157.751 0.599785 153.623 0.599785H144.727V22.9998ZM148.183 11.2558V3.73578H153.271C155.735 3.73578 157.271 5.07979 157.271 7.35179V7.67179C157.271 9.91179 155.671 11.2558 153.271 11.2558H148.183Z" fill="#1C1C1E"/>
    <path d="M171.058 23.4478C175.794 23.4478 179.25 20.3758 179.25 15.3518V14.8718C179.25 9.87979 175.794 6.77579 171.058 6.77579C166.322 6.77579 162.898 9.87979 162.898 14.8718V15.3518C162.898 20.3758 166.322 23.4478 171.058 23.4478ZM166.194 15.2558V14.9678C166.194 11.7038 168.178 9.71979 171.058 9.71979C173.97 9.71979 175.954 11.7038 175.954 14.9678V15.2558C175.954 18.5518 173.938 20.5038 171.058 20.5038C168.178 20.5038 166.194 18.5518 166.194 15.2558Z" fill="#1C1C1E"/>
    <path d="M190.746 23.4478C195.482 23.4478 198.938 20.3758 198.938 15.3518V14.8718C198.938 9.87979 195.482 6.77579 190.746 6.77579C186.01 6.77579 182.586 9.87979 182.586 14.8718V15.3518C182.586 20.3758 186.01 23.4478 190.746 23.4478ZM185.882 15.2558V14.9678C185.882 11.7038 187.866 9.71979 190.746 9.71979C193.658 9.71979 195.642 11.7038 195.642 14.9678V15.2558C195.642 18.5518 193.626 20.5038 190.746 20.5038C187.866 20.5038 185.882 18.5518 185.882 15.2558Z" fill="#1C1C1E"/>
    <path d="M203.041 22.9998H206.337V0.599785H203.041V22.9998Z" fill="#1C1C1E"/>
</svg>