<svg width="1440" height="437" viewBox="0 0 1440 437" fill="none" xmlns="http://www.w3.org/2000/svg">
<g clip-path="url(#clip0_478_4117)">
<g clip-path="url(#clip1_478_4117)">
<g filter="url(#filter0_f_478_4117)">
<path fill-rule="evenodd" clip-rule="evenodd" d="M713.616 8.22946L713.742 8.24575L864.278 27.6482C864.098 27.1321 864 26.5775 864 26C864 23.2386 866.239 21 869 21C871.761 21 874 23.2386 874 26C874 27.1739 873.595 28.2532 872.918 29.1063L1056.12 65.8794L1056.56 65.9687L1056.79 66.3619L1112.63 163.596C1113.34 163.216 1114.14 163 1115 163C1117.76 163 1120 165.239 1120 168C1120 169.459 1119.37 170.773 1118.38 171.687L1192.61 258.194C1193.05 258.068 1193.52 258 1194 258C1196.06 258 1197.83 259.245 1198.59 261.023L1278.66 244.236L1278.76 244.215H1278.86H1281.13L1280.68 243.403L1125.42 161.724L1126.35 159.954L1276.9 239.154L1188.34 149.938L1104.03 88.2463L1105.21 86.6323L1189.59 148.37L1189.65 148.417L1189.71 148.473L1281.19 240.636C1281.78 238.537 1283.71 237 1286 237C1288.76 237 1291 239.239 1291 242C1291 242.795 1290.81 243.547 1290.48 244.215H1372C1372 244.144 1372 244.072 1372 244C1372 241.239 1374.24 239 1377 239C1379.76 239 1382 241.239 1382 244C1382 246.761 1379.76 249 1377 249C1375.03 249 1373.33 247.865 1372.52 246.215H1288.69C1288.6 246.274 1288.5 246.33 1288.41 246.384C1288.33 246.428 1288.24 246.471 1288.16 246.512L1455.82 396.07L1454.49 397.563L1285.69 246.991C1285.43 246.975 1285.17 246.938 1284.92 246.883L1339.41 344.193L1339.43 344.226L1339.45 344.261L1392.96 459.505L1394.48 462.796L1391.49 460.753L1271.63 379.066L1266.34 381.899L1194.35 429.207L1193.25 427.536L1265.28 380.203L1265.32 380.179L1265.36 380.157L1269.77 377.795L1268.69 377.063L1268.53 376.95L1268.42 376.781L1267.89 375.969L1135.55 308.812L1133.36 310.492L1133.35 310.498L1064.55 361.932C1064.84 362.562 1065 363.263 1065 364C1065 366.761 1062.76 369 1060 369C1059.27 369 1058.57 368.841 1057.94 368.557L1004.37 450.412L1008.8 459.488L1009.5 460.927H1007.9H909.119H810.337H807.694L809.676 459.177L869.96 405.947C869.356 405.12 869 404.102 869 403C869 401.311 869.837 399.818 871.119 398.913L821.51 318.774C821.49 318.768 821.469 318.761 821.449 318.755L821.404 318.74L821.38 318.732L821.35 318.721C821.294 318.702 821.238 318.681 821.183 318.66C821.132 318.64 821.082 318.619 821.032 318.598L770.711 385.693L727.53 466.571L727.248 467.1H726.648H519.482H517.911L518.576 465.677L527.364 446.875L435.845 432.821L328.346 460.894L328.029 460.977L327.724 460.856L237.861 425.185L237.784 425.155L237.713 425.112L235.944 424.044C234.294 426.183 231.23 426.627 229.036 425.023C228.878 424.908 228.729 424.785 228.589 424.655L199.326 479.604L197.561 478.664L227.32 422.782C226.848 421.55 226.87 420.152 227.438 418.911L158.953 377.584C158.854 378.409 158.549 379.22 158.024 379.938C156.394 382.168 153.265 382.653 151.036 381.023C150.677 380.761 150.362 380.459 150.095 380.128L46.0479 453.883L44.8913 452.251L149.171 378.331C148.775 376.907 149.011 375.322 149.951 374.036C150.105 373.826 150.272 373.631 150.45 373.452L93.3712 346.384C91.7262 347.274 89.6466 347.201 88.0363 346.023C87.6481 345.74 87.3128 345.41 87.0323 345.048L-10.2548 405.213L-11.3067 403.512L86.1477 343.244C85.7848 341.843 86.0302 340.296 86.9512 339.036C87.3454 338.497 87.8273 338.06 88.3629 337.73L56.4365 254.958C55.5961 254.865 54.7678 254.558 54.0363 254.024C51.8071 252.394 51.3214 249.265 52.9512 247.036C54.5811 244.807 57.7094 244.321 59.9385 245.951C60.5707 246.413 61.0627 246.996 61.4059 247.645H135.569C135.68 247.436 135.808 247.233 135.951 247.036C137.581 244.807 140.709 244.321 142.939 245.951C143.571 246.413 144.063 246.996 144.406 247.645H145.623H145.711L145.798 247.66L233.053 263.172C233.176 262.423 233.473 261.691 233.951 261.036C235.581 258.807 238.709 258.321 240.939 259.951C241.633 260.459 242.159 261.113 242.503 261.839L373.309 212.868L372.756 212.395L310.479 169.28L302.466 166.331C300.807 167.277 298.678 167.224 297.036 166.024C296.202 165.413 295.612 164.594 295.285 163.689L241.142 143.769L241.123 143.798L241.102 143.828L241.08 143.86C241.061 143.886 241.043 143.912 241.024 143.938C239.394 146.168 236.265 146.653 234.036 145.024C231.807 143.394 231.321 140.265 232.951 138.036C234.581 135.807 237.709 135.321 239.939 136.951C241.546 138.127 242.247 140.082 241.901 141.917L295.015 161.459C295.104 160.611 295.412 159.774 295.951 159.036C297.581 156.807 300.709 156.321 302.939 157.951C305.124 159.549 305.634 162.588 304.116 164.807L311.289 167.446L311.409 167.49L311.513 167.563L373.937 210.78L373.98 210.809L374.019 210.842L374.709 211.434C374.787 211.303 374.872 211.174 374.964 211.049C375.926 209.732 377.411 209.024 378.925 209L463.622 134.417C463.226 133.7 463 132.877 463 132C463 130.911 463.348 129.904 463.939 129.083L425.078 92.8835C424.731 92.9598 424.37 93 424 93C421.239 93 419 90.7614 419 88C419 87.9304 419.001 87.8611 419.004 87.7921L380.102 70.8781C379.747 70.9579 379.379 71 379 71C377.158 71 375.549 70.004 374.681 68.5213L372.969 67.777L373.767 65.9428L374 66.0443L374 66C374 63.2386 376.239 61 379 61C381.761 61 384 63.2386 384 66C384 67.4593 383.375 68.7726 382.378 69.6867L419.496 85.8253C420.305 84.1532 422.018 83 424 83C424.983 83 425.9 83.2836 426.673 83.7735L555.443 28.2128L555.573 28.1566L555.714 28.1388L555.917 28.1132C556.823 26.8346 558.314 26 560 26C561.235 26 562.366 26.4479 563.238 27.1901L713.489 8.2454L713.616 8.22946ZM230.872 416.113C230.048 416.301 229.269 416.698 228.621 417.289L159.173 375.381L159.13 375.355L159.085 375.333L158.624 375.115C158.617 375.097 158.609 375.078 158.602 375.06L158.589 375.029L294 308.626C293.923 309.694 294.191 310.771 294.776 311.684L259.36 362.633L259.327 362.681L259.299 362.733L230.872 416.113ZM295.079 305.869C296.292 304.346 298.235 303.71 300.04 304.098L300.434 303.972L373.442 214.953L242.984 263.795C243.024 264.819 242.751 265.862 242.141 266.771L294.85 305.981L295.079 305.869ZM303.024 311.938C302.946 312.045 302.865 312.147 302.78 312.246L373.989 368.593L374.034 368.629L374.075 368.67L435.571 430.166L490.338 333.829C489.899 332.718 489.865 331.467 490.273 330.317L435.449 266.245C435.328 266.484 435.186 266.716 435.024 266.938C433.394 269.168 430.265 269.653 428.036 268.023C427.247 267.446 426.676 266.681 426.34 265.834L302.487 305.416C304.237 307.126 304.51 309.906 303.024 311.938ZM301.143 313.5C299.594 314.238 297.711 314.154 296.201 313.139L261.036 363.726L233.134 416.119C233.767 416.268 234.381 416.543 234.939 416.951C236.642 418.196 237.327 420.317 236.829 422.242L238.676 423.357L328.158 458.876L433.851 431.275L372.702 370.125L301.143 313.5ZM292.831 306.972L157.437 373.367C157.282 373.22 157.116 373.081 156.939 372.951C155.61 371.98 153.963 371.76 152.503 372.212L95.0152 344.95L95.0236 344.938C96.1226 343.435 96.2597 341.523 95.549 339.938L234.705 267.759C234.81 267.851 234.921 267.939 235.036 268.023C236.755 269.28 239.009 269.279 240.698 268.19L292.831 306.972ZM94.3642 338.299C94.2303 338.177 94.0883 338.061 93.9385 337.951C92.8303 337.141 91.4998 336.853 90.2417 337.043L58.5011 254.753C59.4795 254.443 60.3715 253.83 61.0236 252.938C61.7478 251.948 62.0543 250.78 61.9758 249.645H134.999C134.886 251.299 135.599 252.973 137.036 254.024C139.265 255.653 142.394 255.168 144.024 252.938C144.748 251.948 145.054 250.78 144.976 249.645H145.534L233.141 265.219C233.222 265.536 233.333 265.846 233.475 266.144L94.3642 338.299ZM382.177 210.139C382.104 210.079 382.029 210.02 381.951 209.964C381.745 209.813 381.53 209.68 381.31 209.565L464.92 135.939C465.769 136.604 466.838 137 468 137C469.102 137 470.12 136.644 470.947 136.04L504.39 182.734C502.956 183.614 502 185.195 502 187C502 187.954 502.267 188.846 502.731 189.605L382.177 210.139ZM382.193 217.849C382.504 217.591 382.787 217.292 383.036 216.951C384.139 215.443 384.273 213.522 383.554 211.933L504.502 191.332C505.237 191.757 506.09 192 507 192C508.289 192 509.465 191.512 510.351 190.711L552.9 246.443C552.149 246.787 551.473 247.322 550.951 248.036C549.702 249.745 549.695 251.981 550.764 253.667L550.282 254.3L435.698 262.309C435.373 261.395 434.78 260.567 433.939 259.951C432.833 259.143 431.507 258.855 430.251 259.042L382.193 217.849ZM555.068 245.988C555.635 245.996 556.202 246.101 556.746 246.306L617.827 184.561L607.07 146.914C604.753 146.478 603 144.444 603 142C603 141.418 603.1 140.859 603.283 140.339L557.651 152.838L511.919 186.098C511.972 186.39 512 186.692 512 187C512 187.718 511.849 188.401 511.576 189.019L555.068 245.988ZM558.474 247.403C559.861 248.748 560.328 250.763 559.737 252.554L560.606 253.819H651.897L653.712 251.573C653.26 250.821 653 249.941 653 249C653 247.678 653.513 246.475 654.352 245.581L621.774 191.478C620.13 190.659 619 188.962 619 187C619 186.958 619 186.916 619.002 186.874L618.756 186.466L558.474 247.403ZM660.24 244.529C659.566 244.19 658.805 244 658 244C657.284 244 656.604 244.15 655.988 244.421L624.412 191.983C626.981 191.774 629 189.623 629 187L629 186.972L629 186.947L711.363 195.899L660.24 244.529ZM655.081 253.06L654.469 253.819H656.661C656.086 253.659 655.553 253.4 655.081 253.06ZM659.339 253.819C661.45 253.233 663 251.298 663 249C663 247.774 662.558 246.65 661.826 245.781L713.045 197.06C713.794 198.027 714.891 198.712 716.147 198.928L766.093 246.437L660.073 253.819H659.339ZM712 193.957L628.532 184.884C628.07 183.896 627.294 183.085 626.333 182.577L706.8 145.842C707.667 146.565 708.783 147 710 147C712.607 147 714.748 145.005 714.979 142.458L795.608 131.673C796.499 132.497 797.691 133 799 133C800.339 133 801.555 132.474 802.453 131.616L813.22 134.53C813.077 134.995 813 135.488 813 136C813 138.652 815.064 140.821 817.674 140.99L810.28 179.804C808.908 180.695 808 182.241 808 184C808 184.031 808 184.061 808.001 184.091L721.944 193.246C721.58 190.843 719.505 189 717 189C714.253 189 712.023 191.215 712 193.957ZM555.812 255.919C555.495 255.972 555.174 255.994 554.852 255.986L551.326 256.232L497.154 327.48C497.425 327.611 497.687 327.767 497.939 327.951C500.168 329.581 500.653 332.709 499.024 334.938C498.632 335.474 498.153 335.91 497.621 336.239L548.88 401.25L598.319 321.387C596.722 319.667 596.514 317.002 597.951 315.036C598.34 314.505 598.814 314.072 599.34 313.744L559.553 255.819H557.246L555.812 255.919ZM603.808 313.329C602.993 313.01 602.122 312.917 601.281 313.037L561.98 255.819H650.281L603.808 313.329ZM606.549 320.036C607.401 318.144 606.991 315.892 605.495 314.423L652.852 255.819H660.108H660.143L660.177 255.816L768.057 248.306L769.116 249.313L818.002 313.843C818.002 313.858 818.002 313.874 818.001 313.89C818.001 313.91 818 313.93 818 313.95C818 313.967 818 313.983 818 314C818 315.341 818.528 316.559 819.388 317.457L769.065 384.555L769.019 384.616L768.982 384.684L726.455 464.338L668.984 397.193C669.048 395.584 668.336 393.973 666.938 392.951C666.212 392.42 665.389 392.113 664.555 392.019L658.145 384.53L658.124 384.504L606.549 320.036ZM662.183 392.323L656.604 385.805L656.593 385.792L656.583 385.779L605.327 321.71C603.863 323.026 601.745 323.358 599.949 322.554L553.215 398.047C554.481 397.849 555.822 398.135 556.938 398.951C559.168 400.581 559.653 403.709 558.023 405.938C557.512 406.638 556.852 407.166 556.119 407.511L619.58 459.151L622.434 461.474L618.797 460.915L529.424 447.191L521.053 465.1H724.476L668.317 399.489C668.228 399.642 668.13 399.792 668.023 399.938C666.394 402.168 663.265 402.653 661.036 401.023C658.807 399.394 658.321 396.265 659.951 394.036C660.538 393.233 661.32 392.657 662.183 392.323ZM551.036 407.023C550.203 406.414 549.613 405.596 549.287 404.693L530.306 445.303L615.464 458.38L553.508 407.965C552.643 407.883 551.789 407.574 551.036 407.023ZM495.016 326.987C493.675 326.98 492.347 327.512 491.376 328.529L436.552 264.458L436.502 264.399L436.443 264.349L436.349 264.268L548.672 256.418L495.016 326.987ZM491.597 335.663C491.735 335.79 491.881 335.91 492.036 336.023C493.115 336.812 494.404 337.105 495.632 336.946L547.812 403.125L528.246 444.987L437.379 431.033L491.597 335.663ZM303.939 302.852L425.989 263.847C426.016 262.868 426.329 261.887 426.951 261.036C427.291 260.571 427.697 260.181 428.146 259.871L380.271 218.836C378.866 219.204 377.313 218.96 376.049 218.036C375.49 217.628 375.041 217.125 374.707 216.565L303.939 302.852ZM471.456 128.387C470.558 127.528 469.341 127 468 127C467.053 127 466.167 127.264 465.412 127.721L427.035 91.9735C428.23 91.0598 429 89.6199 429 88C429 87.0017 428.707 86.0718 428.203 85.2912L513.398 48.5321C512.532 49.431 512 50.6533 512 52C512 54.7614 514.239 57 517 57C518.461 57 519.775 56.3735 520.69 55.3746L576.667 70.5213L471.456 128.387ZM472.319 134.521C472.752 133.781 473 132.919 473 132C473 131.304 472.858 130.642 472.601 130.04L579.269 71.3723L593.842 108.135C591.639 108.657 590 110.637 590 113C590 114.975 591.145 116.682 592.806 117.494L558.606 147.742L559.931 149.241L595.261 117.993C596.07 117.952 596.827 117.718 597.49 117.337L601.538 127.549L604.504 137.931L556.947 150.957L556.771 151.005L556.623 151.113L511.138 184.193C510.239 182.869 508.721 182 507 182C506.781 182 506.565 182.014 506.353 182.041L472.319 134.521ZM561.946 35.6072C563.741 34.8482 565 33.0712 565 31C565 30.3022 564.857 29.6377 564.599 29.0344L713.613 10.2456L715.688 10.5131L713.404 11.0037L567.067 42.4353L561.946 35.6072ZM555.018 30.5743C555.006 30.7146 555 30.8566 555 31C555 33.6727 557.097 35.8556 559.735 35.9931L564.914 42.8978L521.999 52.1155C521.999 52.0955 522 52.0755 522 52.0554C522 52.037 522 52.0185 522 52C522 49.2386 519.761 47 517 47L516.948 47.0003L555.018 30.5743ZM876.91 398.933C876.09 398.346 875.085 398 874 398C873.648 398 873.304 398.036 872.972 398.106L823.946 318.911C826.255 318.468 828 316.438 828 314C828 312.864 827.621 311.816 826.983 310.977L873.471 251.972C873.645 251.991 873.821 252 874 252C874.623 252 875.219 251.886 875.769 251.678L929.34 326.185C929.12 326.747 929 327.36 929 328C929 330.168 930.38 332.014 932.31 332.707L876.91 398.933ZM877.887 406.145C878.583 405.286 879 404.192 879 403C879 402.053 878.737 401.168 878.279 400.413L934.362 333.371L993.3 432.277L1002.08 450.268L997.46 457.321L999.133 458.416L1003.1 452.36L1006.3 458.927H909.684L877.887 406.145ZM871.448 407.301C872.195 407.745 873.068 408 874 408C874.839 408 875.631 407.793 876.325 407.428L907.349 458.927H812.981L871.448 407.301ZM1132.14 308.902L1063.38 360.314C1062.49 359.498 1061.3 359 1060 359C1057.24 359 1055 361.239 1055 364C1055 365.304 1055.5 366.492 1056.32 367.382L1003.35 448.32L995.079 431.363L995.061 431.325L995.039 431.289L936.174 332.504C937.81 331.713 938.949 330.057 938.998 328.13L992.93 268C992.953 268 992.977 268 993 268C994.981 268 996.693 266.848 997.502 265.178L1132.37 307.197L1133.57 307.808L1132.15 308.896L1132.14 308.902ZM1198.69 264.743C1198.89 264.201 1199 263.613 1199 263V262.982L1278.97 246.215H1282.25L1333.68 338.046C1333.46 338.016 1333.23 338 1333 338C1331.13 338 1329.5 339.028 1328.64 340.549L1198.69 264.743ZM1190.65 266.714C1191.54 267.513 1192.71 268 1194 268C1195.21 268 1196.31 267.573 1197.18 266.862L1265.73 372.628L1139.73 308.691C1141.64 307.986 1143 306.152 1143 304C1143 303.719 1142.98 303.443 1142.93 303.175L1190.65 266.714ZM1133.13 305.337L1133.19 305.37C1133.07 304.935 1133 304.475 1133 304C1133 301.239 1135.24 299 1138 299C1139.74 299 1141.27 299.89 1142.17 301.24L1189.46 265.106C1189.17 264.466 1189 263.752 1189 263C1189 262.914 1189 262.828 1189.01 262.743L1059.57 214.042C1058.78 215.786 1057.03 217 1055 217C1053.96 217 1053 216.685 1052.2 216.145L997.999 263.122C997.998 263.16 997.996 263.198 997.995 263.236L1133.05 305.312L1133.13 305.337ZM1190.8 259.155C1190.27 259.603 1189.82 260.161 1189.51 260.796L1060 212.069C1060 212.046 1060 212.023 1060 212C1060 211.327 1059.87 210.685 1059.63 210.099L1111.55 171.616C1112.44 172.473 1113.66 173 1115 173C1115.57 173 1116.12 172.904 1116.63 172.727L1190.8 259.155ZM1055.49 68.1296L1111.07 164.903C1110.4 165.755 1110 166.831 1110 168C1110 168.701 1110.14 169.368 1110.4 169.973L1058.51 208.437C1057.61 207.548 1056.37 207 1055 207C1053.12 207 1051.48 208.04 1050.63 209.576L928.44 186.302C928.798 185.613 929 184.83 929 184C929 182.015 927.844 180.301 926.168 179.493L957.92 130.999C957.946 131 957.973 131 958 131C960.761 131 963 128.761 963 126C963 125.809 962.989 125.62 962.968 125.435L1005.43 90.7484C1005.92 90.9117 1006.45 91 1007 91C1009.49 91 1011.56 89.1796 1011.94 86.7971L1055.49 68.1296ZM716.644 10.6364L865.827 29.8643C865.956 29.9705 866.091 30.0703 866.23 30.1632L847.157 64.0024L847.115 64.0013L847.08 64.0006C847.054 64.0002 847.027 64 847 64C844.239 64 842 66.2386 842 69C842 69.7998 842.188 70.5558 842.522 71.2262L721.494 105.806C720.681 104.144 718.974 103 717 103C715.239 103 713.691 103.91 712.8 105.286L633.912 83.9393C633.922 83.8882 633.931 83.8368 633.939 83.7851L675.718 46.834C676.127 46.9423 676.557 47 677 47C679.376 47 681.365 45.3428 681.874 43.1212L710.29 35.3178C710.102 35.8435 710 36.4098 710 37C710 39.7614 712.239 42 715 42C717.761 42 720 39.7614 720 37C720 34.2386 717.761 32 715 32C713.605 32 712.343 32.5716 711.436 33.4933L711.292 32.9686L682.435 40.8931L714.277 12.7305L716.644 10.6364ZM681.212 39.3045L710.093 13.7605L568.388 44.1971L573.102 50.4823L573.183 50.5894L573.232 50.7138L580.442 68.9016L580.463 68.8957C581.258 67.1857 582.99 66 585 66C586.048 66 587.021 66.3226 587.825 66.874L672.289 43.6792C672.102 43.1544 672 42.5891 672 42C672 39.2386 674.239 37 677 37C678.769 37 680.323 37.9185 681.212 39.3045ZM595.978 108.096L583.109 75.6299C583.692 75.8685 584.331 76 585 76C586.688 76 588.181 75.1633 589.086 73.882L624.011 83.3321C624.13 85.1445 625.214 86.6933 626.755 87.4688L599.729 111.372C599.157 109.709 597.732 108.443 595.978 108.096ZM624.284 81.3342L589.894 72.0286C589.964 71.6966 590 71.3526 590 71C590 70.1015 589.763 69.2584 589.348 68.5298L673.384 45.4527C673.518 45.5935 673.66 45.7264 673.81 45.8507L633.71 81.3175C633.019 79.3838 631.171 78 629 78C626.823 78 624.97 79.3917 624.284 81.3342ZM633.141 85.8027C632.273 87.0832 630.826 87.9397 629.177 87.9969L599.925 113.868C599.794 114.617 599.496 115.308 599.072 115.902L603.415 126.858L603.433 126.904L603.447 126.951L606.393 137.264C606.867 137.103 607.372 137.012 607.898 137.001L712.023 108.48C712.008 108.322 712 108.162 712 108C712 107.714 712.024 107.433 712.07 107.16L633.141 85.8027ZM721.994 107.743L721.995 107.774L794.053 127.272C794.405 124.855 796.486 123 799 123C801.761 123 804 125.239 804 128C804 128.181 803.99 128.36 803.971 128.537L820.643 126.307L821.442 124.627C820.545 125.478 819.334 126 818 126C815.239 126 813 123.761 813 121C813 118.239 815.239 116 818 116C820.761 116 823 118.239 823 121C823 121.128 822.995 121.255 822.986 121.38L845.609 73.8041C844.975 73.6209 844.393 73.3156 843.89 72.9153L721.994 107.743ZM717 113C715.105 113 713.457 111.946 712.609 110.393L611.211 138.167C612.305 139.084 613 140.461 613 142C613 144.37 611.351 146.355 609.138 146.87L619.591 183.456L705.522 144.227C705.188 143.556 705 142.8 705 142C705 139.239 707.239 137 710 137C712.228 137 714.115 138.457 714.761 140.469L794.343 129.825C794.332 129.796 794.321 129.768 794.311 129.739C794.297 129.702 794.284 129.665 794.271 129.628C794.243 129.547 794.217 129.464 794.193 129.382L721.681 109.761C720.969 111.653 719.142 113 717 113ZM849.848 64.89C849.635 64.742 849.41 64.6102 849.174 64.4963L854.682 54.7257L849.848 64.89ZM851.312 66.468C851.674 67.0817 851.907 67.7793 851.978 68.5245L916.002 50.2318L869.721 30.9483C869.486 30.9824 869.245 31 869 31C868.73 31 868.466 30.9787 868.208 30.9376L851.312 66.468ZM916.939 52.044L851.71 70.6809C851.102 72.3859 849.594 73.6637 847.758 73.9429L822.896 126.226H953.005C953.002 126.168 953.001 126.109 953 126.051L953 126C953 123.239 955.239 121 958 121C959.815 121 961.404 121.967 962.28 123.414L1003.6 89.6631C1002.63 88.7637 1002.02 87.4856 1002 86.0646L916.478 50.4303L916.939 52.044ZM877.462 250.607L930.524 324.406C931.424 323.536 932.649 323 934 323C935.947 323 937.633 324.112 938.459 325.736L990.731 267.457C989.285 266.719 988.246 265.299 988.038 263.621L878.728 248.63C878.467 249.388 878.029 250.064 877.462 250.607ZM878.988 246.647L988.192 261.624C988.79 259.531 990.716 258 993 258C995.004 258 996.733 259.179 997.53 260.881L1050.8 214.714C1050.29 213.933 1050 213.001 1050 212C1050 211.83 1050.01 211.663 1050.03 211.497L926.932 188.051C926.108 188.648 925.095 189 924 189C922.819 189 921.734 188.591 920.879 187.906H920.469L878.635 245.121C878.828 245.597 878.95 246.111 878.988 246.647ZM877.438 243.369L917.992 187.906H816.121C815.884 188.096 815.629 188.265 815.359 188.41L870.744 243.206C871.619 242.454 872.756 242 874 242C875.332 242 876.542 242.521 877.438 243.369ZM919.376 185.906H817.624C817.866 185.319 818 184.675 818 184C818 181.239 815.761 179 813 179C812.819 179 812.64 179.01 812.464 179.028L819.769 140.678C821.311 140.095 822.489 138.771 822.869 137.141L868.385 149.457L868.907 147.526L822.916 135.082C822.713 133.988 822.154 133.02 821.364 132.301L822.141 128.226H953.522C954.019 129.224 954.84 130.033 955.847 130.514L924.1 179.001C924.067 179 924.033 179 924 179C921.239 179 919 181.239 919 184C919 184.675 919.134 185.319 919.376 185.906ZM819.531 131.239L820.071 128.401L805.453 130.356L814.219 132.728C815.136 131.67 816.49 131 818 131C818.534 131 819.048 131.084 819.531 131.239ZM808.28 186.073L721.838 195.269C721.428 196.836 720.277 198.103 718.782 198.673L766.404 243.973C766.144 243.368 766 242.701 766 242C766 239.239 768.239 237 771 237C772.571 237 773.973 237.725 774.889 238.858L808.28 186.225V186.073ZM809.582 187.906H809.879C810.734 188.591 811.819 189 813 189L813.051 189C813.071 189 813.091 188.999 813.111 188.999L869.51 244.798C869.285 245.255 869.129 245.751 869.052 246.273H773.598C775.038 245.395 776 243.81 776 242C776 241.657 775.965 241.322 775.9 240.999L809.582 187.906ZM869.163 248.273H771.285L771.081 248.594L818.699 311.449C819.57 309.983 821.17 309 823 309C823.901 309 824.747 309.238 825.477 309.656L871.452 251.303C870.337 250.641 869.501 249.558 869.163 248.273ZM1052.57 67.2075L1011.82 84.6706C1011.24 82.5545 1009.3 81 1007 81C1004.93 81 1003.15 82.2623 1002.39 84.0603L877.7 32.1061L1052.57 67.2075ZM1271.08 375.345L1270.73 376.033L1271.76 376.73L1329.05 346.061C1328.39 345.215 1328 344.153 1328 343C1328 342.919 1328 342.838 1328.01 342.757C1328.01 342.673 1328.02 342.589 1328.02 342.505L1200.29 267.995L1269.28 374.43L1271.08 375.345ZM1330.7 347.442L1273.62 378.001L1389.61 457.057L1337.65 345.137L1337.58 345.01C1336.81 346.77 1335.05 348 1333 348C1332.17 348 1331.39 347.799 1330.7 347.442ZM523.037 53.938L578.284 68.8872L571.422 51.5752L566.235 44.6596L523.037 53.938Z" fill="#E2E8F0"/>
</g>
<path fill-rule="evenodd" clip-rule="evenodd" d="M713.614 0L713.723 0.01184L896.879 19.9053L896.963 19.9143L897.043 19.9371L1059.62 65.8978L1059.68 65.9138L1059.73 65.9362L1106.08 85.1378L1109.6 85.769L1109.77 85.7988L1109.91 85.8813L1117.23 89.9889L1264.17 154.436L1264.29 154.485L1264.38 154.56L1346.01 217.671L1346.02 217.676L1346.03 217.681L1349.04 220.091L1350.69 221.019L1350.93 221.151L1351.07 221.382L1351.44 222.008L1403.34 263.528L1403.75 263.386L1403.97 264.038L1404.34 264.328L1404.15 264.557L1442.17 375.238L1454.65 396.307L1455.67 398.037L1453.67 397.81L1309.55 381.425L1130.91 361.493L1230.89 468.849L1229.43 470.212L1128.32 361.645L1088.41 469.876L1086.54 469.184L1126.43 360.993L1124.45 360.771L1124.41 360.767L718.161 332.962L810.463 460.713L808.842 461.884L715.565 332.784L714.463 332.709L621.132 461.884L619.511 460.713L711.955 332.765L304.037 360.732L335.913 469.248L333.994 469.812L302.262 361.788L206.051 470.194L204.556 468.867L300.064 361.252L-14.0714 405.353L-16.0002 405.623L-15.0962 403.898L-11.8621 397.726L-11.7766 396.731L-2.17287 284.916L-2.12984 284.415L-1.70195 284.151L71.2573 239.097L78.8359 224.633L-0.703308 267.361L-1.72805 265.646L151.993 164.012L164.219 154.56L164.317 154.484L164.432 154.434L247.344 118.386L319.451 85.8418L319.565 85.7901L319.689 85.7684L324.394 84.943L370.932 65.9343L370.984 65.9131L371.038 65.8978L533.616 19.9371L533.695 19.9146L533.778 19.9055L713.505 0.0120632L713.614 0ZM1437.14 366.733L1402.27 265.237L1354.32 226.874L1437.14 366.733ZM1440.35 376.081L1445.65 391.521L1128.95 164.161V163.515L1348.97 222.595L1349.9 223.341L1440.35 376.081ZM1448.46 393.536L1445.38 384.586L1451.9 395.596L1451.22 395.518L1450.94 395.318L1448.46 393.536ZM1059.02 67.8064L1096.87 83.4876L918.605 51.5401L896.713 21.9222L1059.02 67.8064ZM713.616 2.01198L859.975 17.9087L715.044 9.61114L714.987 9.60786L714.929 9.61116L569.398 17.9751L713.616 2.01198ZM534.08 21.8842L534.112 21.8807L514.766 51.5444L333.665 83.3166L371.637 67.8071L534.08 21.8842ZM322.984 87.6793L320.35 88.8243L301.505 160.306L508.969 54.592L324.95 86.876L323.005 87.6706L322.984 87.6793ZM318.014 89.84L313.799 91.6727L122.723 209.666L299.149 161.399L318.014 89.84ZM300.936 97.2655L248.163 120.21L165.315 157.602L153.158 165.64L83.9832 219.119L83.2825 220.456L115.889 211.536L300.936 97.2655ZM17.6507 255.231L130.577 180.569L82.5871 217.671L82.4143 217.804L82.313 217.998L80.4916 221.474L17.6507 255.231ZM74.5953 237.036L81.9784 222.945L82.2004 222.826L109.86 215.259L74.5953 237.036ZM-0.223241 285.588L69.4364 242.572L-9.46117 393.144L-0.223241 285.588ZM72.7744 240.511L-6.95947 392.679L295.212 164.549L116.695 213.389L72.7744 240.511ZM-12.4207 403.101L-9.13199 396.825L298.996 164.198L301.702 359.002L-12.4207 403.101ZM713.479 330.655L305.681 358.615L557.098 150.569L713.711 330.334L713.479 330.655ZM1124.59 358.776L716.637 330.853L716.26 330.332L871.51 150.569L1125.24 358.849L1124.63 358.78L1124.61 358.777L1124.59 358.776ZM1446.67 394.713L1128.95 166.623V358.881L1309.96 379.459L1446.67 394.713ZM894.016 104.565L1118.63 160.904L873.5 148.179L873.474 148.178H873.448H872.983L894.016 104.565ZM1124.17 163.195L874.235 150.219L1126.95 357.659V165.187L1124.17 163.195ZM715.987 60.3626L867.668 148.178H715.987V60.3626ZM869.205 150.178H715.987V327.589L869.205 150.178ZM713.987 60.355V148.178H560.962L713.987 60.355ZM713.987 150.178H559.409L713.987 327.606V150.178ZM514.872 53.8288L555.722 148.253L304.219 161.168L514.872 53.8288ZM303.45 163.21L303.367 161.602L300.977 162.82L303.684 357.672L554.249 150.331L303.45 163.21ZM1263.26 156.218L1337.49 213.609L1135.04 99.9812L1263.26 156.218ZM1116.34 91.78L1111.13 89.4947L1128.78 161.399L1342.75 218.854L1116.34 91.78ZM1106.97 87.6693L1105.52 87.0685L924.277 54.5885L1126.45 160.299L1108.82 88.4825L1106.98 87.6774L1106.97 87.6693ZM894.903 102.726L1120.01 159.189L918.489 53.8191L894.903 102.726ZM915.68 50.9475L728.577 12.3892L894.188 21.8708L915.68 50.9475ZM701.688 12.3754L517.521 50.9809L536.508 21.8686L701.688 12.3754ZM713.987 11.8409L523.773 51.7138L713.987 57.5967V11.8409ZM722.21 59.409L892.922 102.229L916.421 53.5039L722.21 59.409ZM711.426 59.5185L516.91 53.5025L557.685 147.753L711.426 59.5185ZM721.651 61.3306L892.035 104.068L870.958 147.772L721.651 61.3306ZM909.489 51.7137L715.987 57.5973V11.8366L909.489 51.7137Z" fill="#CBD5E1"/>
<circle cx="715" cy="330" r="5" fill="#CBD5E1"/>
<circle cx="1128" cy="361" r="5" fill="#CBD5E1"/>
<circle cx="1271" cy="376" r="5" fill="#CBD5E1"/>
<circle cx="1261" cy="155" r="5" fill="#CBD5E1"/>
<circle cx="1110" cy="88" r="5" fill="#CBD5E1"/>
<circle cx="1128" cy="160" r="5" fill="#CBD5E1"/>
<circle cx="1055" cy="66" r="5" fill="#CBD5E1"/>
<circle cx="895" cy="21" r="5" fill="#CBD5E1"/>
<circle cx="538" cy="21" r="5" fill="#CBD5E1"/>
<circle cx="320" cy="88" r="5" fill="#CBD5E1"/>
<circle cx="372" cy="66" r="5" fill="#CBD5E1"/>
<circle cx="161" cy="155" r="5" fill="#CBD5E1"/>
<circle cx="82" cy="219" r="5" fill="#CBD5E1"/>
<circle cx="117" cy="209" r="5" fill="#CBD5E1"/>
<circle cx="72" cy="240" r="5" fill="#CBD5E1"/>
<circle cx="303" cy="358" r="5" fill="#CBD5E1"/>
<circle cx="300" cy="162" r="5" fill="#CBD5E1"/>
<circle cx="557" cy="149" r="5" fill="#CBD5E1"/>
<circle cx="517" cy="52" r="5" fill="#CBD5E1"/>
<circle cx="918" cy="52" r="5" fill="#CBD5E1"/>
<circle cx="895" cy="104" r="5" fill="#CBD5E1"/>
<circle cx="871" cy="150" r="5" fill="#CBD5E1"/>
<circle cx="715" cy="150" r="5" fill="#CBD5E1"/>
<circle cx="715" cy="57" r="5" fill="#CBD5E1"/>
<circle cx="715" cy="11" r="5" fill="#CBD5E1"/>
<circle cx="715" cy="1" r="5" fill="#CBD5E1"/>
<circle cx="1348" cy="224" r="5" fill="#CBD5E1"/>
<circle cx="1406" cy="265" r="5" fill="#CBD5E1"/>
</g>
<rect y="265" width="1440" height="270" fill="url(#paint0_linear_478_4117)"/>
</g>
<defs>
<filter id="filter0_f_478_4117" x="-14.3066" y="5.22949" width="1473.13" height="477.375" filterUnits="userSpaceOnUse" color-interpolation-filters="sRGB">
<feFlood flood-opacity="0" result="BackgroundImageFix"/>
<feBlend mode="normal" in="SourceGraphic" in2="BackgroundImageFix" result="shape"/>
<feGaussianBlur stdDeviation="1.5" result="effect1_foregroundBlur_478_4117"/>
</filter>
<linearGradient id="paint0_linear_478_4117" x1="720" y1="265" x2="720" y2="433.072" gradientUnits="userSpaceOnUse">
<stop stop-color="white" stop-opacity="0"/>
<stop offset="0.744792" stop-color="#F8FAFC"/>
</linearGradient>
<clipPath id="clip0_478_4117">
<rect width="1440" height="437" fill="white"/>
</clipPath>
<clipPath id="clip1_478_4117">
<rect width="1440" height="438" fill="white"/>
</clipPath>
</defs>
</svg>
