
<svg width="64" height="64" viewBox="0 0 64 64" fill="none" xmlns="http://www.w3.org/2000/svg">
<circle r="28" transform="matrix(-1 0 0 1 32 32)" stroke="url(#paint0_linear_478_5508)" stroke-width="8"/>
<path d="M0 32C0 27.7977 0.827705 23.6365 2.43586 19.7541C4.04401 15.8717 6.40111 12.3441 9.37259 9.37258C12.3441 6.40111 15.8717 4.044 19.7541 2.43585C23.6366 0.827704 27.7977 -1.83688e-07 32 0C36.2023 1.83688e-07 40.3635 0.827705 44.2459 2.43586C48.1283 4.04401 51.6559 6.40111 54.6274 9.37258C57.5989 12.3441 59.956 15.8717 61.5641 19.7541C63.1723 23.6366 64 27.7977 64 32L46.08 32C46.08 30.151 45.7158 28.3201 45.0082 26.6118C44.3006 24.9036 43.2635 23.3514 41.9561 22.0439C40.6486 20.7365 39.0964 19.6994 37.3882 18.9918C35.6799 18.2842 33.849 17.92 32 17.92C30.151 17.92 28.3201 18.2842 26.6118 18.9918C24.9036 19.6994 23.3514 20.7365 22.0439 22.0439C20.7365 23.3514 19.6994 24.9036 18.9918 26.6118C18.2842 28.3201 17.92 30.151 17.92 32H0Z" fill="url(#paint1_linear_478_5508)"/>
<circle cx="32" cy="32" r="16" transform="rotate(-180 32 32)" stroke="url(#paint2_linear_478_5508)" stroke-width="8"/>
<path d="M52 32C52 34.6264 51.4827 37.2272 50.4776 39.6537C49.4725 42.0802 47.9993 44.285 46.1421 46.1421C44.285 47.9993 42.0802 49.4725 39.6537 50.4776C37.2272 51.4827 34.6264 52 32 52C29.3736 52 26.7728 51.4827 24.3463 50.4776C21.9198 49.4725 19.715 47.9993 17.8579 46.1421C16.0007 44.285 14.5275 42.0802 13.5224 39.6537C12.5173 37.2272 12 34.6264 12 32L23.2 32C23.2 33.1556 23.4276 34.2999 23.8699 35.3676C24.3121 36.4353 24.9603 37.4054 25.7775 38.2225C26.5946 39.0397 27.5647 39.6879 28.6324 40.1301C29.7001 40.5724 30.8444 40.8 32 40.8C33.1556 40.8 34.2999 40.5724 35.3676 40.1301C36.4353 39.6879 37.4054 39.0397 38.2225 38.2225C39.0397 37.4054 39.6879 36.4353 40.1301 35.3676C40.5724 34.2999 40.8 33.1556 40.8 32H52Z" fill="url(#paint3_linear_478_5508)"/>
<defs>
<linearGradient id="paint0_linear_478_5508" x1="2.10712e-07" y1="33.5" x2="69.5" y2="64" gradientUnits="userSpaceOnUse">
<stop stop-color="#00B4FC" stop-opacity="0"/>
<stop offset="1" stop-color="#00B4FC"/>
</linearGradient>
<linearGradient id="paint1_linear_478_5508" x1="12" y1="4" x2="70" y2="44.5" gradientUnits="userSpaceOnUse">
<stop stop-color="#00B4FC" stop-opacity="0"/>
<stop offset="1" stop-color="#00B4FC"/>
</linearGradient>
<linearGradient id="paint2_linear_478_5508" x1="12" y1="33" x2="54.5" y2="47.5" gradientUnits="userSpaceOnUse">
<stop stop-color="#00B4FC" stop-opacity="0"/>
<stop offset="1" stop-color="#00B4FC"/>
</linearGradient>
<linearGradient id="paint3_linear_478_5508" x1="14" y1="43.5" x2="46" y2="25.5" gradientUnits="userSpaceOnUse">
<stop stop-color="#00B4FC" stop-opacity="0"/>
<stop offset="1" stop-color="#00B4FC"/>
</linearGradient>
</defs>
</svg>
