<svg width="64" height="64" viewBox="0 0 64 64" fill="none" xmlns="http://www.w3.org/2000/svg">
<path d="M31.0303 0C26.9553 -4.85934e-08 22.9203 0.802623 19.1555 2.36204C15.3907 3.92146 11.97 6.20714 9.08856 9.08857C6.20713 11.97 3.92146 15.3908 2.36204 19.1555C0.802622 22.9203 -6.15301e-07 26.9553 0 31.0303L31.0303 31.0303V0Z" fill="#68E2A3"/>
<path d="M31.0305 7.75781C27.9743 7.75781 24.948 8.35978 22.1245 9.52934C19.3009 10.6989 16.7353 12.4132 14.5742 14.5742C12.4132 16.7353 10.6989 19.3009 9.52934 22.1245C8.35978 24.948 7.75781 27.9743 7.75781 31.0305L31.0305 31.0305V19.3942V7.75781Z" fill="url(#paint0_linear_478_5524)"/>
<path d="M32.9697 3.87891C36.5353 3.87891 40.066 4.5812 43.3602 5.94569C46.6543 7.31018 49.6475 9.31015 52.1688 11.8314C54.69 14.3527 56.69 17.3458 58.0545 20.64C59.4189 23.9342 60.1212 27.4648 60.1212 31.0304L32.9697 31.0304L32.9697 3.87891Z" fill="url(#paint1_linear_478_5524)"/>
<path d="M32.9697 64C37.0447 64 41.0797 63.1974 44.8445 61.638C48.6093 60.0785 52.03 57.7929 54.9114 54.9114C57.7929 52.03 60.0785 48.6092 61.638 44.8445C63.1974 41.0797 64 37.0447 64 32.9697L32.9697 32.9697V64Z" fill="#68E2A3"/>
<path d="M32.9695 56.2422C36.0257 56.2422 39.052 55.6402 41.8755 54.4707C44.6991 53.3011 47.2647 51.5868 49.4258 49.4258C51.5868 47.2647 53.3011 44.6991 54.4707 41.8755C55.6402 39.052 56.2422 36.0257 56.2422 32.9695L32.9695 32.9695V44.6058V56.2422Z" fill="url(#paint2_linear_478_5524)"/>
<path d="M31.0303 60.1211C27.4647 60.1211 23.934 59.4188 20.6398 58.0543C17.3457 56.6898 14.3525 54.6898 11.8312 52.1686C9.31 49.6473 7.31003 46.6542 5.94554 43.36C4.58105 40.0658 3.87876 36.5352 3.87876 32.9696L31.0303 32.9696L31.0303 60.1211Z" fill="url(#paint3_linear_478_5524)"/>
<defs>
<linearGradient id="paint0_linear_478_5524" x1="15.5154" y1="13.576" x2="30.5457" y2="31.5154" gradientUnits="userSpaceOnUse">
<stop stop-color="white"/>
<stop offset="1" stop-color="#68E2A3"/>
</linearGradient>
<linearGradient id="paint1_linear_478_5524" x1="53.3334" y1="12.1213" x2="32.9697" y2="31.0304" gradientUnits="userSpaceOnUse">
<stop stop-color="white"/>
<stop offset="1" stop-color="#68E2A3"/>
</linearGradient>
<linearGradient id="paint2_linear_478_5524" x1="48.4846" y1="50.424" x2="33.4543" y2="32.4846" gradientUnits="userSpaceOnUse">
<stop stop-color="white"/>
<stop offset="1" stop-color="#68E2A3"/>
</linearGradient>
<linearGradient id="paint3_linear_478_5524" x1="10.6666" y1="51.8787" x2="31.0303" y2="32.9696" gradientUnits="userSpaceOnUse">
<stop stop-color="white"/>
<stop offset="1" stop-color="#68E2A3"/>
</linearGradient>
</defs>
</svg>
