<svg width="72" height="72" viewBox="0 0 72 72" fill="none" xmlns="http://www.w3.org/2000/svg">
<path fill-rule="evenodd" clip-rule="evenodd" d="M0 72V36H8V64H36V72H0Z" fill="#5848F5"/>
<path fill-rule="evenodd" clip-rule="evenodd" d="M17.1431 17.1429V36H9.14307V9.14286H36.0002V17.1429H17.1431Z" fill="url(#paint0_linear_478_5515)"/>
<path fill-rule="evenodd" clip-rule="evenodd" d="M64 8H36V-1.66893e-06H72V36H64V8Z" fill="#ABA3FA"/>
<path fill-rule="evenodd" clip-rule="evenodd" d="M54.8571 54.8569H36V62.8569H62.8571V35.9998H54.8571V54.8569Z" fill="#5848F5" fill-opacity="0.5"/>
<rect x="17.7148" y="54.2856" width="18.2857" height="18.2857" transform="rotate(-90 17.7148 54.2856)" fill="url(#paint1_linear_478_5515)"/>
<rect x="36.0005" y="36" width="18.2857" height="18.2857" transform="rotate(-90 36.0005 36)" fill="url(#paint2_linear_478_5515)"/>
<defs>
<linearGradient id="paint0_linear_478_5515" x1="13.0282" y1="36.115" x2="58.7425" y2="36.115" gradientUnits="userSpaceOnUse">
<stop stop-color="#5848F5"/>
<stop offset="1" stop-color="white" stop-opacity="0.26"/>
</linearGradient>
<linearGradient id="paint1_linear_478_5515" x1="25.8576" y1="57.4283" x2="26.0681" y2="74.6939" gradientUnits="userSpaceOnUse">
<stop stop-color="#5848F5"/>
<stop offset="1" stop-color="white" stop-opacity="0"/>
</linearGradient>
<linearGradient id="paint2_linear_478_5515" x1="40.5006" y1="53.9995" x2="39.5787" y2="36.0469" gradientUnits="userSpaceOnUse">
<stop offset="0.140625" stop-color="#5848F5"/>
<stop offset="1" stop-color="white" stop-opacity="0"/>
</linearGradient>
</defs>
</svg>
