<svg width="48" height="48" viewBox="0 0 48 48" fill="none" xmlns="http://www.w3.org/2000/svg">
<rect width="48" height="48" rx="24" fill="#94A3B8"/>
<path fill-rule="evenodd" clip-rule="evenodd" d="M10.8638 23.7469C17.8602 20.6986 22.5257 18.689 24.86 17.7181C31.5251 14.9459 32.91 14.4643 33.8127 14.4484C34.0112 14.4449 34.4552 14.4941 34.7427 14.7274C34.9855 14.9245 35.0523 15.1906 35.0843 15.3774C35.1162 15.5642 35.156 15.9897 35.1244 16.3222C34.7632 20.1172 33.2004 29.3265 32.4053 33.577C32.0689 35.3755 31.4065 35.9785 30.7651 36.0375C29.3714 36.1658 28.3131 35.1164 26.9632 34.2316C24.8509 32.8469 23.6576 31.985 21.6072 30.6338C19.2376 29.0723 20.7737 28.2141 22.1241 26.8115C22.4775 26.4445 28.6183 20.8589 28.7372 20.3523C28.752 20.2889 28.7658 20.0527 28.6255 19.9279C28.4852 19.8032 28.2781 19.8459 28.1286 19.8798C27.9167 19.9279 24.5423 22.1582 18.0053 26.5709C17.0474 27.2286 16.1799 27.5491 15.4025 27.5323C14.5456 27.5138 12.8972 27.0478 11.6718 26.6495C10.1688 26.1609 8.97429 25.9026 9.07831 25.0729C9.13248 24.6407 9.72763 24.1987 10.8638 23.7469Z" fill="#F1F5F9"/>
</svg>
