<svg width="48" height="48" viewBox="0 0 48 48" fill="none" xmlns="http://www.w3.org/2000/svg">
<rect width="48" height="48" rx="24" fill="#94A3B8"/>
<path d="M35.0568 13.6278C32.9642 12.6443 30.7266 11.9295 28.3873 11.5225C28.1 12.0442 27.7643 12.7461 27.5329 13.3043C25.0461 12.9287 22.5822 12.9287 20.1412 13.3043C19.9098 12.7461 19.5665 12.0442 19.2767 11.5225C16.9348 11.9295 14.6947 12.6469 12.602 13.6331C8.38106 20.0404 7.23683 26.2887 7.80894 32.4482C10.6085 34.5483 13.3216 35.8241 15.9889 36.6589C16.6475 35.7484 17.2348 34.7805 17.7408 33.7604C16.7771 33.3926 15.8541 32.9387 14.982 32.4117C15.2134 32.2395 15.4397 32.0595 15.6584 31.8742C20.9777 34.3735 26.7574 34.3735 32.0132 31.8742C32.2344 32.0595 32.4607 32.2395 32.6895 32.4117C31.8148 32.9412 30.8893 33.3952 29.9256 33.7631C30.4316 34.7805 31.0165 35.751 31.6775 36.6615C34.3474 35.8267 37.063 34.5509 39.8626 32.4482C40.5339 25.3077 38.7158 19.1169 35.0568 13.6278ZM18.4655 28.6601C16.8687 28.6601 15.5592 27.1626 15.5592 25.339C15.5592 23.5154 16.8407 22.0153 18.4655 22.0153C20.0904 22.0153 21.3998 23.5128 21.3719 25.339C21.3744 27.1626 20.0904 28.6601 18.4655 28.6601ZM29.206 28.6601C27.6092 28.6601 26.2997 27.1626 26.2997 25.339C26.2997 23.5154 27.5812 22.0153 29.206 22.0153C30.8308 22.0153 32.1403 23.5128 32.1124 25.339C32.1124 27.1626 30.8308 28.6601 29.206 28.6601Z" fill="#F1F5F9"/>
</svg>
