<svg width="48" height="48" viewBox="0 0 48 48" fill="none" xmlns="http://www.w3.org/2000/svg">
<rect width="48" height="48" rx="24" fill="#94A3B8"/>
<path d="M14.0845 19.2318C14.1168 18.911 13.995 18.594 13.7566 18.3781L11.3279 15.439V15H18.869L24.6979 27.8416L29.8224 15H37.0114V15.439L34.9349 17.4391C34.7558 17.5761 34.667 17.8014 34.7041 18.0244V32.7197C34.667 32.9427 34.7558 33.168 34.9349 33.3051L36.9628 35.3051V35.7441H26.7623V35.3051L28.8631 33.2563C29.0695 33.049 29.0696 32.988 29.0696 32.6709V20.7927L23.2285 35.6954H22.4392L15.6388 20.7927V30.7807C15.5821 31.2006 15.721 31.6234 16.0153 31.927L18.7476 35.2563V35.6954H11V35.2563L13.7323 31.927C14.0245 31.6229 14.1552 31.1973 14.0845 30.7807V19.2318Z" fill="#F1F5F9"/>
</svg>
