<svg width="48" height="48" viewBox="0 0 48 48" fill="none" xmlns="http://www.w3.org/2000/svg">
<rect width="48" height="48" rx="24" fill="#94A3B8"/>
<path d="M38 15.6045C37.0066 16.0467 35.939 16.3444 34.8185 16.4787C35.9626 15.7917 36.8412 14.7032 37.2541 13.4061C36.1842 14.0422 34.9985 14.5047 33.7362 14.754C32.7271 13.6745 31.286 13 29.693 13C26.1166 13 23.4886 16.3456 24.2964 19.8186C19.694 19.5874 15.6125 17.3765 12.8799 14.0163C11.4286 16.5125 12.1273 19.778 14.5933 21.4316C13.6865 21.4023 12.8315 21.153 12.0856 20.7368C12.0249 23.3097 13.8642 25.7168 16.5283 26.2526C15.7486 26.4646 14.8948 26.5143 14.0263 26.3473C14.7305 28.5536 16.7758 30.1587 19.2013 30.2039C16.8725 32.0346 13.9385 32.8523 11 32.5049C13.4514 34.0807 16.364 35 19.4915 35C29.7763 35 35.5869 26.2909 35.2359 18.4797C36.3181 17.6958 37.2575 16.7178 38 15.6045Z" fill="#F1F5F9"/>
</svg>
