<svg width="48" height="48" viewBox="0 0 48 48" fill="none" xmlns="http://www.w3.org/2000/svg">
<rect width="48" height="48" rx="24" fill="#94A3B8"/>
<path d="M21.8059 32.2294C22.3545 32.2294 22.8482 32.6703 22.8482 33.2764C22.8482 33.8275 22.4093 34.3235 21.8059 34.3235C21.2573 34.3235 20.7636 33.8826 20.7636 33.2764C20.7636 32.6703 21.2573 32.2294 21.8059 32.2294ZM37.9337 25.8372C37.3851 25.8372 36.8914 25.3963 36.8914 24.7902C36.8914 24.2391 37.3303 23.7431 37.9337 23.7431C38.4823 23.7431 38.976 24.184 38.976 24.7902C38.976 25.3412 38.4823 25.8372 37.9337 25.8372ZM37.9337 21.594C36.1783 21.594 34.752 23.0268 34.752 24.7902C34.752 25.1208 34.8069 25.4514 34.9166 25.7821L24.439 31.4029C23.8356 30.5212 22.8482 30.0252 21.8059 30.0252C20.599 30.0252 19.5019 30.7416 18.9534 31.7886L9.51803 26.8291C8.53062 26.278 7.76263 24.6799 7.87234 23.137C7.9272 22.3655 8.20148 21.7593 8.58547 21.5389C8.85976 21.3736 9.13404 21.4287 9.51803 21.594L9.57289 21.6491C12.0963 22.9717 20.2699 27.2699 20.599 27.4352C21.1476 27.6557 21.4219 27.7659 22.3545 27.325L39.2503 18.5081C39.5245 18.3979 39.7988 18.1775 39.7988 17.7917C39.7988 17.2958 39.3051 17.0753 39.3051 17.0753C38.3177 16.6345 36.8366 15.9181 35.4103 15.2568C32.3383 13.8241 28.8275 12.1709 27.2915 11.3443C25.975 10.628 24.8779 11.2341 24.7133 11.3443L24.3293 11.5096C17.3625 15.0364 8.14662 19.6102 7.59806 19.9408C6.6655 20.4919 6.06208 21.6491 6.00722 23.0819C5.89751 25.3412 7.04949 27.7108 8.69519 28.5373L18.6791 33.7173C18.8985 35.2603 20.2699 36.4726 21.8059 36.4726C23.5613 36.4726 24.9327 35.0949 24.9876 33.3316L35.9589 27.3801C36.5074 27.821 37.2206 28.0414 37.9337 28.0414C39.6891 28.0414 41.1154 26.6086 41.1154 24.8453C41.1154 23.0268 39.6891 21.594 37.9337 21.594Z" fill="#F1F5F9"/>
</svg>
