<svg width="48" height="48" viewBox="0 0 48 48" fill="none" xmlns="http://www.w3.org/2000/svg">
<rect width="48" height="48" rx="24" fill="#94A3B8"/>
<path d="M40.0086 16.5917C39.6319 15.1772 38.5257 14.0656 37.1182 13.687C34.5698 13 24.346 13 24.346 13C24.346 13 14.1224 13 11.5738 13.687C10.1664 14.0656 9.06031 15.1772 8.68355 16.5917C8 19.153 8 24.5 8 24.5C8 24.5 8 29.847 8.68355 32.4083C9.06031 33.8228 10.1664 34.9344 11.5738 35.313C14.1224 36 24.346 36 24.346 36C24.346 36 34.5698 36 37.1182 35.313C38.5257 34.9344 39.6319 33.8228 40.0086 32.4083C40.6922 29.847 40.6922 24.5 40.6922 24.5C40.6922 24.5 40.6894 19.153 40.0086 16.5917Z" fill="#F1F5F9"/>
<path d="M21.0737 29.4283L29.567 24.5006L21.0737 19.5728V29.4283Z" fill="#94A3B8"/>
</svg>
