<svg width="128" height="37" viewBox="0 0 128 37" fill="none" xmlns="http://www.w3.org/2000/svg">
<g clip-path="url(#clip0_478_4561)">
<path fill-rule="evenodd" clip-rule="evenodd" d="M36.2283 0.232666H0.220212C0.146808 0.232666 0.0734038 0.232666 0 0.239826V36.6955H36.4548C36.4548 36.6663 36.4566 36.6371 36.4584 36.608C36.4602 36.5792 36.462 36.5504 36.462 36.5219V0.43493V0.232666H36.2283ZM7.33802 29.3783V25.5962C7.37772 25.5892 7.41776 25.5844 7.45798 25.5818C8.27015 25.5733 9.08039 25.5009 9.8812 25.3652C11.6715 25.052 13.3428 24.4524 14.8395 23.4062C15.6752 22.8381 16.3879 22.1076 16.9351 21.2582C17.3773 20.5733 17.6546 19.7952 17.7452 18.985C17.8525 17.9434 17.6335 16.8942 17.1186 15.9824C16.698 15.2268 16.1404 14.556 15.4742 14.0045C14.6505 13.318 13.7236 12.7656 12.7278 12.3676C11.0704 11.7029 9.30283 11.3553 7.51706 11.3429H7.36577C7.32997 11.2041 7.31475 8.01626 7.34608 7.55177C7.37216 7.55177 7.39889 7.55046 7.42596 7.54913C7.45371 7.54777 7.4818 7.5464 7.5099 7.5464C8.13142 7.54568 8.75247 7.58034 9.37005 7.65021C10.4604 7.76801 11.5372 7.98795 12.5864 8.30712C14.2069 8.78864 15.7359 9.53662 17.1106 10.5204C18.3889 11.4467 19.472 12.5573 20.2866 13.9213C20.9397 14.9916 21.3572 16.1888 21.5112 17.4331C21.7231 19.1734 21.396 20.9367 20.574 22.4852C19.8578 23.8751 18.8463 25.0261 17.6307 26.0007C16.1984 27.1489 14.5871 27.9696 12.8487 28.529C11.7151 28.9 10.5445 29.1464 9.35752 29.2637C8.94063 29.3034 8.52197 29.3262 8.10341 29.3491L8.103 29.3491C7.92672 29.3587 7.75046 29.3683 7.57435 29.3792C7.53155 29.3808 7.48774 29.3801 7.43859 29.3793C7.40756 29.3788 7.3744 29.3783 7.33802 29.3783ZM29.1622 7.55273H25.3828V29.3605C25.5726 29.3945 29.0494 29.3864 29.1622 29.3533V7.55273Z" fill="#94A3B8"/>
</g>
<path d="M48.24 16.1851L51.4875 24.5298L54.7527 16.1851H58.5533L52.8792 29.893H50.0957L44.4395 16.1851H48.24Z" fill="#94A3B8"/>
<path d="M65.2881 23.8753C65.181 23.4148 64.9609 23.0451 64.6279 22.7663C64.2948 22.4876 63.8904 22.3482 63.4145 22.3482C62.9149 22.3482 62.5045 22.4815 62.1834 22.7482C61.8741 23.0148 61.6778 23.3905 61.5946 23.8753H65.2881ZM61.5053 25.7843C61.5053 27.2023 62.1596 27.9114 63.4681 27.9114C64.1699 27.9114 64.6992 27.6205 65.0561 27.0387H68.1786C67.5482 29.1719 65.972 30.2385 63.4502 30.2385C62.677 30.2385 61.9693 30.1233 61.3269 29.893C60.6846 29.6506 60.1314 29.3113 59.6675 28.8749C59.2155 28.4386 58.8646 27.9174 58.6148 27.3114C58.365 26.7054 58.2401 26.0267 58.2401 25.2752C58.2401 24.4995 58.359 23.8026 58.5969 23.1845C58.8348 22.5542 59.1738 22.0209 59.614 21.5846C60.0541 21.1483 60.5834 20.815 61.202 20.5847C61.8325 20.3423 62.5402 20.2211 63.3253 20.2211C64.0985 20.2211 64.7944 20.3423 65.413 20.5847C66.0315 20.815 66.5549 21.1543 66.9831 21.6028C67.4114 22.0512 67.7385 22.6027 67.9645 23.2572C68.1905 23.8996 68.3035 24.6268 68.3035 25.4388V25.7843H61.5053Z" fill="#94A3B8"/>
<path d="M70.1496 20.5665H73.3792V21.7482C73.8193 21.2028 74.2654 20.8392 74.7174 20.6574C75.1694 20.4635 75.6988 20.3665 76.3054 20.3665C76.9478 20.3665 77.495 20.4756 77.947 20.6938C78.4109 20.8998 78.8035 21.1968 79.1246 21.5846C79.3863 21.8997 79.5648 22.2512 79.6599 22.6391C79.7551 23.0269 79.8027 23.4693 79.8027 23.9662V29.893H76.5731V25.1843C76.5731 24.7238 76.5374 24.3541 76.466 24.0753C76.4065 23.7844 76.2935 23.5542 76.127 23.3845C75.9843 23.239 75.8237 23.136 75.6452 23.0754C75.4668 23.0148 75.2765 22.9845 75.0743 22.9845C74.5271 22.9845 74.1048 23.1542 73.8074 23.4936C73.5219 23.8208 73.3792 24.2935 73.3792 24.9116V29.893H70.1496V20.5665Z" fill="#94A3B8"/>
<path d="M85.6028 23.3117V29.893H82.3732V23.3117H81.3026V20.5665H82.3732V17.7667H85.6028V20.5665H87.4406V23.3117H85.6028Z" fill="#94A3B8"/>
<path d="M91.8844 20.5665V25.8206C91.8844 26.9721 92.4315 27.5478 93.5259 27.5478C94.6203 27.5478 95.1675 26.9721 95.1675 25.8206V20.5665H98.3971V26.4569C98.3971 27.7174 97.9867 28.6628 97.1659 29.2931C96.357 29.9233 95.1437 30.2385 93.5259 30.2385C91.9081 30.2385 90.6889 29.9233 89.8681 29.2931C89.0592 28.6628 88.6548 27.7174 88.6548 26.4569V20.5665H91.8844Z" fill="#94A3B8"/>
<path d="M100.591 20.5665H103.82V22.0937C104.165 21.5361 104.588 21.1119 105.087 20.821C105.587 20.518 106.17 20.3665 106.836 20.3665C106.919 20.3665 107.008 20.3665 107.103 20.3665C107.211 20.3665 107.329 20.3787 107.46 20.4029V23.5481C107.032 23.3299 106.568 23.2208 106.069 23.2208C105.319 23.2208 104.754 23.4511 104.374 23.9117C104.005 24.3601 103.82 25.0207 103.82 25.8934V29.893H100.591V20.5665Z" fill="#94A3B8"/>
<path d="M115.698 23.8753C115.591 23.4148 115.371 23.0451 115.038 22.7663C114.705 22.4876 114.3 22.3482 113.825 22.3482C113.325 22.3482 112.915 22.4815 112.593 22.7482C112.284 23.0148 112.088 23.3905 112.005 23.8753H115.698ZM111.915 25.7843C111.915 27.2023 112.57 27.9114 113.878 27.9114C114.58 27.9114 115.109 27.6205 115.466 27.0387H118.589C117.958 29.1719 116.382 30.2385 113.86 30.2385C113.087 30.2385 112.379 30.1233 111.737 29.893C111.095 29.6506 110.541 29.3113 110.078 28.8749C109.626 28.4386 109.275 27.9174 109.025 27.3114C108.775 26.7054 108.65 26.0267 108.65 25.2752C108.65 24.4995 108.769 23.8026 109.007 23.1845C109.245 22.5542 109.584 22.0209 110.024 21.5846C110.464 21.1483 110.993 20.815 111.612 20.5847C112.243 20.3423 112.95 20.2211 113.735 20.2211C114.509 20.2211 115.204 20.3423 115.823 20.5847C116.442 20.815 116.965 21.1543 117.393 21.6028C117.821 22.0512 118.149 22.6027 118.375 23.2572C118.601 23.8996 118.714 24.6268 118.714 25.4388V25.7843H111.915Z" fill="#94A3B8"/>
<path d="M126.626 22.9663C126.032 22.6512 125.449 22.4936 124.878 22.4936C124.58 22.4936 124.336 22.5542 124.146 22.6754C123.968 22.7966 123.878 22.9603 123.878 23.1663C123.878 23.2754 123.89 23.3663 123.914 23.439C123.95 23.4996 124.015 23.5602 124.11 23.6208C124.217 23.6814 124.366 23.736 124.556 23.7844C124.759 23.8329 125.02 23.8935 125.342 23.9662C126.234 24.148 126.9 24.4753 127.34 24.948C127.78 25.4085 128 26.0024 128 26.7297C128 27.2751 127.893 27.7659 127.679 28.2023C127.465 28.6386 127.168 29.0083 126.787 29.3113C126.406 29.6021 125.948 29.8264 125.413 29.9839C124.878 30.1536 124.289 30.2385 123.646 30.2385C122.409 30.2385 121.19 29.8809 119.989 29.1658L121.166 26.8387C122.07 27.469 122.927 27.7841 123.736 27.7841C124.033 27.7841 124.277 27.7174 124.467 27.5841C124.658 27.4508 124.753 27.2811 124.753 27.0751C124.753 26.9539 124.735 26.8569 124.699 26.7842C124.675 26.6994 124.616 26.6266 124.521 26.566C124.426 26.4933 124.283 26.4327 124.093 26.3842C123.914 26.3236 123.676 26.263 123.379 26.2024C122.38 25.9964 121.678 25.6934 121.273 25.2934C120.881 24.8813 120.685 24.3177 120.685 23.6026C120.685 23.0815 120.78 22.6148 120.97 22.2027C121.16 21.7785 121.434 21.421 121.791 21.1301C122.148 20.8392 122.576 20.615 123.076 20.4574C123.587 20.2999 124.152 20.2211 124.771 20.2211C125.782 20.2211 126.763 20.4211 127.715 20.821L126.626 22.9663Z" fill="#94A3B8"/>
<defs>
<clipPath id="clip0_478_4561">
<rect width="36.4629" height="36.4629" fill="white" transform="translate(0 0.232666)"/>
</clipPath>
</defs>
</svg>
