<svg width="128" height="45" viewBox="0 0 128 45" fill="none" xmlns="http://www.w3.org/2000/svg">
<g clip-path="url(#clip0_478_4540)">
<path d="M68.7673 17.4181C68.2587 16.7672 67.8819 16.3271 67.5343 15.8362C64.0401 11.0648 60.5825 6.26434 57.0188 1.54389C56.755 1.21753 56.4286 0.946343 56.0588 0.74598C55.6889 0.545617 55.2828 0.420036 54.8638 0.376493C45.6802 0.296485 36.4965 0.311034 27.3129 0.332854C24.459 0.332854 21.7552 0.98019 19.4062 2.6749C15.1766 5.7261 15.173 11.403 19.3733 14.5015C21.8869 16.349 24.7847 16.8581 27.8178 16.869C32.3182 16.869 36.8185 16.869 41.3189 16.8944C42.3473 16.8714 43.3724 17.0189 44.352 17.3309C44.9228 17.5345 45.6363 18.2728 45.6582 18.7855C45.6802 19.2983 45.0069 20.1093 44.4581 20.3093C43.3783 20.6966 42.24 20.8983 41.092 20.9058C35.194 20.9603 29.296 20.9058 23.3943 20.9494C22.7687 20.9494 21.8832 20.9785 21.5649 21.3603C19.7867 23.4333 18.1439 25.6226 16.3621 27.9064C25.8457 27.9064 35.022 28.0046 44.1983 27.8264C46.0278 27.79 48.0291 26.99 49.6536 26.0444C55.5773 22.6114 55.5553 14.9852 49.5292 11.7158C47.3749 10.6289 45.0128 10.0091 42.5994 9.89741C37.9967 9.61375 33.3609 9.80649 28.7399 9.79921C28.2532 9.79921 27.7044 9.91559 27.2983 9.73011C26.8153 9.51191 26.4568 9.02823 26.0433 8.6391C26.4081 8.23504 26.8238 7.87936 27.28 7.58083C27.6202 7.40626 28.1142 7.51537 28.5386 7.51537C35.3513 7.51537 42.1604 7.55172 48.9731 7.48263C50.2903 7.48263 51.0696 7.92631 51.8123 8.93731C55.8566 14.5136 59.941 20.0523 64.0657 25.5535C66.9928 29.4411 70.1064 29.4666 73.0957 25.6044C76.5679 21.1167 80.0474 16.629 83.2489 11.9449C85.3344 8.87913 87.9724 7.44991 91.6166 7.49355C95.7547 7.54082 99.8892 7.519 104.024 7.49355C104.587 7.49355 105.37 7.40263 105.674 7.0426C107.408 4.98422 109.029 2.83491 110.76 0.623787C110.372 0.471045 110.222 0.358317 110.068 0.361954C102.831 0.394685 95.5828 0.194661 88.3676 0.561969C83.0952 0.827449 78.7851 3.2786 75.7922 7.8354C73.6628 11.0393 71.2407 14.0614 68.7673 17.4181ZM78.1119 23.0405C81.189 26.0699 84.7966 27.7028 88.9237 27.881C94.0717 28.1028 99.2342 28.0228 104.39 28.0483C104.785 28.0483 105.344 27.9792 105.553 27.7246C107.324 25.5826 109.029 23.386 110.986 20.9094C104.379 20.9094 98.2573 20.9094 92.1325 20.9094C88.4115 20.9094 85.1807 20.022 83.2306 16.2762L78.1119 23.0405Z" fill="#94A3B8"/>
<path d="M68.7673 17.418C71.2333 14.0613 73.6554 11.0392 75.7702 7.82073C78.7631 3.26029 83.0879 0.809142 88.3456 0.547298C95.5608 0.183627 102.809 0.380014 110.046 0.347283C110.2 0.347283 110.35 0.456396 110.738 0.609139C109.007 2.82026 107.386 4.97318 105.652 7.02793C105.348 7.3916 104.554 7.47163 104.002 7.4789C99.8672 7.51527 95.7327 7.53709 91.5946 7.4789C87.9358 7.43526 85.3124 8.86448 83.2269 11.9302C80.0364 16.6143 76.5459 21.102 73.0737 25.5897C70.0844 29.4519 66.9744 29.4265 64.0437 25.5388C59.8971 20.045 55.8126 14.5062 51.7904 8.92266C51.0586 7.90075 50.2683 7.44252 48.9511 7.46798C42.1384 7.53708 35.3293 7.49708 28.5166 7.50072C28.0922 7.50072 27.5983 7.39161 27.258 7.56618C26.8018 7.86471 26.3862 8.22039 26.0213 8.62445C26.4348 8.98812 26.7933 9.47908 27.2763 9.71547C27.6824 9.90094 28.2313 9.78456 28.7179 9.78456C33.339 9.78456 37.9747 9.5991 42.5775 9.88276C44.9909 9.99445 47.3529 10.6142 49.5073 11.7011C55.5333 14.9742 55.5553 22.6113 49.6317 26.0298C48.0071 26.9753 46.0168 27.7754 44.1764 27.8118C35.0037 27.99 25.8238 27.8918 16.3401 27.8918C18.1219 25.6224 19.7648 23.4331 21.5429 21.3457C21.8722 20.9638 22.7577 20.9384 23.3723 20.9347C29.274 20.9057 35.172 20.9347 41.07 20.8911C42.218 20.8836 43.3563 20.6819 44.4361 20.2947C44.985 20.0947 45.6582 19.28 45.6362 18.7709C45.6143 18.2618 44.9045 17.5053 44.33 17.3162C43.3504 17.0042 42.3253 16.8567 41.2969 16.8798C36.7965 16.8362 32.2962 16.8798 27.7958 16.8543C24.7627 16.8543 21.8649 16.3343 19.3513 14.4868C15.151 11.3956 15.1546 5.71146 19.3842 2.66025C21.7332 0.965542 24.4371 0.325479 27.2909 0.318206C36.4746 0.296385 45.6582 0.281837 54.8418 0.361845C55.2641 0.406257 55.6731 0.533989 56.0451 0.737569C56.417 0.941149 56.7443 1.21646 57.0078 1.5474C60.5679 6.27512 64.0291 11.0683 67.5233 15.8397C67.8891 16.3125 68.266 16.7671 68.7673 17.418Z" fill="#94A3B8"/>
<path d="M78.1191 23.0405L83.2415 16.2834C85.188 20.0293 88.4224 20.9312 92.1434 20.9166C98.2682 20.8948 104.389 20.9166 110.997 20.9166C109.04 23.3932 107.338 25.5898 105.564 27.7318C105.355 27.9864 104.796 28.0555 104.4 28.0555C99.2451 28.03 94.0825 28.1101 88.9346 27.8882C84.8038 27.7027 81.2072 26.0699 78.1191 23.0405Z" fill="#94A3B8"/>
<path d="M1.90735e-06 43.1914L1.32815 41.6131C2.11297 42.2628 3.09852 42.6248 4.11983 42.6386C4.7711 42.6386 5.11502 42.4204 5.11502 42.0531V42.0276C5.11502 41.664 4.8333 41.4785 3.6515 41.1985C1.82209 40.7839 0.406131 40.2711 0.406131 38.5218V38.4964C0.406131 36.9108 1.67208 35.7616 3.73931 35.7616C5.01647 35.7126 6.26985 36.1146 7.27739 36.8962L6.08461 38.5618C5.38926 38.0398 4.54811 37.745 3.67711 37.7181C3.09902 37.7181 2.81729 37.9509 2.81729 38.2673V38.2927C2.81729 38.6819 3.10999 38.8528 4.31374 39.1219C6.28219 39.551 7.51155 40.1838 7.51155 41.7876V41.8349C7.51155 43.5841 6.1212 44.6206 4.03202 44.6206C2.55755 44.6494 1.12342 44.141 1.90735e-06 43.1914V43.1914Z" fill="#94A3B8"/>
<path d="M8.66771 35.907H11.0533V39.3764L14.0279 35.907H16.8415L13.5852 39.5728L16.9513 44.4605H14.101L11.9058 41.2857L11.035 42.2385V44.4605H8.64941L8.66771 35.907Z" fill="#94A3B8"/>
<path d="M19.7685 41.2605L16.4756 35.9072H19.1904L20.9613 39.0239L22.7431 35.9072H25.4104L22.1431 41.2241V44.4608H19.7575L19.7685 41.2605Z" fill="#94A3B8"/>
<path d="M25.2275 35.9072H27.8838L29.8376 41.3223L31.8134 35.9072H34.4185L30.928 44.5226H28.7327L25.2275 35.9072Z" fill="#94A3B8"/>
<path d="M35.3184 35.9072H37.7039V44.4608H35.3184V35.9072Z" fill="#94A3B8"/>
<path d="M38.626 43.1915L39.9541 41.6131C40.7386 42.2634 41.7244 42.6255 42.7458 42.6387C43.3971 42.6387 43.741 42.4205 43.741 42.0532V42.0277C43.741 41.6641 43.4556 41.4786 42.2775 41.1985C40.4481 40.784 39.0321 40.2712 39.0321 38.5219V38.4965C39.0321 36.9109 40.2981 35.7617 42.3616 35.7617C43.64 35.7121 44.8947 36.1141 45.9034 36.8963L44.7106 38.5619C44.0152 38.0399 43.1741 37.7451 42.3031 37.7182C41.725 37.7182 41.4433 37.951 41.4433 38.2674V38.2928C41.4433 38.6819 41.736 38.8529 42.9397 39.122C44.9082 39.5511 46.1375 40.1839 46.1375 41.7877V41.835C46.1375 43.5842 44.7472 44.6207 42.658 44.6207C41.1835 44.6495 39.7494 44.1411 38.626 43.1915V43.1915Z" fill="#94A3B8"/>
<path d="M47.356 35.9072H49.7415V44.4608H47.3596L47.356 35.9072Z" fill="#94A3B8"/>
<path d="M51.0293 40.2094V40.184C51.0334 39.5866 51.1577 38.996 51.3948 38.447C51.6319 37.898 51.9771 37.4017 52.4101 36.9873C52.8431 36.5729 53.355 36.2487 53.9159 36.0339C54.4768 35.819 55.0752 35.7178 55.676 35.7363C58.3323 35.7363 60.3007 37.7037 60.3007 40.1585V40.184C60.2961 40.7813 60.1715 41.3716 59.9342 41.9204C59.6969 42.4691 59.3517 42.9652 58.9188 43.3796C58.486 43.7939 57.9742 44.1181 57.4136 44.3331C56.8529 44.5481 56.2547 44.6496 55.654 44.6317C52.9977 44.6317 51.0293 42.6642 51.0293 40.2094ZM57.853 40.2094V40.184C57.8564 39.6053 57.6284 39.0489 57.2191 38.6373C56.8098 38.2257 56.2527 37.9926 55.6705 37.9892C55.0883 37.9858 54.5286 38.2125 54.1145 38.6193C53.7004 39.0261 53.4658 39.5798 53.4624 40.1585V40.184C53.4506 40.4812 53.499 40.7778 53.6047 41.0561C53.7104 41.3344 53.8713 41.5887 54.0777 41.8041C54.2841 42.0195 54.532 42.1914 54.8065 42.3098C55.0811 42.4282 55.3767 42.4906 55.676 42.4933C55.9716 42.4912 56.2637 42.4297 56.5348 42.3127C56.8059 42.1956 57.0504 42.0253 57.2537 41.8121C57.457 41.5988 57.6149 41.3469 57.7178 41.0715C57.8208 40.7961 57.8668 40.5029 57.853 40.2094V40.2094Z" fill="#94A3B8"/>
<path d="M61.5303 35.9072H63.7548L67.3039 40.4277V35.9072H69.6675V44.4608H67.5893L63.9012 39.7694V44.4608H61.5412L61.5303 35.9072Z" fill="#94A3B8"/>
<path d="M74.6579 40.2094V40.1839C74.6427 39.607 74.7442 39.0329 74.9565 38.4958C75.1687 37.9587 75.4873 37.4694 75.8934 37.0569C76.2994 36.6445 76.7847 36.3173 77.3204 36.0948C77.8561 35.8723 78.4313 35.759 79.0119 35.7616C79.6359 35.7425 80.2571 35.8533 80.8355 36.0869C81.414 36.3206 81.9369 36.6718 82.3707 37.1181L81.7048 37.8455C81.3577 37.4778 80.939 37.184 80.4742 36.9821C80.0094 36.7802 79.5082 36.6743 79.0009 36.6708C77.0947 36.6708 75.6714 38.2128 75.6714 40.1766V40.2021C75.6714 42.1804 77.1093 43.7333 79.0009 43.7333C80.1827 43.7333 80.9547 43.2824 81.7779 42.5005L82.4182 43.1223C81.9883 43.606 81.4577 43.9908 80.8632 44.2502C80.2686 44.5096 79.6244 44.6372 78.9753 44.6243C78.3967 44.6281 77.8233 44.5156 77.2896 44.2934C76.7558 44.0713 76.2728 43.7442 75.8695 43.3318C75.4662 42.9194 75.151 42.4302 74.9428 41.8936C74.7346 41.357 74.6377 40.7841 74.6579 40.2094Z" fill="#94A3B8"/>
<path d="M87.2953 35.8452H88.2063L92.1249 44.4606H91.0858L90.0723 42.1985H85.389L84.3682 44.457H83.373L87.2953 35.8452ZM89.6918 41.3221L87.738 36.958L85.7696 41.3221H89.6918Z" fill="#94A3B8"/>
<path d="M93.8232 35.907H97.043C98.9858 35.907 100.266 36.9325 100.266 38.62V38.6454C100.266 40.4892 98.7151 41.4421 96.8857 41.4421H94.7965V44.4605H93.8232V35.907ZM96.9405 40.562C98.3675 40.562 99.3005 39.8055 99.3005 38.6818V38.6563C99.3005 37.4344 98.3785 36.798 96.9881 36.798H94.8148V40.562H96.9405Z" fill="#94A3B8"/>
<path d="M102.121 35.907H103.094V44.4605H102.121V35.907Z" fill="#94A3B8"/>
<path d="M107.888 36.7982H104.99V35.9072H111.759V36.7982H108.872V44.4608H107.888V36.7982Z" fill="#94A3B8"/>
<path d="M115.655 35.8452H116.566L120.488 44.4606H119.442L118.436 42.1985H113.771L112.75 44.457H111.755L115.655 35.8452ZM118.055 41.3221L116.098 36.958L114.133 41.3221H118.055Z" fill="#94A3B8"/>
<path d="M122.186 35.9072H123.159V43.5698H128.004V44.4608H122.186V35.9072Z" fill="#94A3B8"/>
</g>
<defs>
<clipPath id="clip0_478_4540">
<rect width="128" height="44.3352" fill="white" transform="translate(0 0.296387)"/>
</clipPath>
</defs>
</svg>
