<svg width="128" height="39" viewBox="0 0 128 39" fill="none" xmlns="http://www.w3.org/2000/svg">
<g clip-path="url(#clip0_478_4506)">
<path d="M38.2836 1.80095C38.2836 0.594786 37.5585 0.539307 36.7198 0.539307C24.9036 0.539307 13.0874 0.539307 1.27126 0.539307C0.916846 0.580578 0.568228 0.661498 0.23194 0.78054L-0.00976562 1.23647L8.15986 9.13927H0.260943L0.115926 9.47941C2.07132 11.3755 4.04603 13.2523 5.97968 15.1677C10.7171 19.8621 15.4304 24.5758 20.1702 29.2702C20.4434 29.5404 20.8567 29.6706 21.3788 29.9577V22.4795L21.7026 22.3396L37.9428 38.4009C38.2401 37.9474 38.2667 37.7495 38.2667 37.5517C38.2667 25.63 38.2724 13.7131 38.2836 1.80095ZM18.5774 23.3889L6.79664 11.5685C10.4827 11.5685 14.0986 11.554 17.7145 11.595C17.7665 11.598 17.8178 11.6086 17.8668 11.6264C18.1592 11.7156 18.5387 12.0075 18.5411 12.1836C18.5774 14.9988 18.5798 17.8164 18.5774 20.6051V23.3889ZM35.388 31.9889C35.091 31.8314 34.8093 31.6464 34.5469 31.4365C30.3412 27.2664 26.1516 23.085 21.9782 18.8923C21.6281 18.4896 21.4291 17.9779 21.415 17.4449C21.3594 15.0012 21.3618 12.5527 21.415 10.1066C21.415 9.30813 21.1395 9.06449 20.3708 9.07414C17.9199 9.1063 15.4683 9.1063 13.0158 9.07414C12.5903 9.07414 12.0489 8.94629 11.7637 8.66887C10.0355 6.98023 8.36532 5.22406 6.56461 3.37862H35.4073L35.388 31.9889Z" fill="#94A3B8"/>
<path d="M52.9844 3.63428H55.7085L61.4659 17.1433H58.3769L57.149 14.1207H51.4689L50.2411 17.1265H47.2271L52.9844 3.63428ZM56.0879 11.525L54.3042 7.18282L52.518 11.525H56.0879Z" fill="#94A3B8"/>
<path d="M71.0203 15.8334C69.9314 16.7862 68.5358 17.3169 67.0878 17.3291C64.516 17.3291 62.5776 15.8334 62.5776 13.4693V13.4307C62.5776 11.7252 63.4984 10.5191 65.1879 9.75435C64.5911 8.98573 64.2611 8.04416 64.2477 7.07184V7.03324C64.2477 5.19504 65.7246 3.51123 68.3157 3.51123C70.5998 3.51123 72.0959 5.00446 72.0959 6.8885V6.92709C72.0959 8.7267 70.9454 9.78088 69.2752 10.4322L71.059 12.2125C71.5013 11.5226 71.9412 10.7386 72.3642 9.91356L74.5396 11.1004C74.0166 12.0842 73.4271 13.0312 72.7751 13.9349L74.7523 15.9082L72.5769 17.4207L71.0203 15.8334ZM69.3719 14.1448L66.8002 11.5395C65.9179 11.9978 65.5529 12.6492 65.5529 13.3005V13.3391C65.5529 14.2775 66.3385 14.9095 67.4334 14.9095C68.1499 14.8821 68.8363 14.6144 69.3816 14.1496L69.3719 14.1448ZM69.5242 7.07666V7.03807C69.5335 6.8705 69.507 6.70286 69.4464 6.54631C69.3858 6.38976 69.2925 6.24789 69.1727 6.13013C69.0529 6.01237 68.9093 5.92143 68.7515 5.86335C68.5937 5.80527 68.4254 5.7814 68.2577 5.7933C67.4721 5.7933 66.9524 6.34814 66.9524 7.15385V7.19245C66.9524 7.78589 67.1941 8.22493 67.7404 8.85696C68.9102 8.42274 69.5242 7.92339 69.5242 7.08149V7.07666Z" fill="#94A3B8"/>
<path d="M79.062 6.44942H74.9747V3.73071H86.0932V6.44942H82.0059V17.136H79.0523L79.062 6.44942Z" fill="#94A3B8"/>
<path d="M47.2172 28.6212V28.5802C47.2172 24.624 50.2071 21.3818 54.4901 21.3818C57.1198 21.3818 58.6958 22.2575 59.9913 23.5288L58.0384 25.7771C56.9604 24.8122 55.863 24.2067 54.4708 24.2067C52.119 24.2067 50.4246 26.1534 50.4246 28.5489V28.5875C50.4246 30.9757 52.0803 32.9634 54.4708 32.9634C56.0636 32.9634 57.0401 32.3266 58.1374 31.3327L60.0904 33.3012C58.6547 34.833 57.0618 35.7883 54.3716 35.7883C50.2651 35.7811 47.2172 32.6185 47.2172 28.6212Z" fill="#94A3B8"/>
<path d="M66.1282 21.5217H68.9562L74.9408 35.5422H71.7261L70.4523 32.4182H64.5475L63.2713 35.5422H60.1484L66.1282 21.5217ZM69.355 29.7237L67.5035 25.2102L65.6497 29.7237H69.355Z" fill="#94A3B8"/>
<path d="M75.8907 21.6206H81.5901C84.9184 21.6206 86.9318 23.5891 86.9318 26.4453V26.4839C86.9318 29.7067 84.4205 31.3761 81.2928 31.3761H78.9603V35.5422H75.8907V21.6206ZM81.3919 28.6405C82.9267 28.6405 83.8235 27.7262 83.8235 26.5321V26.4935C83.8235 25.1209 82.8566 24.3851 81.3315 24.3851H78.9603V28.6405H81.3919Z" fill="#94A3B8"/>
<path d="M88.1476 21.6206H91.2148V35.5422H88.1476V21.6206Z" fill="#94A3B8"/>
<path d="M96.7546 24.443H92.5103V21.6206H104.069V24.443H99.8364V35.5398H96.7667L96.7546 24.443Z" fill="#94A3B8"/>
<path d="M108.214 21.5217H111.042L117.022 35.5422H113.812L112.538 32.4182H106.638L105.365 35.5422H102.234L108.214 21.5217ZM111.441 29.7237L109.59 25.2102L107.736 29.7237H111.441Z" fill="#94A3B8"/>
<path d="M117.976 21.6206H121.046V32.7584H128V35.5422H117.976V21.6206Z" fill="#94A3B8"/>
</g>
<defs>
<clipPath id="clip0_478_4506">
<rect width="128" height="37.8592" fill="white" transform="translate(0 0.534424)"/>
</clipPath>
</defs>
</svg>
