<svg width="185" height="64" viewBox="0 0 185 64" fill="none" xmlns="http://www.w3.org/2000/svg">
<path d="M84.2065 22.4915H80.592L73.8595 32.5902L67.0718 22.4915H63.7332V41.806H67.2925V28.5894L72.7282 36.7843H74.9632L80.6747 28.5342V41.806H84.2065V22.4915Z" fill="#3538CD"/>
<path d="M93.1194 42.1923C96.872 42.1923 98.4999 40.0677 99.2725 38.6053L96.4305 37.1154C95.9614 38.1639 95.1613 39.1572 93.2298 39.1572C91.2984 39.1572 89.836 37.8603 89.7532 35.9841H99.714V34.7976C99.714 30.6036 97.0927 27.734 93.0643 27.734C88.9806 27.734 86.2214 30.4932 86.2214 34.7976V35.1287C86.2214 39.4331 89.0082 42.1923 93.1194 42.1923ZM89.7808 33.3904C90.0291 31.8177 91.1604 30.7692 93.0367 30.7692C94.8302 30.7692 96.0166 31.8177 96.1822 33.3904H89.7808Z" fill="#3538CD"/>
<path d="M103.509 41.806H110.958V38.9364H106.985V30.9899H110.958V28.1203H106.985V23.8711H103.509V28.1203H100.087V30.9899H103.509V41.806Z" fill="#3538CD"/>
<path d="M117.381 42.1923C120.251 42.1923 121.106 40.6472 121.354 39.9573H121.879V41.806H126.542V38.9364H124.665V33.0041C124.665 29.5827 122.403 27.734 118.816 27.734C115.257 27.734 113.463 29.5275 112.801 31.5969L116.002 32.673C116.25 31.4314 117.022 30.5484 118.761 30.5484C120.527 30.5484 121.299 31.4866 121.299 32.7558V33.5284H117.547C114.456 33.5284 112.249 34.9908 112.249 37.8052C112.249 40.6196 114.456 42.1923 117.381 42.1923ZM115.726 37.6948C115.726 36.7015 116.498 36.122 117.795 36.122H121.299V36.398C121.299 38.219 119.92 39.3779 117.988 39.3779C116.498 39.3779 115.726 38.6881 115.726 37.6948Z" fill="#3538CD"/>
<path d="M129.12 47.3245H140.764V28.1203H137.288V35.0735C137.288 37.612 136.046 39.102 133.921 39.102C132.045 39.102 130.997 38.0811 130.997 36.0117V28.1203H127.52V36.2876C127.52 39.6814 129.645 42.0268 132.845 42.0268C135.301 42.0268 136.405 40.9507 136.846 40.0125H137.343V44.2893H129.12V47.3245Z" fill="#3538CD"/>
<path d="M143.557 41.806H147.033V28.1203H143.557V41.806ZM143.288 26.52H147.302V22.4915H143.288V26.52Z" fill="#3538CD"/>
<path d="M156.046 42.1923C159.798 42.1923 161.426 40.0677 162.199 38.6053L159.357 37.1154C158.888 38.1639 158.088 39.1572 156.156 39.1572C154.225 39.1572 152.762 37.8603 152.679 35.9841H162.64V34.7976C162.64 30.6036 160.019 27.734 155.991 27.734C151.907 27.734 149.148 30.4932 149.148 34.7976V35.1287C149.148 39.4331 151.935 42.1923 156.046 42.1923ZM152.707 33.3904C152.955 31.8177 154.087 30.7692 155.963 30.7692C157.756 30.7692 158.943 31.8177 159.108 33.3904H152.707Z" fill="#3538CD"/>
<path d="M164.659 41.806H168.135V22.4915H164.659V41.806Z" fill="#3538CD"/>
<path d="M176.43 42.1923C178.913 42.1923 180.1 41.199 180.734 40.1505H181.231V41.806H184.653V22.4915H181.176V29.6931H180.679C180.1 28.7273 178.913 27.734 176.43 27.734C173.119 27.734 170.249 30.2725 170.249 34.7424V35.1839C170.249 39.6538 173.147 42.1923 176.43 42.1923ZM173.726 35.1011V34.8252C173.726 32.1764 175.326 30.7692 177.479 30.7692C179.631 30.7692 181.231 32.1764 181.231 34.8252V35.1011C181.231 37.75 179.603 39.1572 177.479 39.1572C175.354 39.1572 173.726 37.75 173.726 35.1011Z" fill="#3538CD"/>
<path d="M6.38496 47.962L-2.79095e-07 41.5771L6.38496 35.1921L12.7699 41.5771L6.38496 47.962Z" fill="#8098F9"/>
<path d="M19.1552 47.962L12.7703 41.5771L19.1552 35.1921L25.5402 41.5771L19.1552 47.962Z" fill="#8098F9"/>
<path d="M31.9243 47.962L25.5393 41.5771L31.9243 35.1921L38.3092 41.5771L31.9243 47.962Z" fill="#8098F9"/>
<path d="M44.6945 47.962L38.3096 41.5771L44.6945 35.1921L51.0795 41.5771L44.6945 47.962Z" fill="#8098F9"/>
<path d="M12.7701 41.5769L6.38513 35.1919L12.7701 28.807L19.1551 35.1919L12.7701 41.5769Z" fill="#6172F3"/>
<path d="M25.5402 41.5769L19.1553 35.1919L25.5402 28.807L31.9252 35.1919L25.5402 41.5769Z" fill="#6172F3"/>
<path d="M38.3093 41.5769L31.9243 35.1919L38.3093 28.807L44.6942 35.1919L38.3093 41.5769Z" fill="#6172F3"/>
<path d="M19.1552 35.193L12.7703 28.808L19.1552 22.4231L25.5402 28.808L19.1552 35.193Z" fill="#3538CD"/>
<path d="M31.9243 35.193L25.5393 28.808L31.9243 22.4231L38.3092 28.808L31.9243 35.193Z" fill="#3538CD"/>
<path d="M25.5402 28.8079L19.1553 22.4229L25.5402 16.0379L31.9252 22.4229L25.5402 28.8079Z" fill="#2D31A6"/>
</svg>
