<svg width="232" height="43" viewBox="0 0 232 43" fill="none" xmlns="http://www.w3.org/2000/svg">
<path d="M24.8458 18.0922L49.6916 30.5461L24.8458 43L0 30.5461L24.8458 18.0922Z" fill="#6172F3"/>
<path d="M24.8458 9.04608L49.6916 21.5L24.8458 33.9539L0 21.5L24.8458 9.04608Z" fill="#3538CD"/>
<path d="M24.8458 0L49.6916 12.4539L24.8458 24.9078L0 12.4539L24.8458 0Z" fill="#2D31A6"/>
<path d="M89.3767 11.1263H86.2448L79.3492 22.0055L72.5085 11.1263H69.5415V30.3571H72.4536V15.8516L78.2228 25.1648H80.4481L86.5196 15.7967V30.3571H89.3767V11.1263Z" fill="#3538CD"/>
<path d="M99.6834 30.7418C103.337 30.7418 104.931 28.6813 105.755 27.1154L103.392 25.9066C102.815 27.1703 101.881 28.2692 99.7384 28.2692C97.4581 28.2692 95.7823 26.7582 95.6999 24.3681H106.112V23.2967C106.112 19.1758 103.475 16.4285 99.5735 16.4285C95.59 16.4285 92.8153 19.2033 92.8153 23.4341V23.7637C92.8153 27.967 95.5625 30.7418 99.6834 30.7418ZM95.7274 22.1978C96.0021 20.1648 97.4032 18.9286 99.5461 18.9286C101.661 18.9286 103.09 20.1648 103.255 22.1978H95.7274Z" fill="#3538CD"/>
<path d="M111.425 30.3571H118.403V27.967H114.255V19.2033H118.403V16.8132H114.255V12.3351H111.425V16.8132H107.689V19.2033H111.425V30.3571Z" fill="#3538CD"/>
<path d="M126.036 30.7418C128.838 30.7418 129.827 29.3132 130.239 28.4341H130.679V30.3571H134.937V27.9945H133.014V21.5934C133.014 18.2967 130.871 16.4285 127.355 16.4285C123.893 16.4285 122.107 18.2692 121.448 20.4121L124.085 21.2637C124.415 19.8077 125.376 18.7912 127.327 18.7912C129.305 18.7912 130.239 19.8351 130.239 21.4011V22.2802H126.118C123.151 22.2802 120.953 23.7088 120.953 26.456C120.953 29.2033 123.151 30.7418 126.036 30.7418ZM123.783 26.3736C123.783 25.1374 124.772 24.478 126.283 24.478H130.239V24.7527C130.239 27.033 128.701 28.4066 126.448 28.4066C124.772 28.4066 123.783 27.6099 123.783 26.3736Z" fill="#3538CD"/>
<path d="M137.688 30.3571H140.518V19.3132H145.381V16.8132H137.688V30.3571Z" fill="#3538CD"/>
<path d="M154.038 30.7418C157.692 30.7418 159.286 28.6813 160.11 27.1154L157.747 25.9066C157.17 27.1703 156.236 28.2692 154.093 28.2692C151.813 28.2692 150.137 26.7582 150.055 24.3681H160.467V23.2967C160.467 19.1758 157.83 16.4285 153.928 16.4285C149.945 16.4285 147.17 19.2033 147.17 23.4341V23.7637C147.17 27.967 149.917 30.7418 154.038 30.7418ZM150.082 22.1978C150.357 20.1648 151.758 18.9286 153.901 18.9286C156.016 18.9286 157.445 20.1648 157.61 22.1978H150.082Z" fill="#3538CD"/>
<path d="M170.164 30.7418C174.065 30.7418 176.236 28.4066 176.868 25.5769L174.12 24.945C173.791 26.8407 172.609 28.2143 170.219 28.2143C167.857 28.2143 166.043 26.5659 166.043 23.7088V23.4615C166.043 20.6044 167.857 18.956 170.219 18.956C172.609 18.956 173.791 20.4121 174.038 22.2253L176.785 21.6483C176.263 18.7912 174.065 16.4285 170.164 16.4285C166.236 16.4285 163.214 19.0384 163.214 23.4066V23.7637C163.214 28.1593 166.236 30.7418 170.164 30.7418Z" fill="#3538CD"/>
<path d="M180.131 30.3571H182.961V16.8132H180.131V30.3571ZM179.609 14.9725H183.51V11.3736H179.609V14.9725Z" fill="#3538CD"/>
<path d="M187.16 35.8517H189.99V28.5165H190.43C191.061 29.6154 192.353 30.7418 194.99 30.7418C198.397 30.7418 201.254 28.1593 201.254 23.7912V23.3791C201.254 19.011 198.369 16.4285 194.99 16.4285C192.353 16.4285 191.061 17.5549 190.375 18.7637H189.935V16.8132H187.16V35.8517ZM189.963 23.7088V23.4615C189.963 20.5494 191.748 18.9286 194.166 18.9286C196.611 18.9286 198.397 20.5494 198.397 23.4615V23.7088C198.397 26.6209 196.638 28.2692 194.166 28.2692C191.721 28.2692 189.963 26.6209 189.963 23.7088Z" fill="#3538CD"/>
<path d="M210.969 30.7418C214.623 30.7418 216.216 28.6813 217.04 27.1154L214.678 25.9066C214.101 27.1703 213.167 28.2692 211.024 28.2692C208.744 28.2692 207.068 26.7582 206.985 24.3681H217.397V23.2967C217.397 19.1758 214.76 16.4285 210.859 16.4285C206.875 16.4285 204.101 19.2033 204.101 23.4341V23.7637C204.101 27.967 206.848 30.7418 210.969 30.7418ZM207.013 22.1978C207.287 20.1648 208.689 18.9286 210.831 18.9286C212.947 18.9286 214.375 20.1648 214.54 22.1978H207.013Z" fill="#3538CD"/>
<path d="M226.353 30.7418C229.732 30.7418 231.93 29.1758 231.93 26.456C231.93 23.7088 229.595 22.8297 226.655 22.3077L225.694 22.1428C224.21 21.8681 223.304 21.456 223.304 20.3571C223.304 19.3406 224.21 18.7362 225.776 18.7362C227.369 18.7362 228.496 19.3406 228.798 20.989L231.435 20.2472C230.859 17.8846 228.826 16.4285 225.776 16.4285C222.617 16.4285 220.556 17.9121 220.556 20.467C220.556 23.022 222.754 24.0934 225.501 24.5879L226.463 24.7527C228.221 25.0824 229.155 25.4945 229.155 26.5934C229.155 27.7198 228.139 28.4615 226.353 28.4615C224.54 28.4615 223.001 27.7472 222.617 25.467L219.979 26.0989C220.474 29.2033 222.891 30.7418 226.353 30.7418Z" fill="#3538CD"/>
</svg>
