<svg width="48" height="48" viewBox="0 0 48 48" fill="none" xmlns="http://www.w3.org/2000/svg">
<rect width="48" height="48" rx="24" fill="black"/>
<path d="M32.0671 12.2708L26.8403 20.0278C26.7663 20.1395 26.7351 20.2741 26.7526 20.407C26.7701 20.5398 26.8349 20.6619 26.9353 20.7507C27.0356 20.8395 27.1647 20.889 27.2986 20.8901C27.4326 20.8913 27.5625 20.844 27.6644 20.7569L32.8102 16.2986C32.8404 16.2731 32.8773 16.2568 32.9164 16.2515C32.9556 16.2461 32.9955 16.2521 33.0314 16.2686C33.0674 16.2851 33.0978 16.3115 33.1193 16.3447C33.1408 16.3779 33.1524 16.4165 33.1528 16.456V30.4259C33.1524 30.4685 33.139 30.51 33.1143 30.5448C33.0896 30.5795 33.0549 30.6059 33.0148 30.6202C32.9746 30.6346 32.9311 30.6363 32.8899 30.6252C32.8488 30.614 32.8121 30.5905 32.7847 30.5579L17.2407 11.9421C16.9902 11.6469 16.6785 11.4097 16.3271 11.247C15.9758 11.0843 15.5932 11 15.206 11H14.6644C13.9577 11 13.28 11.2807 12.7804 11.7804C12.2807 12.28 12 12.9577 12 13.6644V33.3403C12.0012 34.0461 12.2825 34.7226 12.782 35.2213C13.2815 35.7199 13.9585 36 14.6644 36C15.1196 36 15.5673 35.8832 15.9645 35.6607C16.3617 35.4382 16.6951 35.1174 16.9329 34.7292L22.1597 26.9722C22.2337 26.8605 22.2649 26.7259 22.2474 26.593C22.2299 26.4602 22.1651 26.3381 22.0647 26.2493C21.9644 26.1605 21.8353 26.111 21.7014 26.1099C21.5674 26.1087 21.4375 26.156 21.3356 26.2431L16.1898 30.7014C16.1596 30.7269 16.1227 30.7432 16.0836 30.7485C16.0444 30.7539 16.0045 30.7479 15.9686 30.7314C15.9326 30.7149 15.9022 30.6885 15.8807 30.6553C15.8592 30.6221 15.8476 30.5835 15.8472 30.544V16.5741C15.8476 16.5315 15.861 16.49 15.8857 16.4552C15.9104 16.4205 15.9451 16.3941 15.9852 16.3798C16.0254 16.3654 16.0689 16.3637 16.1101 16.3748C16.1512 16.386 16.1879 16.4095 16.2153 16.4421L31.7593 35.0579C32.0098 35.3531 32.3215 35.5903 32.6729 35.753C33.0242 35.9157 33.4068 36 33.794 36H34.3356C35.0423 36 35.72 35.7193 36.2196 35.2196C36.7193 34.72 37 34.0423 37 33.3356V13.6597C36.9988 12.9539 36.7175 12.2774 36.218 11.7787C35.7185 11.2801 35.0415 11 34.3356 11V11C33.8804 11 33.4327 11.1168 33.0355 11.3393C32.6383 11.5618 32.3049 11.8826 32.0671 12.2708V12.2708Z" fill="white"/>
</svg>
