<svg width="84" height="48" viewBox="0 0 84 48" fill="none" xmlns="http://www.w3.org/2000/svg">
<circle cx="60" cy="24" r="24" fill="#EDF0F4"/>
<path d="M59.5553 5.20043V5.21866C59.5735 5.30979 59.5735 5.41915 59.5735 5.52851V18.6699C59.5553 18.7428 59.5006 18.761 59.4459 18.7975C59.0632 18.9797 58.6986 19.1438 58.3159 19.3078C57.7873 19.5448 57.2405 19.7999 56.7119 20.0369L54.7981 20.9118C54.2696 21.1487 53.741 21.3857 53.2307 21.6226C52.611 21.9142 51.973 22.1876 51.3533 22.4793C50.8247 22.7162 50.2962 22.9714 49.7494 23.2083C49.3119 23.4088 48.8745 23.5911 48.4553 23.7916C48.4188 23.8098 48.3824 23.828 48.3459 23.828C48.3277 23.828 48.3277 23.828 48.3095 23.8098L48.8016 22.9896C49.7494 21.4221 50.6789 19.8728 51.6267 18.3054C52.6292 16.6285 53.6499 14.9517 54.6523 13.2748C55.5819 11.7256 56.5297 10.1763 57.4592 8.62703C58.1336 7.49698 58.8262 6.36693 59.5006 5.23688C59.5188 5.20043 59.5371 5.18221 59.5371 5.14575H59.5553C59.5371 5.16398 59.5553 5.18221 59.5553 5.20043Z" fill="#8A92B2"/>
<path d="M70.7457 23.8098L70.7639 23.828L68.0846 25.4137L59.6639 30.3896C59.6275 30.4078 59.591 30.426 59.5728 30.4443C59.5181 30.4443 59.5181 30.3896 59.5181 30.3714V30.2073V18.9433C59.5181 18.8886 59.5181 18.8157 59.5364 18.761C59.5546 18.6881 59.6093 18.7063 59.6639 18.7246C59.9009 18.8339 60.1561 18.9433 60.393 19.0526C61.1038 19.3807 61.8147 19.7088 62.5255 20.0186C63.1452 20.292 63.7467 20.5837 64.3664 20.8571C64.9861 21.1305 65.6058 21.4221 66.2255 21.6955C66.7541 21.9324 67.3009 22.1876 67.8295 22.4246C68.358 22.6615 68.9048 22.9167 69.4334 23.1536C69.8526 23.3359 70.2718 23.5364 70.691 23.7186C70.691 23.7733 70.7093 23.7915 70.7457 23.8098Z" fill="#454A75"/>
<path d="M59.5545 41.7631C59.5545 41.7813 59.5363 41.7995 59.5363 41.8178H59.5181C59.5181 41.7813 59.4816 41.7631 59.4634 41.7266C58.3334 40.1409 57.2033 38.537 56.0733 36.9513C54.925 35.3291 53.7585 33.6887 52.6102 32.0665C51.4984 30.499 50.3683 28.9133 49.2565 27.3458C48.9649 26.9266 48.6733 26.5256 48.3816 26.1064C48.3634 26.07 48.3452 26.0518 48.3087 25.9971C48.3634 25.9971 48.3999 26.0335 48.4181 26.0518C50.0038 26.9813 51.5713 27.9109 53.157 28.8404C54.9797 29.9158 56.7841 30.9912 58.6068 32.0665L59.5363 32.6133C59.5728 32.6498 59.5728 32.6862 59.5728 32.7227V41.5079C59.5728 41.599 59.5728 41.6902 59.5545 41.7631Z" fill="#8A92B2"/>
<path d="M48.2906 23.8462V23.828C48.8739 23.5728 49.4389 23.2994 50.0221 23.0442C50.7694 22.6979 51.5167 22.3698 52.264 22.0235C52.829 21.7684 53.4123 21.495 53.9773 21.2398C54.8157 20.857 55.6359 20.4925 56.4744 20.1097C57.0394 19.8546 57.6044 19.5994 58.1877 19.326C58.5886 19.1437 59.0079 18.9615 59.4088 18.7792C59.4453 18.761 59.5 18.7428 59.5182 18.7063C59.5364 18.7063 59.5364 18.7245 59.5182 18.7428V30.3166C59.5182 30.3713 59.5 30.426 59.5364 30.4625C59.5 30.5171 59.4635 30.4625 59.4453 30.4442C59.2813 30.3531 59.1172 30.262 58.9532 30.1526C55.4354 28.0748 51.8995 25.9787 48.3817 23.9009C48.3635 23.8827 48.3271 23.8644 48.2906 23.8462Z" fill="#62688F"/>
<path d="M70.7092 25.9971H70.7275C70.7275 26.0335 70.691 26.07 70.6728 26.1064C67.3191 30.8271 63.9654 35.566 60.6117 40.2867C60.2654 40.7788 59.9009 41.271 59.5546 41.7631C59.5363 41.7449 59.5363 41.7266 59.5363 41.7084V41.599V32.7591V32.5951C60.3018 32.1394 61.0491 31.702 61.8147 31.2463C64.7674 29.4966 67.7201 27.7651 70.6546 26.0153C70.6728 26.0335 70.691 26.0153 70.7092 25.9971Z" fill="#62688F"/>
<path d="M59.5365 18.7429V18.7064V18.5971V5.36456C59.5365 5.30988 59.5182 5.27343 59.5547 5.21875C63.2547 11.3611 66.9547 17.4852 70.6365 23.6276C70.6729 23.6823 70.7276 23.7552 70.7458 23.8281C70.4906 23.737 70.2537 23.6094 70.0168 23.5C69.7251 23.3724 69.4153 23.2266 69.1236 23.099C68.9414 23.0079 68.7409 22.935 68.5586 22.8439C68.2488 22.6981 67.9389 22.5705 67.6291 22.4247C67.4468 22.3518 67.2645 22.2606 67.0823 22.1695L65.8793 21.6227C65.6788 21.5316 65.4783 21.4404 65.2596 21.3493L64.3847 20.9665C64.2025 20.8936 64.0202 20.8025 63.8379 20.7114L62.635 20.1646C62.4345 20.0734 62.234 19.9823 62.0153 19.8912L61.1404 19.5084C60.9399 19.4173 60.7576 19.3261 60.5571 19.235C60.2108 19.071 59.8645 18.9069 59.5 18.7611C59.5547 18.7429 59.5365 18.7429 59.5365 18.7429Z" fill="#62688F"/>
<rect width="48" height="48" rx="24" fill="#01C501"/>
<path d="M23.8197 10.2266C24.4315 10.2247 25.0315 10.3913 25.552 10.7073C26.0725 11.0234 26.4926 11.4764 26.7648 12.0151L36.0268 30.2305C36.2781 30.7242 36.3969 31.2729 36.3719 31.8245C36.3468 32.376 36.1787 32.9121 35.8836 33.3818C35.5885 33.8515 35.1762 34.2392 34.6858 34.5081C34.1954 34.7769 33.6432 34.918 33.0817 34.9179H14.5577C13.9963 34.9178 13.4443 34.7766 12.954 34.5077C12.4638 34.2388 12.0515 33.8511 11.7566 33.3814C11.4616 32.9117 11.2936 32.3757 11.2686 31.8242C11.2436 31.2727 11.3623 30.7241 11.6136 30.2305L20.8747 12.0151C21.1469 11.4764 21.567 11.0234 22.0875 10.7073C22.6079 10.3913 23.208 10.2247 23.8197 10.2266V10.2266ZM23.8197 8C22.7879 7.9999 21.7763 8.28231 20.8985 8.81558C20.0206 9.34886 19.3111 10.112 18.8494 11.0194L9.58736 29.2347C9.16341 30.0679 8.96313 30.9938 9.00554 31.9245C9.04795 32.8553 9.33164 33.7599 9.82967 34.5524C10.3277 35.345 11.0235 35.9992 11.851 36.4529C12.6785 36.9065 13.6103 37.1446 14.5577 37.1445H33.0817C34.0291 37.1445 34.9607 36.9063 35.7881 36.4525C36.6155 35.9988 37.3111 35.3445 37.8091 34.552C38.307 33.7595 38.5906 32.8549 38.6329 31.9243C38.6753 30.9937 38.475 30.0678 38.0511 29.2347L28.7901 11.0194C28.3284 10.112 27.6188 9.34886 26.741 8.81558C25.8631 8.28231 24.8516 7.9999 23.8197 8V8Z" fill="white"/>
</svg>
