<svg width="91" height="54" viewBox="0 0 91 54" fill="none" xmlns="http://www.w3.org/2000/svg">
<rect x="1.5" y="1.5" width="51" height="51" rx="25.5" fill="#01C501"/>
<path d="M26.8198 13.2266C27.4315 13.2247 28.0315 13.3913 28.552 13.7073C29.0725 14.0234 29.4926 14.4764 29.7648 15.0151L39.0268 33.2305C39.2782 33.7242 39.3969 34.2729 39.3719 34.8245C39.3468 35.376 39.1788 35.9121 38.8837 36.3818C38.5885 36.8515 38.1762 37.2392 37.6858 37.5081C37.1954 37.7769 36.6432 37.918 36.0818 37.9179H17.5578C16.9964 37.9178 16.4443 37.7766 15.9541 37.5077C15.4638 37.2388 15.0516 36.8511 14.7566 36.3814C14.4616 35.9117 14.2936 35.3757 14.2686 34.8242C14.2436 34.2727 14.3624 33.7241 14.6137 33.2305L23.8747 15.0151C24.1469 14.4764 24.567 14.0234 25.0875 13.7073C25.608 13.3913 26.208 13.2247 26.8198 13.2266V13.2266ZM26.8198 11C25.7879 10.9999 24.7764 11.2823 23.8985 11.8156C23.0207 12.3489 22.3111 13.112 21.8494 14.0194L12.5874 32.2347C12.1634 33.0679 11.9632 33.9938 12.0056 34.9245C12.048 35.8553 12.3317 36.7599 12.8297 37.5524C13.3277 38.345 14.0235 38.9992 14.8511 39.4529C15.6786 39.9065 16.6103 40.1446 17.5578 40.1445H36.0818C37.0291 40.1445 37.9607 39.9063 38.7881 39.4525C39.6155 38.9988 40.3112 38.3445 40.8091 37.552C41.307 36.7595 41.5906 35.8549 41.633 34.9243C41.6753 33.9937 41.475 33.0678 41.0511 32.2347L31.7901 14.0194C31.3284 13.112 30.6189 12.3489 29.741 11.8156C28.8631 11.2823 27.8516 10.9999 26.8198 11V11Z" fill="white"/>
<rect x="1.5" y="1.5" width="51" height="51" rx="25.5" stroke="white" stroke-width="3"/>
<rect x="43" y="3" width="48" height="48" rx="24" fill="#4F46E5"/>
<path fill-rule="evenodd" clip-rule="evenodd" d="M54.797 23.1319L50.9269 27.0021L66.9997 43.0749L83.0725 27.0021L79.2024 23.1319L66.9997 35.3346L54.797 23.1319Z" fill="white"/>
<path fill-rule="evenodd" clip-rule="evenodd" d="M60.8479 17.0812L57.0791 20.8501L66.9999 30.7709L76.9207 20.8501L73.1519 17.0812L66.9999 23.2332L60.8479 17.0812Z" fill="white"/>
<path fill-rule="evenodd" clip-rule="evenodd" d="M63.1302 14.7994L67.0004 10.9293L70.8705 14.7994L67.0004 18.6696L63.1302 14.7994Z" fill="white"/>
</svg>
