<svg width="91" height="54" viewBox="0 0 91 54" fill="none" xmlns="http://www.w3.org/2000/svg">
<rect x="1.5" y="1.5" width="51" height="51" rx="25.5" fill="black"/>
<path d="M35.0671 15.2708L29.8403 23.0278C29.7663 23.1395 29.7351 23.2741 29.7526 23.407C29.7701 23.5398 29.8349 23.6619 29.9353 23.7507C30.0356 23.8395 30.1647 23.889 30.2986 23.8901C30.4326 23.8913 30.5625 23.844 30.6644 23.7569L35.8102 19.2986C35.8404 19.2731 35.8773 19.2568 35.9164 19.2515C35.9556 19.2461 35.9955 19.2521 36.0314 19.2686C36.0674 19.2851 36.0978 19.3115 36.1193 19.3447C36.1408 19.3779 36.1524 19.4165 36.1528 19.456V33.4259C36.1524 33.4685 36.139 33.51 36.1143 33.5448C36.0896 33.5795 36.0549 33.6059 36.0148 33.6202C35.9746 33.6346 35.9311 33.6363 35.8899 33.6252C35.8488 33.614 35.8121 33.5905 35.7847 33.5579L20.2407 14.9421C19.9902 14.6469 19.6785 14.4097 19.3271 14.247C18.9758 14.0843 18.5932 14 18.206 14H17.6644C16.9577 14 16.28 14.2807 15.7804 14.7804C15.2807 15.28 15 15.9577 15 16.6644V36.3403C15.0012 37.0461 15.2825 37.7226 15.782 38.2213C16.2815 38.7199 16.9585 39 17.6644 39C18.1196 39 18.5673 38.8832 18.9645 38.6607C19.3617 38.4382 19.6951 38.1174 19.9329 37.7292L25.1597 29.9722C25.2337 29.8605 25.2649 29.7259 25.2474 29.593C25.2299 29.4602 25.1651 29.3381 25.0647 29.2493C24.9644 29.1605 24.8353 29.111 24.7014 29.1099C24.5674 29.1087 24.4375 29.156 24.3356 29.2431L19.1898 33.7014C19.1596 33.7269 19.1227 33.7432 19.0836 33.7485C19.0444 33.7539 19.0045 33.7479 18.9686 33.7314C18.9326 33.7149 18.9022 33.6885 18.8807 33.6553C18.8592 33.6221 18.8476 33.5835 18.8472 33.544V19.5741C18.8476 19.5315 18.861 19.49 18.8857 19.4552C18.9104 19.4205 18.9451 19.3941 18.9852 19.3798C19.0254 19.3654 19.0689 19.3637 19.1101 19.3748C19.1512 19.386 19.1879 19.4095 19.2153 19.4421L34.7593 38.0579C35.0098 38.3531 35.3215 38.5903 35.6729 38.753C36.0242 38.9157 36.4068 39 36.794 39H37.3356C38.0423 39 38.72 38.7193 39.2196 38.2196C39.7193 37.72 40 37.0423 40 36.3356V16.6597C39.9988 15.9539 39.7175 15.2774 39.218 14.7787C38.7185 14.2801 38.0415 14 37.3356 14C36.8804 14 36.4327 14.1168 36.0355 14.3393C35.6383 14.5618 35.3049 14.8826 35.0671 15.2708Z" fill="white"/>
<rect x="1.5" y="1.5" width="51" height="51" rx="25.5" stroke="white" stroke-width="3"/>
<rect x="43" y="3" width="48" height="48" rx="24" fill="#4F46E5"/>
<path fill-rule="evenodd" clip-rule="evenodd" d="M54.797 23.1319L50.9269 27.0021L66.9997 43.0749L83.0725 27.0021L79.2024 23.1319L66.9997 35.3346L54.797 23.1319Z" fill="white"/>
<path fill-rule="evenodd" clip-rule="evenodd" d="M60.8479 17.0812L57.0791 20.8501L66.9999 30.7709L76.9207 20.8501L73.1519 17.0812L66.9999 23.2332L60.8479 17.0812Z" fill="white"/>
<path fill-rule="evenodd" clip-rule="evenodd" d="M63.1302 14.7994L67.0004 10.9293L70.8705 14.7994L67.0004 18.6696L63.1302 14.7994Z" fill="white"/>
</svg>
