<svg width="155" height="44" viewBox="0 0 155 44" fill="none" xmlns="http://www.w3.org/2000/svg">
<path d="M122.224 23.1133C123.345 23.1133 124.376 23.1133 125.471 23.1133C125.471 27.6839 125.471 32.2545 125.471 36.8941C124.397 36.8941 123.34 36.9207 122.293 36.8676C122.08 36.8569 121.836 36.5647 121.692 36.3468C120.087 33.9977 118.498 31.638 116.904 29.2783C116.781 29.0976 116.654 28.9275 116.399 28.7627C116.399 31.4466 116.399 34.1359 116.399 36.8516C115.261 36.8516 114.23 36.8516 113.151 36.8516C113.151 32.2811 113.151 27.7317 113.151 23.0708C114.236 23.0708 115.325 23.0548 116.42 23.092C116.579 23.0973 116.76 23.3418 116.877 23.5119C118.556 25.9726 120.22 28.4386 121.894 30.9046C121.968 31.0109 122.043 31.1171 122.234 31.3882C122.224 28.5236 122.224 25.8397 122.224 23.1133Z" fill="#94A3B8"/>
<path d="M138.013 31.6276C136.855 31.6276 135.712 31.6276 134.522 31.6276C134.522 30.7347 134.522 29.8897 134.522 28.9968C136.61 28.9968 138.699 28.9968 140.836 28.9968C140.836 31.5957 140.836 34.2052 140.836 36.8572C140.012 36.8572 139.204 36.8572 138.322 36.8572C138.279 36.533 138.237 36.1875 138.199 35.9112C137.338 36.2832 136.493 36.7934 135.579 37.0166C131.179 38.0955 127.358 35.1937 127.081 30.6072C126.778 25.6858 130.275 22.2153 135.654 22.8106C137.418 23.0072 138.965 23.6928 140.166 25.0268C139.47 25.723 138.795 26.3873 138.114 27.0676C137.237 26.2119 136.169 25.6858 134.894 25.638C132.539 25.5529 130.791 27.0889 130.674 29.4433C130.637 30.2405 130.732 31.0908 130.993 31.8402C131.827 34.1892 134.697 35.0927 136.807 33.7534C137.572 33.2698 137.992 32.5948 138.013 31.6276Z" fill="#94A3B8"/>
<path d="M60.2761 23.1133C61.4772 23.1133 62.5774 23.1133 63.736 23.1133C63.736 27.6892 63.736 32.2598 63.736 36.8676C62.6093 36.8676 61.5091 36.8676 60.3399 36.8676C60.3399 35.0606 60.3399 33.2643 60.3399 31.4095C58.4957 31.4095 56.7153 31.4095 54.8711 31.4095C54.8711 33.2058 54.8711 35.0075 54.8711 36.8517C53.686 36.8517 52.5752 36.8517 51.4166 36.8517C51.4166 32.2757 51.4166 27.7158 51.4166 23.1186C52.538 23.1186 53.6594 23.1186 54.8339 23.1186C54.8339 24.8831 54.8339 26.6156 54.8339 28.4067C56.6675 28.4067 58.4373 28.4067 60.2708 28.4067C60.2761 26.6635 60.2761 24.9309 60.2761 23.1133Z" fill="#94A3B8"/>
<path d="M141.808 35.2204C142.446 34.4073 143.036 33.6526 143.658 32.8554C144.806 33.7217 146.049 34.2851 147.452 34.3276C148.212 34.3488 148.993 34.2479 149.743 34.0937C150.253 33.9874 150.657 33.626 150.684 33.0308C150.71 32.409 150.285 32.0901 149.78 31.9519C148.738 31.6702 147.67 31.4842 146.623 31.2185C145.9 31.0325 145.156 30.8571 144.476 30.5542C141.686 29.3105 141.351 25.6275 143.849 23.863C144.736 23.2359 145.746 22.9277 146.814 22.816C148.765 22.6088 150.662 22.816 152.443 23.677C153.011 23.9481 153.511 24.352 154.112 24.7347C153.399 25.5478 152.767 26.2706 152.134 26.9987C150.588 25.856 148.93 25.3405 147.054 25.6328C146.857 25.6647 146.618 25.6806 146.49 25.8029C146.177 26.1058 145.773 26.43 145.677 26.818C145.55 27.3441 146.039 27.6577 146.501 27.7693C147.574 28.0244 148.664 28.1892 149.738 28.4443C150.487 28.6196 151.252 28.795 151.948 29.1192C154.616 30.3522 155.01 34.0672 152.692 35.8848C151.778 36.6022 150.721 36.9689 149.589 37.1071C147.351 37.3888 145.178 37.1868 143.137 36.1345C142.882 36.0017 142.637 35.8529 142.398 35.6934C142.223 35.5712 142.058 35.4171 141.808 35.2204Z" fill="#94A3B8"/>
<path d="M83.0175 7.88178C82.587 8.24317 82.1991 8.56205 81.7845 8.9075C80.7588 7.81268 79.563 7.11647 78.0909 6.96766C74.647 6.61689 72.2182 8.65239 71.9631 12.1122C71.8568 13.5631 72.0003 14.9821 72.6805 16.3002C73.7169 18.3197 75.9916 19.2445 78.4735 18.6705C80.4559 18.2134 81.7367 16.6031 81.7845 14.4985C81.7845 14.3922 81.7739 14.2806 81.7633 14.084C80.2167 14.084 78.6861 14.084 77.113 14.084C77.113 13.5206 77.113 13.0476 77.113 12.5214C79.2016 12.5214 81.269 12.5214 83.3896 12.5214C83.3896 15.0246 83.3896 17.5279 83.3896 20.0736C82.9059 20.0736 82.4329 20.0736 81.9174 20.0736C81.8802 19.5368 81.8483 19.0159 81.8058 18.3729C80.5994 19.8344 79.0634 20.3871 77.3255 20.4775C73.3768 20.6848 70.5706 18.3038 70.1083 14.3763C69.9276 12.8457 69.986 11.3416 70.4962 9.86945C71.4316 7.17492 73.701 5.44235 76.5549 5.27228C78.803 5.13942 80.8704 5.59116 82.5179 7.25996C82.6136 7.35562 82.6986 7.45129 82.7837 7.55227C82.8475 7.6373 82.9112 7.73297 83.0175 7.88178Z" fill="#94A3B8"/>
<path d="M143.934 8.72135C143.934 12.4894 143.934 16.2522 143.934 20.0681C143.355 20.0681 142.823 20.0681 142.249 20.0681C142.249 15.2531 142.249 10.4699 142.249 5.59104C142.797 5.59104 143.349 5.54851 143.886 5.61229C144.093 5.63886 144.311 5.88334 144.46 6.0853C146.979 9.54513 149.493 13.0156 152.002 16.4861C152.102 16.6242 152.214 16.7624 152.427 17.0441C152.427 13.1591 152.427 9.43352 152.427 5.64949C153.054 5.64949 153.585 5.64949 154.165 5.64949C154.165 10.4592 154.165 15.2584 154.165 20.116C153.628 20.116 153.112 20.1638 152.618 20.0947C152.405 20.0681 152.188 19.829 152.044 19.6323C149.509 16.1512 146.99 12.6648 144.465 9.17842C144.338 9.00304 144.205 8.83827 144.072 8.66821C144.024 8.68946 143.982 8.70541 143.934 8.72135Z" fill="#94A3B8"/>
<path d="M81.7579 23.1133C82.9325 23.1133 84.0326 23.1133 85.2018 23.1133C85.2018 26.7326 85.2018 30.3146 85.2018 33.9605C87.4287 33.9605 89.5864 33.9605 91.7973 33.9605C91.7973 34.9543 91.7973 35.8844 91.7973 36.857C88.4491 36.857 85.1221 36.857 81.7579 36.857C81.7579 32.2704 81.7579 27.7158 81.7579 23.1133Z" fill="#94A3B8"/>
<path d="M107.47 23.1191C108.618 23.1191 109.756 23.1191 110.93 23.1191C110.93 27.7004 110.93 32.2497 110.93 36.8469C109.777 36.8469 108.645 36.8469 107.47 36.8469C107.47 32.271 107.47 27.7216 107.47 23.1191Z" fill="#94A3B8"/>
<path d="M138.864 5.64404C138.864 10.4697 138.864 15.2529 138.864 20.0733C138.274 20.0733 137.71 20.0733 137.115 20.0733C137.115 15.2636 137.115 10.4857 137.115 5.64404C137.684 5.64404 138.242 5.64404 138.864 5.64404Z" fill="#94A3B8"/>
<path d="M65.5748 5.62305C66.1701 5.62305 66.7122 5.62305 67.2968 5.62305C67.2968 10.4541 67.2968 15.2532 67.2968 20.0842C66.7175 20.0842 66.1754 20.0842 65.5748 20.0842C65.5748 15.2798 65.5748 10.4859 65.5748 5.62305Z" fill="#94A3B8"/>
<path d="M46.1817 22.5342C45.7246 22.1249 45.2782 21.7051 44.7574 21.2268C45.1825 20.8388 45.5014 20.5306 45.8415 20.2489C46.3783 19.8131 46.4634 19.3294 46.2295 18.6704C45.0975 15.4976 43.9867 12.3088 42.9132 9.1147C42.69 8.45037 42.3179 8.14742 41.6536 8.05707C40.8724 7.95078 40.1017 7.79135 39.3152 7.64785C39.4161 6.73905 39.4906 5.90465 39.6075 5.07557C39.6872 4.51222 39.4906 4.15613 38.975 3.91166C37.6942 3.31111 36.4134 2.71585 35.1644 2.05684C33.3149 1.07363 31.4495 0.20203 29.2705 0.430559C29.0739 0.451818 28.8666 0.43588 28.6753 0.403993C27.2509 0.13826 26.2411 0.568746 25.2633 1.7486C24.195 3.03474 23.5413 4.26243 23.7486 5.9578C23.8708 6.93038 23.7698 7.92421 23.7698 8.94993C23.4456 8.93399 23.2171 8.92337 22.9514 8.91274C22.9514 8.11023 22.861 7.37148 22.9673 6.65932C23.3075 4.44843 22.5687 2.69992 20.9584 1.18525C20.3685 0.632523 19.8848 0.212673 19.0292 0.345539C18.4233 0.441203 17.7909 0.388042 17.1744 0.430559C16.2549 0.494335 15.2451 0.372098 14.432 0.712235C12.1573 1.67419 9.96771 2.83278 7.73556 3.90102C7.2413 4.14018 7.05529 4.48565 7.12438 5.0118C7.23067 5.86214 7.32102 6.71247 7.42199 7.62127C6.57165 7.77008 5.74788 7.91889 4.92943 8.05707C4.46705 8.13679 4.10566 8.30155 3.93559 8.80112C2.777 12.1547 1.60246 15.5029 0.433241 18.8511C0.284431 19.2816 0.332261 19.6749 0.7096 19.9884C1.12946 20.3392 1.544 20.69 1.92665 21.0142C1.22512 21.7423 0.683028 22.3109 0.13562 22.8796C0.13562 23.1453 0.13562 23.4111 0.13562 23.6768C0.757433 24.9045 1.45365 26.1056 1.97449 27.3758C2.43686 28.4919 3.14371 29.2466 4.24915 29.6983C4.87097 29.9534 5.45026 30.3254 6.13585 30.6921C5.75851 30.9632 5.45026 31.1651 5.16859 31.3937C4.69027 31.7763 4.61586 32.26 5.01978 32.717C6.53976 34.4655 8.03849 36.2406 9.6382 37.9147C10.1644 38.4675 10.9722 38.7491 11.7375 39.2009C11.5143 39.541 11.2751 39.8705 11.0678 40.2213C10.7383 40.7793 10.8553 41.2576 11.4345 41.5446C12.5825 42.108 13.7305 42.682 14.9156 43.155C15.3036 43.3091 15.8351 43.24 16.2602 43.1284C17.2116 42.8733 18.1363 42.9158 19.0557 43.2081C19.7201 43.4154 20.1399 43.1869 20.4748 42.5969C21.0275 41.6191 21.6227 40.6624 22.2073 39.7005C22.59 39.0733 24.0621 39.0893 24.4448 39.7217C25.0294 40.6837 25.5874 41.6615 26.1933 42.6076C26.3846 42.9105 26.6929 43.1443 26.9427 43.4154C27.1181 43.4154 27.2988 43.4154 27.4741 43.4154C28.6699 42.8361 29.8657 43.0168 31.0562 43.4154C31.2316 43.4154 31.4123 43.4154 31.5877 43.4154C32.7197 42.8733 33.857 42.3312 34.989 41.7891C35.951 41.3267 36.0573 40.9441 35.4621 40.0353C35.3026 39.7855 35.1432 39.5357 34.9837 39.2859C35.7437 38.8342 36.5515 38.5472 37.0777 37.9945C38.6774 36.3203 40.1761 34.5453 41.7014 32.7967C42.1107 32.3291 42.0309 31.8667 41.5473 31.4787C41.2497 31.2395 40.9361 31.027 40.5747 30.7665C41.5686 30.2457 42.4827 29.7993 43.3543 29.2838C43.7157 29.0712 44.0771 28.7417 44.2631 28.375C45.0231 26.9081 45.7034 25.3987 46.4315 23.9106C46.7078 23.3632 46.6228 22.9275 46.1817 22.5342ZM20.7671 3.9276C20.8202 3.90634 20.8787 3.88509 20.9318 3.86383C21.0381 4.10299 21.2241 4.34214 21.2294 4.58129C21.256 5.94184 21.256 7.30771 21.2294 8.67358C21.2241 8.85427 21.0541 9.10406 20.8946 9.19972C20.5226 9.42294 20.108 9.57707 19.566 9.82154C19.9858 7.74352 20.3738 5.83556 20.7671 3.9276ZM21.1285 25.0373C20.3153 26.265 19.5022 27.4927 18.6359 28.7948C17.1372 26.4138 15.681 24.1073 14.1716 21.7104C16.5419 21.1045 18.8538 20.5146 21.2401 19.9034C21.2401 21.5669 21.2401 23.1507 21.2348 24.7344C21.2348 24.8354 21.1869 24.9523 21.1285 25.0373ZM21.1869 28.0933C21.1869 29.6877 21.1869 31.1333 21.1869 32.7064C20.597 31.957 20.0762 31.298 19.5288 30.6071C20.0602 29.7993 20.581 29.0074 21.1869 28.0933ZM17.286 30.8356C16.0423 32.7064 14.8412 34.5134 13.5551 36.4532C13.5551 33.7693 13.5551 31.2608 13.5551 28.6035C14.8625 29.3794 16.0423 30.0863 17.286 30.8356ZM13.6189 24.4209C13.6773 24.4049 13.7358 24.3943 13.7996 24.3783C14.5277 25.5263 15.2505 26.6796 15.9786 27.8275C15.9361 27.8701 15.8935 27.9073 15.8563 27.9498C15.1814 27.5459 14.5064 27.142 13.8421 26.7274C13.7464 26.669 13.6401 26.5308 13.6348 26.4245C13.6082 25.7548 13.6189 25.0852 13.6189 24.4209ZM17.7483 33.2804C17.7909 33.291 17.8387 33.3069 17.8812 33.3176C17.9928 34.7047 18.0991 36.0865 18.216 37.5321C17.084 37.5905 16.0105 37.649 14.8093 37.7181C15.8404 36.1556 16.7917 34.7153 17.7483 33.2804ZM14.2619 19.9034C15.7607 17.4693 17.1637 15.1787 18.604 12.8403C19.4543 13.377 20.2569 13.8713 21.0434 14.3921C21.1603 14.4665 21.2294 14.6844 21.2348 14.8386C21.2507 15.9174 21.2454 16.9963 21.2454 18.123C18.9601 18.7076 16.7014 19.2816 14.2619 19.9034ZM19.8848 11.5966C20.3897 11.3628 20.7617 11.1874 21.1976 10.9854C21.1976 11.4744 21.1976 11.8942 21.1976 12.4204C20.7777 12.16 20.395 11.9155 19.8848 11.5966ZM17.4401 2.41825C17.9025 2.06748 18.6572 2.09937 19.4118 1.91867C18.8006 4.9055 18.2373 7.64254 17.6633 10.4434C15.2398 9.65679 12.8801 8.89148 10.446 8.0996C10.5736 7.95611 10.648 7.83387 10.7543 7.74883C12.9758 5.9578 15.1707 4.13488 17.4401 2.41825ZM10.1059 4.67697C11.3442 4.06579 12.5931 3.47054 13.9112 2.9816C12.3327 4.24648 10.7543 5.51668 9.09611 6.85066C8.85695 5.29347 8.85695 5.28815 10.1059 4.67697ZM8.56996 10.2733C9.27149 11.5488 9.91456 12.7021 10.5364 13.866C10.5948 13.9723 10.5576 14.2327 10.4673 14.3018C8.74534 15.6358 7.00745 16.9485 5.15796 18.1868C6.27403 15.5879 7.39542 12.9944 8.56996 10.2733ZM11.2485 15.9068C11.4399 17.3471 11.6099 18.6651 11.7906 20.0416C9.82421 20.0416 7.88437 20.0416 5.80634 20.0416C7.66115 18.6332 9.41499 17.2992 11.2485 15.9068ZM2.3784 18.5057C3.29252 15.9068 4.19069 13.3079 5.09418 10.7038C5.48746 9.57707 5.60439 9.49735 6.99682 9.53987C5.56718 12.8509 4.14818 16.1354 2.72917 19.4198C2.18707 19.2285 2.24022 18.9096 2.3784 18.5057ZM4.19601 27.1685C4.03657 27.1792 3.77615 27.0304 3.70174 26.8869C3.17028 25.8452 2.66539 24.7929 2.18176 23.73C2.1233 23.5971 2.17644 23.3473 2.27211 23.2197C2.50595 22.9009 2.79826 22.6245 3.09056 22.3003C5.50872 23.7512 7.86311 25.1702 10.2228 26.5839C10.2175 26.6318 10.2069 26.6796 10.2016 26.7274C8.20325 26.8816 6.19963 27.041 4.19601 27.1685ZM8.97919 28.5556C7.9322 29.6558 7.60801 29.6824 6.38564 28.747C7.31039 28.6779 8.1129 28.6194 8.97919 28.5556ZM11.7587 37.1866C11.3389 36.9422 10.9828 36.8306 10.7649 36.5914C9.48939 35.1883 8.24577 33.7587 6.92242 32.2653C8.56464 31.1014 10.1271 29.9959 11.7587 28.8373C11.7587 31.6116 11.7587 34.3167 11.7587 37.1866ZM11.8757 25.5582C9.79764 24.3093 7.82591 23.1241 5.85949 21.9443C5.87012 21.9071 5.88606 21.8698 5.89669 21.8326C7.87905 21.8326 9.86142 21.8326 11.8757 21.8326C11.8757 23.0337 11.8757 24.2295 11.8757 25.5582ZM10.3344 9.87999C12.1467 10.4699 13.8315 11.012 15.7075 11.6179C14.448 12.2078 13.3585 12.7233 12.1999 13.2707C11.578 12.1387 10.9934 11.0811 10.3344 9.87999ZM13.1459 14.7535C14.1291 14.2752 15.1176 13.8182 16.1965 13.4461C15.2611 14.9661 14.331 16.4861 13.3 18.1549C13.1459 17.0335 13.0077 16.0875 12.9014 15.1362C12.8908 15.0193 13.0236 14.812 13.1459 14.7535ZM13.0874 40.3435C13.4594 40.0247 13.9165 40.2107 15.7341 41.3693C15.3461 41.5181 14.3098 41.1248 13.0874 40.3435ZM19.2364 41.2683C18.1416 40.673 17.1053 40.1044 16.0689 39.541C16.0795 39.4826 16.0849 39.4294 16.0955 39.371C17.5198 39.2966 18.9495 39.2222 20.512 39.1424C20.0496 39.9131 19.651 40.5774 19.2364 41.2683ZM21.1338 37.378C20.8043 37.3992 20.4163 37.4258 19.9486 37.4577C19.8423 36.2034 19.7413 34.9864 19.6244 33.6258C20.6448 34.7525 21.6759 35.7092 21.1338 37.378ZM22.9886 10.7091C23.2384 10.7091 23.4669 10.7091 23.7326 10.7091C23.7326 11.501 23.7326 12.2769 23.7326 13.106C23.4563 13.106 23.2437 13.106 22.9886 13.106C22.9886 12.2982 22.9886 11.5222 22.9886 10.7091ZM22.9726 14.9023C23.2224 14.8917 23.451 14.8811 23.722 14.8651C23.722 15.9068 23.722 16.9059 23.722 17.9636C23.4935 17.9742 23.2649 17.9848 22.9726 17.9954C22.9726 16.9272 22.9726 15.9493 22.9726 14.9023ZM22.9992 26.4776C23.2543 26.4776 23.4722 26.4776 23.7273 26.4776C23.7273 29.0446 23.7273 31.5903 23.7273 34.1679C23.4828 34.1679 23.2703 34.1679 22.9992 34.1679C22.9992 31.6169 22.9992 29.0765 22.9992 26.4776ZM23.7326 37.548C23.4882 37.548 23.2756 37.548 23.0045 37.548C23.0045 37.0485 23.0045 36.5382 23.0045 35.9749C23.2331 35.9749 23.4563 35.9749 23.7326 35.9749C23.7326 36.5276 23.7326 37.0272 23.7326 37.548ZM23.7326 24.7025C23.4882 24.7025 23.2756 24.7025 23.0045 24.7025C23.0045 23.0603 23.0045 21.4128 23.0045 19.7333C23.249 19.7333 23.4775 19.7333 23.7326 19.7333C23.7326 21.3968 23.7326 23.0337 23.7326 24.7025ZM40.9733 9.71524C41.1487 9.76839 41.3454 9.94909 41.4091 10.1192C42.4242 12.9838 43.4234 15.8483 44.396 18.7289C44.4704 18.9415 44.3109 19.2285 44.2578 19.4836C44.1674 19.4729 44.0824 19.4623 43.9921 19.4517C42.573 16.1619 41.1487 12.8668 39.6872 9.47609C40.1708 9.56644 40.5854 9.60363 40.9733 9.71524ZM41.5792 18.2399C41.542 18.2718 41.5101 18.3037 41.4729 18.3356C39.6659 16.9644 37.8643 15.5932 36.0201 14.1955C36.7323 12.904 37.4178 11.6551 38.1513 10.3158C39.3364 13.0369 40.4578 15.6358 41.5792 18.2399ZM40.7873 19.9884C40.7714 20.031 40.7608 20.0735 40.7448 20.1213C38.8315 20.1213 36.9183 20.1213 34.9306 20.1213C35.1113 18.7342 35.2814 17.3949 35.4674 15.9493C37.2903 17.3311 39.0388 18.6598 40.7873 19.9884ZM33.0226 2.96033C34.5639 3.70438 36.1051 4.44844 37.6357 5.20843C37.742 5.26158 37.8111 5.49542 37.8005 5.63892C37.7792 6.01094 37.7101 6.37766 37.6411 6.88786C36.0307 5.59641 34.4788 4.35277 32.9323 3.10914C32.9642 3.06131 32.9907 3.00817 33.0226 2.96033ZM29.7701 2.7637C31.8906 4.55473 34.0856 6.26073 36.3762 8.0996C33.8836 8.91274 31.5186 9.67805 29.0526 10.4859C28.4733 7.67443 27.9046 4.91082 27.3306 2.12063C28.266 2.03028 29.026 2.13657 29.7701 2.7637ZM29.4299 30.9101C30.6736 30.166 31.8587 29.4538 33.1449 28.6832C33.1449 31.3193 33.1449 33.8544 33.1449 36.5117C31.8747 34.5931 30.6629 32.7702 29.4299 30.9101ZM31.8375 37.6809C30.7054 37.6809 29.6531 37.6809 28.4999 37.6809C28.6115 36.1875 28.7178 34.7897 28.8241 33.3973C28.8719 33.3814 28.9144 33.3654 28.9622 33.3495C29.9082 34.7738 30.8543 36.1981 31.8375 37.6809ZM33.097 26.5255C33.097 26.6158 33.0014 26.7274 32.9217 26.7806C32.2201 27.2164 31.508 27.6362 30.7958 28.0614C30.7692 28.0242 30.7373 27.987 30.7108 27.9445C31.4495 26.7699 32.1882 25.6007 32.927 24.4262C32.9854 24.4262 33.0492 24.4262 33.1077 24.4315C33.1077 25.1277 33.113 25.8293 33.097 26.5255ZM28.08 28.8745C27.2084 27.5618 26.374 26.3076 25.5502 25.048C25.4971 24.963 25.4918 24.8354 25.4918 24.7291C25.4865 23.1666 25.4918 21.5988 25.4918 19.9672C27.8781 20.5784 30.158 21.1577 32.5496 21.7689C31.0509 24.1445 29.5947 26.467 28.08 28.8745ZM27.0171 30.8782C26.56 31.4894 26.0817 32.0846 25.529 32.7861C25.529 31.213 25.529 29.778 25.529 28.189C26.0923 29.0287 26.5866 29.7461 27.0543 30.4743C27.1074 30.5646 27.0862 30.7825 27.0171 30.8782ZM25.4918 18.1868C25.4918 17.0495 25.4812 15.9281 25.5024 14.812C25.5024 14.6685 25.614 14.4719 25.7363 14.3921C26.5016 13.8819 27.2881 13.4036 28.1066 12.8828C29.5469 15.2265 30.9605 17.5278 32.454 19.9619C30.0571 19.3507 27.8037 18.7767 25.4918 18.1868ZM25.529 12.4576C25.529 11.9527 25.529 11.5382 25.529 11.0386C25.9648 11.2406 26.3474 11.4213 26.8204 11.6392C26.3528 11.9368 25.9754 12.1706 25.529 12.4576ZM25.5024 4.70354C25.5077 4.42718 25.6406 4.15082 25.715 3.87445C25.7841 3.87977 25.8585 3.87976 25.9276 3.88508C26.3262 5.82492 26.7248 7.76477 27.134 9.76307C26.9533 9.74181 26.9108 9.74713 26.8683 9.73118C25.4865 9.16252 25.4865 9.16253 25.4865 7.66912C25.4918 6.68059 25.4758 5.69206 25.5024 4.70354ZM25.6034 37.4577C25.0454 35.8367 26.0392 34.8429 27.0809 33.7055C26.9693 35.0608 26.8736 36.2778 26.7726 37.5427C26.3315 37.5108 25.9488 37.4842 25.6034 37.4577ZM27.4741 41.3639C27.0596 40.6784 26.6716 40.03 26.2039 39.2487C27.7771 39.3231 29.212 39.3869 30.6523 39.456C30.6682 39.5091 30.6842 39.557 30.7054 39.6101C29.6478 40.1788 28.5902 40.7528 27.4741 41.3639ZM31.0775 41.6775C31.035 41.5978 30.9978 41.5128 30.9552 41.433C31.7684 41.0026 32.5815 40.5721 33.4053 40.1575C33.4372 40.1416 33.5647 40.3276 33.7082 40.4817C32.7941 40.8962 31.9331 41.2895 31.0775 41.6775ZM33.4212 18.2187C32.3849 16.5339 31.4601 15.0246 30.5301 13.5152C30.5566 13.478 30.5779 13.4461 30.6045 13.4089C31.6302 13.8819 32.6559 14.3496 33.6763 14.8439C33.7667 14.8864 33.8358 15.1043 33.8198 15.2265C33.7135 16.1566 33.5754 17.092 33.4212 18.2187ZM31.0031 11.6657C32.8047 11.0758 34.4842 10.5337 36.1583 9.98629C36.2008 10.0235 36.2486 10.0607 36.2911 10.0979C35.7118 11.1555 35.1325 12.2131 34.5267 13.3186C33.3362 12.7605 32.2414 12.245 31.0031 11.6657ZM34.8349 21.923C36.8439 21.923 38.7996 21.923 40.7554 21.923C40.7714 21.9655 40.7873 22.0027 40.8033 22.0452C38.8475 23.2197 36.8917 24.3996 34.8349 25.6379C34.8349 24.3199 34.8349 23.1453 34.8349 21.923ZM35.1697 37.2398C35.106 37.2079 35.0475 37.176 34.9837 37.1441C34.9837 34.439 34.9837 31.7391 34.9837 28.9224C36.5834 30.0544 38.1672 31.1758 39.8413 32.3556C38.1778 33.9713 37.0033 35.9271 35.1697 37.2398ZM37.8749 28.646C38.6721 28.6992 39.464 28.7523 40.2612 28.8054C38.6827 29.7833 39.2673 29.8418 37.8749 28.646ZM44.1302 24.6866C43.7901 25.4041 43.4712 26.1322 43.0939 26.8284C42.9876 27.025 42.6793 27.2376 42.4721 27.227C40.4897 27.1154 38.5127 26.9506 36.5356 26.8071C36.5197 26.7593 36.5037 26.7115 36.4825 26.6689C38.8368 25.2499 41.1965 23.8363 43.5244 22.4332C43.6253 22.4917 43.6732 22.5076 43.7051 22.5342C44.7255 23.4483 44.7255 23.4483 44.1302 24.6866Z" fill="#94A3B8"/>
<path d="M100.327 23.2782C97.8507 23.0391 95.3475 23.0816 92.8018 22.9966C92.8018 27.7319 92.8018 32.2972 92.8018 36.804C95.0711 36.804 97.2873 36.9209 99.4823 36.7774C103.176 36.5383 105.568 34.1733 105.886 30.5115C106.189 27.0251 104.276 23.6556 100.327 23.2782ZM102.092 31.5638C101.672 32.9031 100.774 33.78 99.376 33.9501C98.3768 34.0723 97.3564 33.9713 96.2829 33.9713C96.2829 31.3087 96.2829 28.6514 96.2829 25.824C97.5531 25.9143 98.8126 25.9037 100.03 26.1163C101.146 26.3129 101.757 27.2005 102.086 28.2421C102.437 29.3476 102.437 30.4637 102.092 31.5638Z" fill="#94A3B8"/>
<path d="M78.6702 25.4253C76.3105 22.3534 70.9692 21.8007 67.924 24.3092C65.5696 26.249 64.698 29.6132 65.7768 32.6C66.8291 35.5284 69.3589 37.2025 72.5955 37.2025C74.3547 37.2344 75.88 36.8624 77.2246 35.9111C80.4771 33.6311 81.1574 28.6619 78.6702 25.4253ZM76.3317 31.5903C75.8162 33.4291 74.3972 34.423 72.5371 34.3273C70.7513 34.237 69.428 33.0837 69.0507 31.2554C68.9603 30.8249 68.9284 30.3838 68.87 29.948C68.9125 27.8806 69.9329 26.2756 71.5485 25.7814C74.158 24.9842 76.454 26.722 76.5656 29.6345C76.5921 30.2882 76.5071 30.9684 76.3317 31.5903Z" fill="#94A3B8"/>
<path d="M60.2868 12.6062C60.4515 12.4893 60.5578 12.4149 60.6641 12.3405C61.9927 11.4264 62.5827 9.82665 62.1735 8.26946C61.743 6.64849 60.5631 5.72906 58.618 5.66528C56.322 5.58556 54.0208 5.61214 51.7195 5.59619C51.6186 5.59619 51.5176 5.63872 51.4379 5.65466C51.4379 10.491 51.4379 15.2901 51.4379 20.1158C53.0376 20.1158 54.5895 20.1371 56.136 20.1105C57.2149 20.0946 58.3097 20.0839 59.3779 19.9457C61.2912 19.6906 62.6092 18.3248 62.8059 16.5231C63.0132 14.5779 62.2744 13.4034 60.2868 12.6062ZM53.2555 7.07366C55.0784 7.14275 56.8641 7.13213 58.6392 7.3022C59.8191 7.41381 60.393 8.23226 60.4302 9.4068C60.4674 10.7089 59.9732 11.4582 58.7668 11.7559C58.1503 11.9047 57.5019 11.9631 56.8641 11.9844C55.679 12.0216 54.4885 11.995 53.2502 11.995C53.2555 10.3209 53.2555 8.76372 53.2555 7.07366ZM59.548 18.1972C58.9528 18.3992 58.3044 18.5002 57.6719 18.5214C56.2211 18.5693 54.7648 18.5373 53.2183 18.5373C53.2183 18.2025 53.2183 17.9421 53.2183 17.6817C53.2183 16.3158 53.2183 14.9553 53.2183 13.4991C55.3069 13.5682 57.3584 13.2652 59.3726 13.7754C60.3877 14.0359 60.8979 14.7693 60.9351 15.8163C60.983 16.9908 60.5259 17.8624 59.548 18.1972Z" fill="#94A3B8"/>
<path d="M103.282 12.596C103.42 12.5003 103.49 12.4472 103.559 12.3994C104.925 11.4693 105.53 10.0025 105.201 8.45059C104.871 6.90403 103.941 5.94739 102.182 5.75606C100.434 5.57005 98.6532 5.62851 96.8888 5.59131C96.0756 5.57536 95.2625 5.58599 94.4281 5.58599C94.4281 10.4595 94.4281 15.2533 94.4281 20.0843C94.6088 20.095 94.7576 20.1109 94.9064 20.1109C96.8303 20.1109 98.7542 20.1322 100.673 20.1003C101.332 20.0896 102.001 20.0259 102.645 19.8824C104.467 19.4785 105.653 18.1498 105.801 16.4279C105.972 14.5305 105.281 13.4623 103.282 12.596ZM96.2245 7.05814C98.0899 7.14317 99.9234 7.13255 101.73 7.33451C102.884 7.46206 103.405 8.28583 103.42 9.44442C103.436 10.7199 102.947 11.4534 101.778 11.7457C101.204 11.8892 100.604 11.9582 100.008 11.9742C98.7755 12.0061 97.5372 11.9848 96.2191 11.9848C96.2245 10.3373 96.2245 8.78008 96.2245 7.05814ZM102.528 18.2029C101.932 18.4049 101.279 18.5059 100.652 18.5271C99.2007 18.575 97.7444 18.5431 96.2298 18.5431C96.2298 16.8318 96.2298 15.2108 96.2298 13.4995C98.2865 13.5739 100.317 13.2763 102.315 13.7652C103.357 14.0203 103.893 14.7591 103.936 15.8379C103.984 16.9912 103.511 17.8681 102.528 18.2029Z" fill="#94A3B8"/>
<path d="M115.942 13.9349C116.277 13.8179 116.553 13.7329 116.819 13.6319C118.45 13.0101 119.455 11.8887 119.593 10.1083C119.79 7.65828 118.153 5.80348 115.559 5.67592C113.332 5.56432 111.095 5.61214 108.857 5.59619C108.751 5.59619 108.645 5.6334 108.538 5.65466C108.538 10.4804 108.538 15.2742 108.538 20.068C109.155 20.068 109.718 20.068 110.356 20.068C110.356 18.0484 110.356 16.0767 110.356 14.0677C111.361 14.0677 112.291 14.0943 113.215 14.0571C113.688 14.0412 113.981 14.19 114.257 14.578C115.458 16.2946 116.691 17.9952 117.929 19.6906C118.057 19.866 118.275 20.0786 118.466 20.0945C119.067 20.1477 119.678 20.1158 120.427 20.1158C118.875 17.9793 117.419 15.9704 115.942 13.9349ZM113.598 12.5318C112.583 12.569 111.568 12.5371 110.553 12.5371C110.51 12.5371 110.468 12.5212 110.356 12.4946C110.356 10.7089 110.356 8.94973 110.356 7.00989C112.195 7.1215 114.028 7.11618 115.82 7.37128C117.169 7.56261 117.765 8.49799 117.765 9.81602C117.765 11.15 117.169 11.9578 115.83 12.2767C115.102 12.4521 114.347 12.5052 113.598 12.5318Z" fill="#94A3B8"/>
<path d="M134.825 19.2445C133.124 15.1575 131.413 11.0759 129.712 6.98893C129.127 5.58586 129.133 5.60181 127.618 5.57523C127.124 5.5646 126.879 5.7134 126.688 6.17577C124.87 10.5922 123.026 15.0034 121.192 19.4146C121.107 19.6218 121.028 19.8344 120.916 20.1161C121.448 20.1161 121.867 20.0842 122.282 20.1267C122.744 20.1745 122.941 19.9832 123.09 19.5634C123.435 18.612 123.855 17.6873 124.217 16.7413C124.344 16.4118 124.498 16.263 124.881 16.2683C126.959 16.2896 129.037 16.2896 131.115 16.2683C131.492 16.263 131.673 16.4012 131.795 16.7307C132.024 17.3472 132.284 17.9583 132.529 18.5695C133.177 20.1745 133.177 20.1746 134.915 20.1108C134.957 20.1108 135 20.0948 135.138 20.0683C135.032 19.7706 134.936 19.5049 134.825 19.2445ZM125.099 14.6526C126.071 12.261 127.023 9.92792 128.027 7.46724C129.032 9.93855 129.983 12.2717 130.95 14.6526C128.968 14.6526 127.081 14.6526 125.099 14.6526Z" fill="#94A3B8"/>
</svg>
