<svg width="128" height="67" viewBox="0 0 128 67" fill="none" xmlns="http://www.w3.org/2000/svg">
<g clip-path="url(#clip0_478_4569)">
<path d="M58.6869 15.6367C58.5797 15.593 58.4739 15.5465 58.3652 15.5071C56.187 14.7398 54.0765 13.793 52.0553 12.6763C50.5216 11.8164 49.064 10.8437 47.7744 9.63696C47.0072 8.93868 46.3473 8.13114 45.816 7.24043C44.7013 5.31615 44.6491 3.35522 45.6565 1.37456C45.8662 0.996322 46.0971 0.630157 46.3479 0.277795C46.4354 0.174587 46.5327 0.0801571 46.6386 -0.00415039C46.6597 0.277795 46.6696 0.50335 46.695 0.727497C46.8361 2.08224 47.3257 3.31998 48.0114 4.48582C48.8175 5.82748 49.811 7.04742 50.9618 8.10882C52.3337 9.41708 53.8723 10.539 55.5376 11.4456C56.6753 12.0398 57.8454 12.5698 59.0425 13.033C61.1914 13.8986 63.3291 14.7909 65.4187 15.796C66.7512 16.4349 68.0462 17.1489 69.2975 17.9346C70.4979 18.6744 71.5018 19.6929 72.2239 20.9035C73.0366 22.2723 73.6518 23.7117 73.9171 25.292C74.2506 27.2611 74.0086 29.2846 73.22 31.1198C72.5523 32.678 71.5711 34.0824 70.3374 35.246C68.9941 36.5401 67.6467 37.831 66.2949 39.1185C65.9992 39.4026 65.6858 39.6677 65.3566 39.9122C65.3578 39.8844 65.3645 39.8571 65.3764 39.8319C65.8956 39.0269 66.1651 38.1289 66.3641 37.2055C66.7212 35.4495 66.8732 33.658 66.817 31.8669C66.8106 30.8793 66.7161 29.8943 66.5348 28.9234C66.4873 28.651 66.415 28.3834 66.3189 28.1241C66.151 27.6927 66.1919 27.7406 65.7545 27.7759C65.1942 27.8377 64.6436 27.9679 64.115 28.1636C63.4321 28.3933 62.7604 28.6541 62.0705 28.8571C60.5833 29.302 59.0017 29.3259 57.5017 28.9262C57.0107 28.7979 56.5225 28.657 56.0343 28.5202C55.9768 28.5089 55.9262 28.4755 55.8932 28.4272C56.3983 28.3962 56.9035 28.3666 57.4072 28.3327C58.3116 28.2735 59.216 28.2326 60.1163 28.1438C61.3607 28.0212 62.5869 27.7984 63.7143 27.2148C63.8554 27.1443 63.9795 27.0612 64.1121 26.9836L64.0952 26.9244C64.0006 26.9307 63.9064 26.942 63.813 26.9583C63.1075 27.1091 62.3908 27.2754 61.6754 27.4164C60.3654 27.6572 59.0332 27.755 57.7021 27.7082C56.8978 27.6956 56.0969 27.6011 55.3119 27.4263C54.7956 27.3195 54.2979 27.1376 53.8346 26.8864C53.5418 26.7275 53.2818 26.5146 53.0684 26.259C52.9837 26.1547 52.9174 26.0349 52.8201 25.8855C52.9767 25.8855 53.0839 25.8855 53.1897 25.8855C54.1859 25.9503 55.1806 26.0264 56.1782 26.0772C56.768 26.1054 57.3606 26.1011 57.9504 26.0772C58.9282 26.0292 59.906 25.9658 60.881 25.8756C61.5512 25.815 62.2172 25.705 62.8846 25.6049C63.0614 25.5668 63.2354 25.5164 63.4052 25.4541V25.3808C63.3135 25.3808 63.2204 25.3737 63.123 25.3808C62.0338 25.4216 60.9431 25.4513 59.8538 25.5076C58.5797 25.5699 57.3029 25.5497 56.0315 25.447C54.8056 25.3622 53.5892 25.1736 52.3954 24.8831C51.4077 24.6336 50.4496 24.3023 49.6016 23.7145C49.1493 23.4215 48.7797 23.0177 48.5279 22.5416C48.3739 22.2461 48.2881 21.9201 48.2767 21.5872C48.3868 21.6098 48.4827 21.6224 48.5744 21.6478C49.3744 21.8748 50.1646 22.1412 50.9731 22.3203C51.9368 22.5331 52.9132 22.691 53.8896 22.8348C55.5545 23.0787 57.2294 23.2323 58.9099 23.3113C59.8594 23.3564 60.8119 23.3564 61.7629 23.3747C61.8452 23.3788 61.9266 23.3555 61.9943 23.3085C61.9364 23.3 61.8786 23.2859 61.8207 23.2817C60.3265 23.1844 58.8407 23.0138 57.3592 22.7911C55.7327 22.5557 54.1228 22.2172 52.5393 21.7775C51.1294 21.3982 49.7663 20.8624 48.4757 20.1803C47.7153 19.7776 47.0156 19.2698 46.3973 18.6719C45.6509 17.9304 45.1359 17.0648 44.9694 16.0117C44.897 15.4768 44.9194 14.9332 45.0357 14.4061C45.1881 14.5329 45.3306 14.6429 45.459 14.7641C45.7863 15.063 46.0953 15.383 46.4368 15.6649C47.3826 16.4219 48.4384 17.0304 49.5678 17.4694C51.448 18.2131 53.3855 18.8034 55.3612 19.2344C56.7276 19.5571 58.1132 19.7925 59.5095 19.9392C60.0739 19.9942 60.6383 20.0083 61.1928 20.0407L61.2069 19.9674L60.9388 19.8969C58.8732 19.4092 56.8146 18.889 54.794 18.2363C52.8582 17.6104 50.9646 16.8829 49.1755 15.9046C47.8642 15.2166 46.6672 14.3302 45.6269 13.2769C44.6106 12.2528 43.9511 10.9291 43.746 9.50162C43.6248 8.80774 43.6732 8.09485 43.8871 7.42369C43.9892 7.08852 44.1792 6.78674 44.4374 6.54966C44.4769 6.61451 44.5136 6.66385 44.5404 6.71883C45.4209 8.46689 46.6837 9.89212 48.2316 11.0777C49.4311 11.9885 50.7243 12.7691 52.0892 13.4066C53.5674 14.1254 55.098 14.7314 56.6678 15.2195C57.2844 15.4041 57.9222 15.524 58.5501 15.672C58.5856 15.6765 58.6214 15.6788 58.6573 15.679L58.6869 15.6367Z" fill="#94A3B8"/>
<path d="M76.6068 64.7049C77.6585 61.5095 78.7106 58.3085 79.7632 55.1018H80.8398L84.0046 64.726L84.0624 64.7331C85.1602 61.5377 86.2593 58.3381 87.3599 55.1342H88.7243L84.5789 66.8096H83.4741C82.4088 63.6842 81.3661 60.5687 80.305 57.4617H80.2415C79.1823 60.5734 78.1231 63.6852 77.064 66.7969H75.9676L71.8278 55.1399C71.8744 55.1297 71.9215 55.1222 71.9689 55.1173H73.2388L76.5363 64.7034L76.6068 64.7049Z" fill="#94A3B8"/>
<path d="M60.1533 66.7195H58.1667V55.1329H60.1421C60.1576 55.7673 60.1421 56.4017 60.1491 57.0318C60.1562 57.662 60.1491 58.3245 60.1491 58.9702V60.8959C60.2902 60.8776 60.3354 60.7817 60.3989 60.714C61.9566 59.0731 63.5134 57.4284 65.0692 55.78C65.247 55.5911 65.4206 55.4008 65.6054 55.2161C65.6613 55.1581 65.7356 55.1212 65.8156 55.1118C66.5818 55.1047 67.348 55.1118 68.1804 55.1118C67.9617 55.3613 67.7571 55.5558 67.5667 55.7574C67.3762 55.959 67.1688 56.1705 66.9698 56.3763L66.373 56.9938L65.7549 57.6295L65.1581 58.247L64.5613 58.8645L63.963 59.4819L63.3633 60.1036L68.4161 66.7293H68.1099C67.4806 66.7293 66.8527 66.7293 66.2234 66.7293C66.1378 66.735 66.0523 66.7178 65.9756 66.6794C65.899 66.6409 65.834 66.5828 65.7874 66.5108C64.5984 64.9338 63.4043 63.3596 62.2049 61.7882L61.9919 61.5063C61.9377 61.5425 61.8859 61.5821 61.8366 61.6247C61.3188 62.1519 60.8066 62.6848 60.2846 63.2078C60.2358 63.2559 60.198 63.3139 60.1737 63.3779C60.1494 63.4419 60.139 63.5103 60.1435 63.5786C60.1435 64.5118 60.1435 65.4437 60.1435 66.3755L60.1533 66.7195Z" fill="#94A3B8"/>
<path d="M53.5496 56.7274L52.2557 58.2133C52.0356 58.0385 51.8324 57.8665 51.6179 57.7086C50.9839 57.2089 50.2233 56.8951 49.421 56.8022C47.7279 56.6386 46.1588 57.5268 45.5098 59.1085C44.8946 60.6084 44.9906 62.083 45.9077 63.4363C46.6922 64.5923 47.8266 65.1026 49.2334 65.0589C50.3368 65.0237 51.2087 64.5119 52.0144 63.8367C52.0991 63.7662 52.1809 63.6957 52.2656 63.621C52.2797 63.6097 52.298 63.6041 52.2783 63.621L53.6117 64.9053C53.4945 65.0223 53.3746 65.1463 53.249 65.2661C52.2165 66.2795 50.842 66.8703 49.3956 66.9226C48.5293 66.9592 47.6757 66.9042 46.8559 66.5856C44.7126 65.7511 43.4427 64.1891 43.0702 61.9336C42.8035 60.4705 43.0977 58.9607 43.8942 57.7044C44.3192 56.9966 44.8939 56.3901 45.578 55.9274C46.2621 55.4648 47.0392 55.1571 47.8548 55.0259C49.1071 54.7895 50.401 54.9192 51.5813 55.3995C52.3156 55.7136 52.9835 56.1643 53.5496 56.7274Z" fill="#94A3B8"/>
<path d="M83.5019 24.1641C83.4807 24.0231 83.4652 23.8906 83.4384 23.7566C83.3283 23.2054 83.0151 22.9489 82.462 22.9235C82.0147 22.9024 81.5816 23.0081 81.1427 23.0645C80.6037 23.1364 80.0633 23.2181 79.5215 23.2463C78.7342 23.2761 77.9655 23.4936 77.2795 23.8807C77.1119 23.9785 76.939 24.067 76.7616 24.1457C76.5471 24.2562 76.2989 24.2824 76.066 24.219C75.9434 23.5737 76.0278 22.9062 76.3073 22.3117C76.5994 21.69 77.0904 21.2755 77.779 21.0091C77.6683 20.9283 77.5534 20.8535 77.4347 20.7849C77.3175 20.73 77.1969 20.683 77.0735 20.644C76.6135 20.4819 76.4371 20.2493 76.4103 19.7671C76.4103 19.7037 76.4103 19.6388 76.4103 19.5359C76.5592 19.4997 76.7099 19.4715 76.8618 19.4513C77.3853 19.4048 77.9102 19.3696 78.4619 19.3273C78.4448 19.2521 78.4227 19.1782 78.3956 19.106C78.299 18.8954 78.1585 18.7079 77.9836 18.556C77.8086 18.404 77.6032 18.2911 77.3811 18.2249C77.0186 18.1134 76.6395 18.0657 76.2608 18.0839C75.3098 18.1037 74.3968 18.3377 73.4853 18.5759L71.771 19.02C71.7181 19.0343 71.6617 19.0283 71.613 19.0031C71.8063 18.8226 71.9939 18.6351 72.1957 18.466C73.0675 17.7117 74.1412 17.229 75.2843 17.0774C75.9416 16.9882 76.6104 17.0391 77.2465 17.2266C77.8827 17.4142 78.472 17.7342 78.9755 18.1657C79.2238 18.3715 79.458 18.5886 79.681 18.8226C79.952 19.0884 80.3061 19.2531 80.6842 19.2892C81.583 19.402 82.4366 19.6614 83.1731 20.2154C83.9097 20.7694 84.3132 21.4842 84.2582 22.4259C84.2113 23.0572 83.9641 23.6572 83.5527 24.1387C83.5555 24.1542 83.5315 24.1542 83.5019 24.1641Z" fill="#94A3B8"/>
<path d="M16.3703 64.9024H22.4657V66.6899C22.2766 66.7463 14.9043 66.7717 14.3949 66.7153C14.3371 66.5179 14.3131 55.6856 14.3681 55.1555C14.5642 55.1005 15.8129 55.0822 16.359 55.1301C16.3816 55.6644 16.359 56.2044 16.3689 56.7443C16.3788 57.2842 16.3689 57.8143 16.3689 58.3486V64.8953L16.3703 64.9024Z" fill="#94A3B8"/>
<path d="M107.519 55.1316H108.788V65.5227H115.328C115.328 65.737 115.338 65.9258 115.34 66.1148C115.341 66.3037 115.34 66.4996 115.34 66.6871C115.122 66.7449 107.97 66.7632 107.547 66.7125C107.482 66.5179 107.452 55.6828 107.519 55.1316Z" fill="#94A3B8"/>
<path d="M121.442 65.5381H127.992C128 65.9441 128.006 66.3247 127.992 66.7194H120.206C120.198 66.7145 120.191 66.7083 120.185 66.7011C120.177 66.6961 120.172 66.6886 120.169 66.6799C120.161 66.6333 120.156 66.5863 120.154 66.539C120.154 62.7656 120.154 58.9922 120.154 55.2189C120.159 55.1879 120.168 55.1576 120.18 55.1287H121.426C121.459 55.8152 121.436 56.5017 121.44 57.1883C121.445 57.8748 121.44 58.5726 121.44 59.2648V65.5338L121.442 65.5381Z" fill="#94A3B8"/>
<path d="M56.2971 44.6305C56.4382 44.5403 56.5792 44.4529 56.7076 44.3782C57.3623 44.0349 57.999 43.6585 58.6153 43.2504C59.9444 42.3095 61.1159 41.1643 62.0863 39.8572C62.8623 38.8309 63.5735 37.7638 64.0617 36.5683C64.3326 35.9029 64.5626 35.2206 64.8123 34.5468C64.9534 34.1492 65.1044 33.7503 65.2554 33.3541C65.2987 33.2401 65.3566 33.132 65.4275 33.0327C65.4713 33.1789 65.4823 33.3329 65.46 33.4838C65.379 34.7086 65.1657 35.9209 64.8236 37.0998C64.429 38.5242 63.8236 39.8817 63.0274 41.1274C62.3488 42.1663 61.5318 43.0742 60.4764 43.7452C59.256 44.537 57.7945 44.8721 56.3507 44.6911C56.3507 44.6911 56.3337 44.6728 56.2971 44.6305Z" fill="#94A3B8"/>
<path d="M36.6107 56.3608C35.4664 55.357 34.0978 54.9186 32.581 54.9102C32.406 54.9214 32.2311 54.9299 32.0561 54.944C30.2726 55.085 28.8108 55.8547 27.723 57.2644C26.7353 58.5402 26.3642 60.0077 26.5307 61.6106C26.6667 63.0215 27.3088 64.3356 28.3386 65.3106C29.3683 66.2856 30.7163 66.8556 32.1337 66.9154C33.381 66.9859 34.569 66.7744 35.6484 66.1287C37.6506 64.9347 38.6482 63.1528 38.6426 60.831C38.6556 59.9822 38.4802 59.141 38.1288 58.368C37.7775 57.5951 37.259 56.9095 36.6107 56.3608ZM35.5328 63.7097C35.2091 64.1091 34.804 64.4352 34.3444 64.6661C33.8849 64.897 33.3814 65.0275 32.8674 65.0489C31.369 65.1335 30.1865 64.5555 29.34 63.3192C28.7361 62.4296 28.5526 61.4231 28.6726 60.3587C28.7537 59.5472 29.0778 58.7788 29.6024 58.1539C30.4716 57.1277 31.5975 56.6921 32.9267 56.8076C34.7892 56.9669 36.3003 58.4345 36.4809 60.5124C36.495 60.6675 36.4993 60.8254 36.5077 60.9818C36.5135 61.9773 36.1684 62.943 35.5328 63.7097Z" fill="#94A3B8"/>
<path d="M102.66 66.3881C101.481 63.7829 100.301 61.1782 99.1203 58.574C98.6222 57.473 98.1185 56.3748 97.6289 55.271C97.6062 55.1923 97.5555 55.1246 97.4864 55.0804C97.4174 55.0363 97.3346 55.0189 97.2535 55.0313C97.0134 55.044 96.7727 55.044 96.5325 55.0313C96.4605 55.0175 96.3859 55.0315 96.3239 55.0705C96.2618 55.1095 96.2168 55.1705 96.1981 55.2414C96.129 55.4317 96.033 55.6121 95.9498 55.7968C94.3422 59.3418 92.7356 62.8877 91.1299 66.4346C91.0904 66.5234 91.0579 66.6151 91.0099 66.7349C91.3923 66.7349 91.7338 66.7236 92.0738 66.7349C92.1501 66.7472 92.2282 66.7312 92.2935 66.6899C92.3587 66.6486 92.4066 66.5849 92.428 66.5107C92.8047 65.6494 93.1956 64.7937 93.5822 63.9352C93.6231 63.8435 93.6682 63.7547 93.712 63.6631C93.7896 63.6631 93.8531 63.649 93.918 63.649C95.8934 63.649 97.8546 63.649 99.823 63.649C99.8946 63.6418 99.9665 63.6598 100.026 63.7C100.086 63.7401 100.13 63.7999 100.15 63.8689C100.527 64.7317 100.912 65.5902 101.295 66.4501C101.336 66.5417 101.379 66.632 101.423 66.7321H102.809C102.748 66.5869 102.71 66.4868 102.66 66.3881ZM94.2256 62.4761L96.8571 56.6032C96.9982 56.7653 99.4222 62.1448 99.4984 62.4719L94.2256 62.4761Z" fill="#94A3B8"/>
<path d="M8.11615 61.0354C7.9426 60.9494 7.7634 60.8733 7.58844 60.7915C7.52635 60.7619 7.46568 60.7281 7.37679 60.683L7.65899 60.504C8.82446 59.7836 9.1645 58.6361 8.92887 57.4745C8.73839 56.5102 8.11332 55.8843 7.23569 55.4938C6.57548 55.2226 5.8651 55.0948 5.15168 55.1188H0.000183105V66.7208C0.080609 66.7208 0.141284 66.7335 0.206189 66.7335C1.93464 66.7335 3.66309 66.7335 5.39155 66.7335C6.09645 66.7403 6.79781 66.6332 7.46851 66.4163C8.82305 65.961 9.62025 64.9953 9.64706 63.6068C9.6654 62.424 9.17862 61.5641 8.11615 61.0354ZM2.00942 59.9866V56.9486C2.06432 56.9332 2.12052 56.9228 2.17733 56.9176L4.52802 56.9317H5.30829C5.64781 56.9413 5.98052 57.0291 6.28046 57.1883H6.28893C6.31009 57.1996 6.32984 57.2137 6.3496 57.225C6.48379 57.3027 6.60166 57.4056 6.6967 57.528C6.71646 57.5548 6.73479 57.5816 6.75314 57.6098C6.93523 57.8996 7.0138 58.2424 6.97607 58.5825C6.96302 58.7963 6.89912 59.0038 6.78967 59.188C6.68022 59.3721 6.52839 59.5275 6.34677 59.6412C6.02199 59.8395 5.65308 59.9543 5.27302 59.9753C5.01058 59.9824 4.74672 59.9866 4.48428 59.9894H3.69413H2.11524C2.10069 59.9897 2.08626 59.9868 2.07291 59.981L2.04469 59.9725L2.00942 59.9612V59.9866ZM6.79546 64.6697C6.48774 64.8215 6.15084 64.9052 5.80778 64.915C4.57035 64.9305 3.33292 64.9263 2.09549 64.9291C2.06601 64.9242 2.03715 64.9162 2.00942 64.9051V61.7614C2.07269 61.7478 2.13679 61.7384 2.20131 61.7332C3.36584 61.7389 4.52943 61.7464 5.69208 61.7558C6.05307 61.7592 6.40966 61.8355 6.74044 61.9799C7.30484 62.2224 7.61384 62.6425 7.63077 63.2628C7.65053 63.9056 7.38949 64.3835 6.79546 64.6655V64.6697Z" fill="#94A3B8"/>
</g>
<defs>
<clipPath id="clip0_478_4569">
<rect width="128" height="66.9281" fill="white" transform="translate(0.000183105)"/>
</clipPath>
</defs>
</svg>
