<svg width="69" height="77" viewBox="0 0 69 77" fill="none" xmlns="http://www.w3.org/2000/svg">
<path fill-rule="evenodd" clip-rule="evenodd" d="M7.50372 65.7697C8.10212 65.0081 8.37412 63.9201 8.37412 62.5601C8.37412 61.6897 8.21092 60.9281 7.88452 60.2209C7.55812 59.5137 7.12292 59.0241 6.52452 58.6433C5.92612 58.2625 5.21892 58.0993 4.40292 58.0993H3.15172V65.8785C3.15172 66.3137 3.26052 66.5857 3.53252 66.7489C3.80452 66.9121 4.18532 66.9665 4.72932 66.9665C6.03492 66.9665 6.90532 66.5313 7.50372 65.7697ZM0.268511 67.5105C0.214111 67.4561 0.214111 67.3473 0.214111 67.2385C0.214111 67.0753 0.268511 66.9665 0.322912 66.9665C0.377312 66.9121 0.486112 66.9121 0.649312 66.9121C0.975713 66.9121 1.19331 66.8577 1.35651 66.7489C1.51971 66.6401 1.57411 66.4769 1.62851 66.3137C1.68291 66.1505 1.68291 65.9329 1.68291 65.6609V59.3505C1.68291 59.0785 1.62851 58.8609 1.62851 58.6977C1.57411 58.5345 1.51971 58.3713 1.35651 58.2625C1.19331 58.1537 0.975713 58.0993 0.649312 58.0993H0.486112C0.377312 58.0993 0.322912 58.0993 0.268511 58.0449C0.214111 57.9905 0.214111 57.9361 0.214111 57.7729C0.214111 57.6641 0.214111 57.6097 0.268511 57.5009C0.322912 57.4465 0.377312 57.3921 0.486112 57.3921C1.19331 57.4465 1.79171 57.4465 2.39011 57.4465H4.83812C5.87172 57.4465 6.79652 57.6641 7.61252 58.0449C8.42852 58.4257 9.08132 59.0241 9.57093 59.7857C10.0605 60.5473 10.2781 61.4721 10.2781 62.5057C10.2781 63.5937 10.0061 64.5185 9.46213 65.2257C8.91813 65.9873 8.21092 66.5313 7.34052 66.9121C6.47012 67.2929 5.54532 67.4561 4.56612 67.4561H2.39011C1.84611 67.4561 1.19331 67.4561 0.486112 67.5105C0.377312 67.6193 0.322912 67.5649 0.268511 67.5105Z" fill="#94A3B8"/>
<path fill-rule="evenodd" clip-rule="evenodd" d="M16.7518 63.6485H20.0702L18.4382 59.5685H18.3838L16.7518 63.6485ZM13.5422 67.4565C13.4878 67.4021 13.4878 67.2933 13.4878 67.1845C13.4878 67.0213 13.5422 66.9125 13.5966 66.9125C13.651 66.8581 13.7054 66.8581 13.7598 66.8581C13.8142 66.8581 13.8686 66.8581 13.923 66.8581C14.2494 66.8581 14.467 66.7493 14.6302 66.5861C14.7934 66.4229 14.9022 66.2597 15.011 66.0421C15.1198 65.8245 15.1742 65.7157 15.1742 65.6069L17.9486 59.0245C18.003 58.8613 18.0574 58.7525 18.0574 58.6437C18.0574 58.4805 18.003 58.3173 17.8398 58.2085C17.6766 58.0997 17.459 58.0453 17.2414 57.9909C17.0782 57.9365 16.9694 57.9365 16.915 57.8821C16.8606 57.8277 16.8606 57.7733 16.8606 57.6101C16.8606 57.5013 16.915 57.3925 16.9694 57.3381C17.0238 57.2837 17.1326 57.2837 17.2958 57.2837C17.8398 57.2837 18.2206 57.3381 18.547 57.3925C18.8734 57.4469 19.1454 57.6101 19.363 57.8821C19.5806 58.0997 19.7982 58.4805 20.0158 58.9701L22.6814 65.5525C22.8446 65.9333 23.0078 66.2597 23.171 66.4773C23.3342 66.6949 23.5518 66.8037 23.8238 66.8037H23.9326C24.0414 66.8037 24.0958 66.8037 24.1502 66.8581C24.2046 66.9125 24.2046 66.9669 24.2046 67.1301C24.2046 67.2389 24.2046 67.2933 24.1502 67.4021C24.0958 67.4565 24.0414 67.5109 23.9326 67.5109C23.2798 67.4565 22.6814 67.4565 22.1918 67.4565C21.539 67.4565 20.8862 67.4565 20.2334 67.5109C20.1246 67.5109 20.0702 67.4565 20.0158 67.4021C19.9614 67.3477 19.9614 67.2389 19.9614 67.1301C19.9614 66.9669 20.0158 66.9125 20.0158 66.8581C20.0702 66.8037 20.1246 66.8037 20.2334 66.8037C20.6142 66.8037 20.8318 66.7493 20.995 66.6949C21.1582 66.6405 21.2126 66.4773 21.2126 66.3141C21.2126 66.1509 21.1582 65.9333 20.995 65.5525L20.451 64.2469H16.5342C16.2622 64.8997 16.099 65.2805 16.099 65.3893C16.0446 65.4981 16.0446 65.5525 16.0446 65.5525C15.9358 65.9333 15.8814 66.2053 15.8814 66.3141C15.8814 66.4773 15.9358 66.5861 16.099 66.6949C16.2622 66.7493 16.5342 66.8037 17.0238 66.8037C17.1326 66.8037 17.187 66.8037 17.2414 66.8581C17.2958 66.9125 17.2958 66.9669 17.2958 67.1301C17.2958 67.2389 17.2958 67.2933 17.2414 67.4021C17.187 67.4565 17.1326 67.5109 17.0238 67.5109C16.371 67.4565 15.7726 67.4565 15.283 67.4565C14.9566 67.4565 14.4126 67.4565 13.7598 67.5109C13.651 67.5653 13.5966 67.5109 13.5422 67.4565Z" fill="#94A3B8"/>
<path fill-rule="evenodd" clip-rule="evenodd" d="M32.2558 62.3973C33.8334 62.3973 34.595 61.6357 34.595 60.1669C34.595 59.5685 34.3774 59.0789 33.9966 58.6437C33.5614 58.2085 32.9086 58.0453 31.9838 58.0453C31.6574 58.0453 31.4398 58.0997 31.2766 58.1541C31.1134 58.2085 31.0046 58.3717 30.9502 58.5349C30.8958 58.6981 30.8414 58.9701 30.8414 59.3509V62.3973H32.2558ZM27.9582 67.4021C27.9038 67.3477 27.9038 67.2389 27.9038 67.1301C27.9038 66.9669 27.9582 66.8581 28.0126 66.8581C28.067 66.8037 28.1758 66.8037 28.339 66.8037C28.6654 66.8037 28.883 66.7493 29.0462 66.6405C29.2094 66.5317 29.2638 66.3685 29.3182 66.2053C29.3726 66.0421 29.3726 65.8245 29.3726 65.5525V59.2421C29.3726 58.9701 29.3182 58.7525 29.3182 58.5893C29.2638 58.4261 29.2094 58.3173 29.0462 58.1541C28.883 58.0453 28.6654 57.9909 28.339 57.9909H28.2302C28.1214 57.9909 28.067 57.9909 28.0126 57.9365C27.9582 57.8821 27.9582 57.8277 27.9582 57.6645C27.9582 57.5557 27.9582 57.5013 28.0126 57.3925C28.067 57.2837 28.1214 57.2837 28.2302 57.2837C28.9374 57.3381 29.5358 57.3381 30.1342 57.3381H32.8542C33.6702 57.3381 34.323 57.4469 34.867 57.7189C35.411 57.9909 35.7918 58.2629 36.0638 58.6437C36.3358 59.0245 36.4446 59.4597 36.4446 59.8949C36.4446 60.4933 36.227 61.0373 35.7374 61.5269C35.3022 62.0165 34.6494 62.3429 33.8334 62.5605L34.1054 62.9957C34.5406 63.7029 34.9758 64.3557 35.3022 64.8453C35.683 65.3349 36.0638 65.8245 36.499 66.2597C36.771 66.4773 37.0974 66.6405 37.4782 66.6949C37.4782 66.6949 37.5326 66.6949 37.6414 66.6949C37.6958 66.6949 37.7502 66.7493 37.8046 66.8037C37.859 66.8581 37.859 66.9125 37.859 67.0213C37.859 67.1301 37.859 67.1845 37.8046 67.2933C37.7502 67.3477 37.6958 67.4021 37.587 67.4021H37.1518C36.6622 67.4021 36.3358 67.3477 36.1182 67.3477C35.683 67.2389 35.3566 67.1301 35.0302 66.9125C34.7038 66.6949 34.4318 66.3685 34.1054 65.9877C33.779 65.6069 33.3438 64.9541 32.7998 64.0293L32.5278 63.5941C32.3646 63.3765 32.2014 63.1589 32.0926 63.1045C31.9294 62.9957 31.7118 62.9957 31.331 62.9957H30.8958V65.6069C30.8958 65.8789 30.9502 66.0965 30.9502 66.2597C31.0046 66.4229 31.059 66.5861 31.2222 66.6949C31.3854 66.8037 31.603 66.8581 31.9294 66.8581H32.0382C32.147 66.8581 32.2014 66.8581 32.2558 66.9125C32.3102 66.9669 32.3102 67.0213 32.3646 67.1845C32.3646 67.2933 32.3646 67.3477 32.3102 67.4565C32.2558 67.5109 32.2014 67.5653 32.0926 67.5653C31.4398 67.5109 30.7326 67.5109 30.1342 67.5109C29.5902 67.5109 28.9374 67.5109 28.2846 67.5653C28.067 67.5109 28.0126 67.5109 27.9582 67.4021Z" fill="#94A3B8"/>
<path fill-rule="evenodd" clip-rule="evenodd" d="M46.835 67.347L43.2446 59.2958H43.1902L43.2446 65.6062C43.2446 65.8782 43.299 66.0958 43.299 66.259C43.3534 66.4222 43.4078 66.531 43.571 66.6398C43.7342 66.7486 43.9518 66.803 44.2238 66.803H44.3326C44.4414 66.803 44.4958 66.803 44.5502 66.8574C44.6046 66.9118 44.6046 66.9662 44.659 67.1294C44.659 67.2382 44.659 67.2926 44.6046 67.4014C44.5502 67.4558 44.4958 67.5102 44.387 67.5102H44.0062C43.5166 67.5102 43.1902 67.4558 42.9726 67.4558C42.5918 67.4558 42.1022 67.4558 41.395 67.5102C41.2862 67.5102 41.2318 67.4558 41.1774 67.4014C41.123 67.347 41.123 67.2382 41.123 67.1294C41.123 66.9662 41.1774 66.8574 41.2318 66.8574C41.2862 66.803 41.395 66.803 41.5582 66.803C41.8846 66.803 42.1022 66.7486 42.211 66.6398C42.3742 66.531 42.4286 66.4222 42.483 66.259C42.5374 66.0958 42.5374 65.8782 42.5374 65.6062V59.2958C42.5374 58.9694 42.483 58.6974 42.4286 58.5342C42.3742 58.371 42.2654 58.2622 42.1022 58.2078C41.939 58.1534 41.7758 58.099 41.4494 58.0446C41.395 58.0446 41.3406 58.0446 41.2318 57.9902C41.123 57.9902 41.0686 57.9358 41.0686 57.8814C41.0686 57.827 41.0142 57.7726 41.0142 57.6638C41.0142 57.555 41.0686 57.4462 41.123 57.3918C41.1774 57.3374 41.2862 57.3374 41.4494 57.3374C42.0478 57.3374 42.5918 57.3918 42.9726 57.4462C43.3534 57.5006 43.7342 57.6638 44.0062 57.9358C44.3326 58.1534 44.5502 58.5342 44.7678 59.0238L47.4878 65.171H47.5422L50.643 57.4462H51.5678C52.1662 57.4462 52.7646 57.4462 53.4718 57.3918C53.5806 57.3918 53.635 57.4462 53.6894 57.5006C53.7438 57.555 53.7438 57.6638 53.7438 57.7726C53.7438 57.9358 53.6894 58.0446 53.635 58.0446C53.5806 58.099 53.4718 58.099 53.363 58.099C53.0366 58.099 52.819 58.1534 52.6558 58.2622C52.4926 58.371 52.4382 58.5342 52.3838 58.6974C52.3294 58.8606 52.3294 59.0782 52.3294 59.3502V65.6606C52.3294 65.9326 52.3838 66.1502 52.3838 66.3134C52.4382 66.4766 52.4926 66.6398 52.6558 66.7486C52.819 66.8574 53.0366 66.9118 53.363 66.9118H53.4718C53.5806 66.9118 53.635 66.9118 53.6894 66.9662C53.7438 67.0206 53.7438 67.075 53.7982 67.2382C53.7982 67.347 53.7982 67.4014 53.7438 67.5102C53.6894 67.5646 53.635 67.619 53.5262 67.619C52.8734 67.5646 52.2206 67.5646 51.6222 67.5646C51.0238 67.5646 50.371 67.5646 49.6638 67.619C49.555 67.619 49.5006 67.5646 49.4462 67.5102C49.3918 67.4558 49.3918 67.347 49.3918 67.2382C49.3918 67.075 49.4462 66.9662 49.5006 66.9662C49.555 66.9118 49.6638 66.9118 49.827 66.9118C50.1534 66.9118 50.371 66.8574 50.5342 66.7486C50.6974 66.6398 50.7518 66.4766 50.8062 66.3134C50.8606 66.1502 50.8606 65.9326 50.8606 65.6606V59.3502H50.8062L47.5422 67.4558C47.4878 67.5646 47.379 67.619 47.2158 67.619C46.9982 67.5102 46.8894 67.4558 46.835 67.347Z" fill="#94A3B8"/>
<path fill-rule="evenodd" clip-rule="evenodd" d="M60.7613 63.5391H64.0797L62.4477 59.4591H62.3933L60.7613 63.5391ZM57.5517 67.3471C57.4973 67.2927 57.4973 67.1839 57.4973 67.0751C57.4973 66.9119 57.5517 66.8031 57.6061 66.8031C57.6605 66.7487 57.7149 66.7487 57.7693 66.7487C57.8237 66.7487 57.8781 66.7487 57.9325 66.7487C58.2589 66.7487 58.4765 66.6399 58.6397 66.4767C58.8029 66.3135 58.9117 66.1503 59.0205 65.9327C59.1293 65.7151 59.1837 65.6063 59.1837 65.4975L61.9581 58.9151C62.0125 58.7519 62.0669 58.6431 62.0669 58.5343C62.0669 58.3711 62.0125 58.2079 61.8493 58.0991C61.6861 57.9903 61.4685 57.9359 61.2509 57.8815C61.0877 57.8271 60.9789 57.8271 60.9245 57.7727C60.8701 57.7183 60.8701 57.6639 60.8701 57.5007C60.8701 57.3919 60.9245 57.2831 60.9789 57.2287C61.0333 57.1743 61.1421 57.1743 61.3053 57.1743C61.8493 57.1743 62.2301 57.2287 62.5565 57.2831C62.8829 57.3375 63.1549 57.5007 63.3725 57.7727C63.5901 57.9903 63.8077 58.3711 64.0253 58.8607L66.6909 65.4431C66.8541 65.8239 67.0173 66.1503 67.1805 66.3679C67.3437 66.5855 67.5613 66.6943 67.8333 66.6943H67.9421C68.0509 66.6943 68.1053 66.6943 68.1597 66.7487C68.2141 66.8031 68.2141 66.8575 68.2141 67.0207C68.2141 67.1295 68.2141 67.1839 68.1597 67.2927C68.1053 67.4015 68.0509 67.4015 67.9421 67.4015C67.2893 67.3471 66.6909 67.3471 66.2013 67.3471C65.5485 67.3471 64.8957 67.3471 64.2429 67.4015C64.1341 67.4015 64.0797 67.3471 64.0253 67.2927C63.9709 67.2383 63.9709 67.1295 63.9709 67.0207C63.9709 66.8575 64.0253 66.8031 64.0253 66.7487C64.0797 66.6943 64.1341 66.6943 64.2429 66.6943C64.6237 66.6943 64.8413 66.6399 65.0045 66.5855C65.1677 66.5311 65.2221 66.3679 65.2221 66.2047C65.2221 66.0415 65.1677 65.8239 65.0045 65.4431L64.4605 64.1375H60.5437C60.2717 64.7903 60.1085 65.1711 60.1085 65.2799C60.1085 65.3887 60.0541 65.4431 60.0541 65.4431C59.9453 65.8239 59.8909 66.0959 59.8909 66.2047C59.8909 66.3679 59.9453 66.5311 60.1085 66.5855C60.2717 66.6399 60.5437 66.6943 61.0333 66.6943H61.1421C61.2509 66.6943 61.3053 66.6943 61.3597 66.7487C61.4141 66.8031 61.4141 66.8575 61.4141 67.0207C61.4141 67.1295 61.4141 67.1839 61.3597 67.2927C61.3053 67.3471 61.2509 67.4015 61.1421 67.4015C60.4893 67.3471 59.8909 67.3471 59.4013 67.3471C59.0749 67.3471 58.5309 67.3471 57.8781 67.4015C57.6605 67.4559 57.6061 67.4015 57.5517 67.3471Z" fill="#94A3B8"/>
<path fill-rule="evenodd" clip-rule="evenodd" d="M17.7852 75.6163C17.4044 75.2355 17.2412 74.6915 17.2412 74.0387C17.2412 73.3315 17.4044 72.7875 17.7852 72.3523C18.1116 71.9715 18.6556 71.7539 19.3628 71.7539C19.798 71.7539 20.2332 71.8083 20.614 71.9715V72.6243C20.2332 72.4611 19.8524 72.4067 19.4172 72.4067C18.9276 72.4067 18.5468 72.5699 18.3292 72.8419C18.1116 73.1139 18.0028 73.5491 18.0028 74.0931C18.0028 74.5827 18.1116 74.9635 18.3836 75.2355C18.6012 75.5075 18.982 75.6163 19.4716 75.6163C19.9068 75.6163 20.2876 75.5619 20.6684 75.3987V76.0515C20.2876 76.1603 19.8524 76.2147 19.4172 76.2147C18.71 76.2147 18.166 75.9971 17.7852 75.6163Z" fill="#94A3B8"/>
<path fill-rule="evenodd" clip-rule="evenodd" d="M25.1294 74.474L24.3678 72.5156L23.6062 74.474H25.1294ZM23.987 71.8628H24.803L26.435 76.106H25.6734L25.2382 75.018H23.5518L23.1166 76.106H22.355L23.987 71.8628Z" fill="#94A3B8"/>
<path fill-rule="evenodd" clip-rule="evenodd" d="M30.1886 74.1476C30.4606 74.1476 30.6782 74.0932 30.8414 73.93C31.0046 73.7668 31.059 73.6036 31.059 73.3316C31.059 73.0596 31.0046 72.842 30.8414 72.6788C30.6782 72.5156 30.515 72.4612 30.243 72.4612H29.2094V74.1476H30.1886ZM28.4478 71.8628H30.3518C30.8414 71.8628 31.1678 71.9716 31.4398 72.2436C31.6574 72.5156 31.8206 72.842 31.8206 73.2772C31.8206 73.7124 31.7118 74.0388 31.4398 74.3108C31.1678 74.5828 30.8414 74.6916 30.4062 74.6916H29.2638V76.106H28.4478V71.8628Z" fill="#94A3B8"/>
<path fill-rule="evenodd" clip-rule="evenodd" d="M33.6702 76.106H34.3774V71.8628H33.6702V76.106Z" fill="#94A3B8"/>
<path fill-rule="evenodd" clip-rule="evenodd" d="M37.6413 72.4068H36.2812V71.8628H39.7085V72.4068H38.3485V76.106H37.6413V72.4068Z" fill="#94A3B8"/>
<path fill-rule="evenodd" clip-rule="evenodd" d="M43.4077 74.474L42.6461 72.5156L41.8845 74.474H43.4077ZM42.2653 71.8628H43.0813L44.7133 76.106H43.9517L43.5165 75.018H41.8301L41.3949 76.106H40.6333L42.2653 71.8628Z" fill="#94A3B8"/>
<path fill-rule="evenodd" clip-rule="evenodd" d="M46.7261 71.8628H47.4333V75.562H49.6093V76.106H46.7261V71.8628Z" fill="#94A3B8"/>
<path fill-rule="evenodd" clip-rule="evenodd" d="M18.6556 38.733L33.5068 44.8802L48.3581 38.733L54.5053 23.8274L48.4125 8.97613L33.5612 2.82893L18.6556 8.97613L12.5084 23.8818L18.6556 38.733ZM33.5612 46.0226L17.894 39.549L11.4204 23.8818L17.894 8.21453L33.5612 1.68652L49.2285 8.21453L55.7021 23.8818L49.2285 39.549L33.5612 46.0226Z" fill="#94A3B8"/>
<path fill-rule="evenodd" clip-rule="evenodd" d="M24.259 23.8816L33.5614 36.6656L42.8638 23.8816L33.5614 11.0975L24.259 23.8816ZM33.5614 38.352L23.0078 23.8816L33.5614 9.41113L44.115 23.8816L33.5614 38.352Z" fill="#94A3B8"/>
<path fill-rule="evenodd" clip-rule="evenodd" d="M33.5613 36.9379H33.6157L48.0861 38.5699L43.0269 23.9907C42.9725 23.8819 42.9725 23.7731 43.0269 23.6643L48.0861 9.19385L33.6701 11.2067C33.6157 11.2067 33.5613 11.2067 33.5069 11.2067L19.0909 9.19385L24.0957 23.6643C24.1501 23.7731 24.1501 23.8819 24.0957 23.9907L19.0365 38.5699L33.5069 36.9379H33.5613ZM48.8477 39.6579H48.7933L33.5613 37.9715L18.3293 39.6579C18.1661 39.6579 18.0029 39.6035 17.8941 39.4947C17.7853 39.3315 17.7309 39.1683 17.7853 39.0051L23.0621 23.8275L17.7853 8.75865C17.7309 8.59545 17.7853 8.37785 17.8941 8.26905C18.0029 8.10585 18.1661 8.05145 18.3837 8.10585L33.5613 10.2275L48.7389 8.10585C48.9021 8.10585 49.0653 8.16025 49.2285 8.26905C49.3373 8.43225 49.3917 8.59545 49.3373 8.75865L44.0605 23.8275L49.3373 39.0051C49.3917 39.1683 49.3373 39.3315 49.2285 39.4947C49.1197 39.6035 48.9565 39.6579 48.8477 39.6579Z" fill="#94A3B8"/>
<path fill-rule="evenodd" clip-rule="evenodd" d="M33.0173 10.7167H34.0509V2.28467H33.0173V10.7167Z" fill="#94A3B8"/>
<path fill-rule="evenodd" clip-rule="evenodd" d="M33.0173 45.4783H34.0509V37.4814H33.0173V45.4783Z" fill="#94A3B8"/>
<path fill-rule="evenodd" clip-rule="evenodd" d="M55.1582 24.371H43.5166V23.3374H55.1582V24.371Z" fill="#94A3B8"/>
<path fill-rule="evenodd" clip-rule="evenodd" d="M11.9644 24.371V23.3374H23.606V24.371H11.9644Z" fill="#94A3B8"/>
<path fill-rule="evenodd" clip-rule="evenodd" d="M50.4798 7.07202C49.555 6.14722 48.0862 6.14722 47.2158 7.07202C46.291 7.99682 46.291 9.46562 47.2158 10.336C48.1406 11.2608 49.6094 11.2608 50.4798 10.336C51.3502 9.41122 51.3502 7.94242 50.4798 7.07202Z" fill="#94A3B8"/>
<path fill-rule="evenodd" clip-rule="evenodd" d="M35.1932 9.0852C34.2684 8.1604 32.7996 8.1604 31.9292 9.0852C31.0044 10.01 31.0044 11.4788 31.9292 12.3492C32.854 13.274 34.3228 13.274 35.1932 12.3492C36.118 11.4788 36.118 10.01 35.1932 9.0852Z" fill="#94A3B8"/>
<path fill-rule="evenodd" clip-rule="evenodd" d="M45.1485 22.1951C44.2237 21.2703 42.7549 21.2703 41.8845 22.1951C40.9597 23.1199 40.9597 24.5887 41.8845 25.4591C42.8093 26.3839 44.2781 26.3839 45.1485 25.4591C46.0189 24.5887 46.0189 23.1199 45.1485 22.1951Z" fill="#94A3B8"/>
<path fill-rule="evenodd" clip-rule="evenodd" d="M25.1837 22.2498C24.2589 21.325 22.7901 21.325 21.9197 22.2498C20.9949 23.1746 20.9949 24.6434 21.9197 25.5138C22.8445 26.4386 24.3133 26.4386 25.1837 25.5138C26.1085 24.6434 26.1085 23.1746 25.1837 22.2498Z" fill="#94A3B8"/>
<path fill-rule="evenodd" clip-rule="evenodd" d="M35.1388 35.3601C34.214 34.4353 32.7452 34.4353 31.8748 35.3601C30.95 36.2849 30.95 37.7537 31.8748 38.6241C32.7996 39.5489 34.2684 39.5489 35.1388 38.6241C36.0636 37.7537 36.0636 36.2849 35.1388 35.3601Z" fill="#94A3B8"/>
<path fill-rule="evenodd" clip-rule="evenodd" d="M19.9613 37.5906C19.0365 36.6658 17.5677 36.6658 16.6973 37.5906C15.7725 38.5154 15.7725 39.9842 16.6973 40.8546C17.6221 41.7794 19.0909 41.7794 19.9613 40.8546C20.8861 39.9298 20.8861 38.461 19.9613 37.5906Z" fill="#94A3B8"/>
<path fill-rule="evenodd" clip-rule="evenodd" d="M50.4798 40.9093C51.4046 39.9845 51.4046 38.5157 50.4798 37.6453C49.555 36.7205 48.0862 36.7205 47.2158 37.6453C46.291 38.5701 46.291 40.0389 47.2158 40.9093C48.0862 41.8341 49.555 41.8341 50.4798 40.9093Z" fill="#94A3B8"/>
<path fill-rule="evenodd" clip-rule="evenodd" d="M19.9068 10.336C20.8316 9.41122 20.8316 7.94242 19.9068 7.07202C18.982 6.14722 17.5132 6.14722 16.6428 7.07202C15.718 7.99682 15.718 9.46562 16.6428 10.336C17.5676 11.2608 19.0364 11.2608 19.9068 10.336Z" fill="#94A3B8"/>
<path fill-rule="evenodd" clip-rule="evenodd" d="M57.4428 23.9906C57.4428 22.685 56.4092 21.6514 55.1036 21.6514C53.798 21.6514 52.7644 22.685 52.7644 23.9906C52.7644 25.2962 53.798 26.3298 55.1036 26.3298C56.4092 26.3298 57.4428 25.2418 57.4428 23.9906Z" fill="#94A3B8"/>
<path fill-rule="evenodd" clip-rule="evenodd" d="M14.3037 23.9906C14.3037 22.685 13.2701 21.6514 11.9644 21.6514C10.6588 21.6514 9.62524 22.685 9.62524 23.9906C9.62524 25.2962 10.6588 26.3298 11.9644 26.3298C13.2157 26.3298 14.3037 25.2418 14.3037 23.9906Z" fill="#94A3B8"/>
<path fill-rule="evenodd" clip-rule="evenodd" d="M33.5614 47.9265C34.867 47.9265 35.9006 46.8929 35.9006 45.5872C35.9006 44.2816 34.867 43.248 33.5614 43.248C32.2558 43.248 31.2222 44.2816 31.2222 45.5872C31.2222 46.8929 32.2558 47.9265 33.5614 47.9265Z" fill="#94A3B8"/>
<path fill-rule="evenodd" clip-rule="evenodd" d="M33.5614 4.67841C34.867 4.67841 35.9006 3.64481 35.9006 2.3392C35.9006 1.0336 34.867 0 33.5614 0C32.2558 0 31.2222 1.0336 31.2222 2.3392C31.2222 3.64481 32.2558 4.67841 33.5614 4.67841Z" fill="#94A3B8"/>
</svg>
