<svg width="128" height="43" viewBox="0 0 128 43" fill="none" xmlns="http://www.w3.org/2000/svg">
<g clip-path="url(#clip0_478_4486)">
<path d="M22.8153 19.2466H26.4274V35.6347H10.0826V19.233H13.6947V17.4209H8.29004V37.4604H28.256V17.4232H22.8198L22.8153 19.2466Z" fill="#94A3B8"/>
<path d="M53.7596 32.9799C53.7031 32.9876 53.6487 33.0071 53.6001 33.0371C53.5515 33.0672 53.5097 33.1071 53.4774 33.1543C53.2269 33.6074 53.0034 34.0604 52.7641 34.5134C52.6106 34.8101 52.5134 35.1726 52.2787 35.3809C51.5811 36.0016 50.7638 36.4523 49.8089 36.4954C47.4971 36.595 45.7181 35.6007 44.4787 33.6821C43.0474 31.4668 42.8443 29.0431 43.5057 26.5402C44.7316 21.8876 49.8924 21.5819 52.3645 23.6884C52.51 23.8179 52.623 23.9801 52.6941 24.1618C52.895 24.6828 53.0711 25.2151 53.2472 25.7474C53.2577 25.8093 53.2919 25.8645 53.3426 25.9013C53.3932 25.9382 53.4562 25.9537 53.5181 25.9445C53.8138 25.9331 54.1118 25.9445 54.455 25.9445C54.455 25.0384 54.455 24.1754 54.455 23.3101C54.4459 23.2678 54.4283 23.2278 54.4035 23.1924C54.3787 23.157 54.3471 23.1269 54.3105 23.104C52.8069 22.0643 51.1499 21.421 49.3145 21.4256C48.0796 21.4256 46.8966 21.7993 45.7588 22.2795C44.0431 23.0044 42.6659 24.1233 41.8284 25.8289C41.0789 27.3488 40.9073 28.9661 41.0495 30.6355C41.3294 33.9199 43.4222 36.4705 46.5805 37.3516C47.391 37.5781 48.2286 37.7593 49.0639 37.6121C50.7501 37.2762 52.385 36.7195 53.9267 35.9563C53.9986 35.9274 54.0562 35.8713 54.087 35.8C54.2924 34.8668 54.4866 33.929 54.692 32.9641C54.3782 32.9731 54.0622 32.9573 53.7596 32.9799Z" fill="#94A3B8"/>
<path d="M103.122 15.1807C103.134 13.136 103.134 11.0914 103.122 9.04675C103.121 8.63966 103.099 8.23288 103.056 7.82812C102.93 6.62308 102.356 5.98884 101.205 5.78951C100.84 5.73171 100.471 5.70217 100.101 5.70117C99.9514 5.70212 99.8054 5.74701 99.681 5.83029C98.7779 6.42828 97.8614 7.03759 96.9516 7.64238C96.8726 7.69674 96.789 7.74657 96.6671 7.82358C96.6175 7.18935 96.5723 6.59363 96.5271 6.01149C95.9786 5.97298 93.8181 6.48717 93.2198 6.79069C93.2559 7.00135 93.2943 7.2188 93.3327 7.44758L94.9243 7.30034V15.4548L93.2988 15.6631C93.344 15.9146 93.3823 16.132 93.4185 16.3246H97.8998C97.9336 16.0981 97.9652 15.9033 98.0013 15.6586C97.6198 15.5997 97.2654 15.5386 96.9109 15.4933C96.7619 15.4751 96.7145 15.4185 96.7145 15.2667C96.7145 13.1693 96.7145 11.0695 96.7145 8.972C96.7183 8.92147 96.7327 8.87232 96.7569 8.8278C96.781 8.78329 96.8143 8.74442 96.8545 8.71377C97.306 8.40572 97.7688 8.09993 98.2452 7.82585C98.5517 7.63454 98.8808 7.48235 99.2249 7.37283C100.27 7.08289 101.32 7.39095 101.372 8.9131C101.372 8.97653 101.372 9.03996 101.372 9.10338V15.4457L100.205 15.6564C100.243 15.901 100.279 16.1094 100.313 16.3178H104.797C104.831 16.1116 104.864 15.8874 104.901 15.6518C104.374 15.5929 103.891 15.525 103.406 15.491C103.189 15.4887 103.122 15.4163 103.122 15.1807Z" fill="#94A3B8"/>
<path d="M127.889 6.03188H124.149C124.117 6.25839 124.088 6.47131 124.056 6.69556L125.054 6.92207L122.385 14.85C122.328 14.7531 122.295 14.6433 122.291 14.5306C122.258 13.9889 122.147 13.4548 121.961 12.945C121.555 11.8736 121.182 10.7909 120.796 9.71042C120.464 8.78626 120.137 7.86209 119.801 6.91753L121.331 6.69102C121.291 6.44412 121.254 6.238 121.223 6.02734H116.561C116.529 6.238 116.493 6.45772 116.457 6.70688C116.863 6.76804 117.245 6.83146 117.626 6.87903C117.714 6.88216 117.799 6.91296 117.868 6.96704C117.937 7.02112 117.988 7.09574 118.013 7.18029C118.945 9.62662 119.891 12.0684 120.832 14.5125C121.058 15.0991 121.284 15.6835 121.51 16.2747L121.975 16.1592C121.923 16.2521 121.889 16.3132 121.853 16.3857C121.302 17.2668 120.724 18.1321 120.209 19.0336C119.972 19.4414 119.71 19.6339 119.232 19.5727C118.887 19.5501 118.54 19.5501 118.195 19.5727V21.5547C118.963 21.5547 119.71 21.5547 120.453 21.5547C120.493 21.5455 120.53 21.5275 120.562 21.502C120.594 21.4766 120.62 21.4443 120.638 21.4075C121.458 19.5682 122.322 17.7471 123.074 15.8829C124.234 13.0107 125.332 10.1114 126.429 7.2188C126.453 7.13009 126.506 7.05164 126.578 6.99497C126.65 6.9383 126.739 6.90639 126.831 6.90394C127.212 6.85864 127.591 6.79295 127.989 6.73179C127.957 6.44412 127.921 6.22441 127.889 6.03188Z" fill="#94A3B8"/>
<path d="M99.8573 21.5206C98.6111 21.4957 97.5229 22.0212 96.3716 22.2885L96.4799 22.968H98.0602V36.3888L96.4573 36.595C96.498 36.8396 96.5341 37.048 96.5725 37.2745H96.9111C97.7397 37.2587 98.5704 37.2315 99.3945 37.2292C100.018 37.2292 100.638 37.2677 101.261 37.2722C101.312 37.2728 101.362 37.2612 101.407 37.2383C101.452 37.2154 101.492 37.182 101.521 37.1409C101.569 36.9608 101.598 36.7764 101.609 36.5904L99.8528 36.3866L99.8573 21.5206Z" fill="#94A3B8"/>
<path d="M83.3473 24.2479C82.95 24.1732 82.9477 24.1755 82.7174 24.4314C82.4284 24.7553 82.1282 25.0679 81.8527 25.4031C81.7574 25.5258 81.7 25.6739 81.6879 25.829C81.6654 26.2141 81.6879 26.5991 81.6879 27.0001C81.4309 27.0185 81.1729 27.0185 80.9159 27.0001C80.6682 26.9553 80.4129 26.9825 80.1802 27.0784C79.9474 27.1743 79.7468 27.335 79.6019 27.5414C79.5254 27.6142 79.472 27.7082 79.4487 27.8114C79.4254 27.9146 79.4331 28.0225 79.471 28.1213H81.5977V28.4996C81.5977 30.6424 81.5977 32.7867 81.5977 34.9325C81.5977 35.2745 81.5976 35.612 81.6292 35.9631C81.6676 36.4297 81.7376 36.9281 82.1801 37.1727C82.9657 37.6008 83.7942 37.8522 84.6634 37.338C84.7785 37.2701 84.8892 37.2044 85.0156 37.1387L86.6478 36.2055C86.5282 35.979 86.4221 35.7525 86.3115 35.5259L85.8599 35.723C85.4188 35.9358 84.9337 36.0406 84.4444 36.0288C84.1837 36.0341 83.9309 35.9389 83.7381 35.7628C83.5453 35.5866 83.4273 35.3429 83.4082 35.082C83.3822 34.8943 83.3686 34.7052 83.3676 34.5157C83.3676 32.4786 83.3676 30.44 83.3676 28.3999C83.3676 28.3025 83.3676 28.2074 83.3811 28.0873H86.7675V27.1541H83.3608L83.3473 24.2479Z" fill="#94A3B8"/>
<path d="M57.7958 7.30044C57.7958 7.37519 57.8116 7.41823 57.8116 7.46127C57.8116 10.0586 57.8116 12.6559 57.8116 15.2533C57.8116 15.4322 57.7439 15.4798 57.5859 15.4979C57.1343 15.5455 56.6648 15.6089 56.1907 15.6678C56.2313 15.9192 56.2652 16.1321 56.2991 16.3315H61.6834C61.7173 16.1049 61.7534 15.849 61.7918 15.5794L59.5342 15.3778C59.5342 15.3167 59.5161 15.2736 59.5161 15.2306C59.5161 13.5121 59.5161 11.7929 59.5161 10.0729C59.5144 9.99218 59.5381 9.91293 59.5838 9.84643C60.1348 9.05763 60.8614 8.40851 61.7059 7.95053C61.9412 7.84244 62.1948 7.78018 62.4532 7.76705C62.837 7.73761 63.2253 7.76705 63.6204 7.76705V5.81226C63.1237 5.81226 62.6451 5.81226 62.1687 5.81226C62.0323 5.82125 61.9037 5.88008 61.8075 5.97762C61.356 6.46462 60.9361 6.96973 60.5049 7.46806L59.4281 8.70028V5.98214C58.2496 6.01612 57.2044 6.50312 56.0801 6.74096C56.1185 6.99239 56.1523 7.2121 56.1907 7.44541L57.7958 7.30044Z" fill="#94A3B8"/>
<path d="M78.3424 26.8957C77.0872 26.8776 75.99 27.4031 74.8228 27.6659C74.8635 27.9218 74.8973 28.1325 74.9357 28.3658L76.5476 28.248V36.3866L74.9493 36.5881C74.9493 36.6923 74.9605 36.7784 74.9741 36.8645C75.0418 37.279 75.0418 37.2745 75.4685 37.27L78.4033 37.2428C78.9248 37.2428 79.4463 37.2428 79.9836 37.2428C80.0152 37.0389 80.0513 36.826 80.0897 36.5904L78.3356 36.3843L78.3424 26.8957Z" fill="#94A3B8"/>
<path d="M78.3423 23.2127C77.7531 23.036 77.1617 23.2127 76.5702 23.2286C76.5228 23.2286 76.4573 23.3509 76.437 23.4256C76.2991 23.9131 76.2698 24.425 76.3512 24.9251C76.4325 25.3963 76.5566 25.5299 77.0285 25.5118C77.0732 25.5081 77.1176 25.5021 77.1616 25.4937C77.5093 25.4597 77.8615 25.4325 78.2092 25.3827C78.2513 25.3709 78.2903 25.35 78.3235 25.3215C78.3567 25.2929 78.3831 25.2573 78.401 25.2173C78.5838 24.6308 78.6149 24.0072 78.4914 23.4053C78.4818 23.3643 78.4635 23.3259 78.4378 23.2927C78.4121 23.2594 78.3795 23.2322 78.3423 23.2127Z" fill="#94A3B8"/>
<path d="M115.52 0.566162H114.391C114.261 0.591304 114.13 0.608696 113.998 0.618255C112.788 0.636376 111.581 0.654498 110.37 0.661293C110.291 0.6568 110.213 0.672044 110.141 0.705644C110.069 0.739245 110.007 0.790162 109.96 0.853836C109.438 1.50166 108.903 2.13816 108.379 2.77918C107.837 3.39045 107.472 4.13953 107.325 4.94464C107.269 5.30705 107.25 5.67626 107.214 6.05907C107.007 6.07497 106.799 6.07497 106.591 6.05907C106.363 6.01148 106.125 6.03911 105.914 6.13787C105.702 6.23663 105.528 6.40124 105.417 6.60722C105.351 6.68382 105.307 6.77645 105.288 6.87583C105.269 6.97521 105.276 7.07786 105.309 7.1735H107.205V15.491L105.596 15.6949C105.639 15.935 105.675 16.1479 105.709 16.3359H110.817C110.849 16.1094 110.885 15.8829 110.924 15.6269L109.027 15.4887V7.18936H113.725V15.4955L112.386 15.6994C112.427 15.9259 112.461 16.1524 112.495 16.3404H117.182C117.213 16.1139 117.243 15.9214 117.274 15.6971L115.52 15.4933V0.566162ZM113.73 6.14966H109.059C109.059 5.53355 109.045 4.91518 109.059 4.2968C109.066 3.94746 109.143 3.60317 109.286 3.28445C109.429 2.96573 109.634 2.6791 109.89 2.44167C109.97 2.3666 110.073 2.32042 110.183 2.3103C110.508 2.29445 110.833 2.29218 111.158 2.3103C111.991 2.34881 112.811 2.3103 113.581 1.93429C113.628 1.9194 113.676 1.90879 113.725 1.90257L113.73 6.14966Z" fill="#94A3B8"/>
<path d="M52.1592 1.82784C51.0056 1.1759 49.6993 0.845096 48.3755 0.869686C46.3437 0.869686 44.2983 0.883285 42.2597 0.892345H40.833C40.7968 1.09621 40.763 1.30912 40.7246 1.53563C40.8081 1.55602 40.8736 1.58094 40.9504 1.59C41.4606 1.66249 41.9685 1.74856 42.4788 1.79612C42.7293 1.81878 42.8016 1.90033 42.7993 2.15628C42.7993 6.46151 42.7993 10.7652 42.7993 15.0674V15.3687L41.754 15.5159L40.7359 15.6632C40.7743 15.9055 40.8104 16.1162 40.8465 16.3427H41.5735C43.1064 16.3427 44.6415 16.2929 46.1721 16.3427C47.5686 16.4249 48.9681 16.2452 50.299 15.8127C52.5565 15.0289 54.1549 13.577 54.8503 11.2485C55.4027 9.41959 55.4402 7.47309 54.9586 5.62418C54.7772 4.83229 54.435 4.08646 53.9533 3.43326C53.4716 2.78006 52.8609 2.23354 52.1592 1.82784ZM52.1389 12.5803C51.6963 13.5162 50.9709 14.2883 50.0659 14.7868C49.1609 15.2854 48.1223 15.485 47.0977 15.3574C46.3392 15.2645 45.5739 15.2373 44.7973 15.1807V1.86634C46.0841 1.82784 47.3506 1.62624 48.6103 1.93883C50.6421 2.43942 51.9967 3.70788 52.613 5.674C52.9949 6.79911 53.1496 7.98926 53.0682 9.17502C52.9868 10.3608 52.671 11.5184 52.1389 12.5803Z" fill="#94A3B8"/>
<path d="M73.2944 27.9241C72.4185 26.9569 71.2829 26.6353 70.0277 26.6262C69.9314 26.6371 69.8407 26.6774 69.7681 26.7417L67.3547 28.5787C67.295 28.6197 67.2332 28.6575 67.1696 28.692C67.129 28.0759 67.0906 27.496 67.0522 26.9048C65.8557 26.9343 64.8059 27.4213 63.6952 27.6704C63.7404 27.9287 63.7788 28.1393 63.8149 28.35L65.4177 28.2027V41.4401L63.8058 41.6666C63.8487 41.9226 63.8871 42.1332 63.9255 42.3597H64.1513C65.0249 42.3416 65.8986 42.3121 66.7723 42.3121C67.6121 42.3121 68.4497 42.3484 69.2895 42.3575C69.364 42.3575 69.4904 42.294 69.5153 42.2374C69.5603 42.049 69.5912 41.8574 69.6078 41.6643L67.226 41.4378V37.1341C67.2441 37.1341 67.2554 37.1182 67.2622 37.1205L67.4315 37.1975C67.9756 37.4648 68.5603 37.6777 69.1495 37.5735C69.8958 37.4526 70.6281 37.256 71.3349 36.9869C72.0675 36.7174 72.7215 36.2689 73.2379 35.682C73.7543 35.0951 74.1166 34.3882 74.2923 33.6254C74.5408 32.5864 74.5769 31.5077 74.3984 30.4543C74.2916 29.5189 73.907 28.6373 73.2944 27.9241ZM72.2921 34.5677C71.9534 35.4896 71.4003 36.219 70.3912 36.4772C69.8279 36.5918 69.2442 36.5494 68.7033 36.3545C68.1624 36.1596 67.6851 35.8198 67.3232 35.3718C67.2548 35.2699 67.2172 35.1504 67.2148 35.0275C67.2148 34.1781 67.2148 33.3264 67.2148 32.477C67.2148 31.6276 67.2148 30.7963 67.2148 29.9559C67.2095 29.8536 67.2434 29.7531 67.3096 29.6751C67.9358 29.2045 68.5869 28.7682 69.2601 28.3681C70.2738 27.8131 71.1655 28.0804 71.8089 29.0476C72.2306 29.7142 72.4876 30.4721 72.5585 31.2584C72.6962 32.3706 72.6872 33.4895 72.2921 34.5677Z" fill="#94A3B8"/>
<path d="M83.1377 12.4421C83.6005 15.5114 86.4428 17.3099 89.1722 16.4265C90.7728 15.9078 92.107 15.081 92.7617 13.4682C93.4019 11.9506 93.4173 10.2404 92.8046 8.71147C91.9467 6.47806 89.5357 5.22773 87.3571 5.89141C86.208 6.24023 85.1401 6.71138 84.3274 7.63101C83.3837 8.69788 83.0677 9.98221 83.0293 11.3707C83.0632 11.7196 83.0835 12.0865 83.1377 12.4421ZM85.411 8.4759C86.3795 6.1836 88.6958 6.41918 89.9262 7.50644C90.748 8.2358 91.1453 9.18942 91.3124 10.254C91.3688 10.6096 91.3823 10.9721 91.4004 11.1601C91.3778 12.304 91.2356 13.253 90.7773 14.1319C89.8156 15.987 87.8831 15.944 86.6482 15.013C85.8382 14.3756 85.2837 13.4671 85.086 12.4534C84.7623 11.1272 84.8764 9.73147 85.411 8.4759Z" fill="#94A3B8"/>
<path d="M64.3116 36.1398C63.991 36.1398 63.6862 36.1534 63.3814 36.1398C63.3244 36.1332 63.2693 36.1149 63.2196 36.086C63.1699 36.0572 63.1267 36.0185 63.0925 35.9722C62.8816 35.5802 62.7839 35.137 62.8103 34.6924C62.8103 33.1997 62.8103 31.707 62.8103 30.2143C62.8053 29.6904 62.7721 29.1671 62.7109 28.6468C62.5755 27.4893 62.0585 26.9344 60.9184 26.7328C60.4812 26.6737 60.041 26.6397 59.6 26.6309C59.5375 26.6309 59.4759 26.6448 59.4194 26.6716C58.2364 27.2062 57.0557 27.743 55.8772 28.2821C55.8163 28.3116 55.7373 28.3886 55.7373 28.4452C55.726 28.9232 55.7373 29.3988 55.7373 29.8904H57.3582C57.4733 29.4373 57.584 28.9684 57.7059 28.5313C57.7255 28.472 57.7577 28.4176 57.8001 28.3718C57.8426 28.3261 57.8944 28.2901 57.952 28.2663C58.4611 28.1149 58.9801 27.9992 59.5052 27.9197C60.424 27.811 60.9004 28.1757 61.0042 29.093C61.0742 29.7024 61.0313 30.3207 61.0561 30.9346C61.0561 31.1362 60.9929 31.2109 60.8101 31.2721C59.4329 31.7251 58.0671 32.2166 56.6832 32.6311C56.4656 32.6926 56.2643 32.8017 56.0937 32.9505C55.9231 33.0993 55.7876 33.2842 55.6967 33.4919C55.0984 34.6969 55.3625 36.1602 56.3513 36.9394C56.9196 37.3644 57.609 37.5947 58.3177 37.5963C58.4578 37.598 58.5951 37.5561 58.7105 37.4762C59.469 36.9371 60.2163 36.3844 60.9681 35.8363C61.0381 35.7864 61.1103 35.7434 61.1938 35.6845C61.4196 36.2531 61.6454 36.7944 61.8531 37.3426L64.3973 36.8511C64.3657 36.5906 64.3432 36.3799 64.3116 36.1398ZM61.0358 34.6969C61.0332 34.7311 61.0234 34.7643 61.007 34.7943C60.9907 34.8244 60.9682 34.8507 60.941 34.8714C60.4472 35.2336 59.9356 35.5708 59.4081 35.8816C59.0948 36.0352 58.7521 36.1194 58.4035 36.1285C58.1303 36.1471 57.8597 36.0655 57.6421 35.8988C57.4245 35.7321 57.2747 35.4917 57.2205 35.2224C57.1065 34.8389 57.1065 34.4304 57.2205 34.0468C57.2613 33.8856 57.3409 33.7369 57.4522 33.6136C57.5636 33.4904 57.7034 33.3965 57.8594 33.3401C58.8234 32.9619 59.7738 32.5519 60.7288 32.1532C60.8168 32.117 60.9071 32.0853 61.029 32.0377C61.0448 32.9483 61.0471 33.8226 61.0403 34.6969H61.0358Z" fill="#94A3B8"/>
<path d="M95.0145 36.1444C94.9388 36.1533 94.8623 36.1357 94.7981 36.0943C94.7338 36.053 94.6859 35.9907 94.6624 35.9179C94.4684 35.4882 94.3787 35.0186 94.4005 34.5475C94.4005 33.0004 94.414 31.4533 94.4005 29.9062C94.3877 29.3377 94.3295 28.7711 94.2267 28.2119C94.1903 27.9501 94.0915 27.7009 93.9386 27.4856C93.7857 27.2703 93.5833 27.0952 93.3485 26.9752C92.6486 26.6218 91.8878 26.615 91.1293 26.6241C91.0847 26.6298 91.0417 26.6444 91.0028 26.6671C89.8289 27.1994 88.6549 27.7295 87.4855 28.2686C87.4223 28.2957 87.341 28.375 87.3388 28.4317C87.3275 28.9073 87.3388 29.3853 87.3388 29.8904C87.8603 29.8904 88.3547 29.8904 88.8491 29.8904C88.9033 29.8904 88.9823 29.7884 89.0004 29.7205C89.1133 29.3128 89.2058 28.8983 89.3209 28.4905C89.3435 28.4067 89.4158 28.2912 89.4835 28.2754C90.0894 28.1078 90.7065 27.9844 91.3302 27.9061C92.1181 27.8472 92.5493 28.2595 92.6125 29.0523C92.6622 29.682 92.6486 30.3162 92.6779 30.9482C92.6779 31.1317 92.6057 31.1928 92.4522 31.2449C91.0593 31.7093 89.6776 32.2053 88.2734 32.6357C88.0605 32.6957 87.8636 32.8027 87.6972 32.9489C87.5308 33.095 87.399 33.2767 87.3117 33.4806C86.7789 34.561 86.9053 35.8408 87.6774 36.6699C88.3141 37.3494 89.1516 37.5759 90.0524 37.5963C90.1489 37.5835 90.2397 37.5434 90.3143 37.4808C90.8719 37.0798 91.4228 36.6721 91.9781 36.2689C92.2445 36.0741 92.5154 35.8816 92.8044 35.6732C93.0301 36.2418 93.2559 36.7831 93.4658 37.3381L96.0056 36.8488C95.9808 36.5929 95.9582 36.3731 95.9357 36.1444C95.5993 36.1398 95.3103 36.1262 95.0145 36.1444ZM92.6531 34.6924C92.6492 34.7258 92.6386 34.7581 92.6219 34.7873C92.6053 34.8165 92.5828 34.842 92.5561 34.8623C92.073 35.1975 91.5966 35.5418 91.0976 35.8454C90.8865 35.9864 90.6479 36.0808 90.3976 36.1222C90.1473 36.1636 89.8911 36.1511 89.646 36.0855C89.4744 36.0419 89.3158 35.9573 89.1838 35.839C89.0517 35.7207 88.9501 35.5721 88.8875 35.4059C88.6993 34.9393 88.692 34.4189 88.8672 33.9472C88.9109 33.8102 88.9853 33.6851 89.0847 33.5815C89.1841 33.4778 89.3059 33.3984 89.4406 33.3492C90.4294 32.9573 91.4047 32.536 92.3868 32.1283C92.459 32.0966 92.5357 32.0739 92.6554 32.0286C92.6644 32.9392 92.6667 33.8158 92.6622 34.6924H92.6531Z" fill="#94A3B8"/>
<path d="M67.0344 16.6575C67.132 16.6428 67.2231 16.5994 67.2963 16.5329C68.0345 16.0006 68.7705 15.4615 69.5064 14.927C69.5855 14.8703 69.6667 14.8182 69.7683 14.7503L70.4298 16.4061L72.9673 15.9191C72.9425 15.6926 72.9222 15.466 72.8996 15.2259H72.3103C71.703 15.2259 71.6466 15.1829 71.4886 14.5917C71.4606 14.4964 71.4424 14.3985 71.4344 14.2995C71.4118 13.9212 71.387 13.543 71.3825 13.167C71.3622 11.4409 71.3825 9.71266 71.317 7.98664C71.2696 6.67967 70.7143 6.04091 69.581 5.80534C69.4221 5.76927 69.2605 5.74655 69.0978 5.73739C68.7231 5.73739 68.3031 5.63771 67.969 5.76909C66.777 6.25382 65.6144 6.81557 64.445 7.35467C64.4078 7.37214 64.3749 7.39766 64.3488 7.42938C64.3226 7.4611 64.3038 7.49825 64.2937 7.53814C64.2801 8.00702 64.2937 8.47591 64.2937 8.97877C64.8174 8.97877 65.2961 8.97877 65.7724 8.97877C65.8142 8.96835 65.853 8.94813 65.8856 8.91979C65.9182 8.89144 65.9436 8.85576 65.9598 8.81567C66.0772 8.40795 66.1652 7.99117 66.2849 7.58572C66.299 7.5332 66.3243 7.48435 66.359 7.44253C66.3936 7.4007 66.4369 7.36687 66.4858 7.34335C67.0468 7.18428 67.6188 7.06693 68.197 6.99226C69.082 6.91751 69.5312 7.34334 69.5899 8.23127C69.6261 8.80661 69.6126 9.38648 69.6419 9.96409C69.6507 10.007 69.6505 10.0513 69.6416 10.0943C69.6327 10.1372 69.6151 10.1778 69.5899 10.2137C69.5648 10.2495 69.5326 10.2798 69.4953 10.3027C69.458 10.3257 69.4165 10.3407 69.3732 10.3469C67.9871 10.7999 66.61 11.2892 65.217 11.7241C65.0113 11.7793 64.8209 11.8808 64.6601 12.021C64.4993 12.1611 64.3725 12.3361 64.2892 12.5327C63.8083 13.5498 63.7903 14.5532 64.4337 15.4932C65.0523 16.3812 65.9982 16.6462 67.0344 16.6575ZM65.8921 12.9201C65.9388 12.8081 66.0083 12.7071 66.0962 12.6237C66.184 12.5402 66.2883 12.476 66.4023 12.4353C67.3798 12.0435 68.3483 11.6289 69.3213 11.2235C69.4116 11.185 69.5042 11.1533 69.6397 11.1034C69.6397 12.0095 69.6397 12.8748 69.6397 13.7423C69.6369 13.7869 69.6243 13.8303 69.6028 13.8695C69.5813 13.9086 69.5515 13.9426 69.5155 13.9688C69.064 14.2814 68.6328 14.594 68.1745 14.8749C67.9607 15.0281 67.7171 15.1344 67.4595 15.1867C67.202 15.239 66.9363 15.2362 66.68 15.1784C66.5201 15.1456 66.3697 15.0767 66.2403 14.977C66.1108 14.8774 66.0057 14.7495 65.9327 14.603C65.8035 14.3426 65.7329 14.0569 65.7259 13.7661C65.7189 13.4753 65.7756 13.1865 65.8921 12.9201Z" fill="#94A3B8"/>
<path d="M72.9897 18.1073C72.9129 18.173 72.8113 18.2681 72.8068 18.3542C72.7526 19.3712 72.9694 20.4812 74.2291 21.1403C74.8771 21.4621 75.584 21.6471 76.306 21.6839C76.7463 21.7179 77.2091 21.8017 77.6222 21.6839C78.9199 21.3556 80.1395 20.7712 81.2095 19.9647C81.9433 19.4052 82.5889 18.7619 82.8756 17.8491C83.2662 16.6033 82.6498 15.482 81.3946 15.1672C80.9914 15.0704 80.5788 15.0188 80.1643 15.0132C78.8391 14.995 77.5116 15.0132 76.1842 15.0018C75.9976 15.0024 75.8137 14.9564 75.6491 14.8682C75.5754 14.8314 75.5117 14.7771 75.4636 14.7101C75.4154 14.6431 75.3842 14.5653 75.3726 14.4835C75.3611 14.4017 75.3696 14.3183 75.3973 14.2405C75.425 14.1627 75.4711 14.0928 75.5317 14.0369C75.8004 13.7311 76.0848 13.4389 76.3354 13.1309C76.5499 12.8522 76.7757 12.6778 77.1482 12.7707C77.2364 12.7921 77.3285 12.7921 77.4168 12.7707C78.3888 12.5587 79.3094 12.1561 80.1259 11.586C80.9635 10.9586 81.4804 10.1409 81.5278 9.07404C81.515 8.61274 81.4728 8.15273 81.4014 7.69684C81.9206 7.25967 82.6025 7.29139 83.2888 7.32311V5.70581C82.9298 5.70581 82.5889 5.70581 82.248 5.70581C82.118 5.71373 81.9939 5.76291 81.8935 5.84625C81.5233 6.17242 81.1689 6.52579 80.7987 6.87008C80.7309 6.80439 80.6745 6.75003 80.6135 6.69793C80.2052 6.32957 79.7228 6.05342 79.1989 5.88812C78.6751 5.72283 78.1221 5.67224 77.5771 5.73978C76.4142 5.90454 75.3318 6.43049 74.482 7.24382C73.1432 8.50549 72.8384 11.2576 75.385 12.3698L75.7439 12.5329C75.0779 13.0108 74.4391 13.4661 73.8024 13.9259C73.7276 13.9705 73.6673 14.0358 73.6286 14.1139C73.5548 14.447 73.5795 14.7944 73.6999 15.1135C73.8202 15.4326 74.0308 15.7095 74.3059 15.9102C74.5497 16.0755 74.8183 16.2024 75.0892 16.3632C75.0215 16.4221 74.9538 16.4832 74.8861 16.5399C74.2449 17.054 73.6195 17.5773 72.9897 18.1073ZM75.3963 9.706C75.3511 9.46816 75.3353 9.22353 75.3014 8.94719C75.3398 8.69803 75.3601 8.41715 75.4279 8.1476C75.6107 7.41823 76.0374 6.89046 76.7824 6.71831C77.5793 6.5371 78.3356 6.67755 78.8842 7.32084C79.2543 7.7494 79.5116 8.26408 79.6327 8.81798C79.7537 9.37188 79.7347 9.94738 79.5773 10.492C79.3899 11.2463 78.7285 11.7038 77.9248 11.7446C76.5951 11.8194 75.6649 11.0741 75.3963 9.706ZM75.622 16.8864L75.8049 16.6599C75.8401 16.6277 75.8815 16.6031 75.9265 16.5875C75.9715 16.5719 76.0193 16.5657 76.0668 16.5693C77.1956 16.5693 78.3244 16.5693 79.4531 16.5897C79.4915 16.5897 79.5276 16.5897 79.5638 16.5897C79.7612 16.6002 79.9575 16.6267 80.1507 16.669C80.4056 16.712 80.6442 16.8232 80.8415 16.9906C81.0022 17.142 81.0984 17.3497 81.1102 17.5705C81.1216 17.7537 81.1064 17.9376 81.065 18.1164C80.9206 18.7682 80.5421 19.3439 80.0017 19.7337C79.4661 20.1384 78.8369 20.4003 78.1731 20.4947C77.9644 20.5244 77.754 20.5403 77.5432 20.5423C77.1721 20.5382 76.8023 20.4972 76.4393 20.42C76.073 20.3414 75.7232 20.1996 75.4053 20.001C75.3466 19.9624 75.2879 19.9217 75.2315 19.8786C75.1751 19.8356 75.1186 19.788 75.0644 19.7382C74.9589 19.6412 74.8629 19.5342 74.7777 19.4188C74.6748 19.2833 74.5983 19.1297 74.552 18.9658C74.5386 18.9123 74.5295 18.8577 74.5248 18.8027C74.5203 18.7484 74.5203 18.6939 74.5248 18.6396C74.5388 18.4665 74.598 18.3001 74.6964 18.1571C74.9673 17.7109 75.2902 17.2987 75.613 16.8864H75.622Z" fill="#94A3B8"/>
<path d="M0.401855 0.862804C0.2664 0.862804 0.133197 0.846951 0 0.837891V0.946612C0.0338636 1.0191 0.0767487 1.08705 0.10384 1.1618L3.08838 9.21202C3.19222 9.49742 3.30057 9.78057 3.41345 10.0818L17.3698 3.05997V28.2843H19.1758V3.07583L33.1164 10.0841C34.2451 7.00807 35.3739 3.96828 36.5321 0.865071H0.410867L0.401855 0.862804ZM9.17705 5.15067L4.41131 7.54716C4.20211 6.98088 3.9929 6.41611 3.7837 5.85285C3.39765 4.81089 3.0116 3.77121 2.6233 2.7202H13.9112L13.9315 2.76324L9.17705 5.15067ZM32.1163 7.54716L22.6006 2.76324C22.6014 2.75042 22.6014 2.73755 22.6006 2.72472H33.8885L32.1163 7.54716Z" fill="#94A3B8"/>
</g>
<defs>
<clipPath id="clip0_478_4486">
<rect width="128" height="41.7959" fill="white" transform="translate(0 0.566162)"/>
</clipPath>
</defs>
</svg>
