<svg width="95" height="49" viewBox="0 0 95 49" fill="none" xmlns="http://www.w3.org/2000/svg">
<path d="M78.2756 8.89858C78.1056 8.89858 77.9456 8.89858 77.7756 8.89858C77.6056 8.89858 77.4456 8.89858 77.2756 8.89858C76.4456 8.89858 75.6156 8.89858 74.7856 8.89858C74.1256 8.89858 73.4557 8.89858 72.7957 8.89858C72.6257 8.89858 72.4657 8.89858 72.2957 8.89858C71.4657 8.89858 70.6357 8.89858 69.8057 8.89858C69.6757 8.72858 69.5456 8.42857 69.4156 8.41857C67.9356 8.38857 66.4556 8.39858 64.9056 8.39858C64.9056 15.8886 64.9056 23.2886 64.9056 30.7286C70.6756 30.7286 76.3757 30.7286 82.0557 30.7286C82.7357 29.8286 82.7856 28.8286 82.7656 27.7686C82.7256 25.1286 82.7557 22.4786 82.7557 19.8286C82.7557 18.8786 82.7557 17.9186 82.7557 16.8486C81.6757 16.8486 80.7256 16.8486 79.7656 16.8486C77.6356 16.8486 75.5057 16.8486 73.2957 16.8486C73.2957 17.9086 73.2857 18.8086 73.2957 19.6986C73.3057 20.5786 73.3457 21.4486 73.3657 22.3086C74.7957 22.3086 76.0356 22.3086 77.2756 22.3086C77.2756 23.2786 77.2756 24.2486 77.2756 25.2886C75.8756 25.2886 74.6356 25.3086 73.4056 25.2786C72.2056 25.2486 70.9857 25.4086 69.8057 25.1886C69.8057 21.2986 69.8057 17.5786 69.8057 13.8586C72.2957 13.8586 74.7856 13.8586 77.2756 13.8586C78.2756 13.8586 79.2656 13.8586 80.2656 13.8586C81.0556 13.8586 81.8457 13.8586 82.7557 13.8586C82.7557 12.9486 82.7557 12.1586 82.7557 11.3686C82.6957 10.4686 83.0956 9.41856 81.9056 8.87856C81.2056 8.87856 80.4856 8.87856 79.7656 8.87856C79.5956 8.87856 79.4356 8.87856 79.2656 8.87856C78.9456 8.89856 78.6056 8.89858 78.2756 8.89858Z" fill="white"/>
<path d="M56.3657 11.3782C56.3657 10.5882 56.3657 9.79818 56.3657 8.88818C55.4557 8.88818 54.6657 8.88818 53.8757 8.88818C51.3857 8.88818 48.8956 8.88818 46.4056 8.88818C45.5756 8.88818 44.7456 8.88818 43.9156 8.88818C43.0856 8.88818 42.2557 8.88818 41.4257 8.88818C40.6357 8.88818 39.8457 8.88818 38.9357 8.88818C38.9357 9.79818 38.9357 10.5882 38.9357 11.3782C38.9357 14.9782 38.9357 18.5882 38.9357 22.3182C42.3357 22.3182 45.6156 22.3182 48.8956 22.3182C49.7256 22.3182 50.5556 22.3182 51.3856 22.3182C51.3856 23.2882 51.3856 24.2682 51.3856 25.3082C47.1656 25.3082 43.1256 25.3082 39.0356 25.3082C39.0356 27.1682 39.0356 28.9382 39.0356 30.7682C44.5156 30.7682 49.9057 30.7782 55.2957 30.7482C55.8057 30.7482 56.3157 30.4782 56.8657 30.3282C56.8657 27.7382 56.8756 25.3482 56.8456 22.9582C56.8456 22.7382 56.5357 22.5282 56.3657 22.3182C56.3657 21.4882 56.3657 20.6582 56.3657 19.8282C56.3657 19.0382 56.3657 18.2482 56.3657 17.3382C55.4557 17.3382 54.6657 17.3382 53.8757 17.3382C53.7057 17.3382 53.5457 17.3382 53.3757 17.3382C53.1757 17.1682 53.0056 16.8982 52.7856 16.8682C52.3256 16.7982 51.8556 16.8482 51.3856 16.8482C50.7556 16.8482 50.1157 16.8082 49.4957 16.8682C49.2857 16.8882 49.0956 17.1782 48.8956 17.3382C48.0656 17.3382 47.2356 17.3382 46.4056 17.3382C46.2756 17.1682 46.1656 16.8682 46.0256 16.8682C45.3256 16.8182 44.6256 16.8482 43.9756 16.8482C43.9756 15.7482 43.9756 14.8682 43.9756 13.8682C44.8156 13.8682 45.6156 13.8682 46.4056 13.8682C47.2356 13.8682 48.0656 13.8682 48.8956 13.8682C49.7256 13.8682 50.5556 13.8682 51.3856 13.8682C52.2156 13.8682 53.0457 13.8682 53.8757 13.8682C54.6657 13.8682 55.4557 13.8682 56.3657 13.8682C56.3657 12.9582 56.3657 12.1682 56.3657 11.3782Z" fill="white"/>
<path d="M5.06567 16.3485C5.06567 15.5185 5.06567 14.6885 5.06567 13.8585C5.06567 13.0285 5.06567 12.1985 5.06567 11.3685C5.06567 10.5685 5.06567 9.76854 5.06567 9.07854C3.67567 8.22854 3.67568 8.22854 2.57568 8.88854C1.77568 8.88854 0.975693 8.88854 0.0856934 8.88854C0.0856934 11.4685 0.0856934 13.9085 0.0856934 16.3485C0.0856934 17.1785 0.0856934 18.0085 0.0856934 18.8385C0.0856934 22.7885 0.0856934 26.7385 0.0856934 30.7685C1.06569 30.7685 1.87568 30.7785 2.69568 30.7685C3.48568 30.7585 4.28567 30.7186 5.06567 30.6886C5.06567 27.4486 5.06567 24.3885 5.06567 21.3285C5.06567 20.4985 5.06567 19.6685 5.06567 18.8385C5.06567 18.0085 5.06567 17.1785 5.06567 16.3485Z" fill="white"/>
<path d="M77.7757 40.1483C79.3957 40.1483 81.0157 40.1483 82.6457 40.1483C82.6457 39.6383 82.6457 39.1983 82.6457 38.7183C81.7257 38.7183 80.9157 38.7083 80.1057 38.7183C79.3257 38.7283 78.5457 38.7683 77.7757 38.7983C77.7757 39.3883 77.7757 39.7983 77.7757 40.2083C77.4657 40.2083 77.1657 40.2083 76.7557 40.2083C76.7957 41.1583 76.8357 41.9283 76.8657 42.6983C77.2857 42.6983 77.5257 42.6983 77.7757 42.6983C77.7757 43.1683 77.7757 43.6383 77.7757 44.0883C79.3757 44.3383 80.8457 44.0083 82.2557 44.2983C82.2557 45.3583 82.2557 46.2683 82.5257 47.2583C80.6157 47.2583 78.9857 47.2583 77.0757 47.2583C77.4557 47.8683 77.7157 48.2983 77.9257 48.6383C79.2357 48.6383 80.3957 48.6383 81.6057 48.6383C81.8457 48.2683 82.1057 47.8783 82.2457 47.1683C82.5557 47.1683 82.8557 47.1683 83.2057 47.1683C83.2057 45.9483 83.2057 44.9083 83.2057 43.8783C82.8857 43.7483 82.6057 43.6383 82.3257 43.5183C82.2357 43.2283 82.1357 42.9483 82.0557 42.6983C80.5657 42.6983 79.1657 42.6983 77.7657 42.6983C77.7757 41.8683 77.7757 41.0483 77.7757 40.1483Z" fill="#94A3B8"/>
<path d="M65.9156 38.7786C65.9156 42.1886 65.9156 45.3885 65.9156 48.5685C68.2156 48.5685 70.4356 48.5686 72.6556 48.5586C72.7056 48.5586 72.7557 48.4385 72.6957 48.5085C72.6957 47.9885 72.6957 47.5985 72.6957 47.1285C70.8757 47.1285 69.1557 47.1285 67.4357 47.1285C67.4357 46.0885 67.4357 45.1386 67.4357 44.1186C69.1057 44.1186 70.6657 44.1186 72.2557 44.1186C72.2557 43.6386 72.2557 43.2486 72.2557 42.6886C70.6057 42.6886 68.9857 42.6886 67.3757 42.6886C67.3757 41.7886 67.3757 41.0685 67.3757 40.1685C69.2157 40.1685 70.9956 40.1685 72.7256 40.1685C72.7256 39.5985 72.7256 39.2086 72.7256 38.7686C70.4356 38.7786 68.2156 38.7786 65.9156 38.7786Z" fill="#94A3B8"/>
<path d="M12.1256 38.7686C12.1256 42.1786 12.1256 45.3786 12.1256 48.6186C14.2556 48.6186 16.3056 48.6186 18.4156 48.6186C18.6456 48.2286 18.8756 47.8385 19.2456 47.1985C17.1856 47.1985 15.4056 47.1985 13.6556 47.1985C13.6556 46.0685 13.6556 45.1285 13.6556 44.0985C15.3356 44.0985 16.8856 44.0985 18.4656 44.0985C18.4656 43.6185 18.4656 43.2285 18.4656 42.6685C16.8056 42.6685 15.1856 42.6685 13.5956 42.6685C13.5956 41.7685 13.5956 41.0485 13.5956 40.1585C15.2656 40.1585 16.8856 40.1585 18.4356 40.1585C18.4356 39.5985 18.4356 39.2086 18.4356 38.7686C16.3156 38.7686 14.2656 38.7686 12.1256 38.7686Z" fill="#94A3B8"/>
<path d="M29.3856 48.6185C29.3856 45.3285 29.3856 42.0585 29.3856 38.7785C28.9056 38.7785 28.5156 38.7785 27.9556 38.7785C27.9556 40.5985 27.9556 42.3785 27.9556 44.6385C27.5756 43.8585 27.4256 43.5385 27.2256 43.1385C26.8556 43.1385 26.4656 43.1385 26.4456 43.1385C25.5156 42.2485 24.8156 41.5785 23.9456 40.7385C23.9456 40.2785 23.9456 39.5585 23.9456 38.7085C23.3956 38.7485 22.9456 38.7785 22.5856 38.7985C22.5856 42.1685 22.5856 45.3785 22.5856 48.6285C23.0556 48.6285 23.4456 48.6285 24.0056 48.6285C24.0056 46.4885 24.0056 44.3785 24.0056 42.2885C25.3556 43.5785 26.6156 44.7885 28.0456 46.1585C28.0456 46.8085 28.0456 47.6885 28.0456 48.6285C28.5156 48.6185 28.9056 48.6185 29.3856 48.6185Z" fill="#94A3B8"/>
<path d="M49.4057 47.0886C47.9157 47.0886 46.6957 47.0886 45.4157 47.0886C45.3657 44.2386 45.4557 41.4786 45.3657 38.8286C44.7257 38.8286 44.3357 38.8286 43.9757 38.8286C43.9757 41.6386 43.9757 44.3486 43.9757 47.0386C44.3257 47.1586 44.6157 47.2586 44.9757 47.3886C44.9757 47.8086 44.9757 48.1986 44.9757 48.5786C46.6157 48.5786 48.1657 48.5786 49.7257 48.5686C49.7757 48.5686 49.8357 48.4586 49.9857 48.2886C49.9857 48.0086 49.9857 47.6186 49.9857 47.2586C50.3657 47.1586 50.6457 47.0786 50.7757 47.0386C50.7757 44.1486 50.7757 41.4486 50.7757 38.7886C50.2757 38.7886 49.8857 38.7886 49.4057 38.7886C49.4057 41.5786 49.4057 44.2886 49.4057 47.0886Z" fill="#94A3B8"/>
<path d="M4.58566 48.6486C6.13566 45.4986 6.85566 42.1186 8.14566 38.8086C7.58566 38.8086 7.19566 38.8086 6.67566 38.8086C5.82566 41.2186 4.93564 43.7386 3.93564 46.5886C2.99564 43.7086 2.18565 41.2386 1.38565 38.7886C0.995651 38.7886 0.605654 38.7886 0.0456543 38.7886C0.335654 42.3986 2.37565 45.3386 3.16565 48.6486C3.61565 48.6486 3.94566 48.6486 4.58566 48.6486Z" fill="#94A3B8"/>
<path d="M40.3857 38.8081C37.9057 38.8081 35.4757 38.8081 33.0057 38.8081C33.0057 39.2781 33.0057 39.6681 33.0057 40.2281C33.9957 40.2281 34.9457 40.2281 36.0257 40.2281C36.0257 43.0981 36.0257 45.7981 36.0357 48.4981C36.0357 48.5581 36.1457 48.6081 36.1157 48.5781C36.5957 48.5781 36.9857 48.5781 37.4457 48.5781C37.4457 47.0981 37.4357 45.7081 37.4457 44.3181C37.4557 42.9481 37.4157 41.5781 37.4757 40.1381C38.5857 40.1381 39.4757 40.1381 40.3857 40.1381C40.3857 39.6581 40.3857 39.2681 40.3857 38.8081Z" fill="#94A3B8"/>
<path d="M91.3057 23.3584C91.3057 24.4484 91.3057 25.3384 91.3057 26.1684C92.3357 26.1684 93.2756 26.1684 94.1356 26.1684C94.1356 25.1584 94.1356 24.2684 94.1356 23.3584C93.1656 23.3584 92.2857 23.3584 91.3057 23.3584Z" fill="white"/>
<path d="M38.9656 6.40829C38.8556 5.40829 39.0656 4.4183 38.8356 3.5083C37.7856 3.5083 36.8956 3.5083 36.0856 3.5083C36.0856 4.5383 36.0856 5.47829 36.0856 6.40829C37.0356 6.40829 37.8556 6.40829 38.9656 6.40829Z" fill="white"/>
<path d="M7.18567 0.938477C7.18567 1.92848 7.18567 2.91845 7.18567 3.84845C8.02567 3.84845 8.73567 3.84845 9.40567 3.84845C10.3657 2.28845 10.3357 1.81848 9.27567 0.938477C8.61567 0.938477 7.96567 0.938477 7.18567 0.938477Z" fill="white"/>
<path d="M52.4257 4.83856C53.5257 4.83856 54.4057 4.83856 55.2457 4.83856C55.2457 3.97856 55.2457 3.19855 55.2457 2.51855C54.2357 2.51855 53.3457 2.51855 52.4257 2.51855C52.4257 3.30855 52.4257 4.02856 52.4257 4.83856Z" fill="white"/>
<path d="M88.6556 18.2985C88.6556 17.3585 88.6556 16.6385 88.6556 15.9785C87.6256 15.9785 86.6856 15.9785 85.8356 15.9785C85.8356 16.8285 85.8356 17.5485 85.8356 18.2985C86.8056 18.2985 87.6856 18.2985 88.6556 18.2985Z" fill="white"/>
<path d="M44.8257 3.38821C44.8257 2.44821 44.8257 1.72822 44.8257 0.928223C43.9557 0.968223 43.1857 0.998229 42.5057 1.02823C42.5057 1.91823 42.5057 2.63821 42.5057 3.38821C43.3057 3.38821 44.0257 3.38821 44.8257 3.38821Z" fill="white"/>
<path d="M85.2457 30.1383C86.0757 30.1383 86.9057 30.1383 87.6457 30.1383C87.6457 29.2883 87.6457 28.5683 87.6457 27.7583C86.7757 27.7983 86.0057 27.8383 85.2457 27.8783C85.2457 28.7083 85.2457 29.3683 85.2457 30.1383Z" fill="white"/>
<path d="M82.7557 19.8286C82.7557 22.4786 82.7356 25.1186 82.7656 27.7686C82.7756 28.8186 82.7357 29.8286 82.0557 30.7286C76.3757 30.7286 70.6856 30.7286 64.9056 30.7286C64.9056 23.2886 64.9056 15.8886 64.9056 8.39858C66.4556 8.39858 67.9356 8.38857 69.4156 8.41857C69.5456 8.41857 69.6757 8.72858 69.8057 8.89858C69.8057 9.52858 69.8057 10.1586 69.8057 10.6486C68.8557 10.9286 68.0657 11.1486 67.3757 11.3486C67.3757 12.3186 67.3757 13.0286 67.3757 13.8686C68.2257 13.8686 69.0157 13.8686 69.8057 13.8686C69.8057 17.5886 69.8057 21.3086 69.8057 25.1986C70.9857 25.4186 72.2056 25.2686 73.4056 25.2886C74.6356 25.3186 75.8656 25.2986 77.2756 25.2986C77.2756 24.2586 77.2756 23.2886 77.2756 22.3186C78.2456 22.3186 79.2157 22.3186 80.1857 22.3186C80.2457 21.3786 80.2957 20.5986 80.3557 19.8286C81.2757 19.8286 82.0157 19.8286 82.7557 19.8286Z" fill="#94A3B8"/>
<path d="M56.3657 22.3181C56.5357 22.5281 56.8356 22.7481 56.8456 22.9581C56.8756 25.3481 56.8657 27.7381 56.8657 30.3281C56.3157 30.4781 55.8057 30.7481 55.2957 30.7481C49.9057 30.7781 44.5256 30.7681 39.0356 30.7681C39.0356 28.9481 39.0356 27.1681 39.0356 25.3081C43.1256 25.3081 47.1756 25.3081 51.3856 25.3081C51.3856 24.2581 51.3856 23.2881 51.3856 22.3181C51.3856 21.4881 51.3856 20.6581 51.3856 19.8281C52.2156 19.8281 53.0457 19.8281 53.8757 19.8281C53.8757 20.6181 53.8757 21.4081 53.8757 22.3181C54.7857 22.3181 55.5757 22.3181 56.3657 22.3181Z" fill="#94A3B8"/>
<path d="M46.4056 13.8682C45.6156 13.8682 44.8156 13.8682 43.9756 13.8682C43.9756 14.8782 43.9756 15.7482 43.9756 16.8482C44.6356 16.8482 45.3356 16.8182 46.0256 16.8682C46.1656 16.8782 46.2756 17.1782 46.4056 17.3382C46.4056 18.1282 46.4056 18.9182 46.4056 19.8282C47.3156 19.8282 48.1056 19.8282 48.8956 19.8282C48.8956 20.6582 48.8956 21.4882 48.8956 22.3182C45.6156 22.3182 42.3357 22.3182 38.9357 22.3182C38.9357 18.5882 38.9357 14.9882 38.9357 11.3782C39.7257 11.3782 40.5157 11.3782 41.4257 11.3782C41.4257 10.4682 41.4257 9.67818 41.4257 8.88818C42.2557 8.88818 43.0856 8.88818 43.9156 8.88818C43.9156 9.67818 43.9156 10.4682 43.9156 11.3782C44.8256 11.3782 45.6156 11.3782 46.4056 11.3782C46.4056 12.2082 46.4056 13.0382 46.4056 13.8682Z" fill="#94A3B8"/>
<path d="M5.06567 21.3284C5.06567 24.3884 5.06567 27.4484 5.06567 30.6884C4.28567 30.7184 3.49568 30.7584 2.69568 30.7684C1.87568 30.7784 1.05569 30.7684 0.0856934 30.7684C0.0856934 26.7384 0.0856934 22.7884 0.0856934 18.8384C0.915693 18.8384 1.74568 18.8384 2.57568 18.8384C2.57568 19.6284 2.57568 20.4184 2.57568 21.3284C3.48568 21.3284 4.27567 21.3284 5.06567 21.3284Z" fill="#94A3B8"/>
<path d="M65.9156 38.7783C68.2156 38.7783 70.4356 38.7783 72.7256 38.7783C72.7256 39.2183 72.7256 39.6083 72.7256 40.1783C70.9956 40.1783 69.2157 40.1783 67.3757 40.1783C67.3757 41.0783 67.3757 41.7983 67.3757 42.6983C68.9757 42.6983 70.5957 42.6983 72.2557 42.6983C72.2557 43.2683 72.2557 43.6583 72.2557 44.1283C70.6657 44.1283 69.1057 44.1283 67.4357 44.1283C67.4357 45.1583 67.4357 46.0983 67.4357 47.1383C69.1557 47.1383 70.8757 47.1383 72.6957 47.1383C72.6957 47.6083 72.6957 47.9883 72.6957 48.5183C72.7457 48.4483 72.7056 48.5683 72.6556 48.5683C70.4356 48.5783 68.2256 48.5783 65.9156 48.5783C65.9156 45.3883 65.9156 42.1783 65.9156 38.7783Z" fill="#94A3B8"/>
<path d="M12.1256 38.7686C14.2656 38.7686 16.3156 38.7686 18.4356 38.7686C18.4356 39.2086 18.4356 39.5985 18.4356 40.1585C16.8856 40.1585 15.2656 40.1585 13.5956 40.1585C13.5956 41.0485 13.5956 41.7685 13.5956 42.6685C15.1856 42.6685 16.8056 42.6685 18.4656 42.6685C18.4656 43.2285 18.4656 43.6185 18.4656 44.0985C16.8956 44.0985 15.3356 44.0985 13.6556 44.0985C13.6556 45.1185 13.6556 46.0685 13.6556 47.1985C15.4056 47.1985 17.1856 47.1985 19.2456 47.1985C18.8756 47.8385 18.6456 48.2186 18.4156 48.6186C16.3056 48.6186 14.2556 48.6186 12.1256 48.6186C12.1256 45.3886 12.1256 42.1786 12.1256 38.7686Z" fill="#94A3B8"/>
<path d="M29.3856 48.6183C28.9156 48.6183 28.5256 48.6183 28.0456 48.6183C28.0456 47.6883 28.0456 46.7983 28.0456 46.1483C26.6156 44.7783 25.3556 43.5683 24.0056 42.2783C24.0056 44.3583 24.0056 46.4683 24.0056 48.6183C23.4456 48.6183 23.0556 48.6183 22.5856 48.6183C22.5856 45.3683 22.5856 42.1682 22.5856 38.7882C22.9556 38.7682 23.3956 38.7382 23.9456 38.6982C23.9456 39.5482 23.9456 40.2682 23.9456 40.7282C24.8156 41.5682 25.5156 42.2382 26.4456 43.1282C26.4756 43.1282 26.8656 43.1282 27.2256 43.1282C27.4156 43.5282 27.5756 43.8482 27.9556 44.6282C27.9556 42.3682 27.9556 40.5882 27.9556 38.7682C28.5156 38.7682 28.9056 38.7682 29.3856 38.7682C29.3856 42.0582 29.3856 45.3283 29.3856 48.6183Z" fill="#94A3B8"/>
<path d="M49.4057 47.0883C49.4057 44.2883 49.4057 41.5783 49.4057 38.7983C49.8857 38.7983 50.2757 38.7983 50.7757 38.7983C50.7757 41.4583 50.7757 44.1583 50.7757 47.0483C50.6457 47.0883 50.3657 47.1583 49.9857 47.2683C49.9857 47.6283 49.9857 48.0183 49.9857 48.2983C49.8357 48.4683 49.7857 48.5783 49.7257 48.5783C48.1757 48.5883 46.6157 48.5883 44.9757 48.5883C44.9757 48.1983 44.9757 47.8083 44.9757 47.3983C44.6157 47.2683 44.3257 47.1683 43.9757 47.0483C43.9757 44.3583 43.9757 41.6483 43.9757 38.8383C44.3357 38.8383 44.7257 38.8383 45.3657 38.8383C45.4557 41.4883 45.3657 44.2483 45.4157 47.0983C46.6957 47.0883 47.9157 47.0883 49.4057 47.0883Z" fill="#94A3B8"/>
<path d="M4.58566 48.6486C3.94566 48.6486 3.61565 48.6486 3.16565 48.6486C2.37565 45.3386 0.335654 42.3986 0.0456543 38.7886C0.605654 38.7886 0.995651 38.7886 1.38565 38.7886C2.18565 41.2386 2.99564 43.7186 3.93564 46.5886C4.93564 43.7386 5.82566 41.2186 6.67566 38.8086C7.19566 38.8086 7.58566 38.8086 8.14566 38.8086C6.85566 42.1186 6.13566 45.4986 4.58566 48.6486Z" fill="#94A3B8"/>
<path d="M77.2856 22.3184C76.0456 22.3184 74.8056 22.3184 73.3756 22.3184C73.3556 21.4584 73.3156 20.5784 73.3056 19.7084C73.2956 18.8084 73.3056 17.9084 73.3056 16.8584C75.5156 16.8584 77.6456 16.8584 79.7756 16.8584C79.7756 17.6584 79.7756 18.4684 79.7756 19.2684C78.8356 19.3284 78.0556 19.3884 77.2856 19.4384C77.2856 20.5084 77.2856 21.4084 77.2856 22.3184Z" fill="#94A3B8"/>
<path d="M0.0856934 16.3482C0.0856934 13.9082 0.0856934 11.4782 0.0856934 8.88818C0.975693 8.88818 1.77568 8.88818 2.57568 8.88818C2.57568 9.67818 2.57568 10.4682 2.57568 11.3782C3.48568 11.3782 4.27567 11.3782 5.06567 11.3782C5.06567 12.2082 5.06567 13.0382 5.06567 13.8682C4.27567 13.8682 3.48568 13.8682 2.57568 13.8682C2.57568 14.7782 2.57568 15.5682 2.57568 16.3582C1.74568 16.3482 0.915693 16.3482 0.0856934 16.3482Z" fill="#94A3B8"/>
<path d="M46.4056 8.89844C48.8956 8.89844 51.3857 8.89844 53.8757 8.89844C53.8757 9.72844 53.8757 10.5584 53.8757 11.3884C53.0857 11.3884 52.2956 11.3884 51.3856 11.3884C51.3856 12.2984 51.3856 13.0884 51.3856 13.8784C50.5556 13.8784 49.7256 13.8784 48.8956 13.8784C48.8956 13.0884 48.8956 12.2984 48.8956 11.3884C47.9856 11.3884 47.1956 11.3884 46.4056 11.3884C46.4056 10.5484 46.4056 9.72844 46.4056 8.89844Z" fill="#94A3B8"/>
<path d="M77.2856 13.8684C74.7956 13.8684 72.3057 13.8684 69.8157 13.8684C69.8157 13.0684 69.8157 12.2584 69.8157 11.4584C70.7557 11.3984 71.5357 11.3484 72.3057 11.2984C72.3057 10.5484 72.3057 9.97844 72.3057 9.39844C72.4757 9.22844 72.6357 9.06844 72.8057 8.89844C73.4657 8.89844 74.1357 8.89844 74.7957 8.89844C74.7957 9.68844 74.7957 10.4784 74.7957 11.3884C75.7057 11.3884 76.4956 11.3884 77.2856 11.3884C77.2856 12.2084 77.2856 13.0384 77.2856 13.8684Z" fill="#94A3B8"/>
<path d="M40.3857 38.8083C40.3857 39.2683 40.3857 39.6583 40.3857 40.1283C39.4757 40.1283 38.5857 40.1283 37.4757 40.1283C37.4057 41.5683 37.4457 42.9383 37.4457 44.3083C37.4357 45.6983 37.4457 47.0883 37.4457 48.5683C36.9857 48.5683 36.5957 48.5683 36.1157 48.5683C36.1557 48.5983 36.0357 48.5483 36.0357 48.4883C36.0257 45.7883 36.0257 43.0884 36.0257 40.2184C34.9357 40.2184 33.9857 40.2184 33.0057 40.2184C33.0057 39.6584 33.0057 39.2683 33.0057 38.7983C35.4657 38.8083 37.9057 38.8083 40.3857 38.8083Z" fill="#94A3B8"/>
<path d="M77.2856 22.3181C77.2856 21.4081 77.2856 20.5082 77.2856 19.4282C78.0556 19.3782 78.8356 19.3181 79.7756 19.2581C79.7756 18.4581 79.7756 17.6481 79.7756 16.8481C80.7356 16.8481 81.6856 16.8481 82.7656 16.8481C82.7656 17.9181 82.7656 18.8782 82.7656 19.8282C82.0256 19.8282 81.2757 19.8282 80.3657 19.8282C80.3157 20.5982 80.2657 21.3781 80.1957 22.3181C79.2257 22.3181 78.2556 22.3181 77.2856 22.3181Z" fill="#E2E8F0"/>
<path d="M77.2856 13.8684C77.2856 13.0384 77.2856 12.2084 77.2856 11.3784C77.7556 11.3784 78.2357 11.4284 78.6857 11.3584C78.9057 11.3284 79.0756 11.0484 79.2756 10.8884C79.4456 10.7184 79.6056 10.5584 79.7756 10.3884C79.7756 10.0584 79.7756 9.72844 79.7756 9.39844C79.7756 9.22844 79.7756 9.06844 79.7756 8.89844C80.4956 8.89844 81.2156 8.89844 81.9156 8.89844C83.1056 9.42844 82.7056 10.4784 82.7656 11.3884C81.9756 11.3884 81.1856 11.3884 80.2756 11.3884C80.2756 12.2984 80.2756 13.0884 80.2756 13.8784C79.2756 13.8684 78.2756 13.8684 77.2856 13.8684Z" fill="#E2E8F0"/>
<path d="M19.0156 13.8682C18.2756 13.8682 17.5357 13.8682 16.5457 13.8682C16.3157 13.1482 16.0656 12.3582 15.7556 11.3782C15.3056 11.3782 14.6656 11.3782 14.0356 11.3782C14.0356 10.5882 14.0356 9.79818 14.0356 8.88818C14.9456 8.88818 15.7356 8.88818 16.5256 8.88818C16.5256 9.46818 16.5256 10.0382 16.5256 10.7882C17.2956 10.8382 18.0756 10.8882 19.0156 10.9482C19.0156 11.9282 19.0156 12.8982 19.0156 13.8682Z" fill="#E2E8F0"/>
<path d="M72.3057 9.38818C72.3057 9.96818 72.3057 10.5382 72.3057 11.2882C71.5357 11.3382 70.7557 11.3882 69.8157 11.4482C69.8157 12.2482 69.8157 13.0582 69.8157 13.8582C69.0257 13.8582 68.2256 13.8582 67.3856 13.8582C67.3856 13.0182 67.3856 12.3082 67.3856 11.3382C68.0756 11.1382 68.8657 10.9082 69.8157 10.6382C69.8157 10.1482 69.8157 9.51818 69.8157 8.88818C70.6457 8.88818 71.4757 8.88818 72.3057 8.88818C72.3057 9.05818 72.3057 9.22818 72.3057 9.38818Z" fill="#E2E8F0"/>
<path d="M77.7756 42.6982C79.1756 42.6982 80.5757 42.6982 82.0657 42.6982C82.1457 42.9582 82.2456 43.2382 82.3356 43.5182C82.6156 43.6282 82.8956 43.7482 83.2156 43.8782C83.2156 44.9082 83.2156 45.9582 83.2156 47.1682C82.8756 47.1682 82.5657 47.1682 82.2557 47.1682C82.2557 46.2582 82.2557 45.3582 82.2557 44.2982C80.8457 44.0082 79.3756 44.3383 77.7756 44.0883C77.7756 43.6483 77.7756 43.1682 77.7756 42.6982Z" fill="#94A3B8"/>
<path d="M91.3057 23.3584C92.2857 23.3584 93.1656 23.3584 94.1356 23.3584C94.1356 24.2784 94.1356 25.1584 94.1356 26.1684C93.2856 26.1684 92.3357 26.1684 91.3057 26.1684C91.3057 25.3284 91.3057 24.4484 91.3057 23.3584Z" fill="#CBD5E1"/>
<path d="M38.9656 6.40829C37.8656 6.40829 37.0356 6.40829 36.0856 6.40829C36.0856 5.47829 36.0856 4.5383 36.0856 3.5083C36.8956 3.5083 37.7856 3.5083 38.8356 3.5083C39.0656 4.4183 38.8556 5.41829 38.9656 6.40829Z" fill="#CBD5E1"/>
<path d="M7.18567 0.938477C7.96567 0.938477 8.61567 0.938477 9.27567 0.938477C10.3357 1.81848 10.3657 2.28845 9.40567 3.84845C8.74567 3.84845 8.02567 3.84845 7.18567 3.84845C7.18567 2.92845 7.18567 1.93848 7.18567 0.938477Z" fill="#CBD5E1"/>
<path d="M77.7756 40.1486C77.7756 39.7986 77.7756 39.3986 77.7756 38.8086C78.5456 38.7786 79.3257 38.7386 80.1057 38.7286C80.9157 38.7186 81.7356 38.7286 82.6456 38.7286C82.6456 39.2086 82.6456 39.6486 82.6456 40.1586C81.0156 40.1486 79.3956 40.1486 77.7756 40.1486Z" fill="#94A3B8"/>
<path d="M52.4257 4.83856C52.4257 4.02856 52.4257 3.31855 52.4257 2.51855C53.3457 2.51855 54.2357 2.51855 55.2457 2.51855C55.2457 3.19855 55.2457 3.97856 55.2457 4.83856C54.4057 4.83856 53.5157 4.83856 52.4257 4.83856Z" fill="#CBD5E1"/>
<path d="M88.6556 18.2985C87.6856 18.2985 86.8056 18.2985 85.8356 18.2985C85.8356 17.5485 85.8356 16.8285 85.8356 15.9785C86.6856 15.9785 87.6256 15.9785 88.6556 15.9785C88.6556 16.6485 88.6556 17.3685 88.6556 18.2985Z" fill="#CBD5E1"/>
<path d="M48.8956 17.3483C49.0956 17.1783 49.2757 16.8983 49.4957 16.8783C50.1157 16.8183 50.7556 16.8583 51.3856 16.8583C51.3856 17.0283 51.3856 17.1883 51.3856 17.3583C51.3856 18.1883 51.3856 19.0183 51.3856 19.8483C50.5556 19.8483 49.7256 19.8483 48.8956 19.8483C48.8956 19.0083 48.8956 18.1783 48.8956 17.3483Z" fill="#94A3B8"/>
<path d="M5.06567 11.3785C4.27567 11.3785 3.48568 11.3785 2.57568 11.3785C2.57568 10.4685 2.57568 9.67854 2.57568 8.88854C3.67568 8.22854 3.67567 8.22854 5.06567 9.07854C5.06567 9.78854 5.06567 10.5885 5.06567 11.3785Z" fill="#E2E8F0"/>
<path d="M82.5356 47.2583C82.1256 47.8783 81.8756 48.2683 81.6256 48.6383C80.4056 48.6383 79.2556 48.6383 77.9456 48.6383C77.7356 48.2983 77.4656 47.8683 77.0956 47.2583C78.9956 47.2583 80.6256 47.2583 82.5356 47.2583Z" fill="#94A3B8"/>
<path d="M0.0856934 16.3481C0.915693 16.3481 1.74568 16.3481 2.57568 16.3481C2.57568 17.1781 2.57568 18.0082 2.57568 18.8382C1.74568 18.8382 0.915693 18.8382 0.0856934 18.8382C0.0856934 18.0082 0.0856934 17.1781 0.0856934 16.3481Z" fill="#E2E8F0"/>
<path d="M2.57568 18.8382C2.57568 18.0082 2.57568 17.1781 2.57568 16.3481C3.40568 16.3481 4.23567 16.3481 5.06567 16.3481C5.06567 17.1781 5.06567 18.0082 5.06567 18.8382C4.23567 18.8382 3.40568 18.8382 2.57568 18.8382Z" fill="#94A3B8"/>
<path d="M5.06567 16.3484C4.23567 16.3484 3.40568 16.3484 2.57568 16.3484C2.57568 15.5584 2.57568 14.7684 2.57568 13.8584C3.48568 13.8584 4.27567 13.8584 5.06567 13.8584C5.06567 14.6984 5.06567 15.5284 5.06567 16.3484Z" fill="#E2E8F0"/>
<path d="M80.2656 13.8684C80.2656 13.0784 80.2656 12.2884 80.2656 11.3784C81.1756 11.3784 81.9657 11.3784 82.7557 11.3784C82.7557 12.1684 82.7557 12.9584 82.7557 13.8684C81.8557 13.8684 81.0556 13.8684 80.2656 13.8684Z" fill="#94A3B8"/>
<path d="M48.8956 17.3481C48.8956 18.1781 48.8956 19.0082 48.8956 19.8382C48.1056 19.8382 47.3156 19.8382 46.4056 19.8382C46.4056 18.9282 46.4056 18.1381 46.4056 17.3481C47.2356 17.3481 48.0656 17.3481 48.8956 17.3481Z" fill="#E2E8F0"/>
<path d="M51.3856 19.8284C51.3856 18.9984 51.3856 18.1684 51.3856 17.3384C52.0456 17.3384 52.7157 17.3384 53.3757 17.3384C53.5457 17.3384 53.7057 17.3384 53.8757 17.3384C53.8757 18.1684 53.8757 18.9984 53.8757 19.8284C53.0457 19.8284 52.2156 19.8284 51.3856 19.8284Z" fill="#E2E8F0"/>
<path d="M53.8756 19.8284C53.8756 18.9984 53.8756 18.1684 53.8756 17.3384C54.6656 17.3384 55.4556 17.3384 56.3656 17.3384C56.3656 18.2484 56.3656 19.0384 56.3656 19.8284C55.5356 19.8284 54.7056 19.8284 53.8756 19.8284Z" fill="#94A3B8"/>
<path d="M56.3656 11.3784C56.3656 12.1684 56.3656 12.9584 56.3656 13.8684C55.4556 13.8684 54.6656 13.8684 53.8756 13.8684C53.8756 13.0384 53.8756 12.2084 53.8756 11.3784C54.7056 11.3784 55.5356 11.3784 56.3656 11.3784Z" fill="#94A3B8"/>
<path d="M2.57568 18.8384C3.40568 18.8384 4.23567 18.8384 5.06567 18.8384C5.06567 19.6684 5.06567 20.4984 5.06567 21.3284C4.27567 21.3284 3.48568 21.3284 2.57568 21.3284C2.57568 20.4184 2.57568 19.6284 2.57568 18.8384Z" fill="#E2E8F0"/>
<path d="M31.4657 21.3284C30.7257 21.3284 29.9757 21.3284 29.0657 21.3284C29.0357 20.5684 28.9957 19.7884 28.9557 18.8384C29.8557 18.8384 30.6657 18.8384 31.4657 18.8384C31.4657 19.6684 31.4657 20.4984 31.4657 21.3284Z" fill="#E2E8F0"/>
<path d="M48.8956 19.8281C49.7256 19.8281 50.5556 19.8281 51.3856 19.8281C51.3856 20.6581 51.3856 21.4881 51.3856 22.3181C50.5556 22.3181 49.7256 22.3181 48.8956 22.3181C48.8956 21.4881 48.8956 20.6581 48.8956 19.8281Z" fill="#E2E8F0"/>
<path d="M53.8757 11.3784C53.8757 12.2084 53.8757 13.0384 53.8757 13.8684C53.0457 13.8684 52.2156 13.8684 51.3856 13.8684C51.3856 13.0784 51.3856 12.2884 51.3856 11.3784C52.2956 11.3784 53.0857 11.3784 53.8757 11.3784Z" fill="#E2E8F0"/>
<path d="M53.8756 19.8281C54.7056 19.8281 55.5356 19.8281 56.3656 19.8281C56.3656 20.6581 56.3656 21.4881 56.3656 22.3181C55.5756 22.3181 54.7856 22.3181 53.8756 22.3181C53.8756 21.4081 53.8756 20.6181 53.8756 19.8281Z" fill="#E2E8F0"/>
<path d="M46.4056 11.3784C47.1956 11.3784 47.9856 11.3784 48.8956 11.3784C48.8956 12.2884 48.8956 13.0784 48.8956 13.8684C48.0656 13.8684 47.2356 13.8684 46.4056 13.8684C46.4056 13.0384 46.4056 12.2084 46.4056 11.3784Z" fill="#E2E8F0"/>
<path d="M44.8257 3.38821C44.0257 3.38821 43.3057 3.38821 42.5057 3.38821C42.5057 2.63821 42.5057 1.91823 42.5057 1.02823C43.1857 0.998229 43.9657 0.968223 44.8257 0.928223C44.8257 1.72822 44.8257 2.44821 44.8257 3.38821Z" fill="#CBD5E1"/>
<path d="M31.4657 26.2981C30.7257 26.2981 29.9757 26.2981 29.0657 26.2981C29.0357 25.5381 28.9957 24.7581 28.9557 23.8081C29.8557 23.8081 30.6657 23.8081 31.4657 23.8081C31.4657 24.6381 31.4657 25.4681 31.4657 26.2981Z" fill="#E2E8F0"/>
<path d="M85.2457 30.1383C85.2457 29.3683 85.2457 28.7083 85.2457 27.8783C86.0057 27.8383 86.7857 27.7983 87.6457 27.7583C87.6457 28.5583 87.6457 29.2783 87.6457 30.1383C86.9157 30.1383 86.0857 30.1383 85.2457 30.1383Z" fill="#CBD5E1"/>
<path d="M26.4857 8.89844C26.4857 9.63844 26.4857 10.3784 26.4857 11.2984C25.7157 11.3284 24.9457 11.3684 23.9957 11.4084C23.9957 10.5084 23.9957 9.70844 23.9957 8.89844C24.8257 8.89844 25.6557 8.89844 26.4857 8.89844Z" fill="#E2E8F0"/>
<path d="M31.4657 11.3782C30.6757 11.3782 29.8857 11.3782 28.9757 11.3782C28.9757 10.4682 28.9757 9.67818 28.9757 8.88818C29.7657 8.88818 30.5557 8.88818 31.4657 8.88818C31.4657 9.80818 31.4657 10.5882 31.4657 11.3782Z" fill="#E2E8F0"/>
<path d="M41.4257 8.89844C41.4257 9.68844 41.4257 10.4784 41.4257 11.3884C40.5157 11.3884 39.7257 11.3884 38.9357 11.3884C38.9357 10.5984 38.9357 9.80844 38.9357 8.89844C39.8457 8.89844 40.6357 8.89844 41.4257 8.89844Z" fill="#E2E8F0"/>
<path d="M77.2856 11.3782C76.4956 11.3782 75.7057 11.3782 74.7957 11.3782C74.7957 10.4682 74.7957 9.67818 74.7957 8.88818C75.6257 8.88818 76.4556 8.88818 77.2856 8.88818C77.2856 9.72818 77.2856 10.5482 77.2856 11.3782Z" fill="#E2E8F0"/>
<path d="M46.4056 8.89844C46.4056 9.72844 46.4056 10.5584 46.4056 11.3884C45.6156 11.3884 44.8256 11.3884 43.9156 11.3884C43.9156 10.4784 43.9156 9.68844 43.9156 8.89844C44.7456 8.89844 45.5756 8.89844 46.4056 8.89844Z" fill="#E2E8F0"/>
<path d="M56.3656 11.3782C55.5356 11.3782 54.7056 11.3782 53.8756 11.3782C53.8756 10.5482 53.8756 9.71818 53.8756 8.88818C54.6656 8.88818 55.4556 8.88818 56.3656 8.88818C56.3656 9.80818 56.3656 10.5882 56.3656 11.3782Z" fill="#E2E8F0"/>
<path d="M77.2856 11.3782C77.2856 10.5482 77.2856 9.71818 77.2856 8.88818C77.4556 8.88818 77.6156 8.88818 77.7856 8.88818C77.8356 9.02818 77.8957 9.15819 77.9457 9.29819C78.0557 9.15819 78.1656 9.02818 78.2756 8.88818C78.6056 8.88818 78.9356 8.88818 79.2756 8.88818C79.4456 9.05818 79.6056 9.21818 79.7756 9.38818C79.7756 9.71818 79.7756 10.0482 79.7756 10.3782C79.6056 10.5482 79.4456 10.7082 79.2756 10.8782C79.0756 11.0482 78.9057 11.3182 78.6857 11.3482C78.2257 11.4282 77.7556 11.3782 77.2856 11.3782Z" fill="#94A3B8"/>
<path d="M60.3456 40.2183C60.5956 40.2183 60.8356 40.2183 61.2556 40.2183C61.2856 40.9783 61.3256 41.7583 61.3656 42.7083C60.9556 42.7083 60.6556 42.7083 60.3456 42.7083C60.3456 41.8683 60.3456 41.0483 60.3456 40.2183Z" fill="#94A3B8"/>
<path d="M77.7757 42.6985C77.5257 42.6985 77.2857 42.6985 76.8657 42.6985C76.8357 41.9385 76.7957 41.1585 76.7557 40.2085C77.1657 40.2085 77.4657 40.2085 77.7757 40.2085C77.7757 41.0485 77.7757 41.8685 77.7757 42.6985Z" fill="#94A3B8"/>
<path d="M60.2957 47.2383C60.8057 47.2383 61.2657 47.2383 61.7957 47.2383C61.9757 48.2183 61.3556 48.4683 60.5156 48.8083C60.4256 48.1883 60.3557 47.6883 60.2957 47.2383Z" fill="#94A3B8"/>
<path d="M53.3757 17.3483C52.7157 17.3483 52.0456 17.3483 51.3856 17.3483C51.3856 17.1783 51.3856 17.0183 51.3856 16.8483C51.8556 16.8483 52.3356 16.7984 52.7856 16.8684C53.0056 16.9084 53.1857 17.1783 53.3757 17.3483Z" fill="#E2E8F0"/>
<path d="M72.3057 9.38818C72.3057 9.21818 72.3057 9.05818 72.3057 8.88818C72.4757 8.88818 72.6357 8.88818 72.8057 8.88818C72.6357 9.05818 72.4657 9.22818 72.3057 9.38818Z" fill="#94A3B8"/>
<path d="M78.2756 8.89844C78.1656 9.03844 78.0557 9.16844 77.9457 9.30844C77.8957 9.16844 77.8356 9.03844 77.7856 8.89844C77.9456 8.89844 78.1156 8.89844 78.2756 8.89844Z" fill="#94A3B8"/>
<path d="M79.7756 9.38818C79.6056 9.21818 79.4456 9.05818 79.2756 8.88818C79.4456 8.88818 79.6056 8.88818 79.7756 8.88818C79.7756 9.05818 79.7756 9.22818 79.7756 9.38818Z" fill="#94A3B8"/>
<path d="M31.4656 11.3782C30.6756 11.3782 29.8856 11.3782 28.9756 11.3782C28.9756 10.4682 28.9756 9.67818 28.9756 8.88818C28.1456 8.88818 27.3157 8.88818 26.4857 8.88818C26.4857 9.62818 26.4857 10.3682 26.4857 11.2882C25.7157 11.3182 24.9457 11.3582 23.9957 11.3982C23.9957 10.4982 23.9957 9.69818 23.9957 8.88818C21.5057 8.88818 19.0156 8.88818 16.5256 8.88818C16.5256 9.46818 16.5256 10.0382 16.5256 10.7882C17.2956 10.8382 18.0756 10.8882 19.0156 10.9482C19.0156 11.9182 19.0157 12.8882 19.0457 13.8982C21.4657 13.9382 23.9257 13.9382 26.4357 13.9382C26.4357 17.8682 26.4357 21.7282 26.4357 25.6882C24.0157 25.6882 21.5856 25.6882 19.0856 25.6882C19.0856 21.7382 19.0857 17.7982 19.0557 13.8982C18.2857 13.8582 17.5457 13.8582 16.5457 13.8582C16.3157 13.1382 16.0656 12.3482 15.7556 11.3682C15.3056 11.3682 14.6656 11.3682 14.0356 11.3682C14.0356 17.7982 14.0356 24.2382 14.0356 30.7582C19.8256 30.7582 25.4456 30.7582 31.0756 30.7582C31.1456 30.7582 31.2257 30.7182 31.2957 30.6782C31.3657 30.6382 31.4156 30.5682 31.4656 30.5182C31.4656 29.0982 31.4656 27.6882 31.4656 26.2782C30.7256 26.2782 29.9757 26.2782 29.0657 26.2782C29.0357 25.5182 28.9956 24.7382 28.9556 23.7882C29.8556 23.7882 30.6656 23.7882 31.4656 23.7882C31.4656 22.9582 31.4656 22.1282 31.4656 21.2982C30.7256 21.2982 29.9757 21.2982 29.0657 21.2982C29.0357 20.5382 28.9956 19.7582 28.9556 18.8082C29.8556 18.8082 30.6656 18.8082 31.4656 18.8082C31.4656 16.3482 31.4656 13.8682 31.4656 11.3782Z" fill="#94A3B8"/>
<path d="M60.3456 38.7286C59.2756 38.7286 58.3856 38.7186 57.4856 38.7286C56.6056 38.7386 55.7356 38.7786 54.8656 38.7986C54.8656 42.1086 54.8656 45.2386 54.8756 48.3686C54.8756 48.4686 55.0956 48.5686 55.3256 48.7686C55.6656 48.4986 56.0256 48.2186 56.4456 47.8786C56.4456 46.6686 56.4456 45.4586 56.4456 44.1586C57.4156 45.1986 58.2956 46.1486 59.2456 47.1686C59.5156 47.1686 59.9356 47.1686 60.3456 47.1686C60.3456 46.7586 60.3456 46.3586 60.3456 45.9686C59.6856 45.4486 59.0256 44.9286 58.2056 44.2886C59.0156 44.2086 59.6856 44.1486 60.3456 44.0886C60.3456 43.5186 60.3456 43.1086 60.3456 42.6986C58.9356 42.6986 57.5356 42.6986 55.9556 42.6986C55.9256 41.9386 55.8856 41.1586 55.8456 40.2086C57.4156 40.2086 58.8856 40.2086 60.3456 40.2086C60.3456 39.7486 60.3456 39.2686 60.3456 38.7286Z" fill="#94A3B8"/>
<path d="M79.2756 10.8882C79.4456 10.7182 79.6056 10.5582 79.7756 10.3882C79.6056 10.5482 79.4356 10.7182 79.2756 10.8882Z" fill="#94A3B8"/>
</svg>
