<svg width="128" height="41" viewBox="0 0 128 41" fill="none" xmlns="http://www.w3.org/2000/svg">
<g clip-path="url(#clip0_478_4519)">
<path d="M60.0818 17.2784C62.0977 13.683 64.0773 10.2201 65.9742 6.71452C66.4093 5.89764 66.9053 5.52269 67.8408 5.65527C68.3502 5.71017 68.8642 5.71017 69.3737 5.65527C69.8247 5.62249 69.9088 5.79784 69.9088 6.20415C69.8953 11.5987 69.8953 16.9924 69.9088 22.385C69.9088 22.8127 69.7812 22.9382 69.3548 22.9168C68.7044 22.874 68.0518 22.874 67.4013 22.9168C66.8212 22.9624 66.6617 22.7985 66.666 22.2168C66.6965 18.7953 66.682 15.361 66.6776 11.9337C66.6776 11.6942 66.7487 11.4405 66.5471 11.1126C66.389 11.3877 66.257 11.6101 66.1323 11.8354C64.4848 14.8007 62.8126 17.7546 61.2101 20.7427C60.8707 21.3743 60.4008 21.1946 59.9266 21.2345C59.4915 21.2716 59.1695 21.2174 58.9114 20.7513C57.216 17.6291 55.48 14.5298 53.7571 11.4234C53.7035 11.3279 53.6469 11.2338 53.5802 11.1197C53.367 11.3079 53.4728 11.5232 53.4728 11.7042C53.4641 15.2241 53.4554 18.744 53.4728 22.2624C53.4728 22.7543 53.3887 22.961 52.8362 22.9168C52.186 22.8669 51.5328 22.8669 50.8827 22.9168C50.3548 22.9567 50.2271 22.7928 50.23 22.2767C50.2532 18.0725 50.2431 13.8655 50.2431 9.6613C50.2431 8.52079 50.2648 7.38029 50.2315 6.23979C50.2184 5.79927 50.3287 5.63247 50.8 5.6567C51.497 5.69733 52.1958 5.69733 52.8927 5.6567C53.38 5.62676 53.6367 5.79927 53.8673 6.21555C55.7657 9.63706 57.6874 13.0586 59.6046 16.4801C59.7453 16.7082 59.8874 16.9434 60.0818 17.2784Z" fill="#94A3B8"/>
<path d="M115.425 14.2846C115.425 11.6116 115.435 8.9385 115.414 6.26545C115.414 5.80497 115.51 5.64245 116.018 5.6453C119.764 5.66621 123.51 5.66621 127.255 5.6453C127.72 5.6453 127.929 5.72798 127.887 6.2355C127.843 6.80496 127.843 7.37681 127.887 7.94626C127.919 8.40389 127.761 8.51651 127.307 8.51651C124.632 8.49513 121.955 8.51651 119.281 8.49228C118.743 8.49228 118.612 8.63484 118.634 9.14236C118.676 10.1218 118.682 11.1083 118.634 12.0877C118.608 12.628 118.804 12.7207 119.304 12.7164C121.77 12.6908 124.235 12.7164 126.701 12.6936C127.21 12.6936 127.426 12.7948 127.359 13.3266C127.275 14.0665 127.679 15.0644 127.199 15.4864C126.78 15.8542 125.787 15.6062 125.047 15.6076C123.092 15.6076 121.139 15.6233 119.184 15.6005C118.76 15.6005 118.623 15.6946 118.634 16.1265C118.666 17.2456 118.672 18.3662 118.634 19.4839C118.617 19.9643 118.804 20.0327 119.229 20.0299C121.928 20.0142 124.627 20.0299 127.326 20.0114C127.801 20.0114 127.985 20.1083 127.948 20.6044C127.905 21.1972 127.905 21.7922 127.948 22.385C127.977 22.8241 127.816 22.9111 127.397 22.9097C123.581 22.8945 119.766 22.8945 115.95 22.9097C115.503 22.9097 115.414 22.7771 115.416 22.3679C115.432 19.682 115.425 16.9933 115.425 14.2846Z" fill="#94A3B8"/>
<path d="M103.284 19.4912C103.792 18.2082 104.25 17.0406 104.707 15.8787C105.969 12.6682 107.242 9.46335 108.478 6.24142C108.658 5.77239 108.898 5.62413 109.389 5.65264C110.108 5.69541 110.83 5.69541 111.55 5.65264C112.117 5.61842 112.144 5.78094 111.947 6.2457C110.341 10.035 108.746 13.8291 107.161 17.6279C106.49 19.2289 105.806 20.827 105.149 22.4337C105.004 22.7759 104.849 22.9355 104.445 22.9184C103.632 22.8814 102.816 22.8828 102.004 22.9184C101.602 22.937 101.45 22.7759 101.308 22.4366C99.0452 17.0192 96.7731 11.6018 94.4914 6.1844C94.3173 5.76954 94.3188 5.6284 94.8307 5.64978C95.6197 5.684 96.413 5.68685 97.2019 5.64978C97.6573 5.62697 97.8415 5.80375 97.9981 6.2015C99.6543 10.4128 101.322 14.6189 103.002 18.8197C103.074 19.0022 103.152 19.179 103.284 19.4912Z" fill="#94A3B8"/>
<path d="M54.0518 35.2914C52.5102 35.2173 51.2035 34.5786 50.5044 33.0731C49.8431 31.6475 49.994 30.2418 51.0019 29.0186C52.0925 27.6957 53.5573 27.3663 55.2077 27.7356C55.6378 27.837 56.0499 28.0013 56.4303 28.2231C57.3193 28.725 57.3149 28.8162 56.5622 29.4677C56.2983 29.6944 56.1605 29.6103 55.9169 29.4677C55.1018 28.963 54.2186 28.7022 53.2672 29.04C52.281 29.3964 51.7328 30.1278 51.6168 31.1428C51.4964 32.2149 51.8967 33.0803 52.8524 33.6348C53.8328 34.2051 54.8103 34.0426 55.7704 33.5365C55.9575 33.4381 56.0822 33.0917 56.3374 33.2713C56.6365 33.488 56.8984 33.7503 57.1133 34.0483C57.2323 34.2079 56.9828 34.3092 56.8683 34.399C56.0692 35.0205 55.1468 35.2629 54.0518 35.2914Z" fill="#94A3B8"/>
<path d="M100.723 27.7297C101.653 27.7297 102.582 27.754 103.511 27.7212C104.014 27.7026 104.024 27.9749 103.996 28.3214C103.973 28.635 104.141 29.047 103.535 29.0114C103.026 28.98 102.511 29.0299 102.002 28.9971C101.567 28.9672 101.453 29.1397 101.457 29.5474C101.476 31.2125 101.428 32.8791 101.483 34.5371C101.505 35.1957 101.16 35.1287 100.722 35.1544C100.221 35.1843 100.046 35.0703 100.06 34.5257C100.107 32.8848 100.06 31.2467 100.088 29.5987C100.097 29.1126 99.9429 28.9501 99.4556 28.9928C99.0626 29.027 98.6652 28.9928 98.2707 28.9928C97.5369 28.9928 97.2686 28.6193 97.4919 27.9379C97.5862 27.6527 97.811 27.7226 98.0053 27.7212C98.9103 27.7269 99.8167 27.7297 100.723 27.7297Z" fill="#94A3B8"/>
<path d="M122.721 31.4393C122.721 30.3658 122.749 29.2909 122.711 28.2202C122.691 27.6599 123.03 27.7113 123.381 27.7327C123.732 27.754 124.141 27.5659 124.129 28.2074C124.098 29.8968 124.129 31.5875 124.108 33.2769C124.099 33.7559 124.238 33.9099 124.73 33.8899C125.635 33.8529 126.544 33.9085 127.449 33.8671C127.97 33.8443 128 34.0924 128 34.4873C128 34.8822 127.991 35.1759 127.42 35.1602C126.05 35.1231 124.676 35.1274 123.306 35.1602C122.786 35.173 122.692 34.972 122.705 34.5215C122.741 33.495 122.721 32.4657 122.721 31.4393Z" fill="#94A3B8"/>
<path d="M91.1067 31.4536C91.1067 32.5043 91.0734 33.5564 91.1198 34.6057C91.1488 35.2558 90.7369 35.1375 90.3526 35.1532C89.9683 35.1688 89.6492 35.1745 89.6579 34.6043C89.6898 32.4811 89.6898 30.3569 89.6579 28.2317C89.6492 27.613 90.0335 27.7328 90.383 27.7313C90.7326 27.7299 91.1357 27.6144 91.1082 28.2332C91.0763 29.3052 91.1067 30.3802 91.1067 31.4536Z" fill="#94A3B8"/>
<path d="M83.5898 5.31751C78.3804 5.22485 74.1369 9.17954 74.0354 14.2206C73.9382 19.0748 78.0787 23.1393 83.2359 23.2562C88.3931 23.3731 92.7251 19.417 92.8223 14.4644C92.9194 9.51172 88.7876 5.41018 83.5898 5.31751ZM83.3345 20.2724C80.0743 20.2453 77.326 17.4824 77.3507 14.2591C77.3768 10.9958 80.1671 8.29137 83.4781 8.31989C84.2811 8.32655 85.0748 8.48945 85.8134 8.79918C86.552 9.1089 87.2209 9.55931 87.7815 10.1245C88.3421 10.6896 88.7833 11.3583 89.0797 12.0919C89.3761 12.8255 89.5218 13.6095 89.5084 14.3988C89.4794 17.6549 86.7064 20.2937 83.3345 20.2724Z" fill="#94A3B8"/>
<path d="M80.6498 27.7356C79.5346 27.7071 78.4193 27.7356 77.3041 27.7228C76.9052 27.7228 76.7834 27.8482 76.7921 28.236C76.8153 29.2853 76.8008 30.3345 76.7921 31.3838C76.7921 32.4573 76.7921 33.5223 76.7921 34.6015C76.7921 34.8096 76.6993 35.0562 77.0445 35.146C77.8523 35.357 78.1858 35.1247 78.1858 34.3135C78.1989 34.0627 78.1989 33.8115 78.1858 33.5607C78.1438 33.1544 78.2786 32.9819 78.7224 33.0076C79.3243 33.0404 79.9305 33.0204 80.5353 33.0076C82.0044 32.9905 83.1052 31.85 83.1168 30.3403C83.1342 28.8918 82.0958 27.7755 80.6498 27.7356ZM80.3438 31.763C79.7884 31.7901 79.23 31.753 78.6746 31.7744C78.3106 31.7887 78.1786 31.659 78.1916 31.3011C78.2237 30.7313 78.2237 30.1602 78.1916 29.5904C78.1554 29.0871 78.3686 28.9474 78.8341 28.9959C79.0892 29.0087 79.3448 29.0087 79.5998 28.9959C79.8304 28.9959 80.0625 28.9959 80.2945 28.9959C81.1415 29.013 81.6665 29.5063 81.6795 30.2904C81.6882 31.1072 81.1415 31.726 80.3438 31.763Z" fill="#94A3B8"/>
<path d="M116.295 34.6841C115.359 32.4987 114.409 30.3174 113.506 28.1263C113.306 27.6401 112.948 27.7299 112.595 27.7385C112.243 27.747 111.87 27.6102 111.671 28.1077C110.756 30.326 109.802 32.5272 108.865 34.7397C108.816 34.8552 108.69 34.9764 108.822 35.1104C109.033 35.3214 110.238 35.099 110.286 34.8053C110.494 33.5522 111.335 33.3797 112.402 33.5223C112.679 33.5629 112.961 33.5629 113.238 33.5223C114.089 33.3797 114.605 33.6734 114.772 34.5316C114.869 35.0291 115.167 35.2943 115.808 35.1118C115.906 34.9892 116.64 35.4896 116.295 34.6841ZM113.415 32.2363C113.391 32.2349 113.368 32.2349 113.345 32.2363C111.27 32.3547 111.27 32.3547 112.04 30.4671C112.204 30.068 112.372 29.6702 112.591 29.1456C112.991 30.1435 113.325 30.9846 113.677 31.8258C113.805 32.1194 113.76 32.2606 113.415 32.2363Z" fill="#94A3B8"/>
<path d="M70.3905 34.7055C69.4681 32.4915 68.5051 30.286 67.5798 28.0792C67.358 27.546 66.9287 27.7698 66.5719 27.7356C66.2557 27.7056 65.9468 27.6714 65.7743 28.0834C64.8432 30.3188 63.8889 32.5456 62.9346 34.7739C62.8302 35.0177 62.8244 35.1232 63.1521 35.156C64.1427 35.2572 64.2718 35.2244 64.6024 34.2536C64.7939 33.6833 65.0796 33.4452 65.7003 33.5108C66.2282 33.5664 66.7677 33.5108 67.2956 33.5236C68.6951 33.5521 68.3485 33.2913 68.859 34.5572C69.0388 35.0063 69.2607 35.2586 69.8481 35.1161C69.954 34.9564 70.7269 35.511 70.3905 34.7055ZM67.545 32.2377C66.8736 32.2377 66.2021 32.2377 65.4349 32.2377C65.8555 31.197 66.2427 30.2418 66.6836 29.1427L67.7916 31.8514C67.8916 32.088 67.8641 32.2477 67.545 32.2377Z" fill="#94A3B8"/>
<path d="M0 40.0558V0.803955L20.2357 20.4178L0 40.0558Z" fill="#94A3B8"/>
<path d="M40.5209 0.803955V40.0558L20.291 40.1242L20.2852 20.4406L40.5209 0.803955Z" fill="#E2E8F0"/>
<path d="M20.2314 40.0558V30.0493L25.3886 35.049L20.2314 40.0558Z" fill="#94A3B8"/>
<path d="M20.2314 30.3544V20.3479L25.3886 25.349L20.2314 30.3544Z" fill="#94A3B8"/>
<path d="M20.2314 20.529V10.5239L25.3886 15.5236L20.2314 20.529Z" fill="#94A3B8"/>
<path d="M27.6323 18.121V8.1145L32.791 13.1142L27.6323 18.121Z" fill="#94A3B8"/>
<path d="M27.6318 32.7795V22.7744L32.7905 27.7741L27.6318 32.7795Z" fill="#94A3B8"/>
<path d="M35.1982 25.5043V15.4978L40.3569 20.4975L35.1982 25.5043Z" fill="#94A3B8"/>
<path d="M20.2314 10.8276V0.82251L25.3886 5.82219L20.2314 10.8276Z" fill="#94A3B8"/>
</g>
<defs>
<clipPath id="clip0_478_4519">
<rect width="128" height="39.3203" fill="white" transform="translate(0 0.803955)"/>
</clipPath>
</defs>
</svg>
