<svg width="130" height="44" viewBox="0 0 130 44" fill="none" xmlns="http://www.w3.org/2000/svg">
<path d="M0.00468578 24.1917C0.00468578 20.709 0.00468578 17.2263 0.00468578 13.7437C0.00468578 13.5865 -0.00317314 13.4293 0.00625653 13.2722C0.0329739 12.8148 0.191707 12.6608 0.630186 12.6608C1.7036 12.6592 2.77701 12.6608 3.85042 12.6608C4.4272 12.6608 5.00241 12.6608 5.57919 12.6608C6.15597 12.6608 6.73118 12.6545 7.30796 12.6624C7.84231 12.6687 8.34523 12.4424 8.89372 12.4927C9.46578 12.5445 10.0489 12.5445 10.6193 12.4927C11.1175 12.4471 11.5639 12.708 12.0479 12.6577C12.565 12.6042 13.0349 12.7913 13.5221 12.895C13.9763 12.9924 14.4289 13.1464 14.8391 13.3193C15.4866 13.5944 16.0996 14.0061 16.6355 14.4682C17.1965 14.9491 17.7309 15.5039 18.1269 16.1231C18.5937 16.8507 18.9913 17.6365 19.1878 18.5088C19.4015 19.4533 19.5602 20.3994 19.4879 21.3644C19.4204 22.2759 19.1956 23.1529 18.875 24.0141C18.5246 24.9571 17.9462 25.7618 17.316 26.5004C16.8256 27.0756 16.164 27.5377 15.4741 27.8976C14.9397 28.1773 14.3708 28.3926 13.8144 28.63C13.5677 28.7352 13.2879 28.7761 13.0365 28.8233C12.3906 28.9458 11.7226 28.9899 11.0641 28.9961C9.12632 29.0166 7.18852 29.004 5.25072 29.004C5.09356 29.004 4.93483 28.9899 4.77924 29.0071C4.55607 29.0323 4.40363 29.1454 4.4052 29.3969C4.40677 29.7898 4.4052 30.1827 4.4052 30.5756C4.4052 32.1724 4.40677 33.7707 4.4052 35.3675C4.4052 35.7541 4.40048 35.7603 4.04844 35.7619C2.86973 35.7651 1.69103 35.7635 0.513889 35.7619C0.295435 35.7619 0.0392617 35.5639 0.0125443 35.3454C-0.0126015 35.1396 0.00782968 34.9274 0.00782968 34.7184C0.00468645 31.2105 0.00468578 27.7011 0.00468578 24.1917ZM4.4052 20.8803C4.4052 22.0842 4.40363 23.288 4.4052 24.4919C4.4052 24.9147 4.40991 24.9178 4.80753 24.9194C7.00621 24.921 9.2049 24.9147 11.4036 24.9257C11.7383 24.9272 12.0464 24.8738 12.3607 24.7669C13.2219 24.4762 13.9464 23.9717 14.4447 23.2315C14.7495 22.7804 14.9994 22.2524 15.0812 21.696C15.1786 21.0375 15.1063 19.7111 14.913 19.337C14.5688 18.6707 14.1979 18.0059 13.5866 17.5375C13.1465 17.1996 11.8043 16.7501 11.3234 16.7486C9.25519 16.7454 7.18852 16.747 5.12028 16.7486C4.40677 16.7486 4.4052 16.7517 4.40363 17.5045C4.40363 18.6282 4.4052 19.7535 4.4052 20.8803Z" fill="#94A3B8"/>
<path d="M49.1961 27.5535C49.1961 25.1176 49.1961 22.6831 49.1961 20.2471C49.1961 19.576 49.1977 19.576 49.9049 19.5745C50.796 19.5745 51.6856 19.5776 52.5767 19.5713C52.7323 19.5698 52.8438 19.6012 52.8077 19.7788C52.7291 20.1717 52.9397 20.5174 52.9696 20.8931C52.9869 21.1115 53.2226 21.2451 53.3766 21.1225C53.5401 20.9936 53.6831 20.8365 53.823 20.6809C54.3384 20.1088 54.9734 19.7725 55.7167 19.5588C56.8845 19.224 57.0432 19.191 58.2769 19.4095C58.6195 19.4708 58.9653 19.4315 59.3142 19.5619C60.2618 19.9171 61.0194 20.4939 61.6071 21.3064C61.7502 21.5044 61.857 21.7292 62.0016 21.9272C62.1871 22.1786 62.3537 22.1503 62.5533 21.8785C63.3626 20.772 64.3952 19.969 65.7232 19.5776C66.0595 19.4786 66.3927 19.3906 66.7573 19.411C67.3058 19.4409 67.8574 19.444 68.4059 19.4126C69.3819 19.3576 70.284 19.6546 71.1185 20.0758C72.1181 20.5803 72.9322 21.3394 73.4414 22.3719C73.6661 22.8277 73.8971 23.2772 74.0842 23.7565C74.2146 24.0897 74.0339 24.4842 74.3403 24.7498C74.3922 25.3297 74.4865 25.9112 74.4896 26.4911C74.5054 29.2399 74.4975 31.9902 74.4975 34.7405C74.4975 34.8977 74.4959 35.0548 74.4975 35.212C74.5006 35.4635 74.3466 35.6002 74.1266 35.6018C73.0532 35.6143 71.9798 35.6096 70.9064 35.6002C70.8451 35.6002 70.7429 35.4933 70.7351 35.4257C70.7115 35.245 70.7272 35.0596 70.7272 34.8773C70.7272 32.5198 70.7398 30.164 70.7193 27.8066C70.7131 27.0679 70.6408 26.3293 70.5638 25.5937C70.4805 24.7907 69.6538 23.5129 68.9356 23.2379C68.4892 23.0682 68.0287 22.8733 67.5133 22.8607C66.9899 22.8497 66.5279 23.0163 66.0815 23.2112C64.8384 23.7534 64.2585 24.7969 63.952 26.0684C63.8357 26.5493 63.8121 27.0192 63.8121 27.5001C63.8105 30.0666 63.8121 32.633 63.8105 35.1994C63.8105 35.6002 63.8058 35.6049 63.3862 35.6049C62.3647 35.6081 61.3431 35.5971 60.3231 35.6112C60.0623 35.6143 60.0355 35.5106 60.0355 35.2922C60.0418 32.4381 60.0292 29.5841 60.0481 26.73C60.0528 26.1139 59.8579 25.5482 59.6851 24.9887C59.5436 24.5361 59.2796 24.0269 58.9118 23.7597C58.3115 23.3259 57.6954 22.7947 56.8515 22.8749C56.7729 22.8827 56.6927 22.8859 56.6157 22.8749C55.657 22.7208 54.9278 23.2505 54.241 23.7628C53.8858 24.0269 53.6281 24.4889 53.4552 24.9148C53.1362 25.6975 52.9491 26.5147 52.9586 27.3838C52.9853 30.0021 52.9696 32.6204 52.9664 35.2403C52.9664 35.6002 52.9601 35.6049 52.5798 35.6049C51.585 35.6065 50.5901 35.6065 49.5953 35.6049C49.2008 35.6033 49.1961 35.6002 49.1961 35.1743C49.1946 32.6346 49.1961 30.0948 49.1961 27.5535Z" fill="#94A3B8"/>
<path d="M129.034 27.5898C129.034 30.0242 129.034 32.4602 129.034 34.8946C129.034 35.0518 129.032 35.209 129.034 35.3661C129.039 35.6191 128.885 35.7559 128.665 35.7574C127.591 35.77 126.518 35.7732 125.444 35.748C125.328 35.7449 125.147 35.5453 125.119 35.4117C125.067 35.1602 125.124 34.8883 125.097 34.6306C125.075 34.4137 125.014 34.1968 124.941 33.9894C124.885 33.8244 124.714 33.8196 124.652 33.9469C124.327 34.6243 123.698 34.9544 123.104 35.3174C122.523 35.6741 121.904 35.9287 121.226 36.0969C120.222 36.3468 119.205 36.2981 118.228 36.1943C117.256 36.0906 116.277 35.8282 115.384 35.3064C114.204 34.6165 113.128 33.8762 112.512 32.5859C112.347 32.2386 112.128 31.918 111.988 31.544C111.701 30.777 111.515 30.0022 111.404 29.1865C111.325 28.6019 111.319 28.022 111.261 27.442C111.202 26.8668 111.421 26.3372 111.432 25.7777C111.443 25.2544 111.76 24.7892 111.743 24.258C112.161 23.4266 112.449 22.5213 113.15 21.8534C113.323 21.6884 113.45 21.4746 113.62 21.3049C113.799 21.1257 114 20.9686 114.199 20.8114C114.394 20.6574 114.589 20.4971 114.801 20.3682C115.513 19.9423 116.241 19.5856 117.069 19.386C117.736 19.2257 118.382 19.0748 119.067 19.0968C119.188 19.0999 119.31 19.0544 119.431 19.0324C119.603 19.0025 119.815 18.8925 119.937 18.9569C120.423 19.2131 120.961 19.0795 121.473 19.2304C122.821 19.628 123.499 19.9345 124.418 20.8523C124.566 21 124.715 21.1477 124.863 21.297C124.89 21.0755 124.905 20.8507 124.949 20.6323C124.978 20.4924 125.077 20.3635 125.095 20.2236C125.13 19.9706 125.127 19.7113 125.139 19.4551C125.447 19.441 125.757 19.419 126.065 19.4158C126.876 19.4095 127.689 19.4095 128.5 19.4158C128.936 19.419 129.028 19.5148 129.028 19.9643C129.035 22.5088 129.034 25.0501 129.034 27.5898ZM120.234 32.4618C120.66 32.4005 121.085 32.5042 121.528 32.369C122.372 32.1113 123.024 31.6288 123.654 31.03C124.464 30.2599 124.751 29.2525 124.918 28.253C125.132 26.9627 124.77 25.7258 124.002 24.6446C123.78 24.335 123.518 24.0505 123.252 23.7771C122.6 23.1075 121.74 22.8388 120.86 22.7414C120.212 22.6706 119.549 22.7194 118.88 22.8467C117.69 23.0714 116.485 24.1731 116.06 24.9322C115.553 25.8406 115.328 26.826 115.369 27.8648C115.38 28.1336 115.509 28.3976 115.51 28.6648C115.512 29.0278 115.67 29.3327 115.779 29.658C116.021 30.3762 116.522 30.8996 117.052 31.4119C117.42 31.7687 117.842 31.9793 118.316 32.1632C118.943 32.4115 119.57 32.5184 120.234 32.4618Z" fill="#94A3B8"/>
<path d="M38.195 27.5916C38.195 30.0276 38.195 32.4636 38.195 34.898C38.195 35.0552 38.1934 35.2123 38.195 35.3695C38.1981 35.6209 38.0441 35.7561 37.8225 35.7577C36.7758 35.7702 35.7275 35.7671 34.6793 35.7592C34.4074 35.7577 34.2424 35.6084 34.2754 35.3318C34.3257 34.9106 34.1654 34.535 34.0978 34.1405C34.0899 34.0965 33.9092 34.0273 33.8652 34.0556C33.7363 34.1405 33.631 34.2631 33.5257 34.3809C32.8232 35.162 31.9085 35.5895 30.9388 35.9148C30.2206 36.1569 29.482 36.2936 28.7134 36.2401C28.2184 36.2056 27.7123 36.281 27.2236 36.2197C26.7914 36.1647 26.3497 36.0374 25.9458 35.896C25.1019 35.6005 24.2642 35.25 23.535 34.7C22.438 33.8717 21.6726 32.7905 21.165 31.5316C20.8805 30.8291 20.6967 30.0967 20.5646 29.3376C20.4358 28.5927 20.4609 27.8587 20.4358 27.1201C20.4279 26.9111 20.3776 26.68 20.4452 26.4962C20.6652 25.9021 20.5678 25.253 20.7768 24.6684C20.956 24.1686 21.2027 23.6924 21.4369 23.2146C21.7103 22.6536 22.0592 22.1554 22.471 21.6697C23.3794 20.601 24.5188 19.9143 25.8091 19.4946C26.4833 19.2746 27.1827 19.0483 27.9292 19.097C28.5547 19.1379 29.1865 19.1127 29.8136 19.1033C30.3715 19.0939 30.8791 19.2809 31.3978 19.4538C32.402 19.7901 33.1894 20.4297 33.906 21.1794C33.9469 21.2218 34.0145 21.2376 34.0711 21.2643C34.0836 21.2171 34.1009 21.17 34.1072 21.1228C34.1606 20.6733 34.2031 20.2223 34.2691 19.7744C34.3005 19.5559 34.4247 19.4161 34.6793 19.4176C35.7275 19.4239 36.7742 19.4129 37.8225 19.4255C38.0441 19.4286 38.1981 19.5622 38.1965 19.8137C38.195 19.9708 38.1965 20.128 38.1965 20.2852C38.195 22.7196 38.195 25.1556 38.195 27.5916ZM29.3279 32.4714C29.8576 32.4227 30.3542 32.4856 30.8665 32.3237C31.9164 31.9937 32.6833 31.2911 33.2994 30.4692C33.807 29.7903 33.9642 28.9086 34.1088 28.0615C34.2219 27.3904 33.8966 26.7539 33.9422 26.0875C33.5414 25.0456 33.0228 24.0979 32.0185 23.4975C31.7451 23.3341 31.5188 23.1219 31.1934 23.0198C30.4878 22.7982 29.7806 22.7054 29.0403 22.7086C28.0596 22.7133 27.1827 23.0449 26.4252 23.5981C25.839 24.0256 25.3235 24.5804 25.0186 25.2813C24.8709 25.6223 24.522 26.9252 24.5235 27.2757C24.5251 27.7314 24.5911 28.1762 24.654 28.6288C24.8363 29.9443 25.5278 30.9092 26.5446 31.6652C26.9894 31.9952 27.4561 32.3614 28.0754 32.3221C28.4761 32.6176 28.9319 32.3818 29.3279 32.4714Z" fill="#94A3B8"/>
<path d="M88.5667 29.0055C86.7609 29.0055 84.9551 29.0055 83.1478 29.0055C82.9906 29.0055 82.8334 29.0008 82.6763 29.0071C82.2346 29.0244 82.1623 29.1878 82.2865 29.6515C82.527 30.5441 83.0456 31.2388 83.8471 31.649C84.4443 31.9554 85.062 32.2242 85.7645 32.3468C86.4104 32.4599 87.0438 32.4882 87.6677 32.4395C88.2649 32.3924 88.8637 32.21 89.4373 31.9916C89.9843 31.7841 90.5249 31.5673 90.9995 31.2105C91.1095 31.1272 91.2934 31.0313 91.394 31.0706C91.5952 31.1476 91.8403 31.2765 91.9268 31.4525C92.0934 31.792 92.3511 31.9649 92.645 32.1739C93.0725 32.4788 93.4009 32.9141 93.7137 33.3495C93.8583 33.5506 93.8473 33.6528 93.6791 33.7927C93.3475 34.0677 93.0505 34.404 92.6827 34.613C91.713 35.1647 90.6663 35.5544 89.6102 35.9128C89.3808 35.9913 89.1372 35.9222 88.8778 36.0432C88.4331 36.2491 86.3853 36.3795 85.9829 36.2114C85.5476 36.0306 85.117 36.1658 84.7068 36.0652C84.119 35.9222 83.5454 35.7147 82.9749 35.5104C82.0319 35.1741 81.1942 34.6618 80.476 33.9592C80.4194 33.9042 80.3676 33.8445 80.3094 33.7927C79.258 32.8843 78.6592 31.6993 78.2773 30.3948C78.0887 29.7489 77.93 29.0935 77.952 28.4067C77.974 27.753 77.9567 27.0976 77.9567 26.4438C77.9567 25.6376 78.2255 24.8958 78.4863 24.1508C78.7048 23.5269 78.9751 22.9234 79.379 22.4032C79.7892 21.8751 80.0737 21.2182 80.7558 20.9432C81.0795 20.4607 81.6123 20.2297 82.0822 19.9656C82.6433 19.6482 83.2923 19.4816 83.9084 19.2647C84.2919 19.1295 84.6895 19.0604 85.0981 19.1044C85.4879 18.7743 85.9452 18.9975 86.3696 18.9566C86.7845 18.9158 87.2072 18.9362 87.6253 18.9504C88.026 18.9645 88.4001 19.1295 88.8165 19.1264C89.1654 19.1232 89.5253 19.2883 89.8617 19.425C90.2184 19.5711 90.6082 19.6246 90.9335 19.8792C91.2164 20.0992 91.6297 20.1621 91.8843 20.4025C92.59 21.0642 93.3365 21.7023 93.7828 22.5934C93.9023 22.8322 94.0343 23.0648 94.1427 23.3084C94.4885 24.0754 94.7022 24.8753 94.7855 25.7162C94.8044 25.8985 94.9427 26.0619 94.938 26.2804C94.9191 27.0646 94.9395 27.8504 94.9254 28.6362C94.9207 28.8578 94.7871 29.0087 94.5356 29.0071C94.0909 29.0055 93.6461 29.0071 93.2013 29.0071C91.6549 29.0055 90.1116 29.0055 88.5667 29.0055ZM86.643 25.7051C87.9475 25.7051 89.2535 25.6989 90.5579 25.7114C90.8125 25.7146 90.8785 25.6187 90.8439 25.3971C90.8062 25.1551 90.8314 24.9303 90.7072 24.6695C90.0487 23.2802 88.9046 22.7317 87.7479 22.5918C86.9275 22.4928 86.0709 22.4739 85.2286 22.7018C84.6251 22.8652 84.0844 23.1403 83.5941 23.475C82.967 23.9041 82.5835 24.5736 82.2551 25.2572C82.1843 25.405 82.2755 25.658 82.4217 25.6863C82.5725 25.713 82.7297 25.7051 82.8853 25.7051C84.1379 25.7051 85.3904 25.7051 86.643 25.7051Z" fill="#94A3B8"/>
<path d="M97.9161 27.5817C97.9161 24.9901 97.9161 22.4001 97.9161 19.8085C97.9161 19.4266 97.9208 19.4219 98.2791 19.4203C99.2221 19.4172 100.163 19.4156 101.106 19.4203C101.556 19.4219 101.781 19.6262 101.842 20.0882C101.862 20.2423 101.836 20.4026 101.848 20.5581C101.856 20.6509 101.91 20.8222 101.928 20.8206C102.071 20.8049 102.285 20.8002 102.34 20.709C102.522 20.401 102.82 20.225 103.074 20.0144C103.709 19.4879 104.432 19.1358 105.284 19.0981C105.578 19.0855 105.867 18.9771 106.162 18.952C107.003 18.8797 107.822 19.0918 108.616 19.2914C109.235 19.4454 109.802 19.8383 110.365 20.1731C110.685 20.3633 110.748 20.6477 110.588 20.9652C110.095 21.9396 109.582 22.9046 109.076 23.8727C108.979 24.0581 108.79 24.0047 108.674 23.9544C108.253 23.7705 107.792 23.6165 107.448 23.3289C107.132 23.0633 106.706 23.3823 106.463 23.0334C106.117 23.101 105.774 23.0271 105.406 23.1262C104.863 23.2739 104.324 23.3682 103.81 23.6448C102.873 24.1477 102.414 24.9367 102.145 25.9236C102.013 26.4061 102.005 26.8745 102.005 27.3554C102.004 29.8684 102.004 32.3798 102.004 34.8928C102.004 35.0233 102.009 35.1553 102.002 35.2857C101.988 35.6566 101.884 35.7588 101.479 35.7619C100.72 35.7682 99.9608 35.7635 99.2017 35.7635C98.8355 35.7635 98.4677 35.7713 98.1031 35.7556C98.0387 35.7525 97.9334 35.6535 97.9255 35.589C97.9004 35.4099 97.9177 35.2244 97.9177 35.0405C97.9161 32.5543 97.9161 30.068 97.9161 27.5817Z" fill="#94A3B8"/>
<path d="M44.7956 13.8087C44.7956 14.0963 44.783 14.3854 44.7972 14.673C44.8428 15.5689 44.9198 16.4631 44.9465 17.3574C44.9732 18.2469 44.8365 19.1568 44.9779 20.0244C45.2058 21.4231 45.0408 22.814 45.1036 24.2064C45.1288 24.7644 45.3347 25.2956 45.2781 25.8708C45.2215 26.4413 45.1712 27.0416 45.2844 27.5948C45.561 28.9354 45.363 30.2791 45.4132 31.6197C45.4353 32.2059 45.6553 32.7607 45.5924 33.3626C45.5343 33.9331 45.5798 34.5131 45.5798 35.0898C45.5798 35.247 45.572 35.4042 45.5814 35.5613C45.5924 35.7436 45.4981 35.7672 45.3441 35.7672C44.2173 35.7625 43.092 35.7672 41.9651 35.7625C41.6257 35.7609 41.4779 35.6399 41.4999 35.313C41.5424 34.6797 41.3538 34.0353 41.6367 33.4066C41.7247 33.2102 41.6508 32.9415 41.6508 32.7057C41.6508 31.8413 41.632 30.9769 41.6571 30.1126C41.6728 29.5578 41.775 29.0046 41.8017 28.4482C41.8284 27.8997 41.808 27.3481 41.808 26.798C41.808 26.2212 41.7042 25.6225 41.83 25.074C42.061 24.0697 41.8253 23.0576 41.9824 22.0722C42.2197 20.5729 41.9557 19.061 42.1506 17.5821C42.3518 16.0513 42.193 14.53 42.2826 13.0087C42.303 12.6614 42.4036 12.3203 42.4288 11.973C42.4555 11.6084 42.4288 11.2406 42.4398 10.8729C42.4429 10.7802 42.4759 10.6686 42.5356 10.6026C42.7274 10.3888 42.9207 10.1672 43.147 9.99279C43.466 9.74919 43.6829 9.78848 44.0051 10.0588C44.1167 10.1531 44.2534 10.2175 44.3744 10.3024C44.5221 10.4061 44.6306 10.5114 44.6432 10.7283C44.7107 11.7561 44.8978 12.7745 44.7956 13.8087Z" fill="#94A3B8"/>
<path d="M40.2552 8.39258C40.9765 8.46487 41.5313 8.50416 42.0814 8.58274C42.2637 8.60946 42.4428 8.72419 42.6047 8.82634C42.7996 8.94736 42.7556 9.00394 42.523 9.20667C41.789 9.84789 40.8508 10.2062 40.1719 10.9182C39.5086 11.157 39.0152 11.6631 38.4242 12.0073C38.0753 12.21 37.8223 12.5196 37.4624 12.7051C37.1166 12.8827 36.7913 13.1341 36.4613 13.3337C35.3266 14.0205 34.3176 14.8959 33.1295 15.5025C32.6486 15.7477 32.2431 16.139 31.7983 16.4597C31.7213 16.5162 31.6302 16.5634 31.5374 16.5854C31.3441 16.6357 31.2341 16.532 31.2813 16.3324C31.4447 15.644 31.5296 14.9163 31.8156 14.2798C32.1016 13.6433 32.4018 13.0021 32.8167 12.4112C33.12 11.979 33.5145 11.6647 33.8446 11.2781C34.6068 10.3885 35.5686 9.76145 36.6247 9.28525C37.453 8.91278 38.2985 8.5906 39.2305 8.56388C39.6265 8.55288 40.0194 8.43501 40.2552 8.39258Z" fill="#94A3B8"/>
<path d="M46.6674 8.41773C46.9912 8.41773 47.1672 8.37058 47.3024 8.42559C47.909 8.67076 48.577 8.56861 49.1915 8.79335C49.8295 9.02595 50.4613 9.2664 51.0648 9.57758C51.6196 9.86362 52.0989 10.2549 52.605 10.6101C53.4379 11.1948 54.0336 11.9649 54.5664 12.7852C55.0819 13.5789 55.4198 14.4684 55.6524 15.3957C55.7325 15.7147 55.8268 16.0212 55.8001 16.3544C55.7828 16.5713 55.5518 16.697 55.3773 16.554C55.1636 16.3795 54.964 16.1988 54.7251 16.0463C53.8513 15.4868 53.0199 14.8598 52.1539 14.2861C50.8416 13.417 49.4712 12.6328 48.2092 11.6977C47.3307 11.047 46.3531 10.5473 45.5139 9.84633C45.363 9.7206 45.198 9.56501 45.0204 9.532C44.7517 9.48171 44.6495 9.26797 44.4876 9.11553C44.3902 9.0228 44.5316 8.78706 44.6872 8.73048C45.022 8.60947 45.3646 8.57804 45.7213 8.56389C46.0922 8.54975 46.4584 8.45231 46.6674 8.41773Z" fill="#94A3B8"/>
<path d="M36.3356 7.63182C34.5062 7.63182 32.6753 7.63339 30.8459 7.62868C30.7281 7.62868 30.6118 7.57524 30.4939 7.54538C30.5332 7.40394 30.5269 7.21691 30.6165 7.13048C31.1241 6.65271 31.6726 6.22523 32.2981 5.89833C33.6057 5.21468 33.6984 5.24297 35.0406 4.93336C35.8169 4.7542 36.5949 4.72434 37.3288 4.83435C38.6003 5.02609 39.8434 5.39385 40.9231 6.17808C41.4056 6.52855 41.8221 6.93717 42.2338 7.35522C42.2747 7.39608 42.2716 7.49509 42.2621 7.56267C42.2574 7.59096 42.1835 7.62553 42.1395 7.62711C41.9572 7.63496 41.7733 7.63025 41.591 7.63025C39.8387 7.63182 38.0864 7.63182 36.3356 7.63182Z" fill="#94A3B8"/>
<path d="M50.8211 7.6317C49.0703 7.6317 47.318 7.6317 45.5672 7.6317C45.4368 7.6317 45.3063 7.63641 45.1759 7.63013C44.9999 7.62384 44.8678 7.40696 44.9574 7.25923C45.0093 7.17279 45.091 7.10363 45.1633 7.02977C46.0843 6.09152 47.2331 5.53831 48.4527 5.12655C49.0625 4.92067 49.71 4.82794 50.3575 4.80437C50.7488 4.79022 51.1433 4.78079 51.5331 4.80751C51.8788 4.83109 52.2418 4.85309 52.5625 4.96939C53.1738 5.19256 53.8182 5.30728 54.4012 5.64989C54.8853 5.93436 55.3851 6.19839 55.8314 6.53628C56.1599 6.7846 56.4412 7.09735 56.7288 7.39438C56.7508 7.41796 56.6738 7.60969 56.6251 7.61755C56.4459 7.64584 56.2605 7.62855 56.0781 7.62855C54.3242 7.6317 52.5719 7.6317 50.8211 7.6317Z" fill="#94A3B8"/>
<path d="M37.4499 0.559385C38.3897 0.509093 39.2682 0.746406 40.0839 1.19117C41.4072 1.91254 42.2779 2.9388 42.8625 4.35011C42.9584 4.58114 42.7729 4.88446 43.0668 5.04791C43.0244 5.45652 43.1092 5.84628 43.2177 6.23762C43.2397 6.31934 43.1973 6.49536 43.1517 6.50636C43.0401 6.53622 42.9097 6.4985 42.7871 6.48279C42.7666 6.47964 42.7509 6.44664 42.7321 6.42935C42.2181 5.9673 41.7089 5.5021 41.1903 5.04791C40.887 4.78073 40.5711 4.5277 40.2599 4.27153C39.9472 4.01536 39.6894 3.71204 39.3437 3.47472C38.7575 3.07396 38.2671 2.5349 37.7312 2.0587C37.4294 1.78996 37.2047 1.43634 36.8039 1.27447C36.6704 1.22103 36.5651 1.0733 36.4723 0.947573C36.3765 0.817129 36.5116 0.562528 36.6688 0.559385C36.9281 0.55467 37.189 0.559385 37.4499 0.559385Z" fill="#94A3B8"/>
<path d="M49.7352 0.559716C49.9442 0.559716 50.1533 0.556573 50.3607 0.561288C50.5682 0.566002 50.7238 0.826889 50.5839 0.968334C50.2428 1.3188 49.8751 1.64256 49.5152 1.97259C49.4429 2.0386 49.3439 2.07161 49.2716 2.13761C48.6634 2.68768 48.0834 3.27232 47.4469 3.78938C46.5951 4.47931 45.8078 5.2384 44.9779 5.95191C44.8884 6.02892 44.7579 6.05407 44.6589 6.12322C44.475 6.25209 44.3006 6.39511 44.123 6.53341C43.8778 6.32753 44.024 6.05564 44.0161 5.81833C43.9973 5.19754 44.4247 4.231 44.7626 3.46877C45.1272 2.64839 45.8596 2.20519 46.3892 1.55926C47.1216 1.31409 47.7015 0.688587 48.5455 0.709018C48.7309 0.713733 48.9164 0.591148 49.1066 0.566002C49.314 0.539285 49.5262 0.559716 49.7352 0.559716Z" fill="#94A3B8"/>
<path d="M85.9718 40.7983C85.9718 40.1193 85.975 39.4388 85.9687 38.7599C85.9671 38.5964 85.9718 38.4409 86.1337 38.3607C86.2107 38.323 86.3255 38.2947 86.3962 38.3246C86.4858 38.3623 86.547 38.4644 86.6225 38.5367C87.1663 39.0695 87.6299 39.6683 88.0668 40.2891C88.268 40.5751 88.5068 40.836 88.7332 41.1063C88.7442 41.1189 88.796 41.1189 88.807 41.1063C89.1088 40.7857 88.9202 40.3928 88.95 40.0345C88.9846 39.6196 88.9516 39.1984 88.9595 38.7803C88.9673 38.3921 89.0993 38.268 89.4561 38.279C89.7673 38.2884 89.8961 38.4157 89.8977 38.7568C89.9024 40.1413 89.893 41.5275 89.9056 42.9121C89.9072 43.151 89.7908 43.1777 89.6211 43.1463C89.4797 43.1195 89.3021 43.096 89.2156 43.0032C88.7489 42.4988 88.2978 41.9801 87.8593 41.4505C87.6063 41.1456 87.3926 40.8077 87.1537 40.4918C87.1333 40.4651 87.05 40.4682 87.006 40.484C86.9667 40.4997 86.9164 40.5547 86.918 40.5908C86.9321 40.9712 86.8724 41.3342 86.7765 41.7067C86.7215 41.9188 86.8928 42.1797 86.9085 42.4217C86.951 43.0803 86.8189 43.1918 86.173 43.1557C85.9923 43.1447 85.9671 43.0677 85.9687 42.9152C85.975 42.2096 85.9718 41.5039 85.9718 40.7983Z" fill="#94A3B8"/>
<path d="M74.0275 40.7789C74.0275 40.1769 74.0228 39.5766 74.0291 38.9747C74.0338 38.5268 74.2821 38.2847 74.7379 38.2784C75.2345 38.2737 75.7312 38.2737 76.2278 38.2784C76.8659 38.2832 77.5307 38.6635 77.8686 39.2088C77.8953 39.2513 77.9534 39.289 77.9534 39.3283C77.9534 39.7432 78.0163 40.1785 77.9141 40.5683C77.8403 40.8449 77.647 41.1309 77.3012 41.2771C76.9665 41.4185 76.8816 41.5584 77.2399 41.8931C77.5338 42.1682 77.8701 42.4133 78.0273 42.8173C78.1389 43.1017 78.1436 43.1394 77.8858 43.1473C77.6768 43.1536 77.4159 43.2243 77.2729 43.1269C77.1425 43.0373 77.045 42.8754 76.8863 42.7638C76.6128 42.5705 76.3252 42.3348 76.1728 42.0472C75.9402 41.6134 75.5991 41.571 75.1921 41.5741C75.0271 41.5757 74.9642 41.626 74.9689 41.7957C74.9784 42.1085 74.9815 42.4228 74.9689 42.7371C74.9564 43.042 74.7929 43.1646 74.4629 43.1504C74.1894 43.1379 74.037 43.009 74.0323 42.7402C74.0213 42.0865 74.0275 41.4327 74.0275 40.7789ZM75.7265 40.7757C75.7265 40.782 75.7265 40.7883 75.7265 40.793C75.9088 40.793 76.0942 40.7742 76.2734 40.7962C76.7653 40.8606 76.9272 40.5038 77.0906 40.1628C77.2635 39.7982 77.2038 39.6599 76.8706 39.3031C76.6961 39.1161 76.5123 39.047 76.2639 39.0595C75.926 39.0768 75.5866 39.0564 75.2487 39.0658C74.9642 39.0752 74.8354 39.2025 74.8165 39.4713C74.8071 39.6002 74.8086 39.7322 74.8165 39.8611C74.8338 40.1659 74.8558 40.4693 74.8762 40.7742C75.1575 40.7757 75.442 40.7757 75.7265 40.7757Z" fill="#94A3B8"/>
<path d="M27.6651 40.6907C27.6651 40.0621 27.6635 39.435 27.6651 38.8064C27.6666 38.5423 27.8662 38.3223 28.1365 38.2783C28.5562 38.2092 30.3117 38.2736 30.6558 38.4449C31.176 38.7042 31.5077 39.1663 31.5815 39.7383C31.6695 40.4314 31.4165 41.0302 30.8146 41.409C30.6197 41.5315 30.6024 41.5944 30.7297 41.7327C30.9246 41.9449 31.1446 42.1319 31.3348 42.3488C31.4809 42.5154 31.6114 42.7008 31.7214 42.8941C31.7905 43.0151 31.778 43.1472 31.5831 43.1519C31.4526 43.155 31.3191 43.1393 31.1918 43.155C30.9639 43.1849 30.8869 43.0796 30.7486 42.8926C30.5144 42.5767 30.1404 42.3676 29.8402 42.0958C29.738 42.003 29.7066 41.8333 29.6029 41.7421C29.3514 41.5205 29.0308 41.5771 28.7306 41.5913C28.6866 41.5928 28.6175 41.7374 28.6143 41.8191C28.6002 42.1319 28.6127 42.4462 28.608 42.7605C28.6049 42.9523 28.6882 43.177 28.3267 43.1613C27.8191 43.1393 27.6776 43.0874 27.6698 42.7338C27.6556 42.0517 27.6651 41.3712 27.6651 40.6907ZM29.3593 40.7725C29.3593 40.7787 29.3593 40.7866 29.3593 40.7929C29.5934 40.7929 29.8292 40.8039 30.0618 40.7897C30.4672 40.7662 30.9042 40.1815 30.8067 39.8091C30.703 39.4051 30.3337 39.0893 29.9015 39.0673C29.5636 39.05 29.2241 39.0547 28.8862 39.0657C28.5735 39.0767 28.4634 39.2071 28.4493 39.545C28.4446 39.6488 28.4446 39.754 28.4493 39.8578C28.4666 40.1627 28.487 40.4676 28.5059 40.7709C28.7919 40.7725 29.0764 40.7725 29.3593 40.7725Z" fill="#94A3B8"/>
<path d="M97.9161 40.7454C97.9161 40.145 97.9098 39.5447 97.9176 38.9443C97.9224 38.553 98.188 38.2858 98.5762 38.2811C99.1246 38.2732 99.6731 38.2669 100.22 38.2827C100.72 38.2968 101.116 38.5294 101.454 38.9003C101.745 39.2193 101.85 39.5667 101.855 39.9941C101.859 40.5049 101.707 40.8884 101.257 41.1509C101.149 41.2137 101.072 41.3332 100.978 41.4227C100.86 41.5359 100.879 41.6396 100.99 41.7465C101.196 41.9461 101.408 42.1425 101.597 42.3578C101.743 42.5244 101.877 42.7083 101.982 42.9032C102.049 43.0289 102.009 43.1374 101.822 43.1531C101.391 43.1908 101.025 43.1295 100.728 42.7523C100.454 42.4066 100.093 42.1315 99.8162 41.7889C99.7454 41.7009 99.7564 41.5846 99.5883 41.572C98.8606 41.5186 98.8606 41.5108 98.859 42.2258C98.859 42.383 98.8653 42.5402 98.8575 42.6957C98.8418 43.0305 98.7176 43.1484 98.3907 43.1484C98.0622 43.1499 97.9239 43.0321 97.9192 42.702C97.9098 42.0514 97.9161 41.3976 97.9161 40.7454ZM99.604 40.7674C99.604 40.7752 99.604 40.7847 99.604 40.7925C99.7596 40.7925 99.9214 40.769 100.072 40.7972C100.429 40.8648 100.63 40.6511 100.871 40.4468C101.146 40.2126 101.055 39.9266 101.05 39.661C101.047 39.4787 100.509 39.07 100.318 39.0669C99.901 39.059 99.483 39.0496 99.0681 39.0716C98.8496 39.0826 98.6956 39.2115 98.7019 39.4629C98.705 39.5934 98.6972 39.7238 98.7035 39.8543C98.7176 40.1592 98.738 40.4641 98.7553 40.7705C99.0382 40.7674 99.3211 40.7674 99.604 40.7674Z" fill="#94A3B8"/>
<path d="M53.4756 43.1505C53.3184 43.1505 53.1613 43.1505 53.0057 43.1505C52.2985 43.1489 52.0344 42.9226 51.5409 42.316C50.939 41.5757 50.9437 40.3185 51.3241 39.5437C51.7138 38.7531 52.3283 38.2329 53.287 38.2754C53.7412 38.2958 54.2017 38.2235 54.6339 38.4325C54.6763 38.453 54.758 38.4215 54.7816 38.4482C55.1824 38.8977 55.7686 39.212 55.8864 39.869C55.9446 40.1927 55.9257 40.5306 55.9556 40.8622C56.0452 41.8916 55.5407 42.5816 54.692 43.0641C54.5506 43.1442 54.3526 43.1379 54.1797 43.1474C53.9455 43.1599 53.7098 43.1505 53.4756 43.1505ZM55.1572 40.7051C55.3285 40.2242 54.9922 39.8705 54.7376 39.5138C54.5317 39.2262 54.219 39.0517 53.8371 39.0643C53.6548 39.0706 53.4724 39.069 53.2901 39.0643C52.7306 39.0517 52.3598 39.2985 52.1272 39.8171C51.805 40.5369 51.783 40.8732 52.091 41.5679C52.3739 42.206 52.88 42.5156 53.5573 42.5156C54.2158 42.5156 54.7125 42.2217 55.0158 41.6119C55.1556 41.329 55.1949 41.043 55.1572 40.7051Z" fill="#94A3B8"/>
<path d="M92.2582 40.7896C92.2582 40.1106 92.2535 39.4317 92.2597 38.7528C92.2629 38.4149 92.3808 38.2844 92.7045 38.2813C93.5406 38.2734 94.3767 38.2923 95.2112 38.2703C95.4595 38.264 95.6026 38.3756 95.7283 38.5374C95.7943 38.6223 95.8069 38.7496 95.843 38.8565C95.6591 38.9193 95.7943 39.2588 95.458 39.2337C94.8859 39.1897 94.3091 39.2211 93.7355 39.2211C93.605 39.2211 93.4557 39.1818 93.3489 39.2321C93.2279 39.2887 93.1194 39.4128 93.0503 39.5338C93.0063 39.6124 93.0393 39.7382 93.0424 39.8419C93.0534 40.2112 93.1571 40.3149 93.5626 40.3196C94.1378 40.3275 94.7115 40.3197 95.2867 40.3228C95.447 40.3244 95.7519 40.6607 95.7063 40.8147C95.6544 40.9892 95.5366 41.1133 95.3181 41.1117C94.7177 41.1039 94.1158 41.1039 93.5155 41.1102C93.1776 41.1149 93.0597 41.2328 93.0424 41.5565C93.0361 41.6602 93.0377 41.7655 93.0424 41.8693C93.0566 42.2512 93.1571 42.358 93.5453 42.3627C94.1457 42.3706 94.7476 42.3596 95.348 42.3675C95.777 42.3722 95.876 42.4932 95.8745 42.9222C95.8729 43.081 95.8383 43.1548 95.6623 43.1548C94.592 43.1501 93.5202 43.1501 92.4499 43.1548C92.2613 43.1564 92.2535 43.0511 92.255 42.9081C92.2597 42.2009 92.2582 41.4952 92.2582 40.7896Z" fill="#94A3B8"/>
<path d="M105.958 43.1501C105.853 43.1501 105.746 43.136 105.644 43.1517C104.957 43.2633 104.474 42.938 104.044 42.4523C103.885 42.2732 103.814 42.1176 103.949 41.9117C104.064 41.7357 104.47 41.6524 104.638 41.786C104.801 41.9148 104.917 42.1066 105.089 42.2213C105.721 42.6425 106.418 42.5844 106.904 42.0924C107.115 41.8803 107.085 41.5722 106.816 41.4575C106.461 41.3066 106.142 41.0379 105.703 41.1007C105.295 41.1589 104.947 40.9027 104.591 40.7629C104.372 40.678 104.13 40.4328 104.067 40.2128C103.978 39.8969 103.935 39.4851 104.069 39.2101C104.287 38.7622 104.674 38.3426 105.204 38.2986C105.779 38.2514 106.373 38.1901 106.946 38.429C107.368 38.605 107.665 38.9476 107.668 39.3013C107.669 39.5009 107.548 39.6187 107.43 39.6643C107.317 39.7099 107.11 39.6706 107.02 39.5873C106.794 39.3767 106.566 39.2227 106.255 39.1425C105.771 39.0184 105.237 39.1535 104.908 39.5307C104.759 39.702 104.833 39.8277 104.972 39.9079C105.356 40.1279 105.76 40.2788 106.212 40.3338C106.7 40.392 107.149 40.5633 107.555 40.8949C107.812 41.107 107.827 41.3836 107.905 41.6225C107.979 41.8457 107.877 42.1427 107.809 42.3942C107.724 42.7069 107.044 43.1376 106.664 43.1501C106.429 43.1564 106.194 43.1501 105.958 43.1501Z" fill="#94A3B8"/>
<path d="M71.752 43.1509C71.4392 43.1933 71.249 43.0818 71.1626 42.7313C71.0573 42.3022 70.7555 42.1514 70.3014 42.1969C69.8346 42.2441 69.3584 42.2331 68.89 42.1969C68.626 42.1765 68.5443 42.2865 68.4689 42.4955C68.4107 42.6527 68.2598 42.7847 68.2268 42.9419C68.1938 43.1069 68.1451 43.1446 67.9864 43.154C67.3939 43.1871 67.3027 43.0865 67.518 42.5191C67.6972 42.0445 67.9015 41.5777 68.1278 41.1235C68.4091 40.5578 68.6574 39.9825 68.8492 39.3806C68.9293 39.1292 69.0425 38.8793 69.1824 38.6561C69.5061 38.139 69.9289 38.1563 70.2574 38.686C70.3202 38.7881 70.3658 38.9028 70.4161 39.0129C70.9772 40.2466 71.5414 41.4787 72.0993 42.7124C72.2407 43.0362 72.1464 43.1541 71.752 43.1509ZM69.7733 41.4221C69.9289 41.4221 70.0845 41.4253 70.2401 41.4221C70.6031 41.4143 70.6644 41.3137 70.4962 40.9585C70.3202 40.5892 70.1285 40.2293 69.9415 39.8662C69.8283 39.6462 69.7057 39.6211 69.5816 39.827C69.3694 40.1758 69.1619 40.5342 69.0079 40.9114C68.8696 41.2493 69.0189 41.419 69.3851 41.4237C69.514 41.4237 69.6444 41.4221 69.7733 41.4221Z" fill="#94A3B8"/>
<path d="M39.6094 40.7945C39.6094 40.2208 39.6283 39.6456 39.6047 39.0735C39.5732 38.2893 39.699 38.2469 40.4392 38.2767C40.8038 38.2909 41.1716 38.3019 41.533 38.2736C41.9244 38.2422 42.2591 38.3993 42.6033 38.5298C42.8296 38.6162 43.0512 38.7042 43.1047 39.0123C43.1408 39.2181 43.2681 39.4146 43.3844 39.5969C43.617 39.9599 43.661 40.2915 43.3263 40.6216C43.2445 40.7017 43.2052 40.829 43.1581 40.9406C42.9145 41.5174 42.4037 41.6714 41.8568 41.7311C41.522 41.7673 41.1794 41.7296 40.84 41.7406C40.5178 41.75 40.4078 41.8757 40.3952 42.2136C40.3905 42.3441 40.3952 42.4745 40.3936 42.605C40.3905 43.2069 40.3905 43.1975 39.8011 43.1582C39.6141 43.1456 39.6063 43.0529 39.6063 42.9098C39.611 42.2026 39.6094 41.4985 39.6094 40.7945ZM41.2187 40.9611C41.2187 40.9579 41.2187 40.9532 41.2187 40.95C41.3743 40.95 41.5315 40.9516 41.6871 40.95C42.0705 40.9438 42.542 40.5964 42.5955 40.2853C42.6913 39.7148 42.5656 39.5026 42.1083 39.2103C41.8914 39.0704 41.6871 39.0673 41.4623 39.0641C40.3481 39.0531 40.3701 38.984 40.3952 40.0872C40.4015 40.367 40.4282 40.6452 40.4471 40.9249C40.7048 40.9375 40.9625 40.9485 41.2187 40.9611Z" fill="#94A3B8"/>
<path d="M61.769 40.6938C61.769 40.0652 61.7674 39.4365 61.769 38.8095C61.7705 38.5439 61.9701 38.3238 62.2405 38.2798C62.6569 38.2107 64.3228 38.3238 64.6859 38.4464C65.4403 38.701 65.8536 39.7854 65.566 40.5508C65.2485 41.3979 64.6529 41.7389 63.7979 41.7389C63.5103 41.7389 63.2211 41.728 62.9335 41.7421C62.7041 41.7531 62.5611 41.882 62.5563 42.1271C62.5516 42.3629 62.5595 42.5986 62.5532 42.8344C62.5501 42.9727 62.6255 43.1518 62.3568 43.1597C62.1069 43.1675 61.8837 43.1345 61.7768 42.8925C61.7281 42.7825 61.769 42.6348 61.769 42.5028C61.769 41.8977 61.769 41.2958 61.769 40.6938ZM62.5438 40.1249C62.5548 40.3811 62.5674 40.6388 62.5784 40.895C62.8581 40.9123 63.1363 40.9359 63.416 40.9469C63.6235 40.9547 63.8341 40.961 64.0415 40.9453C64.4297 40.917 64.8352 40.5461 64.9122 40.1673C64.9845 39.809 64.7377 39.4507 64.3888 39.2071C64.1452 39.0358 63.9095 39.0672 63.6643 39.0656C62.5171 39.0562 62.5343 38.9431 62.5438 40.1249Z" fill="#94A3B8"/>
<path d="M23.7738 43.1519C23.1546 43.1441 22.669 43.1833 22.2053 42.8502C21.6914 42.4824 21.2262 41.8239 21.2215 41.2031C21.2199 40.9407 21.2199 40.6798 21.2215 40.4173C21.2262 39.5718 21.8785 38.7168 22.6768 38.4292C23.2269 38.2312 23.8005 38.2108 24.338 38.3082C24.7199 38.3774 25.0672 38.6948 25.402 38.94C25.5639 39.0579 25.4444 39.4775 25.2401 39.5152C25.0248 39.5545 24.7828 39.6221 24.6005 39.3863C24.3993 39.1254 24.0567 39.1239 23.7895 39.0862C23.2017 39.0044 22.702 39.3109 22.3562 39.7557C21.8643 40.389 21.8612 41.1953 22.3452 41.8176C22.5448 42.0738 22.8686 42.2498 23.2049 42.374C23.8021 42.594 24.2752 42.308 24.7514 42.0455C25.0877 41.8616 25.259 41.8396 25.402 42.0706C25.5403 42.2922 25.468 42.7009 25.2417 42.8156C24.7482 43.067 24.2343 43.2635 23.7738 43.1519Z" fill="#94A3B8"/>
<path d="M81.4141 41.0286C81.4141 40.5587 81.4156 40.0888 81.4141 39.6204C81.4125 39.2275 81.4094 39.2275 80.985 39.2228C80.8027 39.2212 80.6188 39.2307 80.4381 39.2197C80.3438 39.2134 80.2275 39.1961 80.1615 39.138C79.9933 38.9886 79.7293 38.8236 79.8629 38.5785C79.9462 38.426 80.2102 38.2971 80.3972 38.2924C81.3873 38.2641 82.379 38.2689 83.3707 38.2846C83.7793 38.2909 83.9286 38.4669 83.9334 38.7969C83.9365 38.9855 83.9003 39.0704 83.6819 39.0751C83.4933 39.0798 83.311 39.1867 83.1193 39.2181C82.8709 39.259 82.5551 39.1882 82.3885 39.3187C82.2737 39.4083 82.3586 39.7587 82.3586 39.9913C82.357 40.8777 82.3633 41.7657 82.3555 42.6521C82.3523 43.0513 82.1637 43.2084 81.7787 43.1471C81.5618 43.1126 81.4109 43.001 81.4125 42.7495C81.4172 42.1759 81.4141 41.6022 81.4141 41.0286Z" fill="#94A3B8"/>
<path d="M46.8387 41.1781C46.8387 40.8904 46.8465 40.6028 46.8371 40.3152C46.8261 39.9569 46.801 39.6002 46.7805 39.2418C46.4442 39.2355 46.1063 39.2308 45.77 39.2198C45.3661 39.2072 45.2121 39.0328 45.2686 38.6462C45.3016 38.4262 45.4117 38.2769 45.6647 38.2769C46.7098 38.2784 47.7549 38.2737 48.8 38.2816C49.0656 38.2831 49.1882 38.4403 49.1961 38.7263C49.2055 39.0485 49.1112 39.1821 48.8488 39.2214C48.8236 39.2245 48.7969 39.2214 48.7702 39.2214C48.459 39.2293 48.1494 39.2355 47.8382 39.2434C47.8194 39.6017 47.7879 39.9585 47.7848 40.3168C47.7769 41.0225 47.7801 41.7281 47.7832 42.4338C47.7832 42.6145 47.8068 42.7905 47.6292 42.9225C47.5648 42.9697 47.5459 43.1363 47.4987 43.1394C47.296 43.1551 47.0901 43.1363 46.8874 43.108C46.8622 43.1048 46.8418 42.9728 46.8418 42.9005C46.8371 42.3269 46.8387 41.7517 46.8387 41.1781Z" fill="#94A3B8"/>
<path d="M35.0516 42.1887C35.0516 42.0048 35.0422 41.8225 35.0548 41.6387C35.0658 41.4485 34.9825 41.3181 34.8835 41.1562C34.4026 40.3609 33.8478 39.6113 33.4219 38.7815C33.3606 38.662 33.2631 38.5866 33.381 38.453C33.4894 38.3304 33.6498 38.1827 33.7692 38.2911C33.9248 38.431 34.1621 38.3304 34.2925 38.6259C34.5063 39.1147 34.896 39.528 35.2072 39.9743C35.3927 40.2399 35.4665 40.2274 35.6818 39.9492C35.9852 39.5579 36.2618 39.1587 36.4818 38.7108C36.5761 38.519 36.8433 38.3854 37.0617 38.2927C37.1623 38.2503 37.3478 38.3461 37.4641 38.4231C37.6432 38.541 37.5253 38.6526 37.4483 38.8019C37.0711 39.5217 36.5997 40.1786 36.1628 40.8591C36.1015 40.9534 35.8374 41.6481 35.8374 41.7455C35.8359 42.0599 35.8437 42.3742 35.8343 42.6869C35.8296 42.8362 35.8327 43.0924 35.7699 43.1128C35.5813 43.1741 35.3628 43.1537 35.1569 43.1427C35.1192 43.1411 35.0595 43.0343 35.0563 42.973C35.0453 42.7121 35.0516 42.4496 35.0516 42.1887Z" fill="#94A3B8"/>
<path d="M111.682 41.893C111.382 42.0219 111.218 41.7485 111.017 41.5567C110.816 41.3634 110.624 41.1402 110.657 40.8542C110.693 40.5257 110.934 40.2916 111.144 40.0417C111.335 39.8169 111.548 39.8515 111.773 39.8515C112.373 39.8547 112.854 40.3576 112.846 40.9689C112.84 41.4593 112.318 41.8946 111.682 41.893Z" fill="#94A3B8"/>
<path d="M16.3494 40.8451C16.3525 40.207 16.7061 39.8817 17.3144 39.8377C17.6978 39.8094 17.8597 40.0546 18.0876 40.2495C18.2935 40.4255 18.4176 40.6109 18.3988 40.9064C18.3626 41.4737 17.8959 41.8981 17.2625 41.8934C16.681 41.8886 16.3462 41.5052 16.3494 40.8451Z" fill="#94A3B8"/>
</svg>
