<svg width="195" height="18" viewBox="0 0 195 18" fill="none" xmlns="http://www.w3.org/2000/svg">
<path d="M0.0340576 0.877022C1.26246 0.877022 2.33818 0.897835 3.41391 0.870075C3.92748 0.856194 3.94135 1.16851 4.01075 1.5294C4.52432 4.36098 5.05178 7.18564 5.57923 10.0103C5.60005 10.1074 5.63475 10.1976 5.84296 10.3226C6.53697 7.19949 7.23099 4.08338 7.93195 0.925608C9.02849 0.925608 10.0973 0.925608 11.2285 0.925608C11.9364 4.08338 12.6513 7.24807 13.3661 10.4128C13.4216 10.4197 13.4771 10.4267 13.5327 10.4336C14.1226 7.26891 14.7125 4.11113 15.3093 0.918661C16.5933 0.918661 17.8216 0.918661 19.1403 0.918661C18.8557 2.28587 18.5851 3.61838 18.3005 4.95089C17.5024 8.68469 16.6904 12.4115 15.9131 16.1453C15.7951 16.7006 15.5869 16.8949 15.0109 16.8602C14.1503 16.8047 13.2897 16.8047 12.4292 16.8602C11.8392 16.8949 11.6588 16.652 11.5339 16.1176C10.9856 13.6816 10.3888 11.2526 9.8058 8.8235C9.75028 8.59447 9.68087 8.36543 9.54207 7.8935C8.81335 11.0027 8.14709 13.8829 7.45308 16.8463C6.23855 16.8463 5.03094 16.8741 3.8303 16.8186C3.64291 16.8116 3.37226 16.4368 3.31673 16.187C2.32429 11.669 1.36658 7.15094 0.394959 2.6329C0.290857 2.08463 0.179801 1.53634 0.0340576 0.877022Z" fill="#CBD5E1"/>
<path d="M109.216 6.08888C108.071 6.08888 106.975 6.10972 105.878 6.06808C105.712 6.06114 105.476 5.75574 105.42 5.55447C105.129 4.43017 104.442 3.7917 103.283 3.66677C101.95 3.52103 100.881 3.96518 100.402 5.12419C99.3961 7.56018 99.3822 10.0795 100.347 12.5085C100.978 14.0909 103.623 14.653 105.052 13.6537C105.205 13.5496 105.358 13.3205 105.365 13.147C105.399 12.453 105.379 11.7659 105.379 10.9747C104.455 10.9747 103.609 10.9747 102.714 10.9747C102.714 10.0517 102.714 9.23278 102.714 8.35832C104.872 8.35832 107.009 8.35832 109.209 8.35832C109.223 8.60817 109.251 8.84412 109.258 9.08008C109.265 10.5583 109.147 12.0505 109.293 13.5148C109.425 14.8404 108.821 15.5136 107.759 16.0063C105.406 17.0959 102.963 17.436 100.451 16.7351C98.7021 16.2493 97.3349 15.1458 96.6617 13.4732C95.3639 10.2669 95.3153 7.01191 96.8977 3.86802C97.7999 2.07053 99.3891 1.02257 101.374 0.80049C102.554 0.668627 103.81 0.703343 104.969 0.946248C107.551 1.48758 108.974 3.27118 109.216 6.08888Z" fill="#CBD5E1"/>
<path d="M65.896 0.918457C67.1314 0.918457 68.3875 0.918457 69.6992 0.918457C69.6992 2.03582 69.6992 3.11155 69.6992 4.18034C69.6992 6.63021 69.6853 9.08009 69.7061 11.523C69.72 13.1262 70.5043 14.0007 71.9131 14.077C73.6412 14.1672 74.5434 13.3691 74.5573 11.5994C74.592 8.69143 74.5712 5.79045 74.5712 2.88253C74.5712 2.24404 74.5712 1.60553 74.5712 0.918457C75.8759 0.918457 77.1044 0.918457 78.4438 0.918457C78.4438 1.20994 78.4438 1.49448 78.4438 1.77903C78.4438 4.84658 78.4438 7.91413 78.4438 10.9817C78.4438 14.6322 76.7435 16.5893 73.1277 17.0127C71.469 17.207 69.845 17.0266 68.3667 16.159C66.8121 15.2429 65.903 13.848 65.8614 12.0713C65.7711 8.41382 65.8266 4.75636 65.8197 1.09196C65.8197 1.05032 65.8613 1.00174 65.896 0.918457Z" fill="#CBD5E1"/>
<path d="M111.264 11.7038C112.555 11.7038 113.783 11.7038 115.026 11.7038C115.06 11.7662 115.116 11.8356 115.13 11.905C115.504 13.8205 117.128 14.7296 118.974 13.9732C119.398 13.7997 119.793 13.293 119.96 12.8489C120.175 12.2728 119.96 11.6343 119.398 11.2943C118.808 10.9334 118.149 10.6836 117.517 10.3921C116.247 9.81604 114.914 9.35103 113.721 8.64314C112.305 7.80338 111.576 6.45701 111.736 4.76362C111.902 3.06328 112.936 1.96671 114.456 1.34903C116.837 0.384353 119.238 0.31495 121.542 1.56418C123.069 2.39699 123.846 3.74339 123.93 5.56171C122.618 5.56171 121.369 5.56171 120.12 5.56171C119.544 3.75727 118.155 3.09102 116.538 3.83362C115.372 4.37495 115.213 5.62418 116.296 6.30431C117.017 6.75542 117.864 6.99139 118.641 7.35228C119.786 7.87973 120.994 8.31001 122.035 8.99014C123.506 9.94789 124.103 11.44 123.881 13.1889C123.652 14.9448 122.569 16.0622 120.939 16.5966C118.482 17.4016 116.046 17.2975 113.755 16.0275C112.104 15.1183 111.271 13.6748 111.264 11.7038Z" fill="#94A3B8"/>
<path d="M194.039 5.58228C192.707 5.58228 191.478 5.58228 190.257 5.58228C189.715 3.78478 188.362 3.06994 186.759 3.83335C186.322 4.04156 185.843 4.59677 185.78 5.04788C185.725 5.45041 186.12 6.08194 186.502 6.33179C187.182 6.7829 188.008 7.01194 188.772 7.35201C189.847 7.83088 190.978 8.22649 191.971 8.84416C193.553 9.81578 194.227 11.3356 194.004 13.1887C193.775 15.0694 192.568 16.166 190.847 16.6726C188.431 17.3875 186.051 17.2556 183.823 15.9925C182.199 15.0695 181.401 13.6329 181.38 11.7035C182.664 11.7035 183.893 11.7035 185.142 11.7035C185.17 11.7521 185.232 11.8145 185.246 11.8839C185.614 13.7577 186.953 14.5698 188.862 14.077C189.542 13.8966 190.048 13.5426 190.146 12.8C190.236 12.0991 189.972 11.5092 189.348 11.1691C188.785 10.8637 188.175 10.6416 187.585 10.3779C186.315 9.80187 184.982 9.32997 183.795 8.62207C182.414 7.78925 181.713 6.4498 181.866 4.79804C182.026 3.06301 183.081 1.95953 184.635 1.33492C186.877 0.432696 189.153 0.356344 191.367 1.41125C193.047 2.2163 193.949 3.59046 194.039 5.58228Z" fill="#94A3B8"/>
<path d="M130.058 13.8896C132.459 13.8896 134.791 13.8896 137.165 13.8896C137.165 14.896 137.165 15.8259 137.165 16.7976C133.514 16.7976 129.87 16.7976 126.171 16.7976C126.171 11.5161 126.171 6.26244 126.171 0.946289C129.829 0.946289 133.493 0.946289 137.199 0.946289C137.199 1.88321 137.199 2.81317 137.199 3.83337C134.84 3.83337 132.494 3.83337 130.072 3.83337C130.072 4.9785 130.072 6.03341 130.072 7.18548C132.057 7.18548 134.028 7.18548 136.047 7.18548C136.047 8.18486 136.047 9.08707 136.047 10.0865C134.062 10.0865 132.084 10.0865 130.058 10.0865C130.058 11.3773 130.058 12.571 130.058 13.8896Z" fill="#94A3B8"/>
<path d="M169.047 0.918457C172.733 0.918457 176.355 0.918457 180.027 0.918457C180.027 1.88314 180.027 2.81313 180.027 3.84028C177.667 3.84028 175.321 3.84028 172.927 3.84028C172.927 4.99928 172.927 6.06112 172.927 7.22012C174.912 7.22012 176.883 7.22012 178.916 7.22012C178.916 8.20563 178.916 9.10091 178.916 10.0934C176.911 10.0934 174.94 10.0934 172.92 10.0934C172.92 11.3842 172.92 12.5779 172.92 13.8549C175.259 13.8549 177.584 13.8549 179.978 13.8549C179.978 14.8751 179.978 15.819 179.978 16.8045C176.349 16.8045 172.726 16.8045 169.041 16.8045C169.047 11.523 169.047 6.24155 169.047 0.918457Z" fill="#94A3B8"/>
<path d="M90.8181 10.3852C90.8736 10.2742 90.8805 10.2395 90.8944 10.2256C90.9777 10.1632 91.061 10.0868 91.1512 10.0382C93.2749 8.85146 93.7746 6.936 93.4345 4.72209C93.1222 2.68168 91.6925 1.66148 89.8256 1.16179C89.3606 1.03687 88.8748 0.946632 88.396 0.932752C86.4041 0.891111 84.4193 0.884152 82.4275 0.870272C82.0111 0.863332 81.5877 0.870272 81.1643 0.870272C81.1643 6.24889 81.1643 11.5095 81.1643 16.791C82.4621 16.791 83.7114 16.791 85.0439 16.791C85.0439 14.9241 85.0439 13.1058 85.0439 11.225C85.3909 11.225 85.6615 11.2597 85.9183 11.2181C86.7858 11.0723 87.2717 11.3985 87.6326 12.2313C88.2225 13.6124 88.9511 14.938 89.6451 16.2705C89.7562 16.4856 89.9784 16.8049 90.1588 16.8049C91.4566 16.8534 92.7543 16.8326 94.1632 16.8326C92.9903 14.5632 91.8869 12.4465 90.8181 10.3852ZM87.7574 8.21296C86.9802 8.24766 86.2029 8.22685 85.4256 8.21991C85.3215 8.21991 85.2243 8.19214 85.0716 8.16437C85.0716 6.7 85.0716 5.31893 85.0716 3.88926C86.0779 3.88926 87.0427 3.80596 87.9865 3.91006C89.1247 4.03498 89.7423 4.95108 89.6799 6.16561C89.6105 7.42872 88.9512 8.15744 87.7574 8.21296Z" fill="#CBD5E1"/>
<path d="M45.7211 10.3436C45.8182 10.2256 45.8321 10.1979 45.8529 10.184C45.9917 10.1007 46.1305 10.0174 46.2624 9.9341C48.1085 8.81674 48.6012 7.08864 48.4138 5.076C48.2334 3.13276 47.0813 1.95991 45.3185 1.33529C44.7147 1.12015 44.0693 0.974406 43.4308 0.946646C41.7929 0.877244 40.1481 0.884152 38.5102 0.870272C37.7121 0.863332 36.914 0.870272 36.0881 0.870272C36.0881 6.23501 36.0881 11.4887 36.0881 16.7979C37.379 16.7979 38.6282 16.7979 39.9677 16.7979C39.9677 14.938 39.9677 13.1266 39.9677 11.225C40.3702 11.225 40.6964 11.2666 41.0017 11.2181C41.7998 11.0793 42.1955 11.4471 42.5147 12.155C43.1393 13.5499 43.8611 14.9032 44.569 16.2635C44.68 16.4787 44.8952 16.7979 45.0756 16.8049C46.3803 16.8534 47.6851 16.8326 49.087 16.8326C47.9211 14.584 46.8245 12.4673 45.7211 10.3436ZM42.6465 8.21296C41.7929 8.24766 40.9323 8.21991 40.0023 8.21991C40.0023 6.7139 40.0023 5.33282 40.0023 3.89621C41.0017 3.89621 41.9734 3.81291 42.9172 3.91701C44.0623 4.04887 44.68 4.97193 44.6037 6.1934C44.5204 7.4565 43.8541 8.16438 42.6465 8.21296Z" fill="#CBD5E1"/>
<path d="M150.316 13.4804C149.768 12.4185 149.22 11.3566 148.762 10.4614C149.511 9.70489 150.295 9.15665 150.746 8.40711C152.592 5.37427 151.045 1.70983 147.512 1.1685C144.75 0.752091 141.905 0.883992 139.052 0.772949C139.052 6.22097 139.052 11.4816 139.052 16.77C140.336 16.77 141.606 16.77 142.939 16.77C142.939 14.917 142.939 13.1195 142.939 11.2179C143.313 11.2179 143.64 11.2595 143.945 11.2109C144.722 11.086 145.153 11.3914 145.479 12.1201C146.11 13.5428 146.853 14.917 147.568 16.2981C147.679 16.5063 147.908 16.7977 148.088 16.8047C149.365 16.8463 150.642 16.8255 152.058 16.8255C151.42 15.6179 150.864 14.5491 150.316 13.4804ZM147.554 6.29728C147.478 7.47711 146.79 8.17807 145.604 8.21972C144.75 8.25442 143.89 8.22666 142.939 8.22666C142.939 6.73453 142.939 5.35345 142.939 3.89602C143.952 3.89602 144.944 3.80577 145.916 3.91681C147.068 4.05562 147.637 4.97865 147.554 6.29728Z" fill="#94A3B8"/>
<path d="M163.745 10.4821C164.516 9.67006 165.341 9.0732 165.793 8.26815C167.479 5.25612 166.028 1.77214 162.656 1.21693C159.845 0.751941 156.937 0.883816 154.036 0.751953C154.036 6.22079 154.036 11.4814 154.036 16.7906C155.306 16.7906 156.562 16.7906 157.895 16.7906C157.895 14.9376 157.895 13.1263 157.895 11.2177C158.262 11.2177 158.554 11.2524 158.839 11.2108C159.664 11.0858 160.143 11.3773 160.49 12.1824C161.101 13.5843 161.837 14.9307 162.551 16.291C162.663 16.4992 162.885 16.7976 163.065 16.8045C164.342 16.8462 165.619 16.8254 167.035 16.8254C165.855 14.5698 164.751 12.4322 163.745 10.4821ZM162.545 6.29018C162.468 7.42836 161.795 8.15015 160.664 8.20567C159.782 8.24731 158.894 8.21261 157.915 8.21261C157.915 6.73436 157.915 5.34633 157.915 3.91666C158.95 3.91666 159.97 3.81948 160.962 3.9444C162.073 4.08321 162.628 5.02707 162.545 6.29018Z" fill="#94A3B8"/>
<path d="M28.8357 1.30742C28.7594 1.11309 28.4263 0.904907 28.1972 0.891026C27.3922 0.842445 26.5801 0.904915 25.7751 0.856334C25.2199 0.821633 24.977 1.02289 24.7896 1.5434C23.8319 4.22924 22.8255 6.89425 21.84 9.56621C20.9586 11.9536 20.0842 14.341 19.1681 16.8395C20.5214 16.8395 21.7776 16.8534 23.0338 16.8187C23.1864 16.8117 23.3946 16.5411 23.464 16.3468C23.6861 15.743 23.8666 15.1183 24.0262 14.5006C24.1442 14.0565 24.3385 13.8344 24.8521 13.8483C26.2262 13.883 27.5934 13.876 28.9676 13.8552C29.384 13.8483 29.5991 13.9663 29.7032 14.3966C29.8698 15.0767 30.0849 15.743 30.3417 16.3884C30.4181 16.5827 30.6887 16.8187 30.8831 16.8256C32.0907 16.8673 33.2982 16.8464 34.6446 16.8464C32.6806 11.5719 30.772 6.43619 28.8357 1.30742ZM25.1713 10.8571C25.7196 9.08733 26.254 7.35926 26.7884 5.63116C26.8508 5.63116 26.9064 5.63116 26.9688 5.63116C27.5032 7.34538 28.0445 9.05957 28.6067 10.8571C27.4338 10.8571 26.3789 10.8571 25.1713 10.8571Z" fill="#CBD5E1"/>
<path d="M63.4045 11.2458C63.1407 10.0243 62.3565 9.24014 61.0865 8.71268C62.2038 8.03949 62.9187 7.24137 63.0853 6.06154C63.4184 3.66025 62.2871 1.90438 59.9066 1.27977C56.9987 0.516354 54.0283 1.02299 51.0441 0.856431C51.0441 6.22811 51.0441 11.4887 51.0441 16.9923C54.0908 16.8396 57.1445 16.909 60.1218 16.4787C62.6827 16.1109 63.9527 13.7443 63.4045 11.2458ZM54.9583 3.79905C55.9924 3.86151 57.0126 3.84763 58.005 4.01419C58.9419 4.17381 59.2959 4.79149 59.2751 5.79781C59.2543 6.71391 58.8587 7.28993 57.9217 7.42873C56.9709 7.56753 55.9993 7.53977 54.9583 7.59529C54.9583 6.3183 54.9583 5.13156 54.9583 3.79905ZM58.9905 13.4667C58.7476 13.6471 58.4354 13.772 58.0606 13.8345C57.9565 13.8484 57.8454 13.8623 57.7413 13.8692C57.6372 13.8762 57.5262 13.8762 57.4221 13.8762C57.0195 13.8762 56.617 13.8762 56.2075 13.8762C55.7981 13.8762 55.3747 13.8762 54.9306 13.8762C54.9306 12.5645 54.9306 11.3638 54.9306 10.0868C55.2012 10.0868 55.4649 10.0799 55.7286 10.0799C56.2561 10.066 56.7835 10.0521 57.2971 10.066C57.5539 10.0729 57.8176 10.0868 58.0744 10.1076C58.6088 10.1562 59.0044 10.3644 59.2612 10.7045C59.518 11.0446 59.6359 11.5165 59.629 12.0925C59.6082 12.7033 59.3931 13.1613 58.9905 13.4667Z" fill="#CBD5E1"/>
</svg>
