<svg width="50" height="53" viewBox="0 0 50 53" fill="none" xmlns="http://www.w3.org/2000/svg">
<path d="M16.3659 1.18885C16.9578 1.01003 17.5861 0.987304 18.1894 1.12301C18.7926 1.25871 19.3504 1.54827 19.8087 1.96334C20.2671 2.37842 20.6104 2.90489 20.805 3.4918C20.9996 4.07871 21.0391 4.70604 20.9196 5.31272C20.5775 8.20832 16.3859 9.21607 14.6544 6.93696C14.279 6.47928 14.0213 5.93636 13.9044 5.35605C13.7875 4.77575 13.815 4.17573 13.984 3.60839C14.1529 3.04105 14.4583 2.5237 14.8736 2.10188C15.2889 1.68006 15.8012 1.3666 16.3659 1.18885Z" fill="black"/>
<path d="M25.0351 0.438889C27.5886 -0.0958622 30.253 0.631665 32.7353 1.29719C35.9701 2.29432 38.963 3.95148 41.5249 6.16391C44.0868 8.37633 46.1621 11.096 47.6196 14.1511C50.1737 19.5165 50.6923 25.6267 49.0791 31.3458C49.001 31.8662 48.8054 32.3618 48.5067 32.795C48.2081 33.2282 47.8145 33.5877 47.356 33.8457C46.9757 34.036 46.5586 34.1414 46.1337 34.1547C45.7087 34.1681 45.286 34.0892 44.8945 33.9233C44.5031 33.7573 44.1522 33.5083 43.8663 33.1935C43.5805 32.8788 43.3665 32.5056 43.2389 32.1001C43.0394 31.1675 43.1428 30.1956 43.5342 29.3259C44.2299 26.6718 44.327 23.8961 43.8182 21.1999C43.3093 18.5037 42.2072 15.9546 40.5919 13.7366C38.9317 11.4666 36.7857 9.59564 34.3105 8.26048C31.8353 6.92531 29.0933 6.15952 26.2845 6.01881C25.5596 6.05852 24.8471 5.81929 24.2928 5.35036C23.7386 4.88143 23.3846 4.21843 23.3037 3.49694C23.2087 2.86702 23.3276 2.22325 23.6415 1.6689C23.9554 1.11455 24.4461 0.681467 25.0351 0.438889Z" fill="#1B8CFA"/>
<path d="M9.06277 6.43331C9.52668 6.30673 10.0141 6.29347 10.4843 6.39426C10.9545 6.49505 11.3938 6.70693 11.7651 7.01254C12.1363 7.31815 12.4287 7.70842 12.618 8.15048C12.8072 8.59253 12.8879 9.07363 12.8528 9.55322C12.7075 10.3294 12.3209 11.0399 11.7483 11.5837C9.79768 13.5398 8.30991 15.908 7.39463 18.5145C6.47936 21.1209 6.15979 23.8991 6.45909 26.6453C6.82167 30.09 8.1372 33.3655 10.258 36.104C12.3788 38.8425 15.2209 40.9357 18.4653 42.1485C19.7578 42.7148 21.4717 42.6659 22.2867 44.0051C22.588 44.4529 22.7579 44.9759 22.777 45.5153C22.7961 46.0547 22.6636 46.5886 22.3947 47.0566C22.1259 47.5245 21.7312 47.9077 21.2556 48.1629C20.7801 48.418 20.2427 48.5349 19.7041 48.5001C14.6974 47.4584 10.1592 44.8321 6.76153 41.01C2.7845 36.5749 0.541067 30.8537 0.443604 24.8974C0.451508 18.8016 2.69497 12.9205 6.7487 8.36797C7.35524 7.54821 8.1485 6.88499 9.06277 6.43331Z" fill="#1B8CFA"/>
<path d="M14.8505 18.4503C14.8167 16.6506 15.321 14.8818 16.2986 13.3704C17.2763 11.859 18.6828 10.6737 20.3381 9.96655C20.3521 11.8347 20.3591 13.7169 20.3381 15.5944C21.632 14.7214 23.0857 14.1122 24.6153 13.8017C26.145 13.4911 27.7207 13.4853 29.2526 13.7846C31.2626 14.1706 33.1414 15.062 34.7117 16.3748C36.2819 17.6877 37.4918 19.3787 38.2278 21.2886C39.1656 23.7655 39.2649 26.4819 38.5103 29.0207C37.7556 31.5594 36.1889 33.7804 34.0503 35.3429C32.6648 36.3531 31.0774 37.0522 29.3968 37.3927C27.7163 37.7332 25.9821 37.7072 24.3126 37.316C22.6193 36.8872 21.0197 36.1494 19.5944 35.1396C18.9254 35.4782 18.3101 36.0656 17.4998 35.9278C15.8652 35.964 14.7899 34.1964 14.8471 32.7019C14.8331 27.9533 14.826 23.2012 14.8505 18.4503ZM25.4964 19.0666C23.993 19.3441 22.6415 20.1579 21.6924 21.3564C20.7433 22.555 20.2612 24.0571 20.3358 25.5841C19.9692 28.7937 22.6826 31.6918 25.7499 32.1845C26.7086 32.335 27.6887 32.2768 28.6229 32.014C29.5571 31.7513 30.4236 31.2902 31.1633 30.662C31.903 30.0338 32.4984 29.2532 32.909 28.3739C33.3196 27.4945 33.5356 26.5371 33.5424 25.5667C33.5287 24.5795 33.2979 23.6072 32.8662 22.7193C32.4345 21.8313 31.8125 21.0493 31.0444 20.4289C30.2764 19.8084 29.3814 19.3648 28.4225 19.1293C27.4637 18.8939 26.4645 18.8724 25.4964 19.0666Z" fill="#1B8CFA"/>
<path d="M35.5714 39.4221L37.5237 40.5487V42.4847L35.5726 41.3579L35.5714 39.4221Z" fill="#766B1D"/>
<path d="M33.6321 42.515L35.5657 43.631L35.5469 43.6416L33.5959 42.515L35.5528 41.3777L37.5037 42.5045L37.4864 42.515L35.5528 41.3988L33.6321 42.515Z" fill="#CFB916"/>
<path d="M37.5037 40.5594V42.4952L35.5702 41.3792V39.4431L37.5037 40.5594Z" fill="#766B1D"/>
<path d="M33.5797 40.5558L35.5366 39.4185V41.3545L33.5797 42.4916V40.5558Z" fill="#B6A212"/>
<path d="M33.6194 40.5594L35.5401 39.4431V41.3792L33.6194 42.4952V40.5594Z" fill="#9D4B17"/>
<path d="M35.5401 39.4431V41.3792L33.6194 42.4952V40.5594L35.5401 39.4431Z" fill="url(#paint0_linear_1224_10497)"/>
<path d="M35.5725 39.4431L37.506 40.5594V42.4952L35.5725 41.3792V39.4431Z" fill="url(#paint1_linear_1224_10497)"/>
<path d="M37.4864 42.5149L35.5657 43.6312L33.6322 42.5149L35.5529 41.3989L37.4864 42.5149Z" fill="url(#paint2_linear_1224_10497)"/>
<path d="M33.6194 40.5793L35.5529 41.6956V43.6314L33.6194 42.5151V40.5793Z" fill="url(#paint3_linear_1224_10497)"/>
<path d="M35.5668 41.701L37.5237 40.564V42.4998L35.5668 43.6368V41.701Z" fill="#B6A212"/>
<path d="M37.5064 40.5806V42.5164L35.5857 43.6326V41.6968L37.5064 40.5806Z" fill="#9D4B17"/>
<path d="M37.5237 40.585V42.5208L35.603 43.637V41.7012L37.5237 40.585Z" fill="url(#paint4_linear_1224_10497)"/>
<g opacity="0.61">
<path opacity="0.61" d="M35.5472 41.6731V43.6092L33.6136 42.4929V40.5571L35.5472 41.6731Z" fill="url(#paint5_linear_1224_10497)"/>
</g>
<path d="M37.4688 40.5557L35.5481 41.672L33.6146 40.5557L35.5353 39.4397L37.4688 40.5557Z" fill="url(#paint6_linear_1224_10497)"/>
<path d="M35.5647 41.6837L37.4854 40.5674V42.5032L35.5647 43.6195V41.6837Z" fill="url(#paint7_linear_1224_10497)"/>
<path d="M33.6578 40.5428L35.5913 41.6591L35.5728 41.6697L33.6216 40.5428L35.5785 39.4058L37.5308 40.5326L37.512 40.5428L35.5785 39.4269L33.6578 40.5428Z" fill="#CFB916"/>
<path d="M35.5646 41.698V43.6341L35.5458 43.6443V41.7085L35.5646 41.698Z" fill="#B6A212"/>
<path d="M35.5646 41.7188V43.6546L35.5458 43.6441V41.7083L35.5646 41.7188Z" fill="#766B1D"/>
<path d="M27.9109 42.9937L29.8621 44.1202V46.056L27.9109 44.9295V42.9937Z" fill="#766B1D"/>
<path d="M25.9705 46.0878L27.904 47.204L27.8852 47.2146L25.9343 46.0878L27.8912 44.9507L29.8433 46.0775L29.8247 46.0878L27.8912 44.9718L25.9705 46.0878Z" fill="#CFB916"/>
<path d="M29.8432 44.1324V46.0682L27.9097 44.9519V43.0161L29.8432 44.1324Z" fill="#766B1D"/>
<path d="M25.9226 44.132L27.8795 42.9949V44.9307L25.9226 46.0678V44.132Z" fill="#B6A212"/>
<path d="M25.9591 44.1324L27.8795 43.0161V44.9519L25.9591 46.0682V44.1324Z" fill="#9D4B17"/>
<path d="M27.8783 43.0161V44.9519L25.9576 46.0682V44.1324L27.8783 43.0161Z" fill="url(#paint8_linear_1224_10497)"/>
<path d="M27.9097 43.0161L29.8432 44.1324V46.0682L27.9097 44.9519V43.0161Z" fill="url(#paint9_linear_1224_10497)"/>
<path d="M29.8225 46.0877L27.9018 47.2039L25.9683 46.0877L27.889 44.9717L29.8225 46.0877Z" fill="url(#paint10_linear_1224_10497)"/>
<path d="M25.9591 44.1462L27.8923 45.2625V47.1983L25.9591 46.082V44.1462Z" fill="url(#paint11_linear_1224_10497)"/>
<path d="M27.9062 45.2731L29.8631 44.1357V46.0718L27.9062 47.2089V45.2731Z" fill="#B6A212"/>
<path d="M29.8435 44.1462V46.082L27.9229 47.1983V45.2625L29.8435 44.1462Z" fill="#9D4B17"/>
<path d="M29.8621 44.158V46.0938L27.9414 47.21V45.2742L29.8621 44.158Z" fill="url(#paint12_linear_1224_10497)"/>
<g opacity="0.61">
<path opacity="0.61" d="M27.8854 45.2462V47.182L25.9519 46.066V44.1299L27.8854 45.2462Z" fill="url(#paint13_linear_1224_10497)"/>
</g>
<path d="M29.8098 44.129L27.8891 45.2452L25.9556 44.129L27.8763 43.0127L29.8098 44.129Z" fill="url(#paint14_linear_1224_10497)"/>
<path d="M27.9008 45.2569L29.8214 44.1406V46.0764L27.9008 47.1927V45.2569Z" fill="url(#paint15_linear_1224_10497)"/>
<path d="M25.9938 44.1146L27.9274 45.2309L27.9088 45.2414L25.9576 44.1146L27.9145 42.9775L29.8657 44.1041L29.8481 44.1146L27.9145 42.9983L25.9938 44.1146Z" fill="#CFB916"/>
<path d="M27.9077 45.2693V47.2051L27.8889 47.2156V45.2798L27.9077 45.2693Z" fill="#B6A212"/>
<path d="M27.9077 45.2903V47.2261L27.8889 47.2156V45.2798L27.9077 45.2903Z" fill="#766B1D"/>
<path d="M42.2266 35.9661L44.1778 37.0929V39.0287L42.2266 37.9019V35.9661Z" fill="#766B1D"/>
<path d="M40.2884 39.0599L42.2219 40.1762L42.2045 40.1867L40.2522 39.0599L42.2091 37.9229L44.16 39.0494L44.1415 39.0599L42.2079 37.9437L40.2884 39.0599Z" fill="#CFB916"/>
<path d="M44.1578 37.1033V39.0391L42.2242 37.9229V35.9871L44.1578 37.1033Z" fill="#766B1D"/>
<path d="M40.236 37.1034L42.1929 35.9661V37.9019L40.236 39.0392V37.1034Z" fill="#B6A212"/>
<path d="M40.2737 37.1033L42.1944 35.9871V37.9229L40.2737 39.0391V37.1033Z" fill="#9D4B17"/>
<path d="M42.1944 35.9871V37.9229L40.2737 39.0391V37.1033L42.1944 35.9871Z" fill="url(#paint16_linear_1224_10497)"/>
<path d="M42.2253 35.9871L44.1589 37.1033V39.0391L42.2253 37.9229V35.9871Z" fill="url(#paint17_linear_1224_10497)"/>
<path d="M44.1429 39.0604L42.2222 40.1766L40.2887 39.0604L42.2094 37.9441L44.1429 39.0604Z" fill="url(#paint18_linear_1224_10497)"/>
<path d="M40.2737 37.1208L42.2072 38.2371V40.1729L40.2737 39.0566V37.1208Z" fill="url(#paint19_linear_1224_10497)"/>
<path d="M42.2208 38.245L44.1777 37.1079V39.0437L42.2208 40.1811V38.245Z" fill="#B6A212"/>
<path d="M44.158 37.1208V39.0566L42.2373 40.1729V38.2371L44.158 37.1208Z" fill="#9D4B17"/>
<path d="M44.1766 37.1292V39.0649L42.2559 40.1812V38.2451L44.1766 37.1292Z" fill="url(#paint20_linear_1224_10497)"/>
<g opacity="0.61">
<path opacity="0.61" d="M42.2035 38.2164V40.1522L40.27 39.0359V37.1001L42.2035 38.2164Z" fill="url(#paint21_linear_1224_10497)"/>
</g>
<path d="M44.123 37.0999L42.2023 38.2162L40.2688 37.0999L42.1895 35.9836L44.123 37.0999Z" fill="url(#paint22_linear_1224_10497)"/>
<path d="M42.2211 38.2269L44.1418 37.1106V39.0464L42.2211 40.1627V38.2269Z" fill="url(#paint23_linear_1224_10497)"/>
<path d="M40.2899 37.0988L42.2234 38.2148L42.2046 38.2253L40.2537 37.0988L42.2106 35.9614L44.1626 37.0882L44.1438 37.0988L42.2106 35.9825L40.2899 37.0988Z" fill="#CFB916"/>
<path d="M42.2174 38.2417V40.1775L42.1986 40.188V38.2522L42.2174 38.2417Z" fill="#B6A212"/>
<path d="M42.2174 38.2627V40.1985L42.1986 40.188V38.2522L42.2174 38.2627Z" fill="#766B1D"/>
<g opacity="0.61">
<path opacity="0.61" d="M42.2431 44.0938V46.0296L40.3096 44.9133V42.9775L42.2431 44.0938Z" fill="url(#paint24_linear_1224_10497)"/>
</g>
<path d="M44.1616 42.9773L42.2409 44.0936L40.3074 42.9773L42.2281 41.8613L44.1616 42.9773Z" fill="url(#paint25_linear_1224_10497)"/>
<path d="M42.2572 44.104L44.1779 42.988V44.9238L42.2572 46.0401V44.104Z" fill="url(#paint26_linear_1224_10497)"/>
<g opacity="0.61">
<path opacity="0.61" d="M35.074 48.2444V50.1802L33.1405 49.064V47.1282L35.074 48.2444Z" fill="url(#paint27_linear_1224_10497)"/>
</g>
<path d="M36.9961 47.1282L35.0754 48.2445L33.1418 47.1282L35.0625 46.012L36.9961 47.1282Z" fill="url(#paint28_linear_1224_10497)"/>
<path d="M35.0916 48.2549L37.0122 47.1387V49.0745L35.0916 50.1907V48.2549Z" fill="url(#paint29_linear_1224_10497)"/>
<g opacity="0.61">
<path opacity="0.61" d="M42.2537 50.5108V52.4466L40.3202 51.3306V49.3945L42.2537 50.5108Z" fill="url(#paint30_linear_1224_10497)"/>
</g>
<path d="M44.1732 49.3946L42.2525 50.5109L40.319 49.3946L42.2397 48.2783L44.1732 49.3946Z" fill="url(#paint31_linear_1224_10497)"/>
<path d="M42.2712 50.5215L44.1919 49.4053V51.3411L42.2712 52.4573V50.5215Z" fill="url(#paint32_linear_1224_10497)"/>
<defs>
<linearGradient id="paint0_linear_1224_10497" x1="33.6194" y1="40.9691" x2="35.5401" y2="40.9691" gradientUnits="userSpaceOnUse">
<stop stop-color="#743687"/>
<stop offset="0.109" stop-color="#62327E"/>
<stop offset="0.375" stop-color="#3C2A6B"/>
<stop offset="0.621" stop-color="#20255E"/>
<stop offset="0.837" stop-color="#0F2255"/>
<stop offset="1" stop-color="#0A2153"/>
</linearGradient>
<linearGradient id="paint1_linear_1224_10497" x1="36.5393" y1="42.4952" x2="36.5393" y2="39.4431" gradientUnits="userSpaceOnUse">
<stop stop-color="#743687"/>
<stop offset="0.109" stop-color="#62327E"/>
<stop offset="0.375" stop-color="#3C2A6B"/>
<stop offset="0.621" stop-color="#20255E"/>
<stop offset="0.837" stop-color="#0F2255"/>
<stop offset="1" stop-color="#0A2153"/>
</linearGradient>
<linearGradient id="paint2_linear_1224_10497" x1="33.6322" y1="42.5151" x2="37.4864" y2="42.5151" gradientUnits="userSpaceOnUse">
<stop stop-color="#A18CC0"/>
<stop offset="0.674" stop-color="#564492"/>
<stop offset="1" stop-color="#37277F"/>
</linearGradient>
<linearGradient id="paint3_linear_1224_10497" x1="33.6194" y1="42.1054" x2="35.5529" y2="42.1054" gradientUnits="userSpaceOnUse">
<stop stop-color="#A18CC0"/>
<stop offset="0.674" stop-color="#564492"/>
<stop offset="1" stop-color="#37277F"/>
</linearGradient>
<linearGradient id="paint4_linear_1224_10497" x1="35.603" y1="42.111" x2="37.5237" y2="42.111" gradientUnits="userSpaceOnUse">
<stop stop-color="#A18CC0"/>
<stop offset="0.674" stop-color="#564492"/>
<stop offset="1" stop-color="#37277F"/>
</linearGradient>
<linearGradient id="paint5_linear_1224_10497" x1="33.6136" y1="42.0832" x2="35.5472" y2="42.0832" gradientUnits="userSpaceOnUse">
<stop stop-color="#4FBDEB"/>
<stop offset="1" stop-color="#1B519F"/>
</linearGradient>
<linearGradient id="paint6_linear_1224_10497" x1="33.6146" y1="40.5558" x2="37.4688" y2="40.5558" gradientUnits="userSpaceOnUse">
<stop stop-color="#4FBDEB"/>
<stop offset="1" stop-color="#1B519F"/>
</linearGradient>
<linearGradient id="paint7_linear_1224_10497" x1="35.5647" y1="42.0934" x2="37.4854" y2="42.0934" gradientUnits="userSpaceOnUse">
<stop stop-color="#4FBDEB"/>
<stop offset="1" stop-color="#1B519F"/>
</linearGradient>
<linearGradient id="paint8_linear_1224_10497" x1="25.9576" y1="44.5421" x2="27.8783" y2="44.5421" gradientUnits="userSpaceOnUse">
<stop stop-color="#743687"/>
<stop offset="0.109" stop-color="#62327E"/>
<stop offset="0.375" stop-color="#3C2A6B"/>
<stop offset="0.621" stop-color="#20255E"/>
<stop offset="0.837" stop-color="#0F2255"/>
<stop offset="1" stop-color="#0A2153"/>
</linearGradient>
<linearGradient id="paint9_linear_1224_10497" x1="28.8764" y1="46.0682" x2="28.8764" y2="43.0161" gradientUnits="userSpaceOnUse">
<stop stop-color="#743687"/>
<stop offset="0.109" stop-color="#62327E"/>
<stop offset="0.375" stop-color="#3C2A6B"/>
<stop offset="0.621" stop-color="#20255E"/>
<stop offset="0.837" stop-color="#0F2255"/>
<stop offset="1" stop-color="#0A2153"/>
</linearGradient>
<linearGradient id="paint10_linear_1224_10497" x1="25.9683" y1="46.0878" x2="29.8225" y2="46.0878" gradientUnits="userSpaceOnUse">
<stop stop-color="#A18CC0"/>
<stop offset="0.674" stop-color="#564492"/>
<stop offset="1" stop-color="#37277F"/>
</linearGradient>
<linearGradient id="paint11_linear_1224_10497" x1="25.9591" y1="45.6723" x2="27.8923" y2="45.6723" gradientUnits="userSpaceOnUse">
<stop stop-color="#A18CC0"/>
<stop offset="0.674" stop-color="#564492"/>
<stop offset="1" stop-color="#37277F"/>
</linearGradient>
<linearGradient id="paint12_linear_1224_10497" x1="27.9414" y1="45.684" x2="29.8621" y2="45.684" gradientUnits="userSpaceOnUse">
<stop stop-color="#A18CC0"/>
<stop offset="0.674" stop-color="#564492"/>
<stop offset="1" stop-color="#37277F"/>
</linearGradient>
<linearGradient id="paint13_linear_1224_10497" x1="25.9519" y1="45.6559" x2="27.8854" y2="45.6559" gradientUnits="userSpaceOnUse">
<stop stop-color="#4FBDEB"/>
<stop offset="1" stop-color="#1B519F"/>
</linearGradient>
<linearGradient id="paint14_linear_1224_10497" x1="25.9556" y1="44.129" x2="29.8098" y2="44.129" gradientUnits="userSpaceOnUse">
<stop stop-color="#4FBDEB"/>
<stop offset="1" stop-color="#1B519F"/>
</linearGradient>
<linearGradient id="paint15_linear_1224_10497" x1="27.9008" y1="45.6667" x2="29.8214" y2="45.6667" gradientUnits="userSpaceOnUse">
<stop stop-color="#4FBDEB"/>
<stop offset="1" stop-color="#1B519F"/>
</linearGradient>
<linearGradient id="paint16_linear_1224_10497" x1="40.2737" y1="37.5131" x2="42.1944" y2="37.5131" gradientUnits="userSpaceOnUse">
<stop stop-color="#743687"/>
<stop offset="0.109" stop-color="#62327E"/>
<stop offset="0.375" stop-color="#3C2A6B"/>
<stop offset="0.621" stop-color="#20255E"/>
<stop offset="0.837" stop-color="#0F2255"/>
<stop offset="1" stop-color="#0A2153"/>
</linearGradient>
<linearGradient id="paint17_linear_1224_10497" x1="43.1921" y1="39.0391" x2="43.1921" y2="35.9871" gradientUnits="userSpaceOnUse">
<stop stop-color="#743687"/>
<stop offset="0.109" stop-color="#62327E"/>
<stop offset="0.375" stop-color="#3C2A6B"/>
<stop offset="0.621" stop-color="#20255E"/>
<stop offset="0.837" stop-color="#0F2255"/>
<stop offset="1" stop-color="#0A2153"/>
</linearGradient>
<linearGradient id="paint18_linear_1224_10497" x1="40.2887" y1="39.0604" x2="44.1429" y2="39.0604" gradientUnits="userSpaceOnUse">
<stop stop-color="#A18CC0"/>
<stop offset="0.674" stop-color="#564492"/>
<stop offset="1" stop-color="#37277F"/>
</linearGradient>
<linearGradient id="paint19_linear_1224_10497" x1="40.2737" y1="38.6469" x2="42.2072" y2="38.6469" gradientUnits="userSpaceOnUse">
<stop stop-color="#A18CC0"/>
<stop offset="0.674" stop-color="#564492"/>
<stop offset="1" stop-color="#37277F"/>
</linearGradient>
<linearGradient id="paint20_linear_1224_10497" x1="42.2559" y1="38.6552" x2="44.1766" y2="38.6552" gradientUnits="userSpaceOnUse">
<stop stop-color="#A18CC0"/>
<stop offset="0.674" stop-color="#564492"/>
<stop offset="1" stop-color="#37277F"/>
</linearGradient>
<linearGradient id="paint21_linear_1224_10497" x1="40.27" y1="38.6261" x2="42.2035" y2="38.6261" gradientUnits="userSpaceOnUse">
<stop stop-color="#4FBDEB"/>
<stop offset="1" stop-color="#1B519F"/>
</linearGradient>
<linearGradient id="paint22_linear_1224_10497" x1="40.2688" y1="37.0999" x2="44.123" y2="37.0999" gradientUnits="userSpaceOnUse">
<stop stop-color="#4FBDEB"/>
<stop offset="1" stop-color="#1B519F"/>
</linearGradient>
<linearGradient id="paint23_linear_1224_10497" x1="42.2211" y1="38.6366" x2="44.1418" y2="38.6366" gradientUnits="userSpaceOnUse">
<stop stop-color="#4FBDEB"/>
<stop offset="1" stop-color="#1B519F"/>
</linearGradient>
<linearGradient id="paint24_linear_1224_10497" x1="40.3096" y1="44.5036" x2="42.2431" y2="44.5036" gradientUnits="userSpaceOnUse">
<stop stop-color="#4FBDEB"/>
<stop offset="1" stop-color="#1B519F"/>
</linearGradient>
<linearGradient id="paint25_linear_1224_10497" x1="40.3074" y1="42.9775" x2="44.1616" y2="42.9775" gradientUnits="userSpaceOnUse">
<stop stop-color="#4FBDEB"/>
<stop offset="1" stop-color="#1B519F"/>
</linearGradient>
<linearGradient id="paint26_linear_1224_10497" x1="42.2572" y1="44.5141" x2="44.1779" y2="44.5141" gradientUnits="userSpaceOnUse">
<stop stop-color="#4FBDEB"/>
<stop offset="1" stop-color="#1B519F"/>
</linearGradient>
<linearGradient id="paint27_linear_1224_10497" x1="33.1405" y1="48.6542" x2="35.074" y2="48.6542" gradientUnits="userSpaceOnUse">
<stop stop-color="#4FBDEB"/>
<stop offset="1" stop-color="#1B519F"/>
</linearGradient>
<linearGradient id="paint28_linear_1224_10497" x1="33.1418" y1="47.1282" x2="36.9961" y2="47.1282" gradientUnits="userSpaceOnUse">
<stop stop-color="#4FBDEB"/>
<stop offset="1" stop-color="#1B519F"/>
</linearGradient>
<linearGradient id="paint29_linear_1224_10497" x1="35.0916" y1="48.6647" x2="37.0122" y2="48.6647" gradientUnits="userSpaceOnUse">
<stop stop-color="#4FBDEB"/>
<stop offset="1" stop-color="#1B519F"/>
</linearGradient>
<linearGradient id="paint30_linear_1224_10497" x1="40.3202" y1="50.9206" x2="42.2537" y2="50.9206" gradientUnits="userSpaceOnUse">
<stop stop-color="#4FBDEB"/>
<stop offset="1" stop-color="#1B519F"/>
</linearGradient>
<linearGradient id="paint31_linear_1224_10497" x1="40.319" y1="49.3946" x2="44.1732" y2="49.3946" gradientUnits="userSpaceOnUse">
<stop stop-color="#4FBDEB"/>
<stop offset="1" stop-color="#1B519F"/>
</linearGradient>
<linearGradient id="paint32_linear_1224_10497" x1="42.2712" y1="50.9313" x2="44.1919" y2="50.9313" gradientUnits="userSpaceOnUse">
<stop stop-color="#4FBDEB"/>
<stop offset="1" stop-color="#1B519F"/>
</linearGradient>
</defs>
</svg>
