<svg width="64" height="64" viewBox="0 0 64 64" fill="none" xmlns="http://www.w3.org/2000/svg">
<rect width="64" height="64" rx="8" fill="#EA445A"/>
<path d="M42.8644 18.2407C39.4316 17.8836 35.983 18.0622 32.5413 18.017C32.2407 18.017 31.9424 18.0125 31.6418 18.017C27.9424 18.078 24.2249 17.8091 20.5548 18.4735C16.9729 19.1221 15.0972 21.0271 14.4554 24.5751C14.3108 25.3819 14.2407 26.2068 14.1933 27.0271C13.8724 32.4508 14.0554 37.8791 14.0238 43.3073C14.0147 44.722 14.8238 45.635 16.0283 45.6937C17.1537 45.748 17.965 44.948 18.1865 43.5672C18.3899 42.3084 19.113 41.6372 20.2475 41.6553C21.3594 41.6757 22.0712 42.383 22.2565 43.6598C22.4418 44.9231 23.1582 45.6553 24.2384 45.6847C25.3616 45.7141 26.1435 44.9593 26.3379 43.6598C26.53 42.3627 27.2125 41.6802 28.3401 41.6576C29.5085 41.6327 30.2045 42.3062 30.4237 43.6711C30.6249 44.9254 31.3684 45.6711 32.4441 45.696C33.5695 45.7208 34.3559 44.9706 34.5616 43.6689C34.774 42.3288 35.4113 41.6802 36.5412 41.6576C37.7254 41.6327 38.4328 42.3039 38.6542 43.6666C38.878 45.0384 39.7051 45.7864 40.8734 45.6756C41.983 45.5694 42.7175 44.6926 42.7356 43.4112C42.7537 42.1389 42.7085 40.8644 42.7627 39.5943C42.8124 38.3785 43.7209 37.5627 44.8802 37.5898C45.9695 37.6147 46.7785 38.4576 46.8034 39.6418C46.8305 40.9141 46.8056 42.1864 46.835 43.4587C46.8666 44.7491 47.7367 45.6802 48.8711 45.6892C50.0508 45.6982 50.9593 44.8124 50.957 43.5152C50.9457 37.8271 51.1446 32.1344 50.7717 26.4508C50.4169 21.0836 48.2067 18.7966 42.8644 18.2407ZM44.7175 33.5559C43.6373 33.5017 42.7514 32.5842 42.7469 31.513C42.7423 30.3695 43.6712 29.4542 44.8124 29.4768C46.0011 29.5017 46.8237 30.3627 46.7988 31.5559C46.774 32.6972 45.8226 33.6124 44.7175 33.5559Z" fill="white"/>
</svg>
