<svg width="64" height="64" viewBox="0 0 64 64" fill="none" xmlns="http://www.w3.org/2000/svg">
<path d="M9.65822 37.4241L0.658352 19.0038C0.211838 18.09 0 17.1212 0 16.1679C0 13.7734 1.33436 11.4712 3.63131 10.3487C6.84206 8.77968 10.7174 10.1109 12.2864 13.3227L20.9042 30.9611C20.6196 31.554 18.3092 36.2663 15.9967 37.4231C13.5772 38.6307 9.80567 37.4698 9.65822 37.4241Z" fill="url(#paint0_linear_478_4445)"/>
<path d="M64 15.6518C64 16.4545 63.8505 17.2718 63.5327 18.062L50.5495 50.3886C49.2173 53.7053 45.4499 55.3138 42.1322 53.9825C38.8155 52.6503 37.2071 48.8808 38.5383 45.5652L51.5215 13.2375C52.8538 9.92192 56.6211 8.31239 59.9388 9.6457C62.4652 10.6592 64 13.087 64 15.6518Z" fill="url(#paint1_linear_478_4445)"/>
<path d="M40.721 17.8844L27.7378 50.2111C26.4045 53.5288 22.6382 55.1373 19.3195 53.806C17.4669 53.0615 16.1492 51.5599 15.5781 49.8009L10.0029 38.1271C10.0029 38.1271 13.8813 39.3618 16.3496 38.1271C16.387 38.1084 16.4244 38.0887 16.4618 38.069C16.5064 38.043 16.5511 38.0171 16.5957 37.9911C18.6289 36.7595 20.605 32.9849 21.1429 31.8988C21.145 31.8967 21.147 31.8936 21.147 31.8915L28.7098 13.061C30.0431 9.74438 33.8094 8.13692 37.1281 9.46712C39.6556 10.4827 41.1893 12.9105 41.1893 15.4764C41.1883 16.2791 41.0377 17.0953 40.721 17.8844Z" fill="url(#paint2_linear_478_4445)"/>
<defs>
<linearGradient id="paint0_linear_478_4445" x1="10.4522" y1="9.68994" x2="10.4522" y2="37.9702" gradientUnits="userSpaceOnUse">
<stop stop-color="#FBCC5C"/>
<stop offset="0.5161" stop-color="#FBCC5C"/>
<stop offset="1" stop-color="#36CF7D"/>
</linearGradient>
<linearGradient id="paint1_linear_478_4445" x1="51.0359" y1="54.4496" x2="51.0359" y2="9.17647" gradientUnits="userSpaceOnUse">
<stop stop-color="#36CF7D"/>
<stop offset="0.4839" stop-color="#FBCC5C"/>
<stop offset="1" stop-color="#FBCC5C"/>
</linearGradient>
<linearGradient id="paint2_linear_478_4445" x1="25.5957" y1="54.2737" x2="25.5957" y2="9.00044" gradientUnits="userSpaceOnUse">
<stop stop-color="#36CF7D"/>
<stop offset="0.4839" stop-color="#FBCC5C"/>
<stop offset="1" stop-color="#FBCC5C"/>
</linearGradient>
</defs>
</svg>
