<svg width="2106" height="1788" viewBox="0 0 2106 1788" fill="none" xmlns="http://www.w3.org/2000/svg">
<g filter="url(#filter0_f_691_12519)">
<path d="M1705.32 978.596C1705.32 883.485 1680.46 789.843 1632.94 705.963C1585.42 622.082 1516.7 550.554 1432.89 497.714C1349.07 444.873 1252.73 412.351 1152.41 403.029C1052.08 393.706 950.871 407.871 857.736 444.268C764.602 480.665 682.418 538.172 618.466 611.693C554.514 685.215 510.767 772.482 491.1 865.765C471.433 959.048 476.454 1055.47 505.717 1146.48C534.98 1237.5 587.582 1320.3 658.865 1387.55L1092.32 978.596H1705.32Z" fill="url(#paint0_linear_691_12519)"/>
</g>
<g filter="url(#filter1_f_691_12519)">
<path d="M1631.37 1041.09C1642.31 988.137 1624.12 930.023 1578.43 871.892C1532.73 813.76 1460.93 757.405 1369.39 707.819C1277.85 658.233 1169.39 616.947 1053.62 587.617C937.857 558.286 818.353 541.818 705.699 539.67C593.044 537.522 490.716 549.761 407.778 575.302C324.841 600.844 263.854 638.9 230.219 686.099C196.585 733.298 191.342 788.184 214.954 845.895C238.566 903.605 290.305 962.359 365.587 1016.95L917.445 893.583L1631.37 1041.09Z" fill="url(#paint1_linear_691_12519)" fill-opacity="0.64"/>
</g>
<defs>
<filter id="filter0_f_691_12519" x="79.3213" y="0.243652" width="2026" height="1787.31" filterUnits="userSpaceOnUse" color-interpolation-filters="sRGB">
<feFlood flood-opacity="0" result="BackgroundImageFix"/>
<feBlend mode="normal" in="SourceGraphic" in2="BackgroundImageFix" result="shape"/>
<feGaussianBlur stdDeviation="200" result="effect1_foregroundBlur_691_12519"/>
</filter>
<filter id="filter1_f_691_12519" x="0.430908" y="339.429" width="1834.03" height="901.658" filterUnits="userSpaceOnUse" color-interpolation-filters="sRGB">
<feFlood flood-opacity="0" result="BackgroundImageFix"/>
<feBlend mode="normal" in="SourceGraphic" in2="BackgroundImageFix" result="shape"/>
<feGaussianBlur stdDeviation="100" result="effect1_foregroundBlur_691_12519"/>
</filter>
<linearGradient id="paint0_linear_691_12519" x1="1264.06" y1="493.193" x2="216.663" y2="1179.21" gradientUnits="userSpaceOnUse">
<stop stop-color="#A9EEB9"/>
<stop offset="1" stop-color="#5848F5"/>
</linearGradient>
<linearGradient id="paint1_linear_691_12519" x1="1173.29" y1="664.679" x2="396" y2="1369.57" gradientUnits="userSpaceOnUse">
<stop stop-color="#FFB428"/>
<stop offset="1" stop-color="#CC00FF"/>
</linearGradient>
</defs>
</svg>
