<svg width="711" height="560" viewBox="0 0 711 560" fill="none" xmlns="http://www.w3.org/2000/svg">
<g filter="url(#filter0_f_478_4114)">
<path d="M526.296 602.698C591.626 606.545 655.492 590.301 709.611 556.073C763.73 521.844 805.605 471.211 829.807 410.74C854.009 350.268 859.42 282.747 845.34 216.934C831.259 151.12 798.336 90.0501 750.84 41.6428C703.344 -6.76446 643.466 -40.2756 578.971 -54.5449C514.476 -68.8142 448.34 -63.1834 389.139 -38.3826C329.937 -13.5818 280.402 29.2448 246.957 84.5435C213.512 139.842 197.7 205.062 201.571 271.744L408.234 270.954C406.821 246.618 412.592 222.816 424.798 202.635C437.004 182.453 455.082 166.824 476.687 157.773C498.293 148.722 522.429 146.667 545.967 151.874C569.504 157.082 591.357 169.312 608.691 186.978C626.025 204.644 638.04 226.932 643.179 250.951C648.317 274.97 646.343 299.611 637.51 321.681C628.678 343.75 613.395 362.229 593.644 374.72C573.893 387.212 550.585 393.14 526.743 391.737L526.296 602.698Z" fill="url(#paint0_linear_478_4114)" fill-opacity="0.4"/>
</g>
<path fill-rule="evenodd" clip-rule="evenodd" d="M303.585 203.6C303.585 140.308 354.81 89 418 89C481.19 89 532.415 140.308 532.415 203.6V356.4C532.415 419.692 481.19 471 418 471C354.81 471 303.585 419.692 303.585 356.4V203.6ZM341.723 346.85C341.723 389.045 375.873 423.25 418 423.25C460.127 423.25 494.277 389.045 494.277 346.85V213.15C494.277 170.955 460.127 136.75 418 136.75C375.873 136.75 341.723 170.955 341.723 213.15V346.85Z" fill="url(#paint1_linear_478_4114)"/>
<path fill-rule="evenodd" clip-rule="evenodd" d="M341.6 394.416C278.308 394.416 227 343.19 227 280C227 216.81 278.308 165.585 341.6 165.585L494.4 165.585C557.692 165.585 609 216.81 609 280C609 343.19 557.692 394.416 494.4 394.416H341.6ZM484.85 356.277C527.045 356.277 561.25 322.127 561.25 280C561.25 237.873 527.045 203.723 484.85 203.723L351.15 203.723C308.955 203.723 274.75 237.873 274.75 280C274.75 322.127 308.955 356.277 351.15 356.277H484.85Z" fill="url(#paint2_linear_478_4114)"/>
<defs>
<filter id="filter0_f_478_4114" x="0.998337" y="-262.253" width="1052" height="1065.51" filterUnits="userSpaceOnUse" color-interpolation-filters="sRGB">
<feFlood flood-opacity="0" result="BackgroundImageFix"/>
<feBlend mode="normal" in="SourceGraphic" in2="BackgroundImageFix" result="shape"/>
<feGaussianBlur stdDeviation="100" result="effect1_foregroundBlur_478_4114"/>
</filter>
<linearGradient id="paint0_linear_478_4114" x1="801.307" y1="195.124" x2="158.977" y2="-62.8342" gradientUnits="userSpaceOnUse">
<stop stop-color="#5848F5"/>
<stop offset="1" stop-color="#68E2A3"/>
</linearGradient>
<linearGradient id="paint1_linear_478_4114" x1="417.999" y1="230.478" x2="394.06" y2="475.303" gradientUnits="userSpaceOnUse">
<stop stop-color="#5848F5"/>
<stop offset="1" stop-color="white" stop-opacity="0"/>
</linearGradient>
<linearGradient id="paint2_linear_478_4114" x1="523.795" y1="349.668" x2="552.271" y2="161.939" gradientUnits="userSpaceOnUse">
<stop stop-color="#5848F5"/>
<stop offset="1" stop-color="white" stop-opacity="0"/>
</linearGradient>
</defs>
</svg>
