<svg width="833" height="388" viewBox="0 0 833 388" fill="none" xmlns="http://www.w3.org/2000/svg">
<g filter="url(#filter0_f_478_4114)">
<path d="M633 231.5C633 178.958 619.251 127.227 592.971 80.8887C566.691 34.5508 528.692 -4.96372 482.338 -34.1545C435.985 -63.3454 382.708 -81.3115 327.228 -86.4615C271.747 -91.6115 215.776 -83.7865 164.27 -63.6795C112.765 -43.5725 67.3162 -11.8042 31.9495 28.8113C-3.41725 69.4269 -27.6101 117.636 -38.4862 169.169C-49.3623 220.701 -46.5858 273.966 -30.4028 324.246C-14.2197 374.526 14.8704 420.268 54.2908 457.421L294 231.5H633Z" fill="url(#paint0_linear_478_4114)" fill-opacity="0.7"/>
</g>
<circle cx="410.629" cy="69.0609" r="43.2984" transform="rotate(-90 410.629 69.0609)" fill="url(#paint1_linear_478_4114)"/>
<circle cx="160.617" cy="319.071" r="43.2984" transform="rotate(-90 160.617 319.071)" fill="url(#paint2_linear_478_4114)"/>
<circle cx="161.406" cy="69.8474" r="43.2984" transform="rotate(-90 161.406 69.8474)" fill="url(#paint3_linear_478_4114)"/>
<circle cx="410.629" cy="319.071" r="43.2984" transform="rotate(-90 410.629 319.071)" fill="url(#paint4_linear_478_4114)"/>
<circle cx="109.233" cy="193.904" r="43.2984" transform="rotate(-45 109.233 193.904)" fill="url(#paint5_linear_478_4114)"/>
<circle cx="286.018" cy="18.2332" r="43.2984" transform="rotate(-45 286.018 18.2332)" fill="url(#paint6_linear_478_4114)"/>
<circle cx="286.018" cy="370.688" r="43.2984" transform="rotate(-45 286.018 370.688)" fill="url(#paint7_linear_478_4114)"/>
<circle cx="462.802" cy="193.904" r="43.2984" transform="rotate(-45 462.802 193.904)" fill="url(#paint8_linear_478_4114)"/>
<circle cx="200.221" cy="279.717" r="29.6244" transform="rotate(-90 200.221 279.717)" fill="url(#paint9_linear_478_4114)"/>
<circle cx="200.758" cy="109.201" r="29.6244" transform="rotate(-90 200.758 109.201)" fill="url(#paint10_linear_478_4114)"/>
<circle cx="371.274" cy="279.717" r="29.6244" transform="rotate(-90 371.274 279.717)" fill="url(#paint11_linear_478_4114)"/>
<circle cx="165.063" cy="194.079" r="29.6244" transform="rotate(-45 165.063 194.079)" fill="url(#paint12_linear_478_4114)"/>
<circle r="29.6244" transform="matrix(0.707109 -0.707105 0.707109 0.707105 286.017 73.8872)" fill="url(#paint13_linear_478_4114)"/>
<circle cx="286.017" cy="315.034" r="29.6244" transform="rotate(-45 286.017 315.034)" fill="url(#paint14_linear_478_4114)"/>
<circle cx="406.971" cy="194.079" r="29.6244" transform="rotate(-45 406.971 194.079)" fill="url(#paint15_linear_478_4114)"/>
<circle cx="371.274" cy="108.664" r="29.6244" transform="rotate(-90 371.274 108.664)" fill="url(#paint16_linear_478_4114)"/>
<circle cx="225.803" cy="254.297" r="20.7914" transform="rotate(-90 225.803 254.297)" fill="url(#paint17_linear_478_4114)"/>
<circle cx="226.181" cy="134.623" r="20.7914" transform="rotate(-90 226.181 134.623)" fill="url(#paint18_linear_478_4114)"/>
<circle cx="345.855" cy="254.297" r="20.7914" transform="rotate(-90 345.855 254.297)" fill="url(#paint19_linear_478_4114)"/>
<circle cx="201.128" cy="194.193" r="20.7914" transform="rotate(-45 201.128 194.193)" fill="url(#paint20_linear_478_4114)"/>
<circle cx="286.019" cy="109.838" r="20.7914" transform="rotate(-45 286.019 109.838)" fill="url(#paint21_linear_478_4114)"/>
<circle cx="286.019" cy="279.083" r="20.7914" transform="rotate(-45 286.019 279.083)" fill="url(#paint22_linear_478_4114)"/>
<circle cx="370.906" cy="194.193" r="20.7914" transform="rotate(-45 370.906 194.193)" fill="url(#paint23_linear_478_4114)"/>
<circle cx="345.855" cy="134.245" r="20.7914" transform="rotate(-90 345.855 134.245)" fill="url(#paint24_linear_478_4114)"/>
<defs>
<filter id="filter0_f_478_4114" x="-245" y="-288" width="1078" height="945.421" filterUnits="userSpaceOnUse" color-interpolation-filters="sRGB">
<feFlood flood-opacity="0" result="BackgroundImageFix"/>
<feBlend mode="normal" in="SourceGraphic" in2="BackgroundImageFix" result="shape"/>
<feGaussianBlur stdDeviation="100" result="effect1_foregroundBlur_478_4114"/>
</filter>
<linearGradient id="paint0_linear_478_4114" x1="388.975" y1="-36.6519" x2="-189.886" y2="342.887" gradientUnits="userSpaceOnUse">
<stop stop-color="#FFDF70"/>
<stop offset="1" stop-color="#48F5EB"/>
</linearGradient>
<linearGradient id="paint1_linear_478_4114" x1="410.628" y1="25.7625" x2="410.628" y2="112.359" gradientUnits="userSpaceOnUse">
<stop stop-color="white"/>
<stop offset="1" stop-color="#C4C4C4" stop-opacity="0"/>
</linearGradient>
<linearGradient id="paint2_linear_478_4114" x1="160.617" y1="275.772" x2="160.617" y2="362.369" gradientUnits="userSpaceOnUse">
<stop stop-color="white"/>
<stop offset="1" stop-color="#C4C4C4" stop-opacity="0"/>
</linearGradient>
<linearGradient id="paint3_linear_478_4114" x1="161.406" y1="26.549" x2="161.406" y2="113.146" gradientUnits="userSpaceOnUse">
<stop stop-color="white"/>
<stop offset="1" stop-color="#C4C4C4" stop-opacity="0"/>
</linearGradient>
<linearGradient id="paint4_linear_478_4114" x1="410.628" y1="275.772" x2="410.628" y2="362.369" gradientUnits="userSpaceOnUse">
<stop stop-color="white"/>
<stop offset="1" stop-color="#C4C4C4" stop-opacity="0"/>
</linearGradient>
<linearGradient id="paint5_linear_478_4114" x1="109.233" y1="150.606" x2="109.233" y2="237.203" gradientUnits="userSpaceOnUse">
<stop stop-color="white"/>
<stop offset="1" stop-color="#C4C4C4" stop-opacity="0"/>
</linearGradient>
<linearGradient id="paint6_linear_478_4114" x1="286.018" y1="-25.0652" x2="286.018" y2="61.5317" gradientUnits="userSpaceOnUse">
<stop stop-color="white"/>
<stop offset="1" stop-color="#C4C4C4" stop-opacity="0"/>
</linearGradient>
<linearGradient id="paint7_linear_478_4114" x1="286.018" y1="327.39" x2="286.018" y2="413.987" gradientUnits="userSpaceOnUse">
<stop stop-color="white"/>
<stop offset="1" stop-color="#C4C4C4" stop-opacity="0"/>
</linearGradient>
<linearGradient id="paint8_linear_478_4114" x1="462.802" y1="150.606" x2="462.802" y2="237.202" gradientUnits="userSpaceOnUse">
<stop stop-color="white"/>
<stop offset="1" stop-color="#C4C4C4" stop-opacity="0"/>
</linearGradient>
<linearGradient id="paint9_linear_478_4114" x1="200.221" y1="250.093" x2="200.221" y2="309.342" gradientUnits="userSpaceOnUse">
<stop stop-color="white"/>
<stop offset="1" stop-color="#C4C4C4" stop-opacity="0"/>
</linearGradient>
<linearGradient id="paint10_linear_478_4114" x1="200.758" y1="79.5769" x2="200.758" y2="138.826" gradientUnits="userSpaceOnUse">
<stop stop-color="white"/>
<stop offset="1" stop-color="#C4C4C4" stop-opacity="0"/>
</linearGradient>
<linearGradient id="paint11_linear_478_4114" x1="371.274" y1="250.093" x2="371.274" y2="309.342" gradientUnits="userSpaceOnUse">
<stop stop-color="white"/>
<stop offset="1" stop-color="#C4C4C4" stop-opacity="0"/>
</linearGradient>
<linearGradient id="paint12_linear_478_4114" x1="165.063" y1="164.455" x2="165.063" y2="223.704" gradientUnits="userSpaceOnUse">
<stop stop-color="white"/>
<stop offset="1" stop-color="#C4C4C4" stop-opacity="0"/>
</linearGradient>
<linearGradient id="paint13_linear_478_4114" x1="29.6244" y1="0" x2="29.6244" y2="59.2488" gradientUnits="userSpaceOnUse">
<stop stop-color="white"/>
<stop offset="1" stop-color="#C4C4C4" stop-opacity="0"/>
</linearGradient>
<linearGradient id="paint14_linear_478_4114" x1="286.017" y1="285.409" x2="286.017" y2="344.658" gradientUnits="userSpaceOnUse">
<stop stop-color="white"/>
<stop offset="1" stop-color="#C4C4C4" stop-opacity="0"/>
</linearGradient>
<linearGradient id="paint15_linear_478_4114" x1="406.971" y1="164.455" x2="406.971" y2="223.704" gradientUnits="userSpaceOnUse">
<stop stop-color="white"/>
<stop offset="1" stop-color="#C4C4C4" stop-opacity="0"/>
</linearGradient>
<linearGradient id="paint16_linear_478_4114" x1="371.274" y1="79.0393" x2="371.274" y2="138.288" gradientUnits="userSpaceOnUse">
<stop stop-color="white"/>
<stop offset="1" stop-color="#C4C4C4" stop-opacity="0"/>
</linearGradient>
<linearGradient id="paint17_linear_478_4114" x1="225.803" y1="233.505" x2="225.803" y2="275.088" gradientUnits="userSpaceOnUse">
<stop stop-color="white"/>
<stop offset="1" stop-color="#C4C4C4" stop-opacity="0"/>
</linearGradient>
<linearGradient id="paint18_linear_478_4114" x1="226.181" y1="113.831" x2="226.181" y2="155.414" gradientUnits="userSpaceOnUse">
<stop stop-color="white"/>
<stop offset="1" stop-color="#C4C4C4" stop-opacity="0"/>
</linearGradient>
<linearGradient id="paint19_linear_478_4114" x1="345.855" y1="233.505" x2="345.855" y2="275.088" gradientUnits="userSpaceOnUse">
<stop stop-color="white"/>
<stop offset="1" stop-color="#C4C4C4" stop-opacity="0"/>
</linearGradient>
<linearGradient id="paint20_linear_478_4114" x1="201.128" y1="173.402" x2="201.128" y2="214.984" gradientUnits="userSpaceOnUse">
<stop stop-color="white"/>
<stop offset="1" stop-color="#C4C4C4" stop-opacity="0"/>
</linearGradient>
<linearGradient id="paint21_linear_478_4114" x1="286.019" y1="89.0467" x2="286.019" y2="130.629" gradientUnits="userSpaceOnUse">
<stop stop-color="white"/>
<stop offset="1" stop-color="#C4C4C4" stop-opacity="0"/>
</linearGradient>
<linearGradient id="paint22_linear_478_4114" x1="286.019" y1="258.291" x2="286.019" y2="299.874" gradientUnits="userSpaceOnUse">
<stop stop-color="white"/>
<stop offset="1" stop-color="#C4C4C4" stop-opacity="0"/>
</linearGradient>
<linearGradient id="paint23_linear_478_4114" x1="370.906" y1="173.402" x2="370.906" y2="214.985" gradientUnits="userSpaceOnUse">
<stop stop-color="white"/>
<stop offset="1" stop-color="#C4C4C4" stop-opacity="0"/>
</linearGradient>
<linearGradient id="paint24_linear_478_4114" x1="345.855" y1="113.454" x2="345.855" y2="155.037" gradientUnits="userSpaceOnUse">
<stop stop-color="white"/>
<stop offset="1" stop-color="#C4C4C4" stop-opacity="0"/>
</linearGradient>
</defs>
</svg>
