<svg width="327" height="378" viewBox="0 0 327 378" fill="none" xmlns="http://www.w3.org/2000/svg">
<g filter="url(#filter0_f_1224_10165)">
<path d="M359.254 310.5C359.254 279.172 351.056 248.328 335.387 220.699C319.717 193.07 297.06 169.51 269.422 152.105C241.784 134.7 210.019 123.988 176.939 120.917C143.859 117.847 110.486 122.512 79.7762 134.501C49.0665 146.49 21.9679 165.431 0.880665 189.648C-20.2065 213.865 -34.6314 242.609 -41.1162 273.335C-47.601 304.061 -45.9455 335.82 -36.2965 365.799C-26.6474 395.778 -9.30264 423.052 14.2015 445.204L157.127 310.5H359.254Z" fill="url(#paint0_linear_1224_10165)" fill-opacity="0.7"/>
</g>
<circle cx="226.666" cy="157.646" r="25.8164" transform="rotate(-90 226.666 157.646)" fill="url(#paint1_linear_1224_10165)"/>
<circle cx="77.5982" cy="306.713" r="25.8164" transform="rotate(-90 77.5982 306.713)" fill="url(#paint2_linear_1224_10165)"/>
<circle cx="78.0684" cy="158.116" r="25.8164" transform="rotate(-90 78.0684 158.116)" fill="url(#paint3_linear_1224_10165)"/>
<circle cx="226.666" cy="306.713" r="25.8164" transform="rotate(-90 226.666 306.713)" fill="url(#paint4_linear_1224_10165)"/>
<circle cx="46.9606" cy="232.084" r="25.8164" transform="rotate(-45 46.9606 232.084)" fill="url(#paint5_linear_1224_10165)"/>
<circle cx="152.367" cy="127.341" r="25.8164" transform="rotate(-45 152.367 127.341)" fill="url(#paint6_linear_1224_10165)"/>
<circle cx="152.367" cy="337.49" r="25.8164" transform="rotate(-45 152.367 337.49)" fill="url(#paint7_linear_1224_10165)"/>
<circle cx="257.774" cy="232.084" r="25.8164" transform="rotate(-45 257.774 232.084)" fill="url(#paint8_linear_1224_10165)"/>
<circle cx="101.211" cy="283.249" r="17.6634" transform="rotate(-90 101.211 283.249)" fill="url(#paint9_linear_1224_10165)"/>
<circle cx="101.532" cy="181.58" r="17.6634" transform="rotate(-90 101.532 181.58)" fill="url(#paint10_linear_1224_10165)"/>
<circle cx="203.201" cy="283.249" r="17.6634" transform="rotate(-90 203.201 283.249)" fill="url(#paint11_linear_1224_10165)"/>
<circle cx="80.2486" cy="232.188" r="17.6634" transform="rotate(-45 80.2486 232.188)" fill="url(#paint12_linear_1224_10165)"/>
<circle r="17.6634" transform="matrix(0.707109 -0.707105 0.707109 0.707105 152.367 160.524)" fill="url(#paint13_linear_1224_10165)"/>
<circle cx="152.367" cy="304.307" r="17.6634" transform="rotate(-45 152.367 304.307)" fill="url(#paint14_linear_1224_10165)"/>
<circle cx="224.485" cy="232.188" r="17.6634" transform="rotate(-45 224.485 232.188)" fill="url(#paint15_linear_1224_10165)"/>
<circle cx="203.201" cy="181.259" r="17.6634" transform="rotate(-90 203.201 181.259)" fill="url(#paint16_linear_1224_10165)"/>
<circle cx="116.464" cy="268.093" r="12.3967" transform="rotate(-90 116.464 268.093)" fill="url(#paint17_linear_1224_10165)"/>
<circle cx="116.69" cy="196.738" r="12.3967" transform="rotate(-90 116.69 196.738)" fill="url(#paint18_linear_1224_10165)"/>
<circle cx="188.045" cy="268.093" r="12.3967" transform="rotate(-90 188.045 268.093)" fill="url(#paint19_linear_1224_10165)"/>
<circle cx="101.752" cy="232.256" r="12.3967" transform="rotate(-45 101.752 232.256)" fill="url(#paint20_linear_1224_10165)"/>
<circle cx="152.368" cy="181.959" r="12.3967" transform="rotate(-45 152.368 181.959)" fill="url(#paint21_linear_1224_10165)"/>
<circle cx="152.368" cy="282.871" r="12.3967" transform="rotate(-45 152.368 282.871)" fill="url(#paint22_linear_1224_10165)"/>
<circle cx="202.982" cy="232.256" r="12.3967" transform="rotate(-45 202.982 232.256)" fill="url(#paint23_linear_1224_10165)"/>
<circle cx="188.045" cy="196.512" r="12.3967" transform="rotate(-90 188.045 196.512)" fill="url(#paint24_linear_1224_10165)"/>
<defs>
<filter id="filter0_f_1224_10165" x="-164.249" y="0.751167" width="642.751" height="563.701" filterUnits="userSpaceOnUse" color-interpolation-filters="sRGB">
<feFlood flood-opacity="0" result="BackgroundImageFix"/>
<feBlend mode="normal" in="SourceGraphic" in2="BackgroundImageFix" result="shape"/>
<feGaussianBlur stdDeviation="59.6244" result="effect1_foregroundBlur_1224_10165"/>
</filter>
<linearGradient id="paint0_linear_1224_10165" x1="213.755" y1="150.616" x2="-131.387" y2="376.914" gradientUnits="userSpaceOnUse">
<stop stop-color="#FFDF70"/>
<stop offset="1" stop-color="#48F5EB"/>
</linearGradient>
<linearGradient id="paint1_linear_1224_10165" x1="226.666" y1="131.83" x2="226.666" y2="183.463" gradientUnits="userSpaceOnUse">
<stop stop-color="white"/>
<stop offset="1" stop-color="#C4C4C4" stop-opacity="0"/>
</linearGradient>
<linearGradient id="paint2_linear_1224_10165" x1="77.5982" y1="280.897" x2="77.5982" y2="332.53" gradientUnits="userSpaceOnUse">
<stop stop-color="white"/>
<stop offset="1" stop-color="#C4C4C4" stop-opacity="0"/>
</linearGradient>
<linearGradient id="paint3_linear_1224_10165" x1="78.0684" y1="132.299" x2="78.0684" y2="183.932" gradientUnits="userSpaceOnUse">
<stop stop-color="white"/>
<stop offset="1" stop-color="#C4C4C4" stop-opacity="0"/>
</linearGradient>
<linearGradient id="paint4_linear_1224_10165" x1="226.666" y1="280.897" x2="226.666" y2="332.53" gradientUnits="userSpaceOnUse">
<stop stop-color="white"/>
<stop offset="1" stop-color="#C4C4C4" stop-opacity="0"/>
</linearGradient>
<linearGradient id="paint5_linear_1224_10165" x1="46.9606" y1="206.268" x2="46.9606" y2="257.9" gradientUnits="userSpaceOnUse">
<stop stop-color="white"/>
<stop offset="1" stop-color="#C4C4C4" stop-opacity="0"/>
</linearGradient>
<linearGradient id="paint6_linear_1224_10165" x1="152.367" y1="101.524" x2="152.367" y2="153.157" gradientUnits="userSpaceOnUse">
<stop stop-color="white"/>
<stop offset="1" stop-color="#C4C4C4" stop-opacity="0"/>
</linearGradient>
<linearGradient id="paint7_linear_1224_10165" x1="152.367" y1="311.674" x2="152.367" y2="363.307" gradientUnits="userSpaceOnUse">
<stop stop-color="white"/>
<stop offset="1" stop-color="#C4C4C4" stop-opacity="0"/>
</linearGradient>
<linearGradient id="paint8_linear_1224_10165" x1="257.774" y1="206.268" x2="257.774" y2="257.9" gradientUnits="userSpaceOnUse">
<stop stop-color="white"/>
<stop offset="1" stop-color="#C4C4C4" stop-opacity="0"/>
</linearGradient>
<linearGradient id="paint9_linear_1224_10165" x1="101.211" y1="265.586" x2="101.211" y2="300.913" gradientUnits="userSpaceOnUse">
<stop stop-color="white"/>
<stop offset="1" stop-color="#C4C4C4" stop-opacity="0"/>
</linearGradient>
<linearGradient id="paint10_linear_1224_10165" x1="101.532" y1="163.917" x2="101.532" y2="199.244" gradientUnits="userSpaceOnUse">
<stop stop-color="white"/>
<stop offset="1" stop-color="#C4C4C4" stop-opacity="0"/>
</linearGradient>
<linearGradient id="paint11_linear_1224_10165" x1="203.201" y1="265.586" x2="203.201" y2="300.913" gradientUnits="userSpaceOnUse">
<stop stop-color="white"/>
<stop offset="1" stop-color="#C4C4C4" stop-opacity="0"/>
</linearGradient>
<linearGradient id="paint12_linear_1224_10165" x1="80.2486" y1="214.525" x2="80.2486" y2="249.852" gradientUnits="userSpaceOnUse">
<stop stop-color="white"/>
<stop offset="1" stop-color="#C4C4C4" stop-opacity="0"/>
</linearGradient>
<linearGradient id="paint13_linear_1224_10165" x1="17.6634" y1="0" x2="17.6634" y2="35.3268" gradientUnits="userSpaceOnUse">
<stop stop-color="white"/>
<stop offset="1" stop-color="#C4C4C4" stop-opacity="0"/>
</linearGradient>
<linearGradient id="paint14_linear_1224_10165" x1="152.367" y1="286.643" x2="152.367" y2="321.97" gradientUnits="userSpaceOnUse">
<stop stop-color="white"/>
<stop offset="1" stop-color="#C4C4C4" stop-opacity="0"/>
</linearGradient>
<linearGradient id="paint15_linear_1224_10165" x1="224.485" y1="214.525" x2="224.485" y2="249.852" gradientUnits="userSpaceOnUse">
<stop stop-color="white"/>
<stop offset="1" stop-color="#C4C4C4" stop-opacity="0"/>
</linearGradient>
<linearGradient id="paint16_linear_1224_10165" x1="203.201" y1="163.596" x2="203.201" y2="198.923" gradientUnits="userSpaceOnUse">
<stop stop-color="white"/>
<stop offset="1" stop-color="#C4C4C4" stop-opacity="0"/>
</linearGradient>
<linearGradient id="paint17_linear_1224_10165" x1="116.464" y1="255.696" x2="116.464" y2="280.489" gradientUnits="userSpaceOnUse">
<stop stop-color="white"/>
<stop offset="1" stop-color="#C4C4C4" stop-opacity="0"/>
</linearGradient>
<linearGradient id="paint18_linear_1224_10165" x1="116.69" y1="184.341" x2="116.69" y2="209.134" gradientUnits="userSpaceOnUse">
<stop stop-color="white"/>
<stop offset="1" stop-color="#C4C4C4" stop-opacity="0"/>
</linearGradient>
<linearGradient id="paint19_linear_1224_10165" x1="188.045" y1="255.696" x2="188.045" y2="280.489" gradientUnits="userSpaceOnUse">
<stop stop-color="white"/>
<stop offset="1" stop-color="#C4C4C4" stop-opacity="0"/>
</linearGradient>
<linearGradient id="paint20_linear_1224_10165" x1="101.752" y1="219.859" x2="101.752" y2="244.653" gradientUnits="userSpaceOnUse">
<stop stop-color="white"/>
<stop offset="1" stop-color="#C4C4C4" stop-opacity="0"/>
</linearGradient>
<linearGradient id="paint21_linear_1224_10165" x1="152.368" y1="169.563" x2="152.368" y2="194.356" gradientUnits="userSpaceOnUse">
<stop stop-color="white"/>
<stop offset="1" stop-color="#C4C4C4" stop-opacity="0"/>
</linearGradient>
<linearGradient id="paint22_linear_1224_10165" x1="152.368" y1="270.474" x2="152.368" y2="295.268" gradientUnits="userSpaceOnUse">
<stop stop-color="white"/>
<stop offset="1" stop-color="#C4C4C4" stop-opacity="0"/>
</linearGradient>
<linearGradient id="paint23_linear_1224_10165" x1="202.982" y1="219.86" x2="202.982" y2="244.653" gradientUnits="userSpaceOnUse">
<stop stop-color="white"/>
<stop offset="1" stop-color="#C4C4C4" stop-opacity="0"/>
</linearGradient>
<linearGradient id="paint24_linear_1224_10165" x1="188.045" y1="184.116" x2="188.045" y2="208.909" gradientUnits="userSpaceOnUse">
<stop stop-color="white"/>
<stop offset="1" stop-color="#C4C4C4" stop-opacity="0"/>
</linearGradient>
</defs>
</svg>
