<svg width="202" height="34" viewBox="0 0 202 34" fill="none" xmlns="http://www.w3.org/2000/svg">
  <path d="M10.0123 8.29027C10.0123 8.29027 9.98076 8.29818 9.96498 8.30214C9.91372 8.31004 9.8664 8.3219 9.81513 8.33376C9.75598 8.34958 9.69683 8.36144 9.63768 8.38121C9.59036 8.39702 9.54304 8.41679 9.49572 8.43655C9.44051 8.46028 9.3853 8.484 9.33404 8.51167C9.29066 8.53539 9.24729 8.56307 9.20391 8.59074C9.15264 8.62237 9.10532 8.654 9.06194 8.68958C9.02251 8.72121 8.98308 8.75283 8.94759 8.78841C8.90421 8.82795 8.86083 8.86748 8.8214 8.91097C8.78591 8.94655 8.75436 8.98609 8.72281 9.02562C8.68732 9.07307 8.65183 9.11655 8.62028 9.16795C8.59268 9.21144 8.56508 9.25493 8.54142 9.29841C8.51381 9.34981 8.48621 9.40121 8.46255 9.45655C8.44283 9.504 8.42311 9.55144 8.4034 9.59888C8.38368 9.65423 8.36791 9.71353 8.35213 9.76888C8.34425 9.80051 8.33242 9.82818 8.32453 9.85586C8.32453 9.87562 8.32453 9.89539 8.32059 9.91516C8.31664 9.94283 8.30876 9.96655 8.30481 9.99423H8.3127C8.30087 10.0773 8.2851 10.1642 8.2851 10.2591V10.2828L8.32453 10.6584C8.50987 11.5638 9.30644 12.2438 10.2647 12.2438H10.2765C10.2883 11.1566 11.1638 10.2789 12.2482 10.267V10.2552C12.2482 9.76493 12.0708 9.31818 11.7789 8.97423C11.4162 8.5433 10.872 8.27051 10.2647 8.27051C10.174 8.27051 10.0872 8.28237 10.0005 8.29423V8.28632L10.0123 8.29027Z" fill="black"/>
  <path d="M18.8534 28.4888C17.8163 29.4771 16.1877 29.4771 15.1505 28.4888C15.0401 28.5718 14.9376 28.6627 14.839 28.7616C13.6442 29.9595 13.6442 31.9006 14.839 33.0985C16.0339 34.2964 17.9701 34.2964 19.1649 33.0985C20.3598 31.9006 20.3598 29.9595 19.1649 28.7616C19.0663 28.6627 18.9599 28.5718 18.8534 28.4888Z" fill="black"/>
  <path d="M7.54372 23.8158C7.40176 23.796 7.25585 23.7842 7.10994 23.7842C5.41823 23.7842 4.04987 25.156 4.04987 26.8521C4.04987 28.5481 5.41823 29.92 7.10994 29.92C8.80166 29.92 10.17 28.5481 10.17 26.8521C10.17 26.7098 10.1621 26.5714 10.1424 26.437C8.72279 26.3895 7.58315 25.2391 7.54372 23.8158Z" fill="black"/>
  <path d="M26.4129 10.1247C26.5469 10.1445 26.685 10.1524 26.8269 10.1524C28.5186 10.1524 29.887 8.78055 29.887 7.08451C29.887 5.38846 28.5186 4.0166 26.8269 4.0166C25.1352 4.0166 23.7668 5.38846 23.7668 7.08451C23.7668 7.23079 23.7787 7.37707 23.7984 7.51939C25.218 7.55893 26.3655 8.70149 26.4129 10.1247Z" fill="black"/>
  <path d="M7.17305 10.2159C7.31502 10.2159 7.45304 10.208 7.58711 10.1882C7.6226 8.75706 8.77802 7.59868 10.2055 7.5631C10.2252 7.42868 10.2331 7.29031 10.2331 7.14799C10.2331 5.45194 8.86477 4.08008 7.17305 4.08008C5.48134 4.08008 4.11298 5.45194 4.11298 7.14799C4.11298 8.84403 5.48134 10.2159 7.17305 10.2159Z" fill="black"/>
  <path d="M5.49707 18.8108C4.527 17.771 4.53094 16.1501 5.5089 15.1143C5.42215 14.9996 5.32751 14.8889 5.22498 14.7861C4.03013 13.5882 2.09392 13.5882 0.899068 14.7861C-0.295783 15.984 -0.295783 17.9252 0.899068 19.1231C2.09392 20.321 4.03013 20.321 5.22498 19.1231C5.32356 19.0243 5.41426 18.9175 5.49707 18.8108Z" fill="black"/>
  <path d="M26.8269 23.7842C26.685 23.7842 26.5469 23.7921 26.4129 23.8119C26.3774 25.243 25.222 26.4014 23.7944 26.437C23.7747 26.5714 23.7668 26.7098 23.7668 26.8521C23.7668 28.5442 25.1352 29.92 26.8269 29.92C28.5186 29.92 29.887 28.5481 29.887 26.8521C29.887 25.156 28.5186 23.7842 26.8269 23.7842Z" fill="black"/>
  <path d="M33.1048 14.7861C31.91 13.5882 29.9738 13.5882 28.7789 14.7861C28.6764 14.8889 28.5817 14.9996 28.495 15.1143C29.473 16.1501 29.4769 17.771 28.5068 18.8108C28.5896 18.9215 28.6803 19.0243 28.7789 19.1231C29.9738 20.321 31.91 20.321 33.1048 19.1231C34.2997 17.9252 34.2997 15.984 33.1048 14.7861Z" fill="black"/>
  <path d="M14.839 0.897454C13.6442 2.09536 13.6442 4.03652 14.839 5.23443C14.9376 5.33327 15.0441 5.4242 15.1505 5.50722C16.1877 4.51885 17.8163 4.51885 18.8534 5.50722C18.9638 5.4242 19.0663 5.33327 19.1649 5.23443C20.3598 4.03652 20.3598 2.09536 19.1649 0.897454C17.9701 -0.300453 16.0339 -0.300453 14.839 0.897454Z" fill="black"/>
  <path d="M23.9877 25.7093C23.9877 25.7093 24.0192 25.7014 24.035 25.6975C24.0863 25.6896 24.1336 25.6777 24.1849 25.6659C24.244 25.65 24.3032 25.6382 24.3623 25.6184C24.4096 25.6026 24.457 25.5828 24.5043 25.5631C24.5595 25.5393 24.6147 25.5156 24.666 25.488C24.7093 25.4642 24.7527 25.4366 24.7961 25.4089C24.8474 25.3773 24.8947 25.3456 24.942 25.31C24.9814 25.2784 25.0209 25.2468 25.0564 25.2112C25.0997 25.1717 25.1431 25.1321 25.1826 25.0887C25.218 25.0531 25.2496 25.0135 25.2811 24.974C25.3166 24.9266 25.3521 24.8831 25.3837 24.8317C25.4113 24.7882 25.4389 24.7447 25.4625 24.7012C25.4901 24.6498 25.5177 24.5984 25.5414 24.5431C25.5611 24.4956 25.5808 24.4482 25.6006 24.4007C25.6203 24.3454 25.636 24.2861 25.6518 24.2307C25.6597 24.1991 25.6715 24.1714 25.6794 24.1438C25.6794 24.124 25.6794 24.1042 25.6834 24.0845C25.6873 24.0568 25.6952 24.0331 25.6991 24.0054H25.6913C25.7031 23.9224 25.7189 23.8354 25.7189 23.7405C25.7189 22.6454 24.8316 21.7559 23.7393 21.7559H23.7274C23.7156 22.8431 22.8402 23.7207 21.7557 23.7326V23.7445C21.7557 24.8396 22.643 25.7291 23.7353 25.7291C23.826 25.7291 23.9128 25.7173 23.9995 25.7054V25.7133L23.9877 25.7093Z" fill="black"/>
  <path d="M24.9578 16.7509C24.9538 16.7272 24.946 16.7035 24.942 16.6837C24.9302 16.6323 24.9144 16.5809 24.8947 16.5295C24.8829 16.5018 24.871 16.4781 24.8592 16.4504C24.8395 16.403 24.8158 16.3595 24.7882 16.316C24.7724 16.2923 24.7567 16.2646 24.7409 16.2409C24.7291 16.2251 24.7212 16.2093 24.7133 16.1974V16.2053C24.6778 16.1618 24.6423 16.1144 24.6029 16.0709C24.1021 15.5688 23.2858 15.5688 22.785 16.0709C22.2842 16.573 22.2842 17.3874 22.785 17.8935C23.2858 18.3956 24.1021 18.3956 24.6029 17.8935C24.6463 17.85 24.6817 17.8025 24.7172 17.7551V17.763C24.7172 17.763 24.737 17.7353 24.7448 17.7235C24.7606 17.6997 24.7764 17.676 24.7922 17.6483C24.8198 17.6049 24.8434 17.5614 24.8631 17.5139C24.875 17.4863 24.8868 17.4625 24.8986 17.4349C24.9184 17.3874 24.9302 17.336 24.942 17.2846C24.946 17.2609 24.9538 17.2372 24.9578 17.2095C24.9696 17.1423 24.9775 17.0711 24.9775 17C24.9775 16.9921 24.9775 16.9881 24.9775 16.9802C24.9775 16.9051 24.9696 16.826 24.9538 16.7509H24.9578Z" fill="black"/>
  <path d="M28.5029 16.7432C28.495 16.6839 28.4871 16.6286 28.4753 16.5693C28.4635 16.5218 28.4516 16.4704 28.4398 16.423C28.424 16.3677 28.4043 16.3084 28.3846 16.253C28.3649 16.2056 28.3491 16.1581 28.3255 16.1146C28.2978 16.0593 28.2702 16.0079 28.2387 15.9565C28.2229 15.9288 28.2111 15.9011 28.1953 15.8735C28.1835 15.8577 28.1717 15.8458 28.1598 15.83C28.1441 15.8102 28.1362 15.7865 28.1204 15.7667V15.7746C28.0612 15.6995 28.01 15.6244 27.9429 15.5611C27.17 14.7863 25.916 14.7863 25.1392 15.5611L25.1234 15.577C25.8766 16.3518 25.8805 17.5853 25.1313 18.3602L25.1392 18.3681C25.8175 19.0481 26.8625 19.1311 27.6314 18.6211C27.7418 18.55 27.8444 18.463 27.9429 18.3681C28.0139 18.297 28.0691 18.2218 28.1283 18.1467C28.1283 18.1467 28.1401 18.1309 28.148 18.123C28.1756 18.0835 28.1993 18.04 28.2269 17.9965C28.2584 17.9411 28.2939 17.8898 28.3215 17.8344C28.3452 17.7909 28.3609 17.7435 28.3767 17.696C28.4004 17.6407 28.4201 17.5853 28.4398 17.526C28.4556 17.4786 28.4635 17.4311 28.4753 17.3837C28.4871 17.3244 28.499 17.2691 28.5068 17.2097C28.5147 17.1623 28.5147 17.1109 28.5187 17.0635C28.5187 17.0042 28.5226 16.9449 28.5187 16.8856C28.5187 16.8342 28.5108 16.7867 28.5068 16.7353L28.5029 16.7432Z" fill="black"/>
  <path d="M23.7117 12.2043H23.7235C24.8158 12.2043 25.7031 11.3148 25.7031 10.2197C25.7031 10.1208 25.6873 10.0259 25.6755 9.93105H25.6834C25.6834 9.93105 25.6716 9.89152 25.6676 9.8678C25.6597 9.82431 25.6479 9.78082 25.64 9.73733C25.6203 9.66221 25.5966 9.5871 25.569 9.51198C25.5533 9.47245 25.5375 9.42896 25.5178 9.38942C25.4823 9.31431 25.4468 9.2471 25.4034 9.17594C25.3837 9.14431 25.364 9.10873 25.3443 9.0771C25.2812 8.98617 25.2141 8.90314 25.1392 8.82408C25.1313 8.81617 25.1274 8.81221 25.1234 8.80431C25.0406 8.72128 24.9499 8.64617 24.8513 8.57896C24.8198 8.55919 24.7882 8.54338 24.7606 8.52361C24.6897 8.48012 24.6187 8.44059 24.5437 8.40501C24.5043 8.38524 24.4649 8.37338 24.4215 8.35756C24.3505 8.32989 24.2756 8.30617 24.1967 8.2864C24.1534 8.27454 24.11 8.26663 24.0666 8.25873C24.0429 8.25477 24.0193 8.24687 23.9917 8.24291V8.25082C23.9049 8.23896 23.8142 8.22314 23.7196 8.22314C22.6273 8.22314 21.74 9.11268 21.74 10.2078V10.2315C22.8205 10.2434 23.692 11.1131 23.7117 12.1964V12.2043Z" fill="black"/>
  <path d="M8.86478 15.565C8.09188 14.7902 6.83788 14.7902 6.06103 15.565C5.99399 15.6323 5.94273 15.7074 5.88752 15.7785V15.7706C5.88752 15.7706 5.85991 15.8102 5.84414 15.8299C5.81654 15.8655 5.79682 15.9051 5.77316 15.9446C5.73372 16.0118 5.69823 16.079 5.66669 16.1462C5.64697 16.1857 5.6312 16.2292 5.61542 16.2688C5.58782 16.3439 5.5681 16.4151 5.54838 16.4941C5.5405 16.5337 5.52867 16.5692 5.52078 16.6088C5.50501 16.7037 5.49318 16.8025 5.48923 16.8974C5.48923 16.9132 5.48529 16.929 5.48529 16.9488C5.48529 16.9488 5.48529 16.9527 5.48529 16.9567C5.48529 16.9844 5.48923 17.012 5.48923 17.0357C5.48923 17.1109 5.49712 17.186 5.50501 17.2571C5.50895 17.2967 5.52078 17.3323 5.52867 17.3678C5.5405 17.4311 5.55233 17.4904 5.57205 17.5537C5.58388 17.5932 5.59965 17.6327 5.61542 17.6723C5.63514 17.7276 5.6588 17.7869 5.6864 17.8383C5.70612 17.8778 5.72978 17.9174 5.7495 17.9569C5.76922 17.9925 5.78499 18.0281 5.80865 18.0597C5.81654 18.0716 5.83231 18.0834 5.8402 18.0992C5.85203 18.119 5.86386 18.1388 5.87569 18.1585V18.1506C5.93484 18.2257 5.99399 18.3048 6.06103 18.376C6.15961 18.4748 6.26214 18.5578 6.37256 18.629C7.14152 19.139 8.18652 19.052 8.86478 18.376L8.87267 18.3681C8.12343 17.5892 8.12737 16.3557 8.88056 15.5848L8.86478 15.569V15.565Z" fill="black"/>
  <path d="M21.882 23.0092C21.882 23.0092 21.9174 23.0013 21.9372 22.9974C21.9687 22.9934 21.9963 22.9855 22.0279 22.9776C22.0752 22.9657 22.1225 22.9499 22.1698 22.9341C22.1974 22.9222 22.225 22.9143 22.2526 22.9025C22.3 22.8788 22.3473 22.855 22.3907 22.8274C22.4104 22.8155 22.434 22.8036 22.4537 22.7878C22.5168 22.7443 22.576 22.6969 22.6273 22.6415C22.6825 22.5862 22.7298 22.5269 22.7732 22.4636C22.7889 22.4439 22.7968 22.4202 22.8126 22.4004C22.8402 22.3569 22.8639 22.3095 22.8875 22.262C22.8994 22.2343 22.9112 22.2067 22.9191 22.179C22.9348 22.1315 22.9506 22.0841 22.9624 22.0367C22.9703 22.009 22.9782 21.9774 22.9822 21.9457C22.9822 21.926 22.9901 21.9102 22.994 21.8904H22.9861C22.994 21.839 23.0019 21.7836 23.0019 21.7283C23.0019 21.0167 22.4261 20.4395 21.7163 20.4395C21.0065 20.4395 20.4308 21.0167 20.4308 21.7283C20.4308 22.4399 21.0065 23.0171 21.7163 23.0171C21.7715 23.0171 21.8267 23.0092 21.882 23.0013V23.0092Z" fill="black"/>
  <path d="M10.2568 21.756H10.2331C9.14081 21.756 8.25354 22.6455 8.25354 23.7406C8.25354 23.8355 8.26931 23.9264 8.28114 24.0174H8.27326C8.27326 24.0371 8.28509 24.0608 8.28903 24.0846C8.28903 24.1043 8.28903 24.1201 8.29297 24.1399C8.30086 24.1715 8.31269 24.1992 8.32058 24.2308C8.33635 24.2901 8.35212 24.3455 8.37184 24.4048C8.38762 24.4522 8.40733 24.4997 8.42705 24.5471C8.45071 24.6025 8.47831 24.6539 8.50592 24.7053C8.52958 24.7487 8.55718 24.7922 8.58479 24.8318C8.61633 24.8792 8.65182 24.9267 8.68731 24.9741C8.71886 25.0136 8.75041 25.0492 8.78196 25.0887C8.82139 25.1322 8.86477 25.1718 8.90814 25.2113C8.94364 25.2429 8.97913 25.2785 9.01856 25.3062C9.06588 25.3418 9.1132 25.3774 9.16447 25.409C9.2039 25.4367 9.24728 25.4643 9.29065 25.4841C9.34192 25.5118 9.39713 25.5355 9.45628 25.5592C9.49965 25.579 9.54698 25.5987 9.59035 25.6146C9.6495 25.6343 9.70866 25.6501 9.77175 25.662C9.81907 25.6739 9.86639 25.6857 9.91371 25.6936C9.92554 25.6936 9.93737 25.7015 9.9492 25.7015C10.0438 25.7094 10.1385 25.7213 10.2371 25.7213C11.3294 25.7213 12.2167 24.8318 12.2167 23.7367V23.7248C11.1401 23.705 10.2726 22.8313 10.2568 21.748V21.756Z" fill="black"/>
  <path d="M18.3999 25.1285L18.392 25.1206C17.6191 25.8797 16.3809 25.8797 15.604 25.1206L15.5961 25.1285C15.4976 25.2273 15.4147 25.3301 15.3438 25.4408C14.8351 26.2118 14.9218 27.2594 15.5961 27.9394C15.6592 28.0027 15.7342 28.0541 15.8051 28.1094H15.7933C15.813 28.1292 15.8367 28.1411 15.8604 28.1569C15.8761 28.1687 15.888 28.1846 15.9037 28.1925C15.9313 28.2083 15.9589 28.2201 15.9865 28.236C16.0378 28.2676 16.0891 28.2953 16.1443 28.319C16.1916 28.3427 16.2389 28.3625 16.2862 28.3783C16.3414 28.398 16.3967 28.4178 16.4519 28.4336C16.4992 28.4494 16.5504 28.4613 16.6017 28.4692C16.6569 28.4811 16.7161 28.489 16.7713 28.4969C16.8225 28.5008 16.8699 28.5087 16.9211 28.5087C16.9803 28.5087 17.0355 28.5087 17.0946 28.5087C17.1459 28.5087 17.1932 28.5048 17.2445 28.4969C17.3036 28.489 17.3588 28.4771 17.418 28.4653C17.4693 28.4534 17.5166 28.4455 17.5639 28.4297C17.6191 28.4139 17.6743 28.3901 17.7295 28.3704C17.7768 28.3506 17.8242 28.3348 17.8715 28.3111C17.9267 28.2834 17.978 28.2518 18.0292 28.2201C18.0726 28.1925 18.116 28.1687 18.1594 28.1371C18.1712 28.1292 18.187 28.1213 18.1988 28.1134H18.1909C18.2619 28.058 18.3329 28.0027 18.396 27.9394C19.1689 27.1646 19.1689 25.9074 18.396 25.1285H18.3999Z" fill="black"/>
  <path d="M15.5094 6.15949C14.9179 6.83949 14.8627 7.82391 15.3477 8.55926C15.4187 8.66996 15.5055 8.77275 15.6001 8.87159L15.608 8.87949C16.3809 8.12042 17.6191 8.12042 18.396 8.87949L18.4038 8.87159C19.0821 8.19159 19.1649 7.14391 18.6562 6.37298C18.5852 6.26228 18.4985 6.15949 18.4038 6.06066C18.3408 5.9974 18.2658 5.946 18.1948 5.89066H18.2067C18.187 5.87089 18.1633 5.85903 18.1396 5.84321C18.1002 5.81554 18.0647 5.79182 18.0253 5.7681C17.9582 5.72856 17.8912 5.69298 17.8202 5.66135C17.7808 5.64159 17.7414 5.62577 17.698 5.60996C17.6231 5.58228 17.5442 5.55856 17.4653 5.54275C17.4298 5.53484 17.3904 5.52298 17.3549 5.51507C17.2405 5.49531 17.1222 5.47949 17.0039 5.47949C16.8856 5.47949 16.7713 5.49135 16.653 5.51507C16.6175 5.52298 16.582 5.53484 16.5426 5.54275C16.4637 5.56252 16.3848 5.58228 16.3099 5.61391C16.2665 5.62972 16.2271 5.64949 16.1877 5.66531C16.1167 5.69693 16.0496 5.73252 15.9826 5.77205C15.9432 5.79577 15.9037 5.81949 15.8682 5.84717C15.8446 5.86298 15.8209 5.87484 15.8012 5.89066H15.813C15.7421 5.94996 15.6711 6.00135 15.604 6.06461C15.5725 6.09624 15.5409 6.12786 15.5133 6.16345L15.5094 6.15949Z" fill="black"/>
  <path d="M16.093 11.2201C16.5938 11.7222 17.4101 11.7222 17.9109 11.2201C18.4117 10.718 18.4117 9.89961 17.9109 9.39752C17.8715 9.35798 17.8241 9.32636 17.7808 9.29077H17.7887C17.7887 9.29077 17.7571 9.26705 17.7413 9.25915C17.7177 9.24333 17.6901 9.22752 17.6664 9.2117C17.623 9.18403 17.5797 9.16426 17.5323 9.14054C17.5047 9.12868 17.4811 9.11682 17.4535 9.10496C17.4022 9.08519 17.3549 9.07333 17.2997 9.06147C17.276 9.05752 17.2524 9.04961 17.2287 9.04566C17.0788 9.01798 16.9251 9.01798 16.7713 9.04566C16.7476 9.04961 16.7239 9.05752 16.7003 9.06147C16.649 9.07333 16.5977 9.08915 16.5465 9.10496C16.5189 9.11682 16.4952 9.12868 16.4676 9.14054C16.4203 9.16031 16.3769 9.18403 16.3335 9.2117C16.3059 9.22752 16.2823 9.24333 16.2586 9.2631C16.2428 9.27496 16.2271 9.28287 16.2113 9.29473H16.2192C16.1758 9.33031 16.1285 9.36194 16.089 9.40147C15.5882 9.90357 15.5882 10.718 16.089 11.224L16.093 11.2201Z" fill="black"/>
  <path d="M16.093 24.6025C16.1324 24.642 16.1797 24.6736 16.2231 24.7092H16.2152C16.2152 24.7092 16.2468 24.7329 16.2626 24.7408C16.2862 24.7566 16.3138 24.7764 16.3375 24.7922C16.3809 24.8199 16.4242 24.8397 16.4716 24.8634C16.4992 24.8752 16.5228 24.8871 16.5504 24.899C16.6017 24.9187 16.649 24.9306 16.7003 24.9425C16.7239 24.9464 16.7476 24.9543 16.7713 24.9622C16.8462 24.9741 16.9211 24.9859 17 24.9859C17.0749 24.9859 17.1498 24.978 17.2248 24.9622C17.2484 24.9583 17.2721 24.9504 17.2957 24.9425C17.347 24.9306 17.3983 24.9148 17.4456 24.899C17.4732 24.8871 17.5008 24.8752 17.5284 24.8634C17.5718 24.8436 17.6151 24.8199 17.6585 24.7922C17.6861 24.7764 17.7098 24.7606 17.7374 24.7408C17.7532 24.729 17.7689 24.7211 17.7847 24.7092H17.7768C17.8202 24.6736 17.8675 24.642 17.907 24.6025C18.4078 24.1004 18.4078 23.282 17.907 22.7799C17.4061 22.2778 16.5899 22.2778 16.089 22.7799C15.5882 23.282 15.5882 24.1004 16.089 24.6025H16.093Z" fill="black"/>
  <path d="M21.7202 13.5288C22.4301 13.5288 23.0058 12.9516 23.0058 12.24C23.0058 12.1768 22.9979 12.1214 22.9861 12.0621H22.994C22.994 12.0621 22.9861 12.0344 22.9821 12.0186C22.9782 11.9909 22.9703 11.9633 22.9624 11.9316C22.9506 11.8802 22.9348 11.8328 22.919 11.7854C22.9072 11.7577 22.8993 11.73 22.8875 11.7063C22.8638 11.6588 22.8402 11.6114 22.8126 11.5679C22.8007 11.5481 22.7889 11.5244 22.7731 11.5047C22.7337 11.4454 22.6864 11.39 22.6391 11.3386C22.6391 11.3386 22.6312 11.3307 22.6272 11.3268C22.572 11.2714 22.5129 11.224 22.4498 11.1805C22.4301 11.1686 22.4103 11.1568 22.3906 11.1449C22.3433 11.1172 22.296 11.0895 22.2487 11.0658C22.225 11.054 22.1974 11.0461 22.1698 11.0342C22.1225 11.0144 22.0751 11.0026 22.0239 10.9907C21.9963 10.9828 21.9687 10.9788 21.9371 10.9709C21.9174 10.9709 21.9016 10.963 21.8859 10.9591V10.967C21.8346 10.9591 21.7754 10.9512 21.7202 10.9512C21.0104 10.9512 20.4347 11.5284 20.4347 12.24C20.4347 12.9516 21.0104 13.5288 21.7202 13.5288Z" fill="black"/>
  <path d="M12.2837 10.983C12.2285 10.983 12.1733 10.9909 12.1181 10.9988V10.9909C12.1181 10.9909 12.0865 10.9988 12.0668 11.0028C12.0352 11.0067 12.0076 11.0146 11.98 11.0225C11.9327 11.0344 11.8854 11.0502 11.8381 11.066C11.8105 11.0779 11.7829 11.0858 11.7553 11.0977C11.7079 11.1214 11.6606 11.1451 11.6172 11.1728C11.5975 11.1846 11.5739 11.1965 11.5542 11.2123C11.428 11.2993 11.3175 11.41 11.2308 11.5365C11.215 11.5563 11.2071 11.58 11.1914 11.5997C11.1638 11.6432 11.1362 11.6907 11.1164 11.7381C11.1046 11.7658 11.0967 11.7895 11.0849 11.8172C11.0691 11.8646 11.0533 11.9121 11.0415 11.9595C11.0336 11.9872 11.0297 12.0188 11.0218 12.0465C11.0218 12.0663 11.0139 12.0821 11.01 12.1018H11.0178C11.01 12.1532 11.0021 12.2086 11.0021 12.2639C11.0021 12.9756 11.5778 13.5528 12.2876 13.5528C12.9974 13.5528 13.5732 12.9756 13.5732 12.2639C13.5732 11.5523 12.9974 10.9751 12.2876 10.9751L12.2837 10.983Z" fill="black"/>
  <path d="M12.2522 20.4434C11.5424 20.4434 10.9666 21.0206 10.9666 21.7322C10.9666 21.7915 10.9745 21.8469 10.9824 21.9022H10.9745C10.9745 21.9022 10.9824 21.9339 10.9863 21.9497C10.9903 21.9774 10.9982 22.009 11.006 22.0367C11.0179 22.0841 11.0337 22.1355 11.0494 22.179C11.0613 22.2067 11.0691 22.2343 11.081 22.2581C11.1046 22.3055 11.1283 22.3529 11.1559 22.3964C11.1677 22.4162 11.1796 22.4399 11.1914 22.4597C11.2348 22.5229 11.2821 22.5822 11.3373 22.6376C11.3412 22.6415 11.3491 22.6455 11.3531 22.6495C11.4043 22.6969 11.4556 22.7443 11.5147 22.7839C11.5345 22.7997 11.5581 22.8115 11.5778 22.8234C11.6212 22.8511 11.6685 22.8748 11.7159 22.8985C11.7435 22.9104 11.7711 22.9222 11.7947 22.9302C11.842 22.946 11.8894 22.9618 11.9367 22.9736C11.9643 22.9815 11.9958 22.9895 12.0234 22.9934C12.0392 22.9934 12.055 23.0013 12.0708 23.0053V22.9974C12.126 23.0053 12.1851 23.0171 12.2482 23.0171C12.958 23.0171 13.5338 22.4399 13.5338 21.7283C13.5338 21.0167 12.958 20.4395 12.2482 20.4395L12.2522 20.4434Z" fill="black"/>
  <path d="M9.0225 16.9922C9.0225 17.0633 9.03038 17.1345 9.04221 17.2057C9.04616 17.2294 9.05404 17.2531 9.05799 17.2768C9.06982 17.3282 9.08559 17.3757 9.10137 17.427C9.1132 17.4547 9.12108 17.4784 9.13686 17.5061C9.15657 17.5536 9.18023 17.597 9.20784 17.6405C9.22361 17.6643 9.23938 17.6919 9.25516 17.7157C9.26304 17.7275 9.27093 17.7433 9.28276 17.7552V17.7473C9.3222 17.7947 9.35374 17.8422 9.39712 17.8857C9.89793 18.3877 10.7103 18.3877 11.215 17.8857C11.7158 17.3836 11.7158 16.5652 11.215 16.0631C10.7142 15.561 9.89793 15.561 9.39712 16.0631C9.35374 16.1066 9.3222 16.1501 9.28671 16.1975V16.1896C9.28671 16.1896 9.26699 16.2212 9.25516 16.237C9.23938 16.2608 9.22361 16.2845 9.20784 16.3122C9.18023 16.3557 9.15657 16.3991 9.13686 16.4466C9.12503 16.4743 9.1132 16.498 9.10531 16.5257C9.08559 16.577 9.07376 16.6284 9.05799 16.6798C9.05404 16.7036 9.04616 16.7233 9.04221 16.747C9.03038 16.8222 9.01855 16.8973 9.01855 16.9763C9.01855 16.9803 9.01855 16.9882 9.01855 16.9922H9.0225Z" fill="black"/>
  <path d="M52.336 28V5.6H58.832L63.728 25.696H64.24L69.136 5.6H75.632V28H72.272V8.032H71.76L66.896 28H61.072L56.208 8.032H55.696V28H52.336ZM87.6328 28.448C86.0328 28.448 84.6354 28.1173 83.4408 27.456C82.2461 26.7733 81.3074 25.824 80.6248 24.608C79.9634 23.3707 79.6328 21.9413 79.6328 20.32V19.936C79.6328 18.2933 79.9634 16.864 80.6248 15.648C81.2861 14.4107 82.2034 13.4613 83.3768 12.8C84.5714 12.1173 85.9474 11.776 87.5048 11.776C89.0194 11.776 90.3421 12.1173 91.4728 12.8C92.6248 13.4613 93.5208 14.3893 94.1608 15.584C94.8008 16.7787 95.1208 18.176 95.1208 19.776V21.024H82.9928C83.0354 22.4107 83.4941 23.52 84.3688 24.352C85.2648 25.1627 86.3741 25.568 87.6968 25.568C88.9341 25.568 89.8621 25.2907 90.4808 24.736C91.1208 24.1813 91.6114 23.5413 91.9528 22.816L94.6728 24.224C94.3741 24.8213 93.9368 25.4507 93.3608 26.112C92.8061 26.7733 92.0701 27.328 91.1528 27.776C90.2354 28.224 89.0621 28.448 87.6328 28.448ZM83.0248 18.496H91.7608C91.6754 17.3013 91.2488 16.3733 90.4808 15.712C89.7128 15.0293 88.7101 14.688 87.4728 14.688C86.2354 14.688 85.2221 15.0293 84.4328 15.712C83.6648 16.3733 83.1954 17.3013 83.0248 18.496ZM104.415 28C103.455 28 102.687 27.712 102.111 27.136C101.556 26.56 101.279 25.792 101.279 24.832V15.008H96.9265V12.224H101.279V7.008H104.575V12.224H109.279V15.008H104.575V24.256C104.575 24.896 104.873 25.216 105.47 25.216H108.767V28H104.415ZM118.016 28.448C116.885 28.448 115.872 28.256 114.976 27.872C114.101 27.488 113.397 26.9227 112.864 26.176C112.352 25.4293 112.096 24.5227 112.096 23.456C112.096 22.368 112.352 21.472 112.864 20.768C113.397 20.0427 114.112 19.4987 115.008 19.136C115.925 18.7733 116.96 18.592 118.112 18.592H122.912V17.568C122.912 16.6507 122.634 15.9147 122.08 15.36C121.525 14.8053 120.672 14.528 119.52 14.528C118.389 14.528 117.525 14.7947 116.928 15.328C116.33 15.8613 115.936 16.5547 115.744 17.408L112.672 16.416C112.928 15.5627 113.333 14.7947 113.888 14.112C114.464 13.408 115.221 12.8427 116.16 12.416C117.098 11.9893 118.229 11.776 119.552 11.776C121.6 11.776 123.21 12.2987 124.384 13.344C125.557 14.3893 126.144 15.872 126.144 17.792V24.288C126.144 24.928 126.442 25.248 127.04 25.248H128.384V28H125.92C125.173 28 124.565 27.808 124.096 27.424C123.626 27.04 123.392 26.5173 123.392 25.856V25.76H122.912C122.741 26.08 122.485 26.4533 122.144 26.88C121.802 27.3067 121.301 27.68 120.64 28C119.978 28.2987 119.104 28.448 118.016 28.448ZM118.496 25.728C119.818 25.728 120.885 25.3547 121.696 24.608C122.506 23.84 122.912 22.7947 122.912 21.472V21.152H118.304C117.429 21.152 116.725 21.344 116.192 21.728C115.658 22.0907 115.391 22.6347 115.391 23.36C115.391 24.0853 115.669 24.6613 116.224 25.088C116.778 25.5147 117.536 25.728 118.496 25.728ZM139.649 28V5.6H148.545C149.91 5.6 151.126 5.87733 152.193 6.432C153.281 6.96533 154.123 7.73333 154.721 8.736C155.339 9.71733 155.649 10.9013 155.649 12.288V12.704C155.649 14.0907 155.329 15.2853 154.689 16.288C154.07 17.2907 153.227 18.0587 152.161 18.592C151.094 19.1253 149.889 19.392 148.545 19.392H143.105V28H139.649ZM143.105 16.256H148.193C149.409 16.256 150.379 15.936 151.105 15.296C151.83 14.656 152.193 13.7813 152.193 12.672V12.352C152.193 11.2213 151.83 10.336 151.105 9.696C150.379 9.056 149.409 8.736 148.193 8.736H143.105V16.256ZM165.98 28.448C164.402 28.448 162.994 28.128 161.756 27.488C160.54 26.8267 159.58 25.888 158.876 24.672C158.172 23.456 157.82 22.016 157.82 20.352V19.872C157.82 18.208 158.172 16.7787 158.876 15.584C159.58 14.368 160.54 13.4293 161.756 12.768C162.994 12.1067 164.402 11.776 165.98 11.776C167.559 11.776 168.967 12.1067 170.204 12.768C171.442 13.4293 172.412 14.368 173.116 15.584C173.82 16.7787 174.172 18.208 174.172 19.872V20.352C174.172 22.016 173.82 23.456 173.116 24.672C172.412 25.888 171.442 26.8267 170.204 27.488C168.967 28.128 167.559 28.448 165.98 28.448ZM165.98 25.504C167.431 25.504 168.604 25.0453 169.5 24.128C170.418 23.1893 170.876 21.8987 170.876 20.256V19.968C170.876 18.3253 170.428 17.0453 169.532 16.128C168.636 15.1893 167.452 14.72 165.98 14.72C164.551 14.72 163.378 15.1893 162.46 16.128C161.564 17.0453 161.116 18.3253 161.116 19.968V20.256C161.116 21.8987 161.564 23.1893 162.46 24.128C163.378 25.0453 164.551 25.504 165.98 25.504ZM185.668 28.448C184.089 28.448 182.681 28.128 181.444 27.488C180.228 26.8267 179.268 25.888 178.564 24.672C177.86 23.456 177.508 22.016 177.508 20.352V19.872C177.508 18.208 177.86 16.7787 178.564 15.584C179.268 14.368 180.228 13.4293 181.444 12.768C182.681 12.1067 184.089 11.776 185.668 11.776C187.246 11.776 188.654 12.1067 189.892 12.768C191.129 13.4293 192.1 14.368 192.804 15.584C193.508 16.7787 193.86 18.208 193.86 19.872V20.352C193.86 22.016 193.508 23.456 192.804 24.672C192.1 25.888 191.129 26.8267 189.892 27.488C188.654 28.128 187.246 28.448 185.668 28.448ZM185.668 25.504C187.118 25.504 188.292 25.0453 189.188 24.128C190.105 23.1893 190.564 21.8987 190.564 20.256V19.968C190.564 18.3253 190.116 17.0453 189.22 16.128C188.324 15.1893 187.14 14.72 185.668 14.72C184.238 14.72 183.065 15.1893 182.148 16.128C181.252 17.0453 180.804 18.3253 180.804 19.968V20.256C180.804 21.8987 181.252 23.1893 182.148 24.128C183.065 25.0453 184.238 25.504 185.668 25.504ZM197.963 28V5.6H201.259V28H197.963Z" fill="black"/>
  </svg>