<svg width="239" height="36" viewBox="0 0 239 36" fill="none" xmlns="http://www.w3.org/2000/svg">
<rect x="45.9872" y="0.739746" width="16.272" height="16.272" transform="rotate(45 45.9872 0.739746)" fill="black"/>
<rect x="34.4824" y="12.2461" width="16.272" height="16.272" transform="rotate(45 34.4824 12.2461)" fill="black"/>
<rect x="57.494" y="12.2461" width="16.272" height="16.272" transform="rotate(45 57.494 12.2461)" fill="black"/>
<rect x="22.9952" y="0.759277" width="16.272" height="16.272" transform="rotate(45 22.9952 0.759277)" fill="black"/>
<rect x="11.506" y="12.248" width="16.272" height="16.272" transform="rotate(45 11.506 12.248)" fill="black"/>
<path d="M87.336 29V6.6H93.832L98.728 26.696H99.24L104.136 6.6H110.632V29H107.272V9.032H106.76L101.896 29H96.072L91.208 9.032H90.696V29H87.336ZM122.633 29.448C121.033 29.448 119.635 29.1173 118.441 28.456C117.246 27.7733 116.307 26.824 115.625 25.608C114.963 24.3707 114.633 22.9413 114.633 21.32V20.936C114.633 19.2933 114.963 17.864 115.625 16.648C116.286 15.4107 117.203 14.4613 118.377 13.8C119.571 13.1173 120.947 12.776 122.505 12.776C124.019 12.776 125.342 13.1173 126.473 13.8C127.625 14.4613 128.521 15.3893 129.161 16.584C129.801 17.7787 130.121 19.176 130.121 20.776V22.024H117.993C118.035 23.4107 118.494 24.52 119.369 25.352C120.265 26.1627 121.374 26.568 122.697 26.568C123.934 26.568 124.862 26.2907 125.481 25.736C126.121 25.1813 126.611 24.5413 126.953 23.816L129.673 25.224C129.374 25.8213 128.937 26.4507 128.361 27.112C127.806 27.7733 127.07 28.328 126.153 28.776C125.235 29.224 124.062 29.448 122.633 29.448ZM118.025 19.496H126.761C126.675 18.3013 126.249 17.3733 125.481 16.712C124.713 16.0293 123.71 15.688 122.473 15.688C121.235 15.688 120.222 16.0293 119.433 16.712C118.665 17.3733 118.195 18.3013 118.025 19.496ZM139.415 29C138.455 29 137.687 28.712 137.111 28.136C136.556 27.56 136.279 26.792 136.279 25.832V16.008H131.927V13.224H136.279V8.008H139.575V13.224H144.279V16.008H139.575V25.256C139.575 25.896 139.873 26.216 140.47 26.216H143.767V29H139.415ZM153.016 29.448C151.885 29.448 150.872 29.256 149.976 28.872C149.101 28.488 148.397 27.9227 147.864 27.176C147.352 26.4293 147.096 25.5227 147.096 24.456C147.096 23.368 147.352 22.472 147.864 21.768C148.397 21.0427 149.112 20.4987 150.008 20.136C150.925 19.7733 151.96 19.592 153.112 19.592H157.912V18.568C157.912 17.6507 157.634 16.9147 157.08 16.36C156.525 15.8053 155.672 15.528 154.52 15.528C153.389 15.528 152.525 15.7947 151.928 16.328C151.33 16.8613 150.936 17.5547 150.744 18.408L147.672 17.416C147.928 16.5627 148.333 15.7947 148.888 15.112C149.464 14.408 150.221 13.8427 151.16 13.416C152.098 12.9893 153.229 12.776 154.552 12.776C156.6 12.776 158.21 13.2987 159.384 14.344C160.557 15.3893 161.144 16.872 161.144 18.792V25.288C161.144 25.928 161.442 26.248 162.04 26.248H163.384V29H160.92C160.173 29 159.565 28.808 159.096 28.424C158.626 28.04 158.392 27.5173 158.392 26.856V26.76H157.912C157.741 27.08 157.485 27.4533 157.144 27.88C156.802 28.3067 156.301 28.68 155.64 29C154.978 29.2987 154.104 29.448 153.016 29.448ZM153.496 26.728C154.818 26.728 155.885 26.3547 156.696 25.608C157.506 24.84 157.912 23.7947 157.912 22.472V22.152H153.304C152.429 22.152 151.725 22.344 151.192 22.728C150.658 23.0907 150.391 23.6347 150.391 24.36C150.391 25.0853 150.669 25.6613 151.224 26.088C151.778 26.5147 152.536 26.728 153.496 26.728ZM174.649 29V6.6H183.545C184.91 6.6 186.126 6.87733 187.193 7.432C188.281 7.96533 189.123 8.73333 189.721 9.736C190.339 10.7173 190.649 11.9013 190.649 13.288V13.704C190.649 15.0907 190.329 16.2853 189.689 17.288C189.07 18.2907 188.227 19.0587 187.161 19.592C186.094 20.1253 184.889 20.392 183.545 20.392H178.105V29H174.649ZM178.105 17.256H183.193C184.409 17.256 185.379 16.936 186.105 16.296C186.83 15.656 187.193 14.7813 187.193 13.672V13.352C187.193 12.2213 186.83 11.336 186.105 10.696C185.379 10.056 184.409 9.736 183.193 9.736H178.105V17.256ZM200.98 29.448C199.402 29.448 197.994 29.128 196.756 28.488C195.54 27.8267 194.58 26.888 193.876 25.672C193.172 24.456 192.82 23.016 192.82 21.352V20.872C192.82 19.208 193.172 17.7787 193.876 16.584C194.58 15.368 195.54 14.4293 196.756 13.768C197.994 13.1067 199.402 12.776 200.98 12.776C202.559 12.776 203.967 13.1067 205.204 13.768C206.442 14.4293 207.412 15.368 208.116 16.584C208.82 17.7787 209.172 19.208 209.172 20.872V21.352C209.172 23.016 208.82 24.456 208.116 25.672C207.412 26.888 206.442 27.8267 205.204 28.488C203.967 29.128 202.559 29.448 200.98 29.448ZM200.98 26.504C202.431 26.504 203.604 26.0453 204.5 25.128C205.418 24.1893 205.876 22.8987 205.876 21.256V20.968C205.876 19.3253 205.428 18.0453 204.532 17.128C203.636 16.1893 202.452 15.72 200.98 15.72C199.551 15.72 198.378 16.1893 197.46 17.128C196.564 18.0453 196.116 19.3253 196.116 20.968V21.256C196.116 22.8987 196.564 24.1893 197.46 25.128C198.378 26.0453 199.551 26.504 200.98 26.504ZM220.668 29.448C219.089 29.448 217.681 29.128 216.444 28.488C215.228 27.8267 214.268 26.888 213.564 25.672C212.86 24.456 212.508 23.016 212.508 21.352V20.872C212.508 19.208 212.86 17.7787 213.564 16.584C214.268 15.368 215.228 14.4293 216.444 13.768C217.681 13.1067 219.089 12.776 220.668 12.776C222.246 12.776 223.654 13.1067 224.892 13.768C226.129 14.4293 227.1 15.368 227.804 16.584C228.508 17.7787 228.86 19.208 228.86 20.872V21.352C228.86 23.016 228.508 24.456 227.804 25.672C227.1 26.888 226.129 27.8267 224.892 28.488C223.654 29.128 222.246 29.448 220.668 29.448ZM220.668 26.504C222.118 26.504 223.292 26.0453 224.188 25.128C225.105 24.1893 225.564 22.8987 225.564 21.256V20.968C225.564 19.3253 225.116 18.0453 224.22 17.128C223.324 16.1893 222.14 15.72 220.668 15.72C219.238 15.72 218.065 16.1893 217.148 17.128C216.252 18.0453 215.804 19.3253 215.804 20.968V21.256C215.804 22.8987 216.252 24.1893 217.148 25.128C218.065 26.0453 219.238 26.504 220.668 26.504ZM232.963 29V6.6H236.259V29H232.963Z" fill="black"/>
</svg>
